<svg width="324" height="65" viewBox="0 0 324 65" fill="none" xmlns="http://www.w3.org/2000/svg">
<path d="M75.629 39.334C73.641 27.6726 62.6024 19.811 50.9621 21.7764L54.3888 2.22711L41.9377 0.025856C40.8652 2.38435 36.183 13.1024 33.9072 25.1831C38.5372 28.354 41.9377 33.333 42.9578 39.3078C44.0303 45.702 42.1731 51.9127 38.3541 56.5248C39.2957 57.6779 40.3682 58.7261 41.5715 59.6695C46.4368 63.4955 52.3485 64.9892 58.1032 64.0196C69.7696 62.0542 77.617 50.9955 75.629 39.334Z" fill="#054752"/>
<path d="M33.6729 26.5199L33.9083 25.1834C29.4877 22.1698 23.9684 20.8071 18.2921 21.7505L21.7188 2.20126L9.26767 0C8.16904 2.43711 3.1729 13.8627 1.0018 26.4937C-0.724619 36.6352 -0.646146 47.5367 4.69005 55.2149C5.841 56.8659 7.22736 58.3596 8.90146 59.6698C13.7668 63.4958 19.6785 64.9895 25.4332 64.0199C30.7171 63.129 35.1901 60.3512 38.3552 56.5252C38.0151 56.1059 37.6751 55.6604 37.3612 55.2149C32.025 47.5629 31.9465 36.6614 33.6729 26.5199Z" fill="#2ED1FF"/>
<path d="M42.9587 39.3351C41.9386 33.3602 38.5381 28.3812 33.9081 25.2103L33.6727 26.5468C31.9463 36.6883 32.0248 47.5898 37.361 55.268C37.6748 55.7135 38.0149 56.159 38.3549 56.5782C42.174 51.9137 44.0574 45.703 42.9587 39.3351Z" fill="#9EF769"/>
<path d="M273.491 50.8504H267.752C267.571 50.8504 267.41 50.9714 267.35 51.1328C266.524 53.251 265.417 55.0262 263.806 56.2769C262.215 57.5277 260.141 58.2337 257.443 58.2337C253.758 58.2337 250.798 56.6199 248.764 53.9167C246.75 51.2135 245.643 47.4411 245.643 43.1241C245.643 38.7667 246.75 34.9943 248.784 32.3113C250.818 29.6283 253.778 28.0145 257.422 28.0145C260.121 28.0145 262.175 28.7205 263.786 29.9511C265.376 31.1816 266.504 32.9569 267.33 35.0347C267.39 35.1961 267.551 35.3171 267.732 35.3171H273.471C273.592 35.3171 273.693 35.2768 273.773 35.1961C273.854 35.1154 273.894 35.0145 273.894 34.8935L273.874 34.7926C273.008 30.8992 271.135 27.6917 268.357 25.4727C265.578 23.2536 261.893 21.9827 257.402 21.9827C252.147 21.9827 247.515 24.1211 244.193 27.8127C240.87 31.5246 238.857 36.7898 238.857 43.1039C238.857 49.4181 240.87 54.7034 244.193 58.3951C247.515 62.1069 252.147 64.2251 257.402 64.2251C261.873 64.2251 265.537 62.9744 268.336 60.7352C271.115 58.496 273.008 55.2884 273.874 51.3547L273.894 51.2538C273.894 51.1328 273.854 51.0319 273.773 50.9512C273.733 50.8907 273.612 50.8504 273.491 50.8504ZM323.671 33.8848C323.289 33.8041 322.705 33.7234 321.919 33.7234C321.235 33.7234 320.389 33.784 319.422 33.9655C318.577 34.1269 317.731 34.4497 316.925 34.8935C316.12 35.3373 315.335 35.9425 314.61 36.6687C314.187 37.0923 313.804 37.5765 313.442 38.1413L313.18 38.5448V34.6514C313.18 34.4093 312.979 34.2076 312.737 34.2076H307.361C307.119 34.2076 306.918 34.4093 306.918 34.6514V63.277C306.918 63.5191 307.119 63.7208 307.361 63.7208H312.858C313.1 63.7208 313.301 63.5191 313.301 63.277V49.3777C313.301 47.7639 313.482 46.3921 313.845 45.2624C314.207 44.1327 314.751 43.225 315.476 42.5592C316.201 41.8734 317.026 41.3489 317.993 41.0059C319.14 40.6025 320.369 40.4814 321.416 40.4814C322.262 40.4814 323.007 40.5621 323.51 40.6428H323.57C323.812 40.6428 323.993 40.4612 323.993 40.199V34.3286C324.034 34.1067 323.893 33.9252 323.671 33.8848ZM204.987 21.9827H204.907L199.369 22.951C199.168 22.9914 199.007 23.1729 199.007 23.3747V63.2568C199.007 63.4989 199.208 63.7006 199.45 63.7006H205.007C205.249 63.7006 205.45 63.4989 205.45 63.2568V22.4265C205.43 22.1845 205.229 21.9827 204.987 21.9827ZM193.59 45.6861C192.765 44.0117 191.657 42.5996 190.268 41.4497L189.865 41.127C189.261 40.663 188.596 40.2393 187.892 39.8964L187.73 39.8157L187.851 39.6745C188.496 38.9281 189.039 38.0808 189.462 37.1327C190.066 35.8013 190.368 34.4093 190.368 32.9569C190.368 31.3834 190.046 29.9107 189.442 28.5188C188.818 27.1269 187.972 25.9366 186.885 24.928C185.878 24 184.69 23.2738 183.341 22.7493C181.971 22.2248 180.26 21.9626 178.246 21.9626H166.064C165.822 21.9626 165.621 22.1643 165.621 22.4064V63.277C165.621 63.5191 165.822 63.7208 166.064 63.7208H181.085C183.22 63.7208 185.012 63.4787 186.462 62.9946C187.891 62.5104 189.18 61.8043 190.268 60.8764C191.657 59.7265 192.785 58.2942 193.61 56.6199C193.791 56.2568 193.953 55.8936 194.094 55.5305L194.154 55.3893C194.194 55.3086 194.214 55.2078 194.255 55.1069C194.683 53.84 194.901 52.5109 194.899 51.1731C194.859 49.1962 194.436 47.3604 193.59 45.6861ZM172.024 28.1153H177.179C178.79 28.1153 179.998 28.2565 180.763 28.539C181.549 28.8214 182.153 29.2249 182.575 29.7292C183.461 30.6975 183.904 31.8272 183.904 33.1384C183.904 34.4497 183.461 35.5592 182.575 36.5477C182.132 37.052 181.549 37.4555 180.763 37.7379C180.199 37.9396 179.374 38.0808 178.327 38.1413H172.024V28.1153ZM187.771 53.4527C187.428 54.2394 186.985 54.9455 186.422 55.5507C185.777 56.1761 184.992 56.6804 184.066 57.0435C183.139 57.3864 181.75 57.5882 179.897 57.5882H172.024V44.3143H179.897C181.75 44.3143 183.139 44.4959 184.066 44.859C185.012 45.2221 185.797 45.7264 186.422 46.3518C186.985 46.957 187.428 47.6429 187.771 48.4094C188.113 49.176 188.274 50.0031 188.274 50.9109C188.294 51.8187 188.113 52.6659 187.771 53.4527ZM231.668 36.5678C229.513 34.6312 226.574 33.6629 222.909 33.6629C219.626 33.6629 216.928 34.4699 214.834 36.0635C213.022 37.4353 211.753 39.1702 211.048 41.2278C210.968 41.4497 211.109 41.6918 211.35 41.7322L216.546 42.6399C216.727 42.6803 216.888 42.5794 216.968 42.418C218.016 40.078 220.009 38.9281 222.949 38.9281C224.922 38.9281 226.473 39.4728 227.56 40.5823C228.648 41.6918 229.211 43.1644 229.211 45.0002V46.0694C226.453 45.2423 223.855 44.8388 221.439 44.8388C218.016 44.8388 215.156 45.7062 212.881 47.4411C210.605 49.176 209.478 51.6169 209.478 54.7438C209.478 57.7294 210.505 60.0695 212.579 61.764C214.653 63.4585 217.15 64.3058 220.09 64.3058C223.855 64.326 226.916 63.2165 229.211 60.9571V63.2366C229.211 63.4989 229.433 63.7208 229.695 63.7208H234.487C234.749 63.7208 234.97 63.4989 234.97 63.2366V44.5766C234.93 41.1875 233.843 38.5045 231.668 36.5678ZM226.775 56.7812C225.164 58.1127 223.191 58.7582 220.855 58.7582C219.143 58.7582 217.814 58.3749 216.908 57.6083C216.002 56.8418 215.539 55.7928 215.539 54.4613C215.539 53.0089 216.123 51.9195 217.27 51.1933C218.418 50.4671 219.888 50.0838 221.68 50.0838C223.996 50.0838 226.493 50.4873 229.171 51.3144C229.171 53.6544 228.366 55.4498 226.775 56.7812ZM130.261 21.9827H130.181L124.643 22.951C124.442 22.9914 124.281 23.1729 124.281 23.3747V63.2568C124.281 63.4989 124.482 63.7006 124.724 63.7006H130.281C130.523 63.7006 130.724 63.4989 130.724 63.2568V22.4265C130.704 22.1845 130.503 21.9827 130.261 21.9827ZM118.864 45.6861C118.038 44.0117 116.931 42.5996 115.541 41.4497L115.139 41.127C114.535 40.663 113.87 40.2393 113.165 39.8964L113.004 39.8157L113.125 39.6745C113.769 38.9281 114.313 38.0808 114.736 37.1327C115.34 35.8013 115.642 34.4093 115.642 32.9569C115.642 31.3834 115.32 29.9107 114.716 28.5188C114.092 27.1269 113.246 25.9366 112.159 24.928C111.152 24 109.964 23.2738 108.615 22.7493C107.245 22.2248 105.534 21.9626 103.52 21.9626H91.3375C91.0959 21.9626 90.8945 22.1643 90.8945 22.4064V63.277C90.8945 63.5191 91.0959 63.7208 91.3375 63.7208H106.359C108.494 63.7208 110.286 63.4787 111.736 62.9946C113.165 62.5104 114.454 61.8043 115.541 60.8764C116.931 59.7265 118.059 58.2942 118.884 56.6199C119.065 56.2568 119.226 55.8936 119.367 55.5305L119.428 55.3893C119.468 55.3086 119.488 55.2078 119.528 55.1069C119.957 53.84 120.175 52.5109 120.173 51.1731C120.133 49.1962 119.71 47.3604 118.864 45.6861ZM97.2979 28.1153H102.453C104.064 28.1153 105.272 28.2565 106.037 28.539C106.822 28.8214 107.427 29.2249 107.849 29.7292C108.735 30.6975 109.178 31.8272 109.178 33.1384C109.178 34.4497 108.735 35.5592 107.849 36.5477C107.406 37.052 106.822 37.4555 106.037 37.7379C105.473 37.9396 104.648 38.0808 103.601 38.1413H97.2979V28.1153ZM113.045 53.4527C112.702 54.2394 112.259 54.9455 111.695 55.5507C111.051 56.1761 110.266 56.6804 109.339 57.0435C108.413 57.3864 107.024 57.5882 105.171 57.5882H97.2979V44.3143H105.171C107.024 44.3143 108.413 44.4959 109.339 44.859C110.286 45.2221 111.071 45.7264 111.695 46.3518C112.259 46.957 112.702 47.6429 113.045 48.4094C113.387 49.176 113.548 50.0031 113.548 50.9109C113.548 51.8187 113.387 52.6659 113.045 53.4527ZM156.942 36.5678C154.787 34.6312 151.847 33.6629 148.183 33.6629C144.9 33.6629 142.202 34.4699 140.108 36.0635C138.296 37.4353 137.027 39.1702 136.322 41.2278C136.242 41.4497 136.383 41.6918 136.624 41.7322L141.819 42.6399C142.001 42.6803 142.162 42.5794 142.242 42.418C143.289 40.078 145.283 38.9281 148.223 38.9281C150.196 38.9281 151.747 39.4728 152.834 40.5823C153.921 41.6918 154.485 43.1644 154.485 45.0002V46.0694C151.727 45.2423 149.129 44.8388 146.713 44.8388C143.289 44.8388 140.43 45.7062 138.155 47.4411C135.879 49.176 134.752 51.6169 134.752 54.7438C134.752 57.7294 135.779 60.0695 137.853 61.764C139.927 63.4585 142.424 64.3058 145.363 64.3058C149.129 64.326 152.19 63.2165 154.485 60.9571V63.2366C154.485 63.4989 154.707 63.7208 154.969 63.7208H159.761C160.023 63.7208 160.244 63.4989 160.244 63.2366V44.5766C160.184 41.1875 159.117 38.5045 156.942 36.5678ZM152.029 56.7812C150.418 58.1127 148.444 58.7582 146.108 58.7582C144.397 58.7582 143.068 58.3749 142.162 57.6083C141.256 56.8418 140.792 55.7928 140.792 54.4613C140.792 53.0089 141.376 51.9195 142.524 51.1933C143.672 50.4671 145.142 50.0838 146.934 50.0838C149.25 50.0838 151.747 50.4873 154.425 51.3144C154.445 53.6544 153.64 55.4498 152.029 56.7812ZM299.165 36.5678C297.011 34.6312 294.071 33.6629 290.406 33.6629C287.124 33.6629 284.425 34.4699 282.331 36.0635C280.519 37.4353 279.25 39.1702 278.546 41.2278C278.465 41.4497 278.606 41.6918 278.848 41.7322L284.043 42.6399C284.224 42.6803 284.385 42.5794 284.466 42.418C285.513 40.078 287.506 38.9281 290.446 38.9281C292.419 38.9281 293.97 39.4728 295.057 40.5823C296.145 41.6918 296.709 43.1644 296.709 45.0002V46.0694C293.95 45.2423 291.352 44.8388 288.936 44.8388C285.513 44.8388 282.653 45.7062 280.378 47.4411C278.103 49.176 276.975 51.6169 276.975 54.7438C276.975 57.7294 278.002 60.0695 280.076 61.764C282.15 63.4585 284.647 64.3058 287.587 64.3058C291.352 64.326 294.413 63.2165 296.709 60.9571V63.2366C296.709 63.4989 296.93 63.7208 297.192 63.7208H301.984C302.246 63.7208 302.468 63.4989 302.468 63.2366V44.5766C302.407 41.1875 301.32 38.5045 299.165 36.5678ZM294.252 56.7812C292.641 58.1127 290.668 58.7582 288.332 58.7582C286.62 58.7582 285.291 58.3749 284.385 57.6083C283.479 56.8418 283.016 55.7928 283.016 54.4613C283.016 53.0089 283.6 51.9195 284.748 51.1933C285.895 50.4671 287.365 50.0838 289.157 50.0838C291.473 50.0838 293.97 50.4873 296.648 51.3144C296.668 53.6544 295.863 55.4498 294.252 56.7812Z" fill="#054752"/>
</svg>
