<svg width="234" height="34" viewBox="0 0 234 34" fill="none" xmlns="http://www.w3.org/2000/svg">
<path d="M199.52 9.91046C199.226 8.64198 197.96 7.68199 196.3 7.68199C194.296 7.68199 192.663 9.0824 192.663 11.6518C192.663 14.2294 194.296 15.6217 196.3 15.6217C197.958 15.6217 199.224 14.6658 199.52 13.3932H200.492C200.145 15.096 198.554 16.4193 196.3 16.4193C193.628 16.4193 191.727 14.5582 191.727 11.6539C191.727 8.74955 193.628 6.88843 196.3 6.88843C198.552 6.88843 200.145 8.20765 200.49 9.91453H199.518L199.52 9.91046Z" fill="black"/>
<path d="M201.584 12.8493C201.584 10.7426 203.004 9.23462 205.061 9.23462C206.782 9.23462 208.419 10.3265 208.419 12.6504V13.0482H202.509C202.55 14.6577 203.578 15.6948 205.201 15.6948C206.327 15.6948 207.046 15.1792 207.35 14.5521L208.222 14.8018C207.861 15.6765 206.79 16.4335 205.199 16.4335C202.978 16.4335 201.582 14.9621 201.582 12.8493H201.584ZM207.48 12.3378C207.48 10.9963 206.484 9.9673 205.061 9.96933C203.609 9.96933 202.612 11.043 202.513 12.3399H207.478L207.48 12.3378Z" fill="black"/>
<path d="M210.777 16.2895H209.858V9.3301H210.752V10.422H210.836C211.207 9.71167 212.008 9.23877 213.171 9.23877C214.774 9.23877 215.863 10.1318 215.863 11.7798V16.2875H214.944V11.8285C214.944 10.692 214.159 9.97551 212.94 9.97551C211.72 9.97551 210.779 10.7224 210.779 11.9381V16.2875L210.777 16.2895Z" fill="black"/>
<path d="M220.834 10.0323H219.154V14.4731C219.154 15.3478 219.728 15.6056 220.353 15.6056C220.596 15.6056 220.761 15.5731 220.891 15.5426L221.087 16.2713C220.911 16.3301 220.653 16.393 220.272 16.393C219.253 16.393 218.231 15.8004 218.231 14.6618V10.0323H217.048V9.33011H218.231V7.66382H219.156V9.33011H220.836V10.0323H220.834Z" fill="black"/>
<path d="M221.848 12.8493C221.848 10.7426 223.269 9.23462 225.326 9.23462C227.046 9.23462 228.684 10.3265 228.684 12.6504V13.0482H222.774C222.814 14.6577 223.843 15.6948 225.466 15.6948C226.592 15.6948 227.31 15.1792 227.615 14.5521L228.487 14.8018C228.126 15.6765 227.055 16.4335 225.464 16.4335C223.242 16.4335 221.846 14.9621 221.846 12.8493H221.848ZM227.744 12.3378C227.744 10.9963 226.748 9.96729 225.326 9.96729C223.873 9.96729 222.877 11.0409 222.778 12.3378H227.742H227.744Z" fill="black"/>
<path d="M230.122 9.33007H231.017V10.3997H231.084C231.405 9.69743 232.257 9.22656 233.255 9.22656C233.405 9.22656 233.616 9.23468 233.74 9.24077V10.0607C233.657 10.0526 233.429 10.0161 233.188 10.0161C231.948 10.0161 231.043 10.763 231.043 11.796V16.2915H230.124V9.3321L230.122 9.33007Z" fill="black"/>
<path d="M6.35446 11.055C6.14143 11.1362 5.98115 11.26 5.87564 11.4224C5.76811 11.5868 5.71536 11.7735 5.71536 11.9825C5.71536 12.287 5.7884 12.5488 5.93448 12.77C6.08056 12.9933 6.33417 13.1901 6.69328 13.3647C7.0524 13.5392 7.5515 13.7219 8.1906 13.9086L10.6273 14.6433C12.0394 15.0878 13.2303 15.6297 14.2022 16.2731C15.174 16.9164 15.9004 17.6694 16.3792 18.532C16.858 19.3966 17.0974 20.3545 17.0974 21.4059C17.0974 22.4572 16.8113 23.3319 16.2392 24.1032C15.667 24.8744 14.8798 25.4752 13.8816 25.9075C12.8834 26.3398 11.731 26.5549 10.4264 26.5549C8.88042 26.5549 7.54339 26.3032 6.41127 25.8019C5.27915 25.3006 4.33369 24.5822 3.57489 23.6465C2.81609 22.7129 2.22366 21.5804 1.79759 20.249L6.83125 19.5488C6.99153 20.3667 7.30398 21.0385 7.77062 21.5642C8.23523 22.0898 8.87027 22.3516 9.66762 22.3516C9.90703 22.3516 10.1322 22.3232 10.3473 22.2644C10.5603 22.2055 10.747 22.1243 10.9073 22.0188C11.0676 21.9133 11.1873 21.7793 11.2664 21.6149C11.3455 21.4525 11.3861 21.2638 11.3861 21.0547C11.3861 20.799 11.3252 20.5595 11.2055 20.3363C11.0858 20.115 10.8586 19.9101 10.5258 19.7233C10.1931 19.5366 9.72038 19.3499 9.10765 19.1632L6.71154 18.4285C5.22031 17.9617 3.97458 17.4177 2.97637 16.7987C1.97816 16.1797 1.23153 15.445 0.738513 14.5905C0.245495 13.7381 0 12.7396 0 11.5949C0 10.7079 0.233321 9.89611 0.699964 9.15937C1.16661 8.42264 1.85846 7.83406 2.77754 7.38959C3.69662 6.94511 4.82062 6.72388 6.1536 6.72388C7.40542 6.72388 8.61666 6.94714 9.78936 7.38959C10.96 7.83406 11.9927 8.49977 12.8854 9.3867C13.7781 10.2757 14.3969 11.3716 14.7439 12.6807L9.82993 13.3809C9.66965 12.8674 9.47082 12.429 9.23141 12.0678C8.99201 11.7065 8.69173 11.4264 8.33262 11.2275C7.97351 11.0286 7.55353 10.9292 7.07471 10.9292C6.80893 10.9292 6.56749 10.9698 6.35649 11.0509L6.35446 11.055Z" fill="black"/>
<path d="M34.7608 26.2791H29.7677L28.2095 23.1962C28.1304 23.7563 27.9904 24.2475 27.7895 24.6676C27.5907 25.0877 27.3168 25.4388 26.9698 25.7189C26.6229 25.999 26.2171 26.2101 25.7505 26.3501C25.2838 26.4902 24.7442 26.5612 24.1314 26.5612C23.3057 26.5612 22.553 26.4435 21.8753 26.2101C21.1956 25.9767 20.591 25.6215 20.0574 25.1425C19.5238 24.6635 19.0592 24.0729 18.6595 23.3727C18.2598 22.6725 17.9129 21.8546 17.6208 20.921L13.3865 7.01229H19.3798L23.1353 19.344C23.2408 19.7175 23.3605 20.0402 23.4944 20.3081C23.6283 20.576 23.7804 20.7992 23.9529 20.9738C24.1254 21.1483 24.3181 21.2782 24.5311 21.3594C24.7442 21.4406 24.9836 21.4812 25.2494 21.4812C25.5151 21.4812 25.7424 21.4467 25.929 21.3756C26.1157 21.3046 26.2618 21.1889 26.3693 21.0245C26.4748 20.8621 26.5418 20.6511 26.5681 20.3933C26.5945 20.1355 26.5884 19.8271 26.5478 19.4658C26.5073 19.1045 26.422 18.6905 26.2881 18.2217L22.8918 7.01025H28.8851L34.7587 26.2791H34.7608Z" fill="black"/>
<path d="M37.9565 11.9138L44.5078 33.2853H38.5144L30.4841 7.00828H35.4772L37.9545 11.9138H37.9565ZM43.7287 25.928C42.8887 25.5079 42.1238 24.8767 41.432 24.0365C40.7381 23.1962 40.1071 22.1571 39.535 20.919C38.9628 19.681 38.4353 18.2562 37.9565 16.6447C37.4493 15.0332 37.1368 13.6085 37.0171 12.3704C36.8974 11.1324 36.9563 10.0932 37.1977 9.25299C37.4371 8.41274 37.8571 7.78154 38.4556 7.36142C39.0541 6.9413 39.8332 6.73022 40.7929 6.73022C41.9635 6.73022 43.0571 7.04075 44.0695 7.65774C45.0819 8.27677 45.9929 9.10687 46.8065 10.146C47.618 11.1852 48.3038 12.342 48.8638 13.6146C49.4237 14.8871 49.8559 16.1901 50.1623 17.5215C50.4686 18.8529 50.6208 20.1133 50.6208 21.3046C50.6208 21.9115 50.5599 22.4838 50.4402 23.0217C50.3205 23.5595 50.1541 24.0446 49.9411 24.4748C49.7281 24.9071 49.4542 25.2806 49.1214 25.5952C48.7887 25.9098 48.4032 26.1492 47.963 26.3136C47.5227 26.476 47.0378 26.5592 46.5042 26.5592C45.4918 26.5592 44.5666 26.3482 43.7266 25.928H43.7287ZM43.5096 21.9338C43.6435 21.8871 43.7632 21.812 43.8687 21.7065C43.9742 21.601 44.0614 21.4731 44.1284 21.3209C44.1953 21.1687 44.242 20.9941 44.2684 20.7952C44.2947 20.5963 44.3089 20.3812 44.3089 20.1478C44.3089 19.5633 44.2217 18.8935 44.0492 18.1324C43.8748 17.3733 43.6435 16.6082 43.3493 15.8369C43.0551 15.0657 42.7163 14.3472 42.3308 13.6815C41.9453 13.0158 41.5375 12.478 41.1114 12.07C40.6853 11.6621 40.2451 11.4571 39.7926 11.4571C39.3138 11.4571 38.9791 11.6317 38.7944 11.9828C38.6078 12.3339 38.5672 12.888 38.6747 13.647C38.7802 14.4061 39.0196 15.4047 39.3929 16.6427C39.6851 17.6007 39.9732 18.4186 40.2512 19.0944C40.5312 19.7723 40.8172 20.3264 41.1094 20.7587C41.4015 21.191 41.7079 21.5056 42.0285 21.7045C42.349 21.9034 42.6939 22.0028 43.0673 22.0028C43.2275 22.0028 43.3736 21.9805 43.5075 21.9318L43.5096 21.9338Z" fill="black"/>
<path d="M56.6931 25.6477C55.4149 25.0408 54.3153 24.2412 53.3962 23.2467C52.4771 22.2542 51.7305 21.14 51.1583 19.8999C50.5862 18.6619 50.1662 17.4116 49.9004 16.1513C49.6346 14.8909 49.5007 13.6995 49.5007 12.5772C49.5007 11.8303 49.5941 11.1524 49.7807 10.5456C49.9674 9.93874 50.2392 9.39481 50.6004 8.91583C50.9595 8.43685 51.3998 8.03499 51.9192 7.7062C52.4386 7.37944 53.0432 7.13386 53.737 6.96946C54.4289 6.80709 55.2019 6.72388 56.054 6.72388C57.7319 6.72388 59.2292 7.07501 60.548 7.77521C61.8668 8.47542 62.9847 9.38669 63.9038 10.509C64.8229 11.6294 65.5289 12.8329 66.0219 14.1176C66.5149 15.4024 66.7604 16.6282 66.7604 17.7973V18.1119H54.4553L53.3374 14.5033H61.4874L60.1301 16.2893C60.1828 16.1026 60.2153 15.9443 60.2295 15.8164C60.2416 15.6885 60.2498 15.5546 60.2498 15.4125C60.2498 14.8524 60.1706 14.2983 60.0103 13.7483C59.8501 13.2003 59.6249 12.6969 59.3307 12.2423C59.0365 11.7877 58.6916 11.4244 58.2919 11.1565C57.8922 10.8886 57.4519 10.7546 56.9731 10.7546C56.7865 10.7546 56.6201 10.779 56.474 10.8236C56.3279 10.8703 56.194 10.9353 56.0743 11.0164C55.9546 11.0976 55.8471 11.2093 55.7538 11.3493C55.6604 11.4893 55.5935 11.6537 55.5549 11.8405C55.5143 12.0272 55.4961 12.2504 55.4961 12.5062C55.4961 13.184 55.5691 13.9654 55.7152 14.8544C55.8613 15.7433 56.0804 16.6303 56.3746 17.5172C56.6667 18.4062 57.0198 19.2281 57.4337 19.9872C57.8455 20.7463 58.3183 21.3592 58.8519 21.826C59.3834 22.2928 59.984 22.5262 60.6494 22.5262C61.1019 22.5262 61.4549 22.4207 61.7085 22.2116C61.9621 22.0005 62.1346 21.6799 62.2279 21.2476C62.3212 20.8153 62.3273 20.249 62.2482 19.5488L67.5213 20.18C67.7079 21.4647 67.5821 22.579 67.1419 23.5268C66.7016 24.4726 65.9773 25.2154 64.9649 25.7512C63.9525 26.289 62.6743 26.5569 61.1303 26.5569C59.4524 26.5569 57.9733 26.2545 56.6951 25.6457L56.6931 25.6477Z" fill="black"/>
<path d="M64.6422 7.00819H69.6352L72.1125 11.9137L76.5071 26.2791H70.5138L64.6401 7.01022L64.6422 7.00819ZM77.2273 13.1396C76.9879 13.0929 76.7404 13.0523 76.4888 13.0178C76.2352 12.9833 76.0019 12.965 75.7888 12.965C75.3628 12.965 74.9895 13.0239 74.6709 13.1396C74.3504 13.2573 74.0907 13.4379 73.8918 13.6835C73.693 13.9291 73.5591 14.2335 73.4922 14.5948C73.4252 14.9581 73.4191 15.3782 73.4719 15.8551C73.5246 16.3341 73.6321 16.8659 73.7924 17.4483L71.6743 16.1169C71.3537 14.6922 71.1873 13.4014 71.1752 12.2445C71.161 11.0876 71.2888 10.1013 71.5546 9.28335C71.8204 8.46543 72.2261 7.83626 72.7739 7.39178C73.3197 6.9473 73.9933 6.72607 74.7906 6.72607C74.9245 6.72607 75.0503 6.73217 75.17 6.74435C75.2897 6.75652 75.377 6.77479 75.4297 6.79712L77.2273 13.1396Z" fill="black"/>
<path d="M73.7112 0.00201917H79.7045L82.7012 9.77648C82.8614 9.0986 83.1333 8.53235 83.5208 8.07773C83.9063 7.6231 84.3851 7.28416 84.9593 7.0609C85.5315 6.83968 86.1908 6.72805 86.9375 6.72805C87.9499 6.72805 88.8751 6.94522 89.715 7.37549C90.555 7.80779 91.2793 8.43899 91.892 9.26706C92.5047 10.0972 92.9977 11.1302 93.371 12.3683L97.6053 26.277H91.612L87.7368 13.5941C87.6029 13.174 87.4427 12.829 87.258 12.5611C87.0714 12.2932 86.8441 12.1004 86.5784 11.9826C86.3126 11.867 86.0184 11.8081 85.6998 11.8081C85.3529 11.8081 85.0547 11.873 84.801 12.0009C84.5474 12.1288 84.3547 12.3338 84.2228 12.6138C84.0889 12.8939 84.0423 13.2795 84.0828 13.7707C84.1234 14.2619 84.2492 14.8565 84.4622 15.5567L87.7389 26.277H81.7456L73.7152 0L73.7112 0.00201917Z" fill="black"/>
<path d="M114.461 26.2791H109.468L107.91 23.1962C107.831 23.7563 107.691 24.2475 107.49 24.6676C107.291 25.0877 107.017 25.4388 106.671 25.7189C106.324 25.999 105.918 26.2101 105.451 26.3501C104.985 26.4902 104.445 26.5612 103.834 26.5612C103.008 26.5612 102.256 26.4435 101.576 26.2101C100.896 25.9767 100.292 25.6215 99.7581 25.1425C99.2245 24.6635 98.7599 24.0729 98.3602 23.3727C97.9605 22.6725 97.6136 21.8546 97.3214 20.921L93.0872 7.01229H99.0805L102.836 19.344C102.941 19.7175 103.061 20.0402 103.195 20.3081C103.329 20.576 103.481 20.7992 103.654 20.9738C103.826 21.1483 104.019 21.2782 104.232 21.3594C104.445 21.4406 104.684 21.4812 104.95 21.4812C105.216 21.4812 105.443 21.4467 105.63 21.3756C105.816 21.3046 105.962 21.1889 106.07 21.0245C106.175 20.8621 106.242 20.6511 106.269 20.3933C106.295 20.1355 106.289 19.8271 106.249 19.4658C106.208 19.1045 106.123 18.6905 105.989 18.2217L102.592 7.01025H108.586L114.459 26.2791H114.461Z" fill="black"/>
<path d="M110.186 7.00802H115.18L116.817 10.2655C116.977 9.47193 117.249 8.81841 117.636 8.3029C118.022 7.78941 118.509 7.3977 119.095 7.12979C119.682 6.86189 120.347 6.72591 121.094 6.72591C121.84 6.72591 122.573 6.85378 123.212 7.11153C123.851 7.36929 124.437 7.74274 124.969 8.23187C125.5 8.72302 125.981 9.34204 126.407 10.0889C126.541 9.52876 126.728 9.0376 126.967 8.61748C127.207 8.19736 127.513 7.84624 127.886 7.56616C128.26 7.28608 128.672 7.075 129.124 6.93496C129.576 6.79492 130.084 6.72388 130.642 6.72388C131.36 6.72388 132.04 6.84566 132.679 7.09124C133.318 7.33682 133.904 7.69808 134.436 8.17706C134.967 8.65604 135.44 9.24665 135.854 9.94685C136.266 10.6471 136.619 11.4528 136.913 12.3641L141.147 26.2728H135.154L131.398 13.9411C131.238 13.4276 131.051 13.0136 130.838 12.6969C130.625 12.3824 130.392 12.153 130.138 12.013C129.885 11.8729 129.585 11.8019 129.24 11.8019C128.895 11.8019 128.607 11.8668 128.381 11.9947C128.154 12.1226 128.002 12.3276 127.923 12.6076C127.844 12.8877 127.823 13.2388 127.862 13.659C127.903 14.0791 128.014 14.5926 128.201 15.2014L131.597 26.2728H125.604L121.848 13.9411C121.688 13.4276 121.502 13.0136 121.288 12.6969C121.075 12.3824 120.836 12.153 120.57 12.013C120.304 11.8729 120.01 11.8019 119.692 11.8019C119.345 11.8019 119.059 11.8668 118.834 11.9947C118.606 12.1226 118.454 12.3276 118.375 12.6076C118.296 12.8877 118.276 13.2388 118.314 13.659C118.355 14.0791 118.466 14.5926 118.653 15.2014L122.049 26.2728H116.056L110.182 7.00396L110.186 7.00802Z" fill="black"/>
<path d="M138.232 10.4767C138.365 9.6365 138.678 8.93426 139.171 8.37409C139.664 7.81393 140.335 7.39989 141.188 7.12996C142.04 6.86205 143.079 6.72607 144.304 6.72607C145.529 6.72607 146.682 6.85394 147.68 7.1117C148.678 7.36946 149.565 7.75913 150.336 8.28479C151.109 8.81045 151.768 9.47006 152.314 10.2636C152.86 11.0572 153.292 11.9807 153.612 13.032L156.25 21.6861C156.303 21.8505 156.37 21.9784 156.449 22.0717C156.528 22.1651 156.629 22.2422 156.749 22.2991C156.869 22.3579 156.995 22.3863 157.129 22.3863H157.348C157.441 22.3863 157.54 22.3741 157.648 22.3518L158.727 26.1349C158.248 26.275 157.782 26.3805 157.329 26.4495C156.877 26.5185 156.384 26.5551 155.85 26.5551C154.917 26.5551 154.112 26.415 153.434 26.1349C152.756 25.8549 152.182 25.4043 151.715 24.7853C151.249 24.1663 150.869 23.3544 150.577 22.3498L148.979 17.1297L148.658 16.0439L147.818 13.3121C147.684 12.8453 147.532 12.4536 147.359 12.139C147.187 11.8244 146.992 11.5605 146.781 11.3515C146.568 11.1404 146.329 10.9902 146.063 10.8969C145.797 10.8035 145.503 10.7568 145.185 10.7568C144.706 10.7568 144.347 10.8684 144.105 11.0897C143.866 11.3129 143.738 11.662 143.726 12.141C143.712 12.62 143.799 13.2329 143.985 13.9798L138.313 13.4541C138.126 12.3095 138.1 11.317 138.234 10.4767H138.232ZM149.936 17.7995L147.619 18.3251C147.219 18.4185 146.901 18.5423 146.66 18.6925C146.42 18.8447 146.24 19.0314 146.12 19.2526C146 19.4759 145.939 19.7255 145.939 20.0056C145.939 20.4724 146.024 20.8824 146.199 21.2315C146.371 21.5826 146.619 21.8566 146.937 22.0555C147.258 22.2544 147.656 22.3538 148.137 22.3538C148.429 22.3538 148.688 22.3133 148.916 22.2321C149.141 22.1509 149.321 22.0169 149.455 21.8282C149.589 21.6415 149.689 21.4081 149.756 21.128C149.823 20.8479 149.835 20.515 149.796 20.1294C149.756 19.7438 149.656 19.3054 149.496 18.8163L151.133 18.8508C151.346 19.8554 151.433 20.7606 151.393 21.5664C151.352 22.3721 151.212 23.0845 150.973 23.7035C150.734 24.3225 150.401 24.8482 149.975 25.2805C149.549 25.7128 149.05 26.0335 148.477 26.2446C147.905 26.4556 147.258 26.5591 146.54 26.5591C145.075 26.5591 143.856 26.2506 142.884 25.6316C141.912 25.0126 141.186 24.2129 140.707 23.2306C140.228 22.2503 139.989 21.2112 139.989 20.1132C139.989 19.1796 140.214 18.3738 140.668 17.696C141.121 17.0181 141.774 16.4457 142.626 15.9789C143.478 15.5121 144.517 15.1265 145.742 14.8221L148.818 14.0874L149.936 17.8015V17.7995Z" fill="black"/>
<path d="M153.292 7.00819H158.285L160.004 10.3712C160.137 9.55328 160.389 8.87743 160.762 8.33959C161.136 7.80175 161.627 7.39989 162.241 7.12996C162.854 6.86205 163.56 6.72607 164.36 6.72607C165.372 6.72607 166.297 6.94324 167.137 7.37351C167.977 7.80581 168.701 8.43701 169.314 9.26508C169.927 10.0952 170.42 11.1282 170.793 12.3663L175.027 26.275H169.034L165.159 13.5921C165.025 13.172 164.865 12.827 164.68 12.5591C164.493 12.2912 164.274 12.0984 164.021 11.9807C163.767 11.865 163.455 11.8061 163.081 11.8061C162.761 11.8061 162.475 11.8711 162.223 11.9989C161.97 12.1268 161.783 12.3318 161.663 12.6119C161.543 12.8919 161.497 13.2776 161.523 13.7687C161.55 14.2599 161.669 14.8545 161.882 15.5547L165.159 26.275H159.166L153.292 7.00616V7.00819Z" fill="black"/>
<path d="M178.022 11.055C177.809 11.1362 177.649 11.26 177.543 11.4224C177.436 11.5868 177.383 11.7735 177.383 11.9825C177.383 12.287 177.456 12.5488 177.602 12.77C177.748 12.9933 178.002 13.1901 178.361 13.3647C178.72 13.5392 179.219 13.7219 179.858 13.9086L182.295 14.6433C183.707 15.0878 184.898 15.6297 185.87 16.2731C186.842 16.9164 187.568 17.6694 188.047 18.532C188.526 19.3966 188.765 20.3545 188.765 21.4059C188.765 22.4572 188.479 23.3319 187.907 24.1032C187.335 24.8744 186.548 25.4752 185.549 25.9075C184.551 26.3398 183.399 26.5549 182.094 26.5549C180.548 26.5549 179.211 26.3032 178.079 25.8019C176.947 25.3006 176.001 24.5822 175.243 23.6465C174.484 22.7129 173.891 21.5804 173.465 20.249L178.499 19.5488C178.659 20.3667 178.972 21.0385 179.438 21.5642C179.903 22.0898 180.538 22.3516 181.335 22.3516C181.575 22.3516 181.8 22.3232 182.015 22.2644C182.228 22.2055 182.415 22.1243 182.575 22.0188C182.735 21.9133 182.855 21.7793 182.934 21.6149C183.013 21.4525 183.054 21.2638 183.054 21.0547C183.054 20.799 182.993 20.5595 182.873 20.3363C182.754 20.115 182.526 19.9101 182.194 19.7233C181.861 19.5366 181.388 19.3499 180.775 19.1632L178.379 18.4285C176.888 17.9617 175.642 17.4177 174.644 16.7987C173.646 16.1797 172.899 15.445 172.406 14.5905C171.913 13.7381 171.668 12.7396 171.668 11.5949C171.668 10.7079 171.901 9.89611 172.368 9.15937C172.834 8.42264 173.526 7.83406 174.445 7.38959C175.364 6.94511 176.488 6.72388 177.821 6.72388C179.073 6.72388 180.284 6.94714 181.457 7.38959C182.628 7.83406 183.66 8.49977 184.553 9.3867C185.446 10.2757 186.065 11.3716 186.412 12.6807L181.498 13.3809C181.337 12.8674 181.139 12.429 180.899 12.0678C180.66 11.7065 180.359 11.4264 180 11.2275C179.641 11.0286 179.221 10.9292 178.742 10.9292C178.477 10.9292 178.235 10.9698 178.024 11.0509L178.022 11.055Z" fill="black"/>
</svg>
