<svg width="28" height="23" viewBox="0 0 28 23" fill="none" xmlns="http://www.w3.org/2000/svg">
<path d="M27.4612 2.95145C26.4674 3.40524 25.3961 3.70344 24.2862 3.84606C25.422 3.1589 26.2996 2.06981 26.7126 0.760322C25.6414 1.40858 24.454 1.86237 23.2021 2.12167C22.1825 1.00666 20.7498 0.358398 19.1236 0.358398C16.0906 0.358398 13.6126 2.84773 13.6126 5.9205C13.6126 6.36132 13.6642 6.78917 13.7546 7.19109C9.15991 6.95772 5.06858 4.74066 2.34533 1.38265C1.8678 2.19947 1.59676 3.1589 1.59676 4.17019C1.59676 6.10201 2.56474 7.81343 4.06188 8.78582C3.14553 8.78582 2.29371 8.52652 1.54514 8.13756V8.17645C1.54514 10.8732 3.45528 13.1292 5.98493 13.6348C5.17277 13.8581 4.32013 13.8892 3.494 13.7256C3.84455 14.8308 4.53108 15.798 5.45708 16.491C6.38309 17.184 7.50201 17.5681 8.65656 17.5892C6.69947 19.1456 4.27354 19.9869 1.77745 19.9748C1.33863 19.9748 0.899816 19.9489 0.460999 19.8971C2.91321 21.4788 5.83006 22.3993 8.9534 22.3993C19.1236 22.3993 24.7121 13.9201 24.7121 6.56876C24.7121 6.32242 24.7121 6.08905 24.6992 5.84271C25.7833 5.06479 26.7126 4.07943 27.4612 2.95145Z" fill="black"/>
</svg>
