<svg width="76" height="47" viewBox="0 0 76 47" fill="none" xmlns="http://www.w3.org/2000/svg">
<g clip-path="url(#clip0_187_1529)">
<path d="M48.2755 4.96484H27.7241V41.4942H48.2755V4.96484Z" fill="#EB5E14"/>
<path d="M29.0281 23.2296C29.0281 15.8204 32.5351 9.21995 38 4.96494C34.0069 1.85567 28.9645 0 23.486 0C10.5164 0 0 10.4017 0 23.2296C0 36.0576 10.5164 46.4592 23.486 46.4592C28.9645 46.4592 34.0069 44.6035 38 41.4943C32.5396 37.2393 29.0281 30.6388 29.0281 23.2296Z" fill="#E0141C"/>
<path d="M73.7605 37.6258V36.8799H74.0649V36.7271H73.2881V36.8799H73.5924V37.6258H73.7605ZM75.2687 37.6258V36.7227H75.0325L74.7599 37.3427L74.4874 36.7227H74.2511V37.6258H74.4192V36.9473L74.6782 37.5359H74.8508L75.1097 36.9473V37.6303H75.2687V37.6258Z" fill="#F59E0B"/>
<path d="M76 23.2296C76 36.0576 65.4836 46.4592 52.514 46.4592C47.0355 46.4592 41.9931 44.6035 38 41.4943C43.4649 37.2393 46.9719 30.6388 46.9719 23.2296C46.9719 15.8204 43.4649 9.21995 38 4.96494C41.9931 1.85567 47.0355 0 52.514 0C65.4836 0 76 10.4017 76 23.2296Z" fill="#F59E0B"/>
</g>
<defs>
<clipPath id="clip0_187_1529">
<rect width="76" height="47" fill="white"/>
</clipPath>
</defs>
</svg>
