<svg width="43" height="36" viewBox="0 0 43 36" fill="none" xmlns="http://www.w3.org/2000/svg">
<path d="M0.171953 13.9801C1.28486 20.5083 7.46441 24.9094 13.9808 23.8091L12.0625 34.753L19.0328 35.9853C19.6332 34.665 22.2543 28.6649 23.5283 21.902C20.9364 20.1269 19.0328 17.3396 18.4617 13.9948C17.8613 10.4152 18.901 6.93841 21.0389 4.35647C20.5118 3.71098 19.9114 3.12417 19.2378 2.59605C16.5141 0.454205 13.2047 -0.381996 9.98309 0.160801C3.4521 1.26106 -0.940952 7.45187 0.171953 13.9801Z" fill="white"/>
<path d="M23.6602 21.1538L23.5284 21.902C26.0032 23.589 29.0929 24.3519 32.2706 23.8238L30.3523 34.7677L37.3226 36C37.9376 34.6357 40.7345 28.2395 41.9499 21.1685C42.9164 15.4911 42.8725 9.38834 39.8852 5.08998C39.2409 4.16576 38.4648 3.32956 37.5276 2.59605C34.8039 0.454212 31.4945 -0.381989 28.2729 0.160809C25.3149 0.659595 22.8109 2.21463 21.039 4.35647C21.2294 4.5912 21.4198 4.84059 21.5955 5.08998C24.5827 9.37367 24.6267 15.4765 23.6602 21.1538Z" stroke="white" fill="white"/>
<path d="M18.4617 13.9801C19.0328 17.3249 20.9364 20.1122 23.5283 21.8873L23.6601 21.1391C24.6266 15.4618 24.5827 9.35899 21.5954 5.06063C21.4197 4.81124 21.2293 4.56185 21.0389 4.32712C18.901 6.93841 17.8467 10.4152 18.4617 13.9801Z" stroke="white" fill="white"/>
</svg>
