<svg width="28" height="28" viewBox="0 0 28 28" fill="none" xmlns="http://www.w3.org/2000/svg">
<path d="M25.9833 0.603516H1.14312C0.545738 0.603516 0.0631104 1.08614 0.0631104 1.68352V26.5237C0.0631104 27.1211 0.545738 27.6037 1.14312 27.6037H25.9833C26.5806 27.6037 27.0633 27.1211 27.0633 26.5237V1.68352C27.0633 1.08614 26.5806 0.603516 25.9833 0.603516ZM24.9033 25.4437H18.6898V17.1479H22.1999L22.7264 13.0742H18.6898V10.4721C18.6898 9.29082 19.0172 8.48756 20.7081 8.48756H22.8647V4.84254C22.4901 4.79192 21.211 4.68054 19.7192 4.68054C16.6075 4.68054 14.4778 6.58068 14.4778 10.0671V13.0708H10.9611V17.1445H14.4812V25.4437H2.22312V2.76353H24.9033V25.4437Z" fill="black"/>
</svg>
