<svg width="169" height="50" viewBox="0 0 169 50" fill="none" xmlns="http://www.w3.org/2000/svg">
<path d="M162.741 0H6.25926C2.80237 0 0 2.79822 0 6.25V43.75C0 47.2018 2.80237 50 6.25926 50H162.741C166.198 50 169 47.2018 169 43.75V6.25C169 2.79822 166.198 0 162.741 0Z" fill="black"/>
<path d="M162.741 1C165.645 1 167.999 3.35 167.999 6.25V43.75C167.999 46.65 165.645 49 162.741 49H6.25926C3.35496 49 1.00148 46.65 1.00148 43.75V6.25C1.00148 3.35 3.35496 1 6.25926 1H162.741ZM162.741 0H6.25926C2.81667 0 0 2.8125 0 6.25V43.75C0 47.1875 2.81667 50 6.25926 50H162.741C166.183 50 169 47.1875 169 43.75V6.25C169 2.8125 166.183 0 162.741 0Z" fill="#A6A6A6"/>
<path d="M59.3626 12.8C59.3626 13.85 59.0496 14.6875 58.4237 15.3C57.7227 16.0375 56.8088 16.4125 55.6696 16.4125C54.5304 16.4125 53.6541 16.0375 52.903 15.2875C52.1519 14.5375 51.7764 13.6 51.7764 12.5C51.7764 11.4 52.1519 10.4625 52.903 9.71245C53.6541 8.96245 54.5805 8.57495 55.6696 8.57495C56.2204 8.57495 56.7462 8.67495 57.2344 8.86245C57.7227 9.06245 58.1233 9.33745 58.4362 9.68745L57.7477 10.375C57.5224 10.1 57.2219 9.87495 56.8464 9.72495C56.4833 9.56245 56.0827 9.48745 55.6696 9.48745C54.8559 9.48745 54.1549 9.77495 53.5916 10.3375C53.0282 10.9125 52.7528 11.625 52.7528 12.4875C52.7528 13.35 53.0282 14.0625 53.5916 14.6375C54.1549 15.2 54.8434 15.4875 55.6696 15.4875C56.4207 15.4875 57.0341 15.275 57.5349 14.8625C58.0356 14.45 58.3236 13.8625 58.3987 13.1375H55.6696V12.2375H59.3125C59.3501 12.4375 59.3626 12.625 59.3626 12.8Z" fill="white" stroke="white" stroke-width="0.2" stroke-miterlimit="10"/>
<path d="M65.1334 8.75V9.675H61.7159V12.05H64.7954V12.95H61.7159V15.325H65.1334V16.25H60.752V8.75H65.1334Z" fill="white" stroke="white" stroke-width="0.2" stroke-miterlimit="10"/>
<path d="M69.2018 9.675V16.25H68.2379V9.675H66.1348V8.75H71.2924V9.675H69.1893H69.2018Z" fill="white" stroke="white" stroke-width="0.2" stroke-miterlimit="10"/>
<path d="M76.0001 16.25H75.0361V8.75H76.0001V16.25Z" fill="white" stroke="white" stroke-width="0.2" stroke-miterlimit="10"/>
<path d="M80.2809 9.675V16.25H79.317V9.675H77.2139V8.75H82.3715V9.675H80.2684H80.2809Z" fill="white" stroke="white" stroke-width="0.2" stroke-miterlimit="10"/>
<path d="M93.2501 12.5C93.2501 13.6125 92.8746 14.5375 92.136 15.2875C91.3849 16.0375 90.471 16.4125 89.3819 16.4125C88.2928 16.4125 87.3789 16.0375 86.6278 15.2875C85.8892 14.5375 85.5137 13.6125 85.5137 12.5C85.5137 11.3875 85.8892 10.4625 86.6278 9.71245C87.3664 8.96245 88.2803 8.57495 89.3819 8.57495C90.4835 8.57495 91.3849 8.94995 92.136 9.71245C92.8746 10.4625 93.2501 11.3875 93.2501 12.4875V12.5ZM86.5152 12.5C86.5152 13.3625 86.7906 14.0875 87.3289 14.65C87.8797 15.2125 88.5682 15.5 89.3819 15.5C90.1956 15.5 90.8841 15.2125 91.4224 14.65C91.9732 14.0875 92.2486 13.375 92.2486 12.5C92.2486 11.625 91.9732 10.9125 91.4224 10.35C90.8716 9.78745 90.1956 9.49995 89.3819 9.49995C88.5682 9.49995 87.8797 9.78745 87.3289 10.35C86.778 10.9125 86.5152 11.6375 86.5152 12.5Z" fill="white" stroke="white" stroke-width="0.2" stroke-miterlimit="10"/>
<path d="M95.5665 16.25H94.6025V8.75H95.7793L99.4347 14.5875H99.4722L99.4347 13.1375V8.75H100.399V16.25H99.3971L95.579 10.1375H95.5414L95.579 11.5875V16.2625L95.5665 16.25Z" fill="white" stroke="white" stroke-width="0.2" stroke-miterlimit="10"/>
<path d="M85.3013 27.1875C82.3595 27.1875 79.9559 29.425 79.9559 32.5C79.9559 35.575 82.3595 37.8125 85.3013 37.8125C88.2432 37.8125 90.6467 35.5625 90.6467 32.5C90.6467 29.4375 88.2432 27.1875 85.3013 27.1875ZM85.3013 35.725C83.6864 35.725 82.2969 34.4 82.2969 32.5C82.2969 30.6 83.6864 29.275 85.3013 29.275C86.9162 29.275 88.3058 30.5875 88.3058 32.5C88.3058 34.4125 86.9162 35.725 85.3013 35.725ZM73.6466 27.1875C70.7047 27.1875 68.3012 29.425 68.3012 32.5C68.3012 35.575 70.7047 37.8125 73.6466 37.8125C76.5885 37.8125 78.992 35.5625 78.992 32.5C78.992 29.4375 76.5885 27.1875 73.6466 27.1875ZM73.6466 35.725C72.0317 35.725 70.6422 34.4 70.6422 32.5C70.6422 30.6 72.0317 29.275 73.6466 29.275C75.2615 29.275 76.651 30.5875 76.651 32.5C76.651 34.4125 75.2615 35.725 73.6466 35.725ZM59.7761 28.8125V31.0625H65.1841C65.0213 32.325 64.5957 33.2625 63.9573 33.9C63.1686 34.6875 61.9418 35.55 59.7886 35.55C56.4587 35.55 53.8548 32.875 53.8548 29.55C53.8548 26.225 56.4587 23.55 59.7886 23.55C61.5787 23.55 62.8932 24.25 63.8571 25.1625L65.447 23.575C64.095 22.2875 62.3048 21.3 59.7761 21.3C55.2193 21.3 51.3887 25 51.3887 29.5625C51.3887 34.125 55.2193 37.825 59.7761 37.825C62.2422 37.825 64.095 37.025 65.5471 35.5125C67.0368 34.025 67.5 31.925 67.5 30.2375C67.5 29.7125 67.4624 29.225 67.3748 28.825H59.7761V28.8125ZM116.497 30.5625C116.059 29.375 114.707 27.175 111.941 27.175C109.174 27.175 106.921 29.325 106.921 32.4875C106.921 35.4625 109.174 37.8 112.204 37.8C114.645 37.8 116.059 36.3125 116.635 35.45L114.82 34.2375C114.219 35.125 113.393 35.7125 112.204 35.7125C111.014 35.7125 110.163 35.175 109.625 34.1L116.748 31.1625L116.51 30.5625H116.497ZM109.237 32.3375C109.174 30.2875 110.827 29.2375 112.016 29.2375C112.942 29.2375 113.731 29.7 113.994 30.3625L109.237 32.3375ZM103.453 37.4875H105.794V21.8625H103.453V37.4875ZM99.6225 28.3625H99.5474C99.0216 27.7375 98.0202 27.175 96.7433 27.175C94.0768 27.175 91.6357 29.5125 91.6357 32.5125C91.6357 35.5125 94.0768 37.8125 96.7433 37.8125C98.0076 37.8125 99.0216 37.25 99.5474 36.6H99.6225V37.3625C99.6225 39.4 98.5334 40.4875 96.7808 40.4875C95.3537 40.4875 94.4649 39.4625 94.1019 38.6L92.0613 39.45C92.6497 40.8625 94.202 42.5875 96.7808 42.5875C99.5224 42.5875 101.838 40.975 101.838 37.05V27.5H99.6225V28.3625ZM96.9436 35.7125C95.3287 35.7125 93.9767 34.3625 93.9767 32.5125C93.9767 30.6625 95.3287 29.275 96.9436 29.275C98.5585 29.275 99.7853 30.65 99.7853 32.5125C99.7853 34.375 98.5334 35.7125 96.9436 35.7125ZM127.464 21.8625H121.868V37.4875H124.209V31.5625H127.476C130.068 31.5625 132.609 29.6875 132.609 26.7125C132.609 23.7375 130.068 21.8625 127.476 21.8625H127.464ZM127.526 29.4H124.209V24.0375H127.526C129.279 24.0375 130.268 25.4875 130.268 26.7125C130.268 27.9375 129.279 29.3875 127.526 29.3875V29.4ZM141.96 27.15C140.27 27.15 138.518 27.9 137.791 29.5375L139.87 30.4C140.308 29.5375 141.134 29.25 141.998 29.25C143.199 29.25 144.439 29.975 144.451 31.2625V31.425C144.026 31.1875 143.124 30.825 142.01 30.825C139.769 30.825 137.504 32.05 137.504 34.3375C137.504 36.425 139.331 37.775 141.384 37.775C142.949 37.775 143.825 37.075 144.364 36.25H144.439V37.45H146.692V31.4625C146.692 28.6875 144.614 27.1375 141.935 27.1375L141.96 27.15ZM141.672 35.7125C140.909 35.7125 139.845 35.325 139.845 34.3875C139.845 33.1875 141.171 32.725 142.323 32.725C143.35 32.725 143.838 32.95 144.451 33.25C144.276 34.7 143.024 35.725 141.672 35.725V35.7125ZM154.917 27.4875L152.238 34.2625H152.163L149.384 27.4875H146.867L151.036 36.9625L148.658 42.225H151.099L157.521 27.4875H154.929H154.917ZM133.873 37.4875H136.214V21.8625H133.873V37.4875Z" fill="white"/>
<path d="M25.9387 24.2751L12.6064 38.4001C13.0196 39.9376 14.4216 41.0626 16.0866 41.0626C16.7501 41.0626 17.376 40.8876 17.9143 40.5626L17.9519 40.5376L32.949 31.9001L25.9261 24.2626L25.9387 24.2751Z" fill="#EA4335"/>
<path d="M39.4216 21.875H39.409L32.937 18.1125L25.6387 24.6L32.962 31.9125L39.409 28.2C40.5357 27.5875 41.2993 26.4001 41.2993 25.0375C41.2993 23.675 40.5482 22.4875 39.4216 21.8875V21.875Z" fill="#FBBC04"/>
<path d="M12.6066 11.6001C12.5315 11.9001 12.4814 12.2001 12.4814 12.5251V37.4876C12.4814 37.8126 12.519 38.1126 12.6066 38.4126L26.3895 24.6501L12.6066 11.6001Z" fill="#4285F4"/>
<path d="M26.0388 25L32.9365 18.1125L17.9519 9.43755C17.4136 9.11255 16.7751 8.92505 16.0866 8.92505C14.4216 8.92505 13.0196 10.0625 12.6064 11.5875L26.0388 24.9875V25Z" fill="#34A853"/>
</svg>
