<svg width="375" height="135" viewBox="0 0 375 135" fill="none" xmlns="http://www.w3.org/2000/svg">
<path d="M341.306 60.2431C340.284 55.9979 339.227 51.7634 338.26 47.505C337.677 44.9441 337.227 42.3568 336.74 39.7747C336.454 38.2599 336.205 36.7345 335.958 35.2118C335.805 34.2584 335.717 33.2918 335.542 32.3411C335.344 31.2579 334.599 30.6806 333.511 30.6568C331.315 30.6065 329.111 30.8263 326.918 30.5164C326.732 30.49 326.536 30.5694 326.343 30.58C325.569 30.625 324.796 30.6356 324.025 30.7098C322.817 30.8263 321.972 30.1933 321.154 29.4412C319.45 27.8735 317.694 26.3613 316.031 24.7512C314.841 23.6018 313.435 22.6749 312.494 21.2608C312.105 20.6729 311.686 20.657 310.963 20.9006C310.049 21.2105 309.13 21.5256 308.193 21.7481C306.198 22.2168 304.187 22.6114 302.19 23.0616C300.119 23.5303 298.06 24.06 295.984 24.5022C295.16 24.677 294.294 24.6611 293.457 24.7883C293.147 24.8359 292.768 24.963 292.577 25.1855C292.058 25.7972 292.349 26.5732 293.21 26.9122C294.789 27.5371 296.37 28.1357 297.912 28.8692C300.278 29.9921 302.484 31.4883 305.064 32.1478C305.101 32.1584 305.133 32.1901 305.17 32.1981C306.063 32.3782 306.272 33.0243 306.357 33.8215C306.553 35.7044 306.696 37.6032 307.046 39.4596C307.361 41.1386 307.599 42.807 307.493 44.5072C307.469 44.8912 307.265 45.3122 307.027 45.63C306.45 46.4007 305.819 47.1342 305.183 47.8599C304.571 48.5537 303.957 49.2475 303.284 49.8831C302.497 50.6246 301.602 51.2576 300.834 52.0176C298.58 54.2527 296.378 56.5382 294.124 58.776C293.727 59.1706 293.216 59.5757 292.694 59.6976C291.531 59.9677 290.331 60.0974 289.139 60.2193C286.869 60.4497 284.593 60.6483 282.318 60.8363C281.092 60.9369 279.839 61.117 278.811 60.1504C278.676 60.0233 278.475 59.9597 278.302 59.8723C275.969 58.6647 273.635 57.4598 271.304 56.2495C271.169 56.1807 271.074 56.0403 270.944 55.9635C269.85 55.3226 268.764 54.6659 267.643 54.0753C267.376 53.935 266.962 53.9297 266.663 54.017C265.927 54.2316 265.217 54.5388 264.496 54.8036C263.153 55.2962 261.821 55.8311 260.459 56.2654C257.103 57.33 253.734 58.3522 250.367 59.3798C249.334 59.6949 248.288 59.9677 247.255 60.2855C247.008 60.3596 246.72 60.4788 246.582 60.6721C246.296 61.0667 245.901 61.5275 245.906 61.9565C245.912 62.6477 246.137 63.3627 246.396 64.0169C246.619 64.5756 247.085 65.0338 247.337 65.5873C247.991 67.0332 248.587 68.503 249.204 69.9675C249.355 70.325 249.485 70.6905 249.639 71.0453C249.813 71.4479 249.692 71.7365 249.3 71.8822C248.187 72.2953 247.064 72.6872 245.864 73.1189C245.498 72.2768 245.631 71.2254 244.619 70.9341C243.785 70.6931 242.993 70.8547 242.206 71.5273C242.126 70.4733 241.43 70.2297 240.725 70.0257C240.394 69.9304 240.036 69.9278 239.689 69.888C237.764 69.6656 235.891 69.2207 234.05 68.6698C233.933 68.1508 233.716 67.69 233.764 67.2583C233.819 66.7419 233.541 66.4691 233.298 66.1302C232.548 65.0973 231.828 64.0433 231.046 63.037C230.349 62.1419 229.814 61.027 228.466 60.8972C228.368 60.8866 228.236 60.7966 228.191 60.7065C227.748 59.8326 227.131 59.0117 227.229 57.8994C227.502 57.8994 227.687 57.8888 227.873 57.8994C229.38 58.0106 229.952 57.2108 229.364 55.847C229.03 55.0684 228.715 54.2739 228.461 53.4662C227.584 50.6564 227.203 47.7486 226.834 44.8408C226.803 44.5813 226.723 44.3059 226.585 44.0887C226.101 43.3181 225.46 42.7116 224.564 42.4336C223.42 42.0787 222.278 41.7106 221.121 41.3955C220.05 41.1015 218.964 40.8685 217.878 40.6089C217.415 41.4643 217.039 42.1793 217.089 43.0294C217.219 45.3043 217.433 47.5712 218.019 49.7851C218.098 50.0817 218.151 50.3863 218.194 50.6908C218.466 52.632 218.975 54.5308 219.134 56.4958C219.229 57.6769 220.101 58.2066 221.243 57.9735C221.497 57.9206 221.759 57.9047 222.196 57.8491C222.159 60.2537 222.763 62.4385 224.019 64.6498C223.521 64.6101 223.131 64.6683 222.821 64.5359C222.331 64.3267 221.852 64.046 221.444 63.7044C219.367 61.9671 217.317 60.2007 215.256 58.4476C214.623 57.9073 213.95 57.6425 213.126 58.0636C212.912 58.1722 212.628 58.151 212.34 58.196C212.024 56.8189 211.725 55.5239 211.452 54.3269C212.242 53.9244 212.917 53.5801 213.701 53.1776C213.537 52.587 213.418 52.0732 213.248 51.578C213.073 51.0722 212.79 50.5981 212.652 50.0817C212.151 48.2253 211.611 46.3715 211.24 44.486C210.912 42.8282 210.514 41.1518 210.922 39.4278C210.978 39.1974 210.806 38.7499 210.61 38.6466C209.352 37.9766 208.112 37.1079 206.758 36.8193C205.037 36.4512 203.296 36.1943 201.619 35.617C200.923 35.376 200.311 35.6964 199.76 36.0513C199.222 36.3956 199.469 36.9437 199.556 37.4337C199.582 37.582 199.556 37.7409 199.545 37.8945C199.347 40.9585 199.662 43.9881 200.133 47.0071C200.356 48.4425 200.661 49.8699 200.833 51.3105C200.997 52.6876 201.023 54.0806 201.143 55.463C201.249 56.7289 202.086 57.1605 203.219 56.6203C203.717 56.3819 204.274 56.2707 204.999 56.0377C204.803 58.1007 205.333 59.8088 206.184 61.3951C205.561 62.1498 204.284 62.1843 204.366 63.2197C205.068 64.1175 205.662 64.8722 206.25 65.6296C206.581 66.056 206.851 66.5406 207.232 66.914C210.271 69.896 213.036 73.1507 216.302 75.9022C217.388 76.8159 218.668 76.6464 219.372 75.4414C219.492 75.2375 219.735 75.1077 219.921 74.9436C220.077 75.1342 220.339 75.3064 220.368 75.5156C220.464 76.1644 220.768 76.4398 221.436 76.4795C221.886 76.506 222.334 76.702 222.766 76.8688C223.547 77.1707 223.613 77.4144 223.181 78.1744C222.657 79.096 222.739 79.5515 223.566 80.2374C224.318 80.8624 225.134 81.31 226.124 81.5218C227.308 81.7761 228.466 82.0197 229.679 81.8025C229.775 81.7866 229.883 81.8529 230.185 81.9349C229.226 82.7162 228.41 83.4577 227.515 84.0933C226.448 84.8507 226.26 85.2479 226.665 86.49C226.948 87.3559 227.248 88.2193 227.557 89.1329C226.914 89.3368 226.363 89.6599 225.817 89.6467C225.126 89.6281 224.67 89.8824 224.183 90.2928C223.921 90.5153 223.523 90.5736 223.203 90.7007C222.938 90.3114 222.768 90.0068 222.546 89.7526C222.021 89.1541 221.531 88.9899 220.906 89.4216C220.18 89.9247 219.349 90.0995 218.562 90.3087C216.249 90.9258 213.894 91.3786 211.561 91.9215C210.851 92.0857 210.152 92.3108 209.46 92.5439C208.191 92.9755 207.01 93.6561 205.574 93.5078C204.713 93.4178 204.337 93.8812 204.279 94.7578C204.263 95.0041 204.223 95.2504 204.186 95.5894C203.513 95.2928 202.965 95.0173 202.393 94.8055C201.823 94.591 201.23 94.4374 200.502 94.2123C200.798 93.2986 201.058 92.4935 201.339 91.6355C202.462 92.4883 202.785 92.5121 203.49 91.8924C204.173 91.2939 204.223 91.2886 204.756 92.0486C205.084 92.52 205.495 92.814 206.033 92.904C206.891 92.2658 206.864 92.2658 206.833 91.278C206.777 89.5381 206.7 87.7982 206.745 86.0609C206.777 84.8454 206.96 84.7395 208.197 84.5382C208.96 84.4137 209.728 84.2972 210.496 84.2072C212.763 83.9344 215.036 83.794 217.322 83.9158C218.437 83.9741 218.575 84.043 218.713 85.1711C218.8 85.8914 218.726 86.633 218.734 87.3639C218.742 88.2034 219.153 88.6668 219.881 88.6668C220.633 88.6668 221.052 88.2193 221.004 87.3771C220.941 86.2966 220.864 85.2135 220.729 84.1383C220.527 82.5229 219.913 81.9694 218.315 81.9217C214.747 81.8158 211.195 81.9906 207.664 82.5282C207.402 82.5679 207.119 82.5732 206.859 82.5229C205.346 82.2263 204.909 82.4487 204.396 83.8947C203.503 83.2273 202.676 82.6208 201.858 82.0012C201.527 81.7496 201.5 81.3974 201.686 81.0637C201.927 80.6294 202.181 80.195 202.496 79.8137C203.278 78.863 203.1 78.0076 202.038 77.4673C200.873 76.8715 199.702 76.2677 198.608 75.5553C195.577 73.5771 192.158 72.3748 188.99 70.6746C188.502 70.4124 188.073 70.5157 187.588 70.8229C186.582 71.4638 185.514 72.0119 184.468 72.5946C182.746 73.5532 181.019 74.5013 179.303 75.4679C179.035 75.6189 178.791 75.8254 178.577 76.0452C178.187 76.4398 178.209 76.7603 178.611 77.131C179.091 77.5706 179.642 77.7587 180.19 77.5441C181.906 79.39 183.779 80.918 185.811 82.1706C187.885 83.4498 189.89 84.8004 191.821 86.2781C193.244 87.3665 194.69 88.4867 196.637 88.447C196.708 88.447 196.785 88.4894 196.854 88.5238C197.485 88.831 197.885 88.5582 198.176 88.0021C198.277 87.8088 198.398 87.6261 198.51 87.4407C198.592 87.446 198.674 87.4486 198.756 87.4539C198.822 87.875 198.941 88.2961 198.944 88.7198C198.949 89.17 198.846 89.6175 198.79 90.0492C199.063 90.3034 199.312 90.5312 199.551 90.751C199.344 91.1138 199.135 91.2886 198.777 91.037C198.526 90.8596 198.282 90.6239 198.001 90.5471C196.854 90.2293 195.691 89.9618 194.534 89.6758C191.948 89.0376 189.363 88.3967 186.778 87.7585C186.139 87.6022 185.435 87.5678 184.878 87.2659C184.187 86.8898 183.692 87.0434 183.069 87.3718C180.338 88.8151 177.615 90.2796 174.598 91.0714C173.796 91.2806 173.295 92.0116 173.462 92.6869C173.833 94.1911 174.052 95.7085 174.052 97.2604C174.052 98.3356 174.463 98.8017 175.533 98.7328C177.387 98.6163 179.003 99.4611 180.704 99.9087C182.826 100.467 184.68 101.739 186.767 102.488C189.498 103.465 192.166 104.567 195.069 104.932C195.487 104.985 195.975 105.253 196.306 105.115C197.148 104.771 197.953 104.297 198.708 103.78C198.973 103.6 199.053 103.147 199.281 102.697C199.786 103.065 200.255 103.333 200.634 103.696C201.723 104.736 202.896 105.573 204.467 105.669C204.69 105.682 204.904 105.788 205.193 105.873C205.211 106.227 205.227 106.569 205.246 106.911C205.294 107.8 205.709 108.269 206.591 108.335C207.01 108.367 207.439 108.282 207.863 108.261C208.364 108.235 208.87 108.166 209.365 108.211C210.867 108.349 212.358 108.463 213.849 108.089C214.747 107.864 215.659 107.687 216.567 107.501C217.778 107.255 218.999 107.046 220.204 106.776C222.615 106.233 225.017 105.65 227.425 105.102C228.278 104.909 228.286 104.829 228.522 103.995C228.763 103.129 228.238 102.432 228.132 101.601C230.047 101.22 230.842 99.1698 232.757 98.5501C232.715 98.8626 232.715 99.0135 232.673 99.1486C232.349 100.189 232.898 100.907 233.968 100.793C234.349 100.751 234.72 100.613 235.091 100.502C235.61 100.348 236.116 100.102 236.646 100.033C238.537 99.7921 240.354 99.3128 242.158 98.6958C244.203 97.994 246.304 97.4511 248.378 96.842C249.599 96.4818 250.831 96.1614 252.033 95.7535C253.021 95.4199 253.996 95.0306 254.931 94.5724C255.76 94.1672 255.819 93.6005 255.191 92.8961C255.016 92.7001 254.748 92.5942 254.544 92.422C254.298 92.2102 254.076 91.9718 253.747 91.6514C254.144 91.4078 254.383 91.1588 254.656 91.1165C255.509 90.9893 256.372 90.939 257.344 90.849C257.429 91.1721 257.548 91.5667 257.636 91.9665C257.792 92.6842 258.147 93.3463 258.78 93.6429C259.604 94.0269 260.515 94.3288 261.413 94.4294C262.634 94.5645 263.882 94.5062 265.116 94.4771C268.557 94.395 272.003 94.3659 275.436 94.1646C277.982 94.0163 280.517 93.6349 283.054 93.3542C284.246 93.2218 285.457 93.1715 286.628 92.9305C288.408 92.565 290.169 92.0937 291.923 91.6196C294.686 90.8702 297.422 90.0413 300.068 88.9396C300.641 88.7012 301.223 88.4894 301.785 88.2272C304.269 87.0567 306.746 85.8676 309.231 84.6971C310.701 84.0059 312.161 83.2803 313.662 82.6712C317.395 81.159 321.156 79.7237 324.891 78.2221C325.964 77.7904 326.965 77.1866 328.038 76.7523C329.145 76.3048 330.284 75.9234 331.434 75.595C332.144 75.3938 332.533 74.9197 332.87 74.3424C333.235 73.7121 333.537 73.0395 333.956 72.4489C334.848 71.1883 335.773 69.949 336.732 68.7334C338.122 66.9697 339.484 65.1768 340.991 63.519C341.757 62.6768 342.244 61.9777 341.539 60.9078C341.415 60.7198 341.367 60.4761 341.312 60.251L341.306 60.2431ZM203.966 54.0223C203.757 54.0833 203.524 54.0647 203.135 54.0965C203.034 53.2596 202.878 52.4705 202.854 51.676C202.804 49.9652 202.451 48.318 202.11 46.647C201.614 44.2317 201.251 41.7742 201.556 39.2795C201.606 38.8717 201.564 38.4506 201.564 37.9342C202.051 37.9342 202.472 37.8653 202.864 37.9474C204.374 38.2599 205.879 38.6016 207.378 38.967C208.403 39.2186 208.562 39.4967 208.74 40.5692C209.055 42.468 209.36 44.3774 209.807 46.2471C209.969 46.925 210.22 47.5738 210.318 48.2862C210.416 48.9986 210.774 49.6686 210.949 50.3757C211.275 51.6972 211.177 51.8984 209.858 52.3063C207.905 52.9127 205.935 53.4636 203.969 54.025L203.966 54.0223ZM217.513 74.0432C216.141 73.1057 214.869 72.2132 213.789 71.048C212.345 69.4935 210.838 67.9972 209.367 66.4665C208.52 65.5846 207.574 64.7637 207.288 63.3468C208.017 62.9681 208.666 62.6371 209.312 62.2928C210.469 61.6732 211.638 61.0746 212.774 60.4126C213.373 60.0657 213.807 60.1451 214.334 60.5715C215.651 61.6414 217.044 62.6159 218.361 63.6885C219.55 64.6577 220.676 65.7064 221.921 66.8028C220.458 69.2048 219.007 71.5909 217.518 74.0405L217.513 74.0432ZM198.626 94.4983C198.059 97.1386 197.01 99.665 196.727 102.374C196.714 102.507 196.565 102.623 196.417 102.835C195.106 102.66 193.763 102.549 192.449 102.284C191.551 102.101 190.685 101.728 189.824 101.392C187.919 100.65 185.999 99.9431 184.134 99.1036C181.867 98.084 179.536 97.3028 177.117 96.7572C176.031 96.5109 175.933 96.3706 175.885 95.2954C175.87 94.9114 175.814 94.5274 175.772 94.1434C175.655 93.0762 175.817 92.7928 176.828 92.3744C177.292 92.1837 177.785 92.0566 178.24 91.85C179.541 91.2542 180.844 90.6663 182.113 90.0121C183.175 89.4613 184.269 89.4295 185.387 89.6705C186.441 89.8956 187.48 90.2028 188.529 90.4597C190.404 90.9205 192.277 91.3839 194.155 91.8235C195.508 92.1413 196.862 92.4353 197.908 93.4681C198.083 93.6402 198.38 93.6853 198.661 93.8071C198.65 94.0507 198.671 94.2838 198.624 94.5036L198.626 94.4983ZM196.367 86.392C193.972 85.6213 192.134 84.1092 190.235 82.6553C188.68 81.4636 186.915 80.5499 185.31 79.4165C184.275 78.6855 183.316 77.8302 182.404 76.9456C181.766 76.3286 181.851 75.979 182.669 75.5447C183.79 74.9489 184.947 74.4298 186.094 73.8843C186.407 73.7333 186.764 73.6512 187.043 73.4526C187.858 72.862 188.703 72.8567 189.567 73.2646C192.955 74.8641 196.441 76.2783 199.524 78.4631C199.739 78.614 199.929 78.7994 200.231 79.0536C198.931 81.5271 197.643 83.9768 196.372 86.3946L196.367 86.392ZM225.06 103.394C222.705 104 220.339 104.57 217.968 105.118C216.615 105.43 215.256 105.735 213.884 105.928C212.824 106.079 211.738 106.071 210.663 106.1C210.122 106.114 209.582 106.031 209.039 106.029C207.678 106.021 207.185 105.692 206.976 104.392C206.703 102.679 206.523 100.952 206.3 99.2307C206.337 99.2254 206.374 99.2175 206.411 99.2122C206.411 98.4389 206.475 97.6576 206.393 96.8923C206.316 96.1826 206.591 95.788 207.203 95.547C207.418 95.4622 207.632 95.3775 207.852 95.3033C210.962 94.2229 214.165 93.5131 217.383 92.8537C218.363 92.6524 219.304 92.2632 220.265 91.9771C221.264 91.6805 221.322 91.6885 221.841 92.5942C222.146 93.1265 222.514 93.6932 222.583 94.2785C222.795 96.0237 223.693 97.4855 224.389 99.0268C224.702 99.7153 225.171 100.332 225.552 100.992C225.706 101.259 225.852 101.54 225.934 101.837C226.172 102.708 225.95 103.163 225.06 103.394ZM227.693 64.3241C228.784 63.2859 228.818 63.2674 229.682 64.4538C230.249 65.2324 230.739 66.0719 231.21 66.914C231.388 67.2345 231.414 67.637 231.589 68.2991C229.563 67.6079 228.477 66.1911 227.163 64.9385C227.359 64.7081 227.51 64.4988 227.693 64.3214V64.3241ZM224.625 55.7411C223.746 55.7993 222.858 55.7146 221.974 55.7358C221.444 55.749 221.107 55.659 220.994 55.0393C220.517 52.4175 219.947 49.8116 219.513 47.1845C219.296 45.8631 219.306 44.5019 219.404 42.8917C220.522 43.1804 221.407 43.4081 222.289 43.6438C222.437 43.6836 222.572 43.8027 222.721 43.8133C224.148 43.9007 224.821 44.6793 225.025 46.0749C225.221 47.4044 225.571 48.7152 225.878 50.0288C226.23 51.533 226.609 53.0319 226.975 54.5361C227.054 54.8618 227.12 55.1902 227.2 55.553C226.305 56.0112 225.446 55.6907 224.628 55.7464L224.625 55.7411ZM224.946 65.9236C225.952 66.6333 226.824 67.2345 227.677 67.8621C227.889 68.0157 228.106 68.2249 228.201 68.458C228.363 68.8446 228.45 69.3001 228.045 69.6073C227.671 69.888 227.396 69.5808 227.155 69.3425C226.477 68.6725 225.796 68.0025 225.158 67.2954C224.805 66.9061 224.842 66.8743 224.948 65.9236H224.946ZM229.7 80.1739C229.494 79.9541 229.102 79.8693 228.776 79.8084C227.907 79.6469 227.02 79.5648 226.154 79.382C225.475 79.239 225.322 78.9636 225.481 78.2909C225.568 77.9202 225.717 77.5494 225.915 77.2264C226.871 75.6851 227.867 74.1703 228.818 72.6263C229.136 72.1073 229.38 71.5405 229.632 70.9844C229.796 70.6216 230.05 70.4839 230.445 70.4601C231.687 70.3833 232.903 70.423 234.121 70.7567C235.234 71.0612 236.394 71.2016 237.528 71.4346C238.768 71.6889 239.999 71.9669 241.512 72.2927C237.939 75.7433 233.878 78.2194 230.641 81.6278C230.259 81.0187 230.039 80.5367 229.698 80.1739H229.7ZM251.236 93.6826C249.898 94.1858 248.579 94.7472 247.212 95.1497C244.399 95.9813 241.562 96.7308 238.733 97.5067C237.841 97.753 236.94 97.9754 236.042 98.2085C235.586 98.3277 235.192 98.2456 234.916 97.8351C233.91 96.3282 232.776 94.8876 231.936 93.296C230.839 91.2171 229.994 89.0084 229.006 86.8713C228.62 86.0345 228.969 85.4492 229.547 84.9328C230.236 84.3131 230.972 83.7464 231.669 83.1373C233.266 81.739 234.831 80.301 236.452 78.9318C238.225 77.4356 240.034 75.9843 241.846 74.5357C242.375 74.112 242.961 73.7571 243.602 73.3175C243.737 73.6353 243.851 73.8286 243.901 74.0352C244.426 76.1671 245.067 78.2406 246.076 80.2215C247.125 82.2845 247.967 84.4561 248.844 86.6012C249.387 87.9279 249.927 89.2388 250.796 90.4041C251.207 90.9549 251.496 91.6037 251.792 92.2314C252.248 93.1927 252.192 93.3225 251.233 93.6826H251.236ZM338.552 63.2383C337.844 63.9321 337.336 64.8299 336.724 65.627C334.819 68.1084 332.925 70.6004 330.984 73.0527C330.666 73.4526 330.16 73.7492 329.683 73.9664C327.294 75.0627 324.902 76.1565 322.475 77.1707C320.16 78.14 317.797 79.0007 315.464 79.9329C314.105 80.4758 312.765 81.0716 311.411 81.6357C309.414 82.4699 307.406 83.2856 305.414 84.133C304.097 84.6918 302.789 85.2717 301.493 85.8808C300.94 86.1404 300.466 86.6197 299.894 86.7892C298.407 87.2288 297.027 87.9094 295.594 88.4708C293.07 89.4613 290.379 89.893 287.762 90.5709C285.274 91.2144 282.71 91.3018 280.191 91.6991C278.226 92.0089 276.276 92.1175 274.297 92.0751C273.529 92.0592 272.758 92.2499 271.987 92.2711C270.136 92.3214 268.282 92.3558 266.427 92.3426C265.347 92.3346 264.266 92.2393 263.185 92.144C262.377 92.0751 261.575 91.948 260.769 91.8421C260.144 91.76 259.853 91.2912 259.641 90.7854C259.119 89.5407 258.605 88.2908 258.123 87.0275C256.947 83.9556 255.829 80.8598 254.611 77.8063C253.276 74.4616 251.858 71.1513 250.465 67.8303C249.808 66.2626 249.112 64.7107 248.455 63.1429C248.134 62.3749 248.179 62.1763 248.947 61.9062C251.133 61.1356 253.342 60.4338 255.54 59.6949C257.045 59.1891 258.542 58.6647 260.044 58.1589C261.877 57.5419 263.694 56.8692 265.556 56.3528C266.385 56.1224 267.241 56.2019 268.099 56.7315C269.299 57.473 270.48 58.3099 271.887 58.6753C271.998 58.7045 272.101 58.7627 272.202 58.821C274.541 60.1663 276.864 61.5407 279.229 62.8357C279.698 63.0926 280.347 63.1509 280.896 63.1032C284.4 62.804 287.897 62.4411 291.399 62.1234C292.198 62.0519 293.025 62.1604 293.809 62.0227C294.723 61.8638 294.771 60.7913 295.39 60.2616C296.447 59.3586 297.451 58.384 298.418 57.3803C299.494 56.2681 300.455 55.0446 301.554 53.9561C302.677 52.8412 303.938 51.864 305.077 50.7623C305.824 50.042 306.45 49.1999 307.151 48.4345C307.806 47.7248 308.508 47.0574 309.151 46.3398C309.39 46.0723 309.66 45.7254 309.686 45.397C309.75 44.6184 309.7 43.8266 309.644 43.0427C309.612 42.5951 309.472 42.1555 309.403 41.708C308.932 38.6121 308.423 35.5216 308.031 32.4179C307.909 31.4486 307.485 30.9534 306.606 30.7098C305.416 30.3787 304.23 30.0318 303.046 29.6822C302.826 29.616 302.606 29.5286 302.405 29.4174C301.048 28.6706 299.695 27.9211 298.347 27.1611C298.023 26.9784 297.729 26.7506 297.422 26.5414C297.443 26.4381 297.464 26.3348 297.483 26.2316C297.923 26.123 298.362 26.0118 298.805 25.9085C299.97 25.6357 301.152 25.4265 302.296 25.0822C303.663 24.6691 305.006 24.2295 306.447 24.0732C307.74 23.9329 309.014 23.5727 310.282 23.2629C310.894 23.1119 311.395 23.141 311.893 23.5833C314.031 25.4847 316.203 27.3438 318.33 29.2532C319.334 30.1536 320.261 31.1361 321.228 32.0789C321.71 32.5476 322.224 32.8681 322.968 32.7569C323.768 32.6377 324.589 32.6403 325.4 32.59C325.553 32.5794 325.71 32.5476 325.863 32.5582C328.178 32.6986 330.494 32.8522 332.811 32.982C333.471 33.019 333.881 33.3739 333.876 33.9777C333.847 36.6154 334.787 39.0703 335.23 41.6179C335.587 43.673 335.762 45.7677 336.255 47.7883C336.631 49.3349 336.809 50.953 337.556 52.4175C337.82 52.9366 337.794 53.596 337.926 54.1865C338.382 56.2204 338.846 58.2516 339.309 60.2828C339.566 61.403 339.431 62.3643 338.538 63.2409L338.552 63.2383Z" fill="#FF6525"/>
<path d="M175.671 66.2784C177.965 65.6402 178.895 62.6953 177.324 60.8707C175.53 58.7891 173.655 56.7791 171.819 54.7373C171.705 54.6102 171.607 54.4645 171.467 54.2818C172.23 53.9349 172.784 54.3771 173.295 54.6102C176.436 56.0455 179.808 56.8109 183.016 58.045C183.774 58.3363 184.513 58.3204 185.059 57.4915C185.323 57.0863 185.774 56.7923 186.171 56.4851C187.424 55.5132 188.703 54.5784 189.946 53.5959C190.889 52.8491 190.979 52.3406 190.507 51.2946C190.385 51.0244 190.261 50.7067 190.287 50.4259C190.393 49.3878 189.808 48.8847 188.979 48.4715C187.811 47.8889 186.566 47.5367 185.411 46.8587C182.852 45.3519 180.147 44.0887 177.488 42.7539C175.761 41.888 173.962 41.157 172.28 40.2169C170.09 38.9934 167.976 37.6349 165.841 36.3134C163.703 34.9893 161.579 33.6466 159.457 32.3013C157.931 31.332 156.368 30.4131 154.911 29.3485C153.441 28.2706 151.873 27.7092 150.048 27.5397C147.222 27.2775 144.581 26.1679 141.863 25.4132C141.5 25.3125 141.095 25.1616 140.84 24.9021C140.327 24.3804 139.656 24.2241 139.047 23.9116C137.712 23.2284 136.332 22.6272 135.145 21.6553C133.681 20.4583 132.179 19.2957 130.613 18.2364C127.766 16.3085 124.868 14.4547 121.975 12.5983C120.19 11.4516 118.351 10.3817 116.582 9.21115C115.999 8.8245 115.477 8.80596 114.839 8.91189C113.756 9.09198 112.662 9.26676 111.568 9.29589C110.45 9.32502 109.324 9.2085 108.206 9.10257C106.988 8.98605 101.806 8.54114 100.606 8.39284C100.543 8.3743 100.479 8.35841 100.405 8.35311C93.8358 7.88437 87.2692 7.41298 80.7 6.94424C77.4604 6.71384 74.2181 6.4808 70.9785 6.2504C67.7548 6.02 64.494 5.89288 61.3021 5.35529C58.4201 4.86801 55.7315 3.5121 52.8415 3.16253C49.7714 2.79178 46.704 3.6657 43.7399 4.34895C37.3799 5.81873 31.0199 7.28851 24.6626 8.75829C17.4443 10.4188 -157.687 45.9451 -164.906 47.6135C-165.894 47.8412 -165.475 49.3613 -164.487 49.1336C-151.767 46.194 28.8637 9.39652 41.5837 6.45961C44.6167 5.75782 47.7556 4.75678 50.884 4.65085C54.0362 4.54492 56.8652 6.08091 59.9035 6.69001C65.9138 7.89232 72.2367 7.9135 78.3371 8.35046C85.5501 8.86687 92.7657 9.38328 99.9786 9.89704C100.376 10.289 100.924 10.4082 101.589 10.4135C103.054 10.4267 104.532 10.5061 105.981 10.718C107.276 10.9087 108.55 11.1497 109.862 10.9166C110.039 10.8848 110.267 10.8795 110.415 10.9643C111.496 11.5681 112.511 11.0914 113.538 10.8027C113.75 10.7445 113.986 10.6041 114.171 10.6518C114.807 10.8133 115.475 10.9484 116.036 11.2662C117.517 12.1004 118.969 12.9902 120.394 13.9144C122.953 15.5776 125.493 17.2751 128.028 18.9753C129.956 20.2676 131.866 21.5864 133.776 22.9053C133.937 23.0165 134.043 23.2072 134.176 23.3608C133.718 23.4508 133.363 23.3581 133.01 23.2548C131.821 22.9053 130.655 22.4365 129.442 22.2273C126.743 21.7586 124.049 21.2925 121.406 20.5695C120.412 20.2967 119.414 20.0107 118.399 19.8492C115.557 19.399 112.868 18.4536 110.198 17.4366C109.682 17.2407 109.239 16.854 108.762 16.5574C108.068 17.6458 108.264 18.4112 109.271 18.8667C109.801 19.1077 110.309 19.3963 110.847 19.6055C112.738 20.3391 114.51 21.4752 116.664 21.3666C116.849 21.356 117.04 21.4487 117.228 21.4938C118.579 21.8168 119.922 22.1691 121.281 22.4577C123.429 22.9159 125.601 23.2734 127.736 23.7792C130.438 24.4201 133.114 25.1748 135.802 25.866C138.051 26.4433 140.305 26.9968 142.552 27.5741C144.499 28.0747 146.422 28.6811 148.387 29.0863C151.081 29.6424 153.515 30.7626 155.831 32.1821C156.453 32.5635 156.97 33.1143 157.592 33.4956C160.029 34.9919 162.493 36.4432 164.935 37.9262C167.51 39.4913 170.068 41.0855 172.646 42.648C173.305 43.0479 174.119 43.2624 174.664 43.7709C175.305 44.3694 176.01 44.6395 176.818 44.7852C177.34 44.8805 177.843 45.0156 178.201 45.532C178.036 45.6432 177.922 45.7571 177.787 45.8047L181.353 46.8561C182.195 47.2427 182.992 47.7247 183.814 48.1564C185.58 49.0806 187.292 50.0896 188.799 51.4746C188.727 51.5965 188.68 51.7607 188.571 51.8507C187.149 53.0345 185.739 54.2341 184.272 55.3623C183.986 55.5821 183.443 55.6536 183.08 55.5583C180.696 54.9253 178.224 54.5413 176.026 53.3231C175.766 53.1801 175.493 53.0106 175.308 52.7882C174.733 52.0943 174.058 51.8083 173.154 52.0228C172.826 52.1023 172.46 52.0308 172.113 52.0122C171.072 51.954 170.029 51.8004 168.996 51.8507C167.981 51.8984 167.065 51.6415 166.196 51.2257C164.524 50.4286 162.895 49.5388 161.234 48.7178C159.396 47.8095 157.687 46.7078 156.143 45.3572C155.68 44.952 155.131 44.5812 154.821 44.0701C154.18 43.0135 153.179 42.8837 152.127 42.8043C151.823 42.7804 151.508 42.8811 151.2 42.8678C150.199 42.8254 149.185 42.8334 148.199 42.6771C146.292 42.3805 144.406 41.9383 142.499 41.6417C139.633 41.1994 136.788 40.6751 133.99 39.9097C132.907 39.6131 131.832 39.2715 130.693 39.5045C130.052 39.6343 129.432 39.9203 128.791 39.9786C124.476 40.3785 120.158 40.728 115.819 40.4473C114.897 40.3864 113.981 40.1984 113.059 40.1295C112.659 40.1004 112.158 40.1004 111.862 40.3096C111.247 40.7439 110.707 41.3027 110.19 41.8615C109.774 42.3117 109.491 42.889 109.054 43.3154C107.862 44.4753 106.654 45.6273 105.382 46.6998C104.686 47.2878 103.872 47.7486 103.067 48.1855C102.593 48.4424 102.14 48.7522 102.151 49.2634C102.169 50.1081 102.312 51.035 103.083 51.5329C104.646 52.5366 105.727 54.009 106.985 55.3093C107.528 55.8708 108.026 56.4375 108.301 57.1896C108.519 57.7801 109.033 58.0741 109.61 58.2489C110.452 58.5058 111.329 58.6726 112.134 59.0116C113.525 59.5915 114.895 60.2351 116.232 60.9289C116.942 61.297 117.557 61.7949 117.888 62.6264C118.227 63.4792 118.735 63.6381 119.745 63.5401C119.957 63.5189 120.2 63.5666 120.394 63.6566C120.847 63.8738 121.273 64.1439 121.718 64.3769C123.352 65.2376 124.632 66.6677 126.409 67.3033C126.507 67.3377 126.621 67.4357 126.653 67.5284C126.958 68.4473 127.747 68.8816 128.473 69.3742C130.486 70.7407 132.579 71.9986 134.194 73.8789C134.642 74.4006 135.28 74.7502 135.789 75.2242C136.359 75.7512 136.676 76.3285 136.292 77.176C135.463 78.998 134.706 80.8517 133.943 82.7002C133.561 83.6245 132.798 84.0349 131.911 84.2336C130.899 84.4613 129.832 84.4984 128.849 84.8056C127.328 85.2796 125.991 84.7632 124.719 84.1382C122.995 83.2881 121.366 82.2394 119.678 81.3099C118.664 80.7511 117.591 80.2956 116.585 79.7236C114.871 78.7464 113.207 77.6765 111.483 76.7205C110.063 75.9339 108.582 75.2613 107.125 74.5383C106.124 74.0404 105.07 73.6405 104.582 72.4727C104.431 72.1098 104.016 71.8503 103.703 71.5617C102.537 70.4918 101.38 69.4166 100.191 68.3732C99.6131 67.8673 99.0356 67.3086 98.3575 66.9802C97.2502 66.4426 96.0583 66.0798 94.906 65.6269C93.0359 64.8907 91.1684 64.1413 89.3009 63.3971C89.3036 63.4024 89.3089 63.4077 89.3115 63.4156C88.5566 63.1323 87.8096 62.8304 87.0493 62.5761C86.1779 62.2822 85.2666 62.0915 84.4163 61.7499C82.9383 61.154 81.5185 60.3993 80.0245 59.8537C77.6696 58.9957 75.2671 58.2701 72.8963 57.4597C71.8394 57.0995 70.8328 56.5487 69.7547 56.2918C66.8144 55.5874 64.049 54.3957 61.2359 53.3417C58.7512 52.4095 56.4202 51.0933 53.8799 50.275C53.3872 50.1161 52.9607 49.7189 52.5395 49.3852C51.8747 48.8608 51.2442 48.2914 50.5899 47.7512C49.0721 46.4986 47.5305 45.2751 46.0365 43.9933C45.1041 43.1936 44.2485 42.3064 43.2949 41.4007C43.279 41.1968 43.2949 40.879 43.2181 40.5877C42.8764 39.3165 42.0075 39.0835 41.0115 39.9177C40.5162 40.3334 39.9546 40.691 39.3745 40.9796C37.1945 42.068 34.988 43.1062 32.8053 44.1946C32.4795 44.3561 32.2225 44.6686 31.9576 44.9335C31.8676 45.0235 31.7854 45.1162 31.7033 45.2115C31.4411 45.3598 31.1788 45.5055 30.9113 45.6485C30.8716 45.5399 30.8292 45.4234 30.7815 45.291C29.7935 45.7756 28.8134 46.1437 28.122 46.9912C28.0955 47.0229 28.0611 47.0494 28.0267 47.0732C27.8704 47.1448 27.7141 47.2136 27.5578 47.2825C27.5472 47.2851 27.5366 47.2904 27.526 47.2931C27.2055 47.4175 26.8585 47.4811 26.5565 47.6373C26.2678 47.7856 25.9817 47.9366 25.6956 48.0849C23.9844 48.7973 22.2547 49.4699 20.5382 50.1664C15.9636 52.0255 11.834 54.3586 7.74936 57.1313C7.63811 57.2055 7.55864 57.2955 7.50302 57.3909C7.11893 57.5603 6.75868 57.7934 6.43022 58.0741C6.08056 58.3707 6.08586 58.9268 6.38519 59.3559C6.62094 59.6948 6.96264 59.8855 7.38381 59.7557C8.29768 59.4724 9.04997 58.948 9.48969 58.0847C9.52147 58.0238 9.52147 57.9443 9.50558 57.8569C9.73603 57.7033 9.96649 57.5497 10.1996 57.3988C10.6181 57.3564 10.8221 57.2425 10.8645 56.9804C11.1214 56.8162 11.381 56.652 11.6379 56.4931C11.6803 56.5169 11.7227 56.5434 11.7624 56.5699C12.1704 56.3289 12.5465 56.1038 12.9677 55.8549C12.9333 55.8231 12.8962 55.794 12.8617 55.7622C13.0869 55.6298 13.312 55.4947 13.5398 55.3649C13.6908 55.3755 13.8259 55.3808 13.9425 55.3437C14.6656 55.1107 15.3861 54.9333 16.0563 54.4857C16.745 54.0276 17.635 53.8872 18.3847 53.5059C20.7634 52.3009 23.1342 51.0854 25.5049 49.8645C28.5803 48.6092 31.608 47.2533 34.3946 45.4207C34.6595 45.2459 34.7628 44.9891 34.7549 44.7401C35.0039 44.4118 35.4383 44.4938 35.825 44.4435C36.0872 44.4091 36.3415 44.3217 36.6382 44.2476C36.6144 43.951 36.5958 43.702 36.5879 43.6226C37.0382 43.5776 37.4382 43.6093 37.7825 43.4849C38.6196 43.1856 39.4222 42.7937 40.254 42.4759C40.948 42.2111 41.5254 42.2773 42.1188 42.889C44.0525 44.8884 46.0683 46.8005 48.4099 48.3524C49.088 48.8026 49.8801 49.3375 50.0046 50.3677C50.039 50.6457 50.4919 50.9397 50.8151 51.0986C51.3343 51.3502 51.9144 51.4694 52.4495 51.6892C54.203 52.4121 55.9328 53.1907 57.6996 53.8766C58.6188 54.2315 59.4558 54.8909 60.5339 54.7532C60.6346 54.7399 60.8014 54.785 60.8465 54.8591C61.4001 55.7463 62.4093 55.8257 63.2464 56.1329C65.1642 56.8374 67.18 57.2902 69.0739 58.0476C70.7004 58.6964 72.4221 59.0328 74.0194 59.7769C75.0975 60.2774 76.3001 60.5052 77.418 60.9289C79.2616 61.6254 81.0761 62.3961 82.9091 63.1137C86.7659 64.6232 90.6068 66.1804 94.498 67.5893C96.3682 68.2672 97.9469 69.2921 99.3853 70.6162C100.437 71.5828 101.544 72.4859 102.601 73.4472C102.842 73.6644 103.128 73.9928 103.136 74.2761C103.152 74.9779 103.581 75.203 104.114 75.4016C104.765 75.6479 105.443 75.8439 106.053 76.1723C109.295 77.9122 112.519 79.6892 115.753 81.4423C117.694 82.4937 119.663 83.4947 121.588 84.5699C123.003 85.3591 124.359 86.2542 125.768 87.0592C126.11 87.2552 126.568 87.4088 126.944 87.3611C127.816 87.2473 128.664 86.9507 129.532 86.8183C130.828 86.6196 132.134 86.4793 133.437 86.3469C134.205 86.2701 134.981 86.2595 135.545 85.4968C135.227 84.5328 135.498 83.6907 136.022 82.7479C136.955 81.0662 137.733 79.2787 138.377 77.4646C138.944 75.8677 138.817 74.3185 137.037 73.4048C136.936 73.3545 136.87 73.2433 136.78 73.1718C135.696 72.2979 134.634 71.3975 133.524 70.558C130.663 68.3917 127.797 66.2307 124.899 64.1174C123.57 63.1482 122.394 61.9406 120.746 61.4162C120.288 61.2705 119.795 60.8045 119.599 60.3622C119.204 59.4591 119.027 58.4634 118.712 57.5233C118.272 56.2097 118.012 54.8406 117.284 53.6197C115.93 51.3475 115.183 48.8026 114.219 46.3582C113.883 45.5002 113.716 44.5706 113.525 43.6623C113.334 42.7486 113.507 42.5368 114.426 42.5421C115.819 42.55 117.215 42.6321 118.608 42.6189C119.411 42.6109 120.02 42.8731 120.547 43.469C121.594 44.6554 122.605 45.8868 123.75 46.9753C125.766 48.8926 127.882 50.7067 129.938 52.5816C131.108 53.6515 132.269 54.7347 133.394 55.8522C134.732 57.1816 136.218 58.3495 137.212 60.0365C138.255 61.8108 139.839 63.1508 141.471 64.4061C142.941 65.5395 144.411 66.673 145.82 67.8779C146.819 68.7333 147.714 69.7079 148.655 70.6295C148.999 70.9685 149.381 71.2942 149.879 71.0002C150.57 70.5924 151.341 70.6374 152.029 70.7486C152.877 70.8864 153.637 70.6983 154.435 70.5739C155.778 70.3647 157.113 70.3858 158.419 70.8254C159.155 71.0744 159.772 70.6189 159.698 69.8429C159.666 69.5199 159.499 69.1756 159.301 68.9081C158.774 68.1957 158.223 67.4966 157.634 66.8319C154.919 63.7573 152.167 60.7144 149.476 57.6212C148.03 55.9608 146.586 54.2844 145.307 52.4995C144.032 50.7199 142.946 48.8052 141.821 46.9249C141.479 46.3556 141.089 45.7783 140.912 44.8037C141.519 45.1559 141.916 45.3572 142.279 45.6061C143.013 46.1093 143.717 46.6548 144.451 47.1527C145.571 47.9127 146.782 48.5616 147.82 49.4196C148.832 50.2564 150.019 50.8285 150.986 51.7421C151.881 52.5869 152.957 53.2357 153.921 54.009C154.371 54.3692 154.906 54.7479 155.126 55.2431C155.78 56.7155 157.054 57.6424 158.069 58.7865C159.343 60.2245 160.964 61.3447 161.997 63.0157C162.111 63.1985 162.328 63.3441 162.53 63.4448C163.353 63.8632 164.14 64.3796 165.144 64.279C165.52 64.2419 165.918 64.3372 166.294 64.4193C169.234 65.0443 172.172 65.6825 175.112 66.3049C175.289 66.3419 175.496 66.3393 175.671 66.2916V66.2784ZM126.078 16.2687C126.031 16.2184 125.954 16.1734 125.946 16.1151C125.935 16.0383 125.975 15.951 126.054 15.6093C126.184 15.8768 126.266 15.9721 126.258 16.0569C126.253 16.131 126.142 16.1972 126.078 16.2661V16.2687ZM48.5132 47.8015C48.4126 47.677 48.3119 47.5552 48.2086 47.4308C48.2536 47.3963 48.296 47.3593 48.341 47.3248L48.6377 47.7009C48.5953 47.7353 48.5556 47.7671 48.5132 47.8015ZM89.3698 64.271C89.3115 64.3081 89.1738 64.2233 89.0731 64.1969C89.1579 63.9426 89.24 63.691 89.3221 63.4342C89.3354 63.4527 89.3459 63.4739 89.3539 63.4951C89.4493 63.7546 89.7618 64.0168 89.3671 64.271H89.3698ZM116.145 55.7383C116.561 56.6758 116.958 57.6371 117.03 58.903C115.989 58.5164 115.064 58.2012 114.163 57.8252C113.451 57.5259 112.807 57.0307 112.076 56.8241C110.195 56.2971 109.046 54.9492 107.92 53.4979C107.263 52.6505 106.471 51.9063 105.727 51.1304C105.361 50.749 104.966 50.3995 104.609 50.0605C106.839 48.0081 108.903 46.1093 110.972 44.2158C111.014 44.1787 111.12 44.2105 111.268 44.2105C111.779 45.569 112.304 46.962 112.831 48.3524C112.995 48.7867 113.152 49.2236 113.342 49.6447C114.272 51.6759 115.239 53.6939 116.142 55.7383H116.145ZM141.172 49.6341C142.631 52.1923 144.326 54.5969 146.21 56.848C148.292 59.34 150.512 61.7154 152.689 64.1254C153.722 65.2668 154.803 66.3658 155.854 67.4913C156.125 67.78 156.072 68.1004 155.727 68.2513C155.383 68.4023 154.991 68.5056 154.617 68.5162C153.38 68.5559 152.143 68.5479 150.906 68.5559C150.143 68.5612 149.545 68.3043 148.946 67.7588C147.349 66.3049 145.696 64.9092 143.985 63.5931C142.199 62.2186 140.512 60.7833 139.198 58.9242C138.647 58.1456 137.94 57.4703 137.246 56.8056C134.764 54.4248 132.266 52.0573 129.755 49.703C128.15 48.1988 126.494 46.7449 124.894 45.2354C124.277 44.6527 123.739 43.9854 123.186 43.3392C122.995 43.1168 122.87 42.8334 122.624 42.4282C125.138 42.2058 127.434 41.9118 129.739 41.8244C132.417 41.7238 135.053 42.1396 137.619 42.9287C137.725 42.9605 137.813 43.0426 137.98 43.1432C137.725 44.131 138.29 44.8593 138.801 45.6511C139.641 46.9461 140.403 48.2914 141.169 49.6315L141.172 49.6341ZM166.167 62.2425C164.357 62.0359 163.15 60.9739 162.01 59.7319C160.421 57.9973 158.861 56.2309 157.232 54.5334C156.458 53.7283 155.6 52.9921 154.705 52.3247C151.206 49.7189 147.852 46.9091 144.133 44.5998C143.972 44.4991 143.799 44.4144 143.63 44.3191C143.691 44.1999 143.752 44.0781 143.813 43.9589C144.673 44.1178 145.532 44.3058 146.398 44.425C147.966 44.6421 149.534 44.8699 151.11 44.9917C152.191 45.0738 153.041 45.6167 153.807 46.2338C156.84 48.6728 160.114 50.659 163.751 52.0705C164.81 52.481 165.743 53.2146 166.733 53.7998C166.932 53.9163 167.16 54.16 167.329 54.1229C168.627 53.8448 169.16 54.8512 169.851 55.5768C171.313 57.1154 172.77 58.6594 174.211 60.2165C174.73 60.7806 175.234 61.3659 175.679 61.9909C176.063 62.5311 176.352 63.1402 175.716 63.94C173.822 63.654 171.846 63.3918 169.886 63.0502C168.635 62.833 167.417 62.3855 166.161 62.2425H166.167Z" fill="#FF6525"/>
<path d="M228.863 29.698C229.743 31.4935 230.958 33.1222 231.491 35.0951C231.7 35.8684 232.153 36.1703 232.85 36.1068C234.384 35.9664 235.43 36.9198 236.33 37.8599C236.868 38.4214 237.401 38.9219 238.031 39.3615C239.046 40.0659 240.047 40.7915 241.011 41.5595C241.459 41.9171 241.8 42.4096 242.206 42.8254C242.683 43.318 243.263 43.408 243.917 43.2465C244.399 43.1273 244.892 43.0187 245.384 42.9711C246.656 42.8545 247.941 42.8413 249.204 42.6665C251.768 42.309 254.324 41.872 256.883 41.4642C257.723 41.3291 257.998 40.9796 258.091 40.0977C258.115 39.8726 258.263 39.5892 258.443 39.478C258.565 39.4012 258.865 39.5416 259.047 39.6475C259.402 39.8488 259.431 40.1692 259.336 40.5506C259.19 41.1332 259.429 41.5807 259.906 41.9356C261.643 43.2279 263.347 44.5653 265.111 45.8206C266.337 46.6919 267.632 47.4651 268.909 48.2649C269.262 48.4847 269.561 48.7231 269.511 49.1706C269.439 49.7797 269.415 50.418 269.211 50.9873C268.687 52.4465 268.771 52.7934 270.152 53.4449C273.553 55.0524 276.607 57.216 279.701 59.324C280.448 59.8325 281.216 60.5025 282.225 59.8325C282.284 59.7954 282.382 59.7901 282.453 59.806C283.425 60.0338 284.154 59.4882 284.94 59.0751C285.624 58.7149 286.323 58.3601 287.057 58.1297C288.013 57.8278 288.792 57.2716 289.491 56.6096C291.035 55.1424 292.516 53.6091 294.058 52.1446C295.629 50.651 297.242 49.2024 298.842 47.7406C299.87 46.8004 300.911 45.8762 301.941 44.9361C302.725 44.2184 302.757 43.9774 302.275 43.0452C301.795 42.1183 301.271 41.2126 300.855 40.2566C300.177 38.6994 299.583 37.1052 298.934 35.5321C298.36 34.1365 297.697 32.7753 297.189 31.3558C296.741 30.1138 296.211 29.5709 294.868 29.4994C293.615 29.4332 292.431 29.171 291.258 28.7102C290.405 28.3739 289.481 28.1991 288.572 28.0243C287.547 27.8283 286.506 27.7277 285.473 27.5609C281.886 26.9888 278.302 26.3877 274.71 25.8316C271.611 25.3522 268.507 24.9232 265.405 24.4651C265.14 24.4253 264.886 24.3247 264.626 24.2505C263.556 23.9513 262.679 24.5233 262.544 25.6065C262.509 25.8739 262.499 26.1493 262.435 26.4089C262.261 27.1371 262.051 27.2854 261.389 26.9491C260.449 26.4698 259.622 26.6207 258.751 27.1133C258.308 27.3649 257.787 27.4708 257.103 27.7145C257.103 26.8326 257.103 26.1811 257.103 25.5297C257.106 24.4809 256.539 23.9328 255.535 23.999C254.886 24.044 254.234 24.044 253.588 24.1022C251.673 24.2744 249.805 23.991 247.962 23.509C247.178 23.3051 246.417 23.0032 245.628 22.8284C243.501 22.3517 241.44 21.7374 239.615 20.4741C239.014 20.0584 238.32 19.775 237.687 19.4016C237.231 19.1315 236.791 18.8296 236.376 18.5065C235.703 17.9848 234.921 18.0616 234.505 18.8216C233.488 20.6728 231.973 22.1187 230.622 23.6997C229.886 24.563 229.049 25.3204 227.655 25.3787C227.655 26.0778 227.518 26.6843 227.687 27.1875C227.978 28.0587 228.455 28.8665 228.863 29.698ZM261.614 39.6184C262.205 36.6285 262.753 33.628 263.341 30.6355C263.564 29.5047 263.847 28.3845 264.12 27.2616C264.303 26.5042 264.435 26.3903 265.225 26.4036C265.842 26.4142 266.464 26.4592 267.076 26.5466C271.248 27.1345 275.423 27.7171 279.59 28.3474C282.151 28.734 284.686 29.3034 287.255 29.6053C288.977 29.8066 290.548 30.2912 292.069 31.0751C292.577 31.3373 293.155 31.5412 293.719 31.6021C294.691 31.7054 295.17 32.3092 295.666 33.048C296.956 34.968 297.597 37.1687 298.463 39.2688C298.964 40.4817 299.39 41.729 299.944 42.9181C300.222 43.5192 300.166 43.9006 299.692 44.3376C298.267 45.6484 296.887 47.007 295.459 48.3152C293.263 50.3253 291.027 52.2929 288.837 54.3082C287.918 55.1557 287.017 55.9925 285.746 56.2706C285.6 56.3024 285.454 56.3845 285.33 56.4745C284.175 57.3299 282.85 57.6344 281.446 57.6186C281.118 57.6159 280.752 57.5126 280.466 57.3484C279.29 56.6811 278.109 56.0164 276.986 55.2669C275.065 53.9852 273.185 52.6425 271.235 51.2892C271.518 50.0763 271.786 48.9376 272.04 47.8465C269.254 46.2522 266.621 44.703 264.26 42.7433C263.458 42.0786 262.711 41.345 261.935 40.6485C261.619 40.3652 261.529 40.0606 261.617 39.6184H261.614ZM249.056 41.9912C249.021 41.9859 249.005 41.8826 248.979 41.8244C249.072 41.8032 249.164 41.7635 249.254 41.7688C249.284 41.7688 249.31 41.88 249.352 41.97C249.244 41.9806 249.146 42.0071 249.056 41.9939V41.9912ZM230.736 27.4523C230.784 27.4126 230.813 27.2907 230.789 27.2351C230.386 26.34 231.107 25.911 231.562 25.3814C232.614 24.1526 233.676 22.9344 234.738 21.7135C235.512 20.8264 235.631 20.7496 236.709 21.2289C238.05 21.8247 239.337 22.5345 240.659 23.1727C241.143 23.4058 241.652 23.5991 242.166 23.7659C243.819 24.3009 245.467 24.8623 247.143 25.3151C248.327 25.6329 249.551 25.8051 250.764 26.0116C251.977 26.2182 253.201 26.3797 254.417 26.5784C255.034 26.679 255.191 27.1795 255.254 27.6933C255.503 29.6874 255.728 31.6842 255.967 33.6783C256.075 34.5893 256.258 35.4977 256.298 36.4113C256.33 37.137 256.221 37.8732 256.118 38.5961C256.036 39.1708 255.691 39.6078 255.116 39.7587C254.52 39.9176 253.911 40.0315 253.299 40.1136C251.117 40.4075 248.931 40.683 246.746 40.9557C246.362 41.0034 245.975 41.0087 245.588 41.0352C244.041 41.3027 242.833 40.781 241.75 39.6448C241.181 39.0463 240.325 38.7286 239.631 38.2386C238.879 37.7037 238.134 37.1502 237.443 36.5411C236.521 35.7254 235.663 34.8356 234.754 34.0067C234.474 33.7498 234.132 33.4691 233.78 33.3976C232.511 33.1354 232.151 32.0682 231.66 31.1254C231.321 30.4739 231.08 29.7722 230.77 29.1074C230.516 28.5566 230.063 28.027 230.733 27.4576L230.736 27.4523Z" fill="#FF6525"/>
<path d="M418.148 46.5516C417.846 46.3476 417.576 46.0987 417.277 45.8895C417.059 45.7386 416.813 45.5029 416.585 45.5082C415.947 45.5267 415.592 45.1215 415.234 44.7296C414.196 43.5829 413.245 42.3514 412.148 41.2657C409.534 38.681 406.874 36.1386 404.196 33.6201C402.761 32.2695 401.253 30.9931 399.77 29.6901C398.52 28.5937 397.169 27.5954 396.027 26.3957C394.472 24.7591 392.788 23.2946 390.984 21.9493C389.519 20.8582 388.025 20.3577 386.322 21.4223C385.148 22.1558 383.821 22.4207 382.483 22.6617C379.747 23.1569 377.011 23.6653 374.282 24.195C371.702 24.6955 369.138 25.2622 366.556 25.7389C364.622 26.0964 362.672 26.3639 360.728 26.6526C359.965 26.7665 359.189 26.8088 358.426 26.9148C356.627 27.161 354.837 27.6086 353.036 27.643C349.714 27.7066 346.387 27.5344 343.063 27.455C342.753 27.4471 342.448 27.3808 342.138 27.3597C341.214 27.2988 340.292 27.2272 339.365 27.2114C339.137 27.2087 338.734 27.3729 338.705 27.5186C338.565 28.2203 338.353 28.9751 338.485 29.6504C338.872 31.6128 339.465 33.5354 339.881 35.4951C340.318 37.566 340.655 39.6582 341.015 41.745C341.357 43.7232 341.669 45.7094 342.008 47.6877C342.138 48.4477 342.31 49.2025 342.459 49.9599C342.771 51.5515 343.16 53.1351 343.372 54.74C343.685 57.0996 344.66 59.3638 344.419 61.8055C344.371 62.2822 344.631 62.6424 345.062 62.8119C345.489 62.9813 345.939 63.1058 346.392 63.1932C347.036 63.3177 347.725 63.2965 348.334 63.5083C349.42 63.887 350.122 63.2329 350.845 62.69C351.393 62.2796 351.075 61.6095 351.086 61.0508C351.094 60.7038 351.03 60.3569 350.999 60.01C350.98 60.01 350.962 60.0073 350.943 60.0047C351.057 58.0344 351.165 56.0614 351.29 54.0911C351.335 53.3973 351.391 52.7008 351.491 52.0123C351.735 50.3359 351.995 50.1082 353.608 50.1585C358.137 50.3015 362.664 50.4551 367.191 50.6087C371.451 50.7543 375.71 50.9 379.967 51.0642C385.654 51.2866 391.341 51.5038 397.026 51.7713C399.346 51.8825 401.677 51.9937 403.971 52.3354C407.481 52.8571 411.076 52.7246 414.514 53.8025C415.56 54.1309 416.508 53.6039 416.779 52.7299C416.885 52.3857 416.787 51.9778 416.789 51.5991C416.802 50.132 416.707 48.6384 418.225 47.7062C418.641 47.452 418.551 46.8164 418.148 46.5463V46.5516ZM380.293 23.7501C380.319 23.7448 380.362 23.8481 380.42 23.9355C380.311 23.9646 380.216 24.0096 380.121 24.007C380.081 24.007 380.044 23.9063 380.007 23.8507C380.102 23.8136 380.195 23.7633 380.293 23.7501ZM415.295 49.2131C415.218 49.5441 415.282 49.9043 415.261 50.2512C415.208 51.1092 414.935 51.4508 414.087 51.5382C413.399 51.6097 412.694 51.6336 412.008 51.5674C408.273 51.2045 404.543 50.7702 400.806 50.4313C397.378 50.1188 393.942 49.8672 390.507 49.6474C388.806 49.5388 387.098 49.5865 385.395 49.5361C380.052 49.3746 374.709 49.229 369.369 49.0171C366.741 48.9112 364.119 48.6384 361.491 48.5007C358.63 48.3497 355.764 48.2756 352.903 48.1485C352.132 48.114 351.364 47.9949 350.593 47.9498C349.875 47.9075 349.687 48.0478 349.579 48.7443C349.507 49.1998 349.502 49.6686 349.515 50.132C349.55 51.2072 349.682 52.2824 349.653 53.3523C349.603 55.1637 349.454 56.9725 349.354 58.7812C349.317 59.4353 349.327 60.0974 349.248 60.7462C349.221 60.966 348.983 61.3262 348.829 61.3315C348.185 61.358 347.529 61.3262 346.895 61.2123C346.413 61.1249 346.315 60.6535 346.233 60.2192C345.285 55.2087 344.315 50.2035 343.386 45.1904C342.885 42.4891 342.493 39.7694 341.966 37.0761C341.534 34.8834 340.97 32.7197 340.469 30.5402C340.4 30.2463 340.355 29.947 340.263 29.4544C340.967 29.4227 341.502 29.375 342.035 29.3776C345.597 29.3988 349.158 29.4094 352.72 29.465C354.834 29.4968 356.855 28.9301 358.921 28.6467C360.683 28.4057 362.455 28.2336 364.211 27.9582C365.965 27.6827 367.71 27.3411 369.453 26.9889C371.904 26.4937 374.343 25.9561 376.791 25.445C379.133 24.955 381.474 24.4704 383.818 23.9964C385.371 23.6812 386.915 23.2787 388.483 23.1383C389.129 23.0801 389.834 23.5912 390.499 23.8746C390.666 23.9461 390.761 24.1712 390.928 24.2586C392.494 25.0822 393.58 26.4513 394.843 27.6271C396.483 29.1552 398.223 30.572 399.91 32.0497C400.957 32.966 401.995 33.8903 403.02 34.8277C404.215 35.9241 405.404 37.0284 406.575 38.1513C407.243 38.7948 407.854 39.4966 408.517 40.1454C409.484 41.0935 410.522 41.9754 411.444 42.9632C412.336 43.9218 413.123 44.9811 413.958 45.9928C414.106 46.1729 414.238 46.3715 414.416 46.5171C415.29 47.2295 415.563 48.1193 415.306 49.2131H415.295Z" fill="#FF6525"/>
<path d="M123.239 77.1203C123.678 76.5457 124.266 76.0796 124.812 75.5923C125.617 74.8773 126.465 74.2046 127.26 73.479C127.758 73.0235 127.699 72.0754 127.204 71.604C126.87 71.2862 126.428 71.3365 125.893 71.8529C124.423 73.2671 122.976 74.7078 121.522 76.1378C120.913 76.7337 120.709 77.3931 121.239 78.267C122.081 78.0816 122.73 77.7903 123.241 77.1203H123.239Z" fill="#FF6525"/>
<path d="M317.583 65.7381C316.992 64.6523 316.43 63.5506 315.837 62.4675C315.456 61.771 314.897 61.3287 314.044 61.4691C313.056 61.6333 312.076 61.8531 311.085 61.9908C309.098 62.2662 307.106 63.1031 305.133 61.7922C304.532 61.3949 303.898 61.6386 303.647 62.2132C303.024 63.638 301.843 64.504 300.64 65.3461C300.177 65.6719 299.946 66.0453 299.944 66.5882C299.944 66.9748 299.944 67.3614 299.944 67.7481C299.954 67.7481 299.962 67.7481 299.973 67.7481C299.904 68.479 299.872 69.2152 299.761 69.9408C299.538 71.3894 299.242 72.8274 299.03 74.2787C298.852 75.4995 299.459 76.2119 300.709 76.3682C301.324 76.445 301.938 76.5138 302.55 76.5959C304.502 76.8607 306.455 77.1335 308.407 77.4036C309.551 77.5625 310.698 77.7108 311.84 77.8856C312.627 78.0048 313.133 77.785 313.546 77.0117C314.438 75.3459 315.273 73.6484 316.195 71.9985C316.867 70.7909 317.617 69.6257 318.375 68.4711C318.73 67.9282 318.761 67.621 318.354 67.0013C318.083 66.5882 317.818 66.1697 317.583 65.7381ZM316.078 68.524C315.034 70.4149 313.98 72.3004 312.931 74.186C312.857 74.3211 312.767 74.4482 312.695 74.5859C312.261 75.4492 311.575 75.8147 310.613 75.6452C310.423 75.6134 310.229 75.6108 310.036 75.5922C310.028 75.6425 310.02 75.6929 310.012 75.7432C308.073 75.4174 306.134 75.0891 304.195 74.7633C303.475 74.6442 302.746 74.5515 302.028 74.4164C301.191 74.2575 300.94 74.0192 301.133 73.2538C301.623 71.2968 301.814 69.3 302.065 67.3085C302.1 67.0278 302.301 66.7418 302.492 66.5114C302.812 66.1247 303.189 65.7884 303.536 65.4229C304.344 64.5702 305.218 64.165 306.505 64.255C308.025 64.3583 309.578 64.0379 311.114 63.8816C311.649 63.826 312.197 63.7757 312.709 63.6195C313.97 63.2355 314.722 63.9267 315.276 64.8588C315.683 65.5447 315.89 66.3498 316.219 67.086C316.452 67.6051 316.327 68.0712 316.078 68.524Z" fill="#FF6525"/>
<path d="M340.777 58.1244C339.754 53.8793 338.697 49.6447 337.73 45.3863C337.148 42.8255 336.697 40.2381 336.21 37.6561C335.924 36.1413 335.675 34.6159 335.428 33.0931C335.275 32.1398 335.187 31.1732 335.013 30.2224C334.814 29.1393 334.07 28.562 332.981 28.5381C330.785 28.4878 328.581 28.7076 326.388 28.3978C326.202 28.3713 326.006 28.4507 325.813 28.4613C325.039 28.5064 324.266 28.517 323.495 28.5911C322.287 28.7076 321.442 28.0747 320.624 27.3226C318.921 25.7548 317.164 24.2427 315.501 22.6325C314.311 21.4832 312.905 20.5563 311.965 19.1421C311.575 18.5542 311.157 18.5383 310.433 18.782C309.52 19.0918 308.6 19.407 307.663 19.6294C305.668 20.0981 303.658 20.4927 301.66 20.9429C299.589 21.4117 297.531 21.9413 295.454 22.3836C294.63 22.5584 293.764 22.5425 292.927 22.6696C292.617 22.7173 292.238 22.8444 292.047 23.0668C291.528 23.6786 291.82 24.4545 292.681 24.7935C294.259 25.4185 295.841 26.017 297.382 26.7506C299.748 27.8734 301.954 29.3697 304.534 30.0291C304.571 30.0397 304.603 30.0715 304.64 30.0794C305.533 30.2595 305.742 30.9057 305.827 31.7028C306.023 33.5857 306.166 35.4845 306.516 37.3409C306.831 39.0199 307.069 40.6883 306.963 42.3885C306.94 42.7725 306.736 43.1936 306.497 43.5114C305.92 44.282 305.289 45.0156 304.654 45.7412C304.042 46.435 303.427 47.1289 302.754 47.7645C301.968 48.506 301.072 49.1389 300.304 49.899C298.05 52.1341 295.849 54.4195 293.594 56.6573C293.197 57.0519 292.686 57.4571 292.164 57.5789C291.001 57.849 289.801 57.9788 288.609 58.1006C286.339 58.331 284.064 58.5296 281.788 58.7177C280.562 58.8183 279.309 58.9984 278.281 58.0318C278.146 57.9046 277.945 57.8411 277.773 57.7537C275.439 56.5461 273.105 55.3411 270.774 54.1309C270.639 54.062 270.544 53.9217 270.414 53.8449C269.32 53.204 268.234 52.5472 267.113 51.9567C266.846 51.8163 266.433 51.811 266.133 51.8984C265.397 52.1129 264.687 52.4201 263.967 52.6849C262.624 53.1775 261.291 53.7125 259.93 54.1468C256.573 55.2114 253.204 56.2336 249.837 57.2611C248.804 57.5763 247.758 57.849 246.725 58.1668C246.479 58.241 246.19 58.3601 246.052 58.5535C245.766 58.9481 245.371 59.4088 245.377 59.8379C245.382 60.5291 245.607 61.2441 245.867 61.8982C246.089 62.457 246.555 62.9151 246.807 63.4686C247.461 64.9146 248.057 66.3843 248.674 67.8488C248.825 68.2063 248.955 68.5718 249.109 68.9267C249.284 69.3292 249.162 69.6179 248.77 69.7635C247.657 70.1767 246.534 70.5686 245.334 71.0003C244.969 70.1581 245.101 69.1068 244.089 68.8154C243.255 68.5745 242.463 68.736 241.676 69.4087C241.597 68.3547 240.9 68.111 240.195 67.9071C239.864 67.8118 239.507 67.8091 239.16 67.7694C237.234 67.5469 235.361 67.102 233.52 66.5512C233.404 66.0321 233.186 65.5713 233.234 65.1397C233.29 64.6233 233.012 64.3505 232.768 64.0115C232.018 62.9787 231.298 61.9247 230.516 60.9183C229.82 60.0232 229.285 58.9083 227.936 58.7786C227.838 58.768 227.706 58.6779 227.661 58.5879C227.218 57.714 226.601 56.893 226.699 55.7807C226.972 55.7807 227.157 55.7701 227.343 55.7807C228.85 55.892 229.422 55.0922 228.834 53.7283C228.5 52.9498 228.185 52.1553 227.931 51.3476C227.054 48.5378 226.673 45.63 226.305 42.7222C226.273 42.4627 226.193 42.1872 226.056 41.9701C225.571 41.1994 224.93 40.593 224.034 40.3149C222.89 39.9601 221.748 39.592 220.591 39.2768C219.521 38.9829 218.435 38.7498 217.349 38.4903C216.885 39.3457 216.509 40.0607 216.559 40.9108C216.689 43.1856 216.904 45.4525 217.489 47.6665C217.568 47.9631 217.621 48.2676 217.664 48.5722C217.937 50.5134 218.445 52.4122 218.604 54.3772C218.7 55.5583 219.571 56.0879 220.713 55.8549C220.967 55.8019 221.229 55.786 221.666 55.7304C221.629 58.135 222.233 60.3198 223.489 62.5311C222.991 62.4914 222.601 62.5497 222.291 62.4173C221.801 62.2081 221.322 61.9273 220.914 61.5857C218.837 59.8485 216.787 58.0821 214.726 56.3289C214.093 55.7887 213.42 55.5239 212.597 55.9449C212.382 56.0535 212.099 56.0323 211.81 56.0773C211.495 54.7002 211.195 53.4053 210.922 52.2082C211.712 51.8057 212.387 51.4614 213.171 51.0589C213.007 50.4683 212.888 49.9546 212.718 49.4593C212.544 48.9535 212.26 48.4795 212.122 47.9631C211.622 46.1067 211.081 44.2529 210.71 42.3673C210.382 40.7095 209.985 39.0332 210.393 37.3092C210.448 37.0788 210.276 36.6312 210.08 36.5279C208.822 35.8579 207.582 34.9893 206.229 34.7006C204.507 34.3325 202.766 34.0756 201.09 33.4983C200.393 33.2573 199.781 33.5778 199.23 33.9326C198.692 34.2769 198.939 34.8251 199.026 35.315C199.053 35.4633 199.026 35.6222 199.016 35.7758C198.817 38.8398 199.132 41.8695 199.604 44.8885C199.826 46.3238 200.131 47.7512 200.303 49.1919C200.467 50.569 200.494 51.962 200.613 53.3443C200.719 54.6102 201.556 55.0419 202.69 54.5016C203.188 54.2633 203.744 54.1521 204.47 53.919C204.274 55.982 204.803 57.6901 205.654 59.2764C205.031 60.0312 203.754 60.0656 203.837 61.1011C204.539 61.9988 205.132 62.7536 205.72 63.511C206.051 63.9374 206.321 64.422 206.703 64.7954C209.741 67.7773 212.506 71.032 215.773 73.7836C216.859 74.6972 218.138 74.5277 218.843 73.3228C218.962 73.1189 219.206 72.9891 219.391 72.8249C219.547 73.0156 219.809 73.1877 219.839 73.3969C219.934 74.0458 220.239 74.3212 220.906 74.3609C221.356 74.3874 221.804 74.5833 222.236 74.7502C223.017 75.0521 223.083 75.2957 222.652 76.0558C222.127 76.9774 222.209 77.4329 223.036 78.1188C223.788 78.7438 224.604 79.1913 225.595 79.4032C226.779 79.6574 227.936 79.901 229.149 79.6839C229.245 79.668 229.353 79.7342 229.655 79.8163C228.697 80.5975 227.881 81.339 226.985 81.9746C225.918 82.732 225.73 83.1293 226.135 84.3713C226.418 85.2373 226.718 86.1006 227.028 87.0143C226.384 87.2182 225.833 87.5413 225.287 87.528C224.596 87.5095 224.14 87.7637 223.653 88.1742C223.391 88.3966 222.993 88.4549 222.673 88.582C222.408 88.1927 222.238 87.8882 222.016 87.6339C221.491 87.0354 221.001 86.8712 220.376 87.3029C219.651 87.8061 218.819 87.9809 218.032 88.1901C215.72 88.8071 213.365 89.26 211.031 89.8029C210.321 89.9671 209.622 90.1922 208.93 90.4252C207.662 90.8569 206.48 91.5375 205.045 91.3892C204.184 91.2991 203.807 91.7626 203.749 92.6392C203.733 92.8854 203.694 93.1317 203.656 93.4707C202.984 93.1741 202.435 92.8987 201.863 92.6868C201.294 92.4723 200.7 92.3187 199.972 92.0936C200.269 91.18 200.528 90.3749 200.809 89.5169C201.932 90.3696 202.255 90.3934 202.96 89.7737C203.643 89.1752 203.694 89.1699 204.226 89.93C204.554 90.4014 204.965 90.6953 205.503 90.7854C206.361 90.1471 206.335 90.1471 206.303 89.1593C206.247 87.4194 206.17 85.6795 206.215 83.9423C206.247 82.7267 206.43 82.6208 207.667 82.4195C208.43 82.2951 209.198 82.1785 209.966 82.0885C212.234 81.8157 214.506 81.6754 216.792 81.7972C217.908 81.8555 218.045 81.9243 218.183 83.0525C218.27 83.7728 218.196 84.5143 218.204 85.2452C218.212 86.0847 218.623 86.5482 219.351 86.5482C220.103 86.5482 220.522 86.1006 220.474 85.2585C220.411 84.178 220.334 83.0948 220.199 82.0196C219.998 80.4042 219.383 79.8507 217.786 79.8031C214.218 79.6971 210.665 79.8719 207.134 80.4095C206.872 80.4492 206.589 80.4545 206.329 80.4042C204.817 80.1076 204.38 80.3301 203.866 81.776C202.973 81.1086 202.147 80.5022 201.328 79.8825C200.997 79.6309 200.97 79.2787 201.156 78.945C201.397 78.5107 201.651 78.0764 201.966 77.695C202.748 76.7443 202.57 75.8889 201.508 75.3487C200.343 74.7528 199.172 74.149 198.078 73.4367C195.048 71.4584 191.628 70.2561 188.46 68.5559C187.972 68.2937 187.543 68.397 187.058 68.7042C186.052 69.3451 184.984 69.8933 183.938 70.4759C182.216 71.4346 180.489 72.3827 178.773 73.3493C178.505 73.5002 178.262 73.7068 178.047 73.9266C177.658 74.3212 177.679 74.6416 178.081 75.0124C178.561 75.452 179.112 75.64 179.66 75.4255C181.377 77.2713 183.249 78.7994 185.281 80.052C187.355 81.3311 189.36 82.6817 191.291 84.1594C192.714 85.2479 194.16 86.3681 196.107 86.3284C196.179 86.3284 196.255 86.3707 196.324 86.4052C196.955 86.7124 197.355 86.4396 197.646 85.8835C197.747 85.6901 197.869 85.5074 197.98 85.322C198.062 85.3273 198.144 85.33 198.226 85.3353C198.292 85.7563 198.412 86.1774 198.414 86.6011C198.42 87.0513 198.316 87.4989 198.261 87.9306C198.534 88.1848 198.783 88.4125 199.021 88.6323C198.814 88.9952 198.605 89.1699 198.247 88.9184C197.996 88.7409 197.752 88.5052 197.471 88.4284C196.324 88.1106 195.161 87.8432 194.004 87.5572C191.419 86.9189 188.833 86.278 186.248 85.6398C185.61 85.4836 184.905 85.4491 184.349 85.1472C183.657 84.7712 183.162 84.9248 182.539 85.2532C179.808 86.6965 177.085 88.161 174.068 88.9528C173.266 89.162 172.765 89.8929 172.932 90.5682C173.303 92.0724 173.523 93.5899 173.523 95.1418C173.523 96.2169 173.933 96.683 175.003 96.6142C176.858 96.4977 178.473 97.3425 180.174 97.79C182.296 98.3488 184.15 99.62 186.237 100.369C188.968 101.347 191.636 102.448 194.539 102.814C194.957 102.867 195.445 103.134 195.776 102.996C196.618 102.652 197.424 102.178 198.179 101.662C198.443 101.482 198.523 101.029 198.751 100.579C199.257 100.947 199.726 101.214 200.104 101.577C201.193 102.618 202.366 103.455 203.937 103.55C204.16 103.563 204.374 103.669 204.663 103.754C204.682 104.109 204.697 104.45 204.716 104.792C204.764 105.682 205.18 106.151 206.062 106.217C206.48 106.249 206.909 106.164 207.333 106.143C207.834 106.116 208.34 106.047 208.835 106.092C210.337 106.23 211.828 106.344 213.32 105.97C214.218 105.745 215.129 105.568 216.037 105.383C217.248 105.136 218.469 104.927 219.674 104.657C222.085 104.114 224.487 103.531 226.895 102.983C227.748 102.79 227.756 102.71 227.992 101.876C228.233 101.01 227.708 100.314 227.603 99.4822C229.518 99.1009 230.312 97.0511 232.227 96.4315C232.185 96.7439 232.185 96.8949 232.143 97.03C231.82 98.0707 232.368 98.7884 233.438 98.6745C233.819 98.6322 234.19 98.4944 234.561 98.3832C235.08 98.2296 235.586 97.9833 236.116 97.9145C238.007 97.6735 239.825 97.1942 241.628 96.5771C243.673 95.8753 245.774 95.3324 247.848 94.7233C249.069 94.3632 250.301 94.0427 251.503 93.6349C252.492 93.3012 253.466 92.9119 254.401 92.4538C255.23 92.0486 255.289 91.4819 254.661 90.7774C254.486 90.5815 254.219 90.4755 254.015 90.3034C253.768 90.0915 253.546 89.8532 253.217 89.5327C253.615 89.2891 253.853 89.0402 254.126 88.9978C254.979 88.8707 255.842 88.8204 256.815 88.7303C256.899 89.0534 257.018 89.448 257.106 89.8479C257.262 90.5656 257.617 91.2276 258.25 91.5242C259.074 91.9082 259.985 92.2101 260.883 92.3108C262.104 92.4458 263.352 92.3876 264.586 92.3584C268.027 92.2763 271.474 92.2472 274.906 92.0459C277.452 91.8976 279.987 91.5163 282.525 91.2356C283.717 91.1032 284.927 91.0528 286.098 90.8119C287.878 90.4464 289.64 89.975 291.393 89.501C294.156 88.7515 296.892 87.9226 299.539 86.8209C300.111 86.5826 300.693 86.3707 301.255 86.1086C303.74 84.938 306.216 83.749 308.701 82.5784C310.171 81.8872 311.631 81.1616 313.133 80.5525C316.865 79.0404 320.626 77.605 324.361 76.1034C325.434 75.6718 326.435 75.068 327.508 74.6337C328.615 74.1861 329.755 73.8048 330.904 73.4764C331.614 73.2751 332.003 72.8011 332.34 72.2238C332.705 71.5935 333.007 70.9208 333.426 70.3302C334.319 69.0697 335.243 67.8303 336.202 66.6147C337.593 64.851 338.954 63.0581 340.461 61.4003C341.227 60.5582 341.714 59.859 341.01 58.7892C340.885 58.6011 340.838 58.3575 340.782 58.1324L340.777 58.1244ZM203.437 51.9037C203.227 51.9646 202.994 51.9461 202.605 51.9778C202.504 51.141 202.348 50.3518 202.324 49.5573C202.274 47.8466 201.921 46.1993 201.58 44.5283C201.084 42.1131 200.721 39.6555 201.026 37.1609C201.076 36.753 201.034 36.332 201.034 35.8155C201.521 35.8155 201.943 35.7467 202.335 35.8288C203.845 36.1413 205.349 36.4829 206.848 36.8484C207.874 37.0999 208.032 37.378 208.21 38.4506C208.525 40.3494 208.83 42.2587 209.277 44.1284C209.439 44.8064 209.691 45.4552 209.789 46.1676C209.887 46.88 210.244 47.55 210.419 48.257C210.745 49.5785 210.647 49.7798 209.328 50.1876C207.376 50.7941 205.405 51.3449 203.439 51.9063L203.437 51.9037ZM216.983 71.9245C215.611 70.987 214.339 70.0946 213.259 68.9293C211.815 67.3748 210.308 65.8785 208.838 64.3478C207.99 63.466 207.044 62.645 206.758 61.2282C207.487 60.8495 208.136 60.5185 208.782 60.1742C209.94 59.5545 211.108 58.956 212.244 58.2939C212.843 57.947 213.277 58.0265 213.804 58.4528C215.121 59.5227 216.514 60.4973 217.831 61.5698C219.02 62.5391 220.146 63.5878 221.391 64.6842C219.929 67.0861 218.477 69.4722 216.988 71.9218L216.983 71.9245ZM198.096 92.3796C197.53 95.0199 196.481 97.5464 196.197 100.256C196.184 100.388 196.036 100.504 195.887 100.716C194.576 100.542 193.233 100.43 191.919 100.165C191.021 99.9828 190.155 99.6094 189.294 99.273C187.39 98.5315 185.469 97.8244 183.604 96.9849C181.337 95.9654 179.006 95.1841 176.587 94.6386C175.501 94.3923 175.403 94.2519 175.356 93.1768C175.34 92.7928 175.284 92.4088 175.242 92.0248C175.125 90.9575 175.287 90.6741 176.299 90.2557C176.762 90.0651 177.255 89.9379 177.711 89.7314C179.011 89.1355 180.314 88.5476 181.583 87.8935C182.645 87.3426 183.739 87.3109 184.857 87.5519C185.912 87.777 186.95 88.0842 187.999 88.341C189.874 88.8018 191.747 89.2653 193.625 89.7049C194.979 90.0227 196.332 90.3166 197.379 91.3494C197.553 91.5216 197.85 91.5666 198.131 91.6884C198.12 91.9321 198.141 92.1651 198.094 92.3849L198.096 92.3796ZM195.837 84.2733C193.442 83.5027 191.604 81.9905 189.705 80.5366C188.15 79.3449 186.386 78.4313 184.78 77.2978C183.745 76.5669 182.786 75.7115 181.875 74.827C181.236 74.2099 181.321 73.8604 182.14 73.4261C183.26 72.8302 184.418 72.3111 185.565 71.7656C185.877 71.6147 186.235 71.5326 186.513 71.3339C187.329 70.7434 188.174 70.7381 189.037 71.1459C192.425 72.7455 195.911 74.1596 198.994 76.3444C199.209 76.4954 199.4 76.6808 199.702 76.935C198.401 79.4085 197.114 81.8581 195.842 84.276L195.837 84.2733ZM224.53 101.275C222.175 101.882 219.809 102.451 217.439 102.999C216.085 103.312 214.726 103.616 213.354 103.809C212.295 103.96 211.208 103.952 210.133 103.982C209.593 103.995 209.052 103.913 208.509 103.91C207.148 103.902 206.655 103.574 206.446 102.273C206.173 100.56 205.993 98.8334 205.77 97.1121C205.807 97.1068 205.844 97.0988 205.882 97.0935C205.882 96.3202 205.945 95.539 205.863 94.7736C205.786 94.0639 206.062 93.6693 206.674 93.4283C206.888 93.3436 207.103 93.2588 207.323 93.1847C210.432 92.1042 213.635 91.3945 216.853 90.7351C217.833 90.5338 218.774 90.1445 219.735 89.8585C220.734 89.5619 220.792 89.5698 221.311 90.4755C221.616 91.0078 221.984 91.5746 222.053 92.1598C222.265 93.905 223.163 95.3669 223.86 96.9081C224.172 97.5967 224.641 98.2137 225.022 98.8731C225.176 99.1406 225.322 99.4213 225.404 99.7179C225.642 100.589 225.42 101.045 224.53 101.275ZM227.163 62.2054C228.254 61.1673 228.289 61.1487 229.152 62.3352C229.719 63.1138 230.209 63.9532 230.681 64.7954C230.858 65.1158 230.884 65.5184 231.059 66.1804C229.033 65.4892 227.947 64.0724 226.633 62.8198C226.829 62.5894 226.98 62.3802 227.163 62.2028V62.2054ZM224.095 53.6224C223.216 53.6807 222.329 53.5959 221.444 53.6171C220.914 53.6304 220.578 53.5403 220.464 52.9206C219.987 50.2988 219.417 47.693 218.983 45.0659C218.766 43.7444 218.776 42.3832 218.874 40.7731C219.992 41.0617 220.877 41.2895 221.759 41.5252C221.907 41.5649 222.042 41.6841 222.191 41.6947C223.619 41.7821 224.291 42.5606 224.495 43.9563C224.691 45.2857 225.041 46.5966 225.348 47.9101C225.701 49.4143 226.079 50.9132 226.445 52.4175C226.524 52.7432 226.591 53.0716 226.67 53.4344C225.775 53.8925 224.917 53.5721 224.098 53.6277L224.095 53.6224ZM224.416 63.805C225.422 64.5147 226.294 65.1158 227.147 65.7435C227.359 65.8971 227.576 66.1063 227.671 66.3393C227.833 66.726 227.92 67.1815 227.515 67.4887C227.142 67.7694 226.866 67.4622 226.625 67.2238C225.947 66.5538 225.266 65.8838 224.628 65.1767C224.276 64.7875 224.313 64.7557 224.419 63.805H224.416ZM229.171 78.0552C228.964 77.8354 228.572 77.7507 228.246 77.6897C227.377 77.5282 226.49 77.4461 225.624 77.2634C224.946 77.1204 224.792 76.845 224.951 76.1723C225.038 75.8015 225.187 75.4308 225.385 75.1077C226.342 73.5664 227.338 72.0516 228.289 70.5077C228.606 69.9886 228.85 69.4219 229.102 68.8658C229.266 68.503 229.52 68.3652 229.915 68.3414C231.157 68.2646 232.373 68.3043 233.592 68.638C234.704 68.9426 235.864 69.0829 236.998 69.316C238.238 69.5702 239.47 69.8483 240.982 70.174C237.409 73.6247 233.348 76.1008 230.111 79.5091C229.73 78.9 229.51 78.418 229.168 78.0552H229.171ZM250.706 91.564C249.368 92.0671 248.049 92.6286 246.682 93.0311C243.869 93.8626 241.032 94.6121 238.203 95.388C237.311 95.6343 236.41 95.8568 235.512 96.0898C235.056 96.209 234.662 96.1269 234.386 95.7164C233.38 94.2096 232.246 92.7689 231.406 91.1773C230.31 89.0984 229.465 86.8898 228.477 84.7526C228.09 83.9158 228.44 83.3305 229.017 82.8141C229.706 82.1944 230.442 81.6277 231.139 81.0186C232.736 79.6203 234.302 78.1823 235.923 76.8132C237.695 75.3169 239.504 73.8657 241.316 72.4171C241.846 71.9934 242.431 71.6385 243.072 71.1989C243.207 71.5167 243.321 71.71 243.371 71.9166C243.896 74.0484 244.537 76.122 245.546 78.1029C246.595 80.1659 247.437 82.3374 248.314 84.4825C248.857 85.8093 249.398 87.1202 250.266 88.2854C250.677 88.8363 250.966 89.4851 251.262 90.1127C251.718 91.074 251.662 91.2038 250.704 91.564H250.706ZM338.022 61.1196C337.314 61.8135 336.806 62.7112 336.194 63.5083C334.289 65.9898 332.395 68.4818 330.454 70.934C330.136 71.3339 329.63 71.6305 329.153 71.8477C326.764 72.9441 324.372 74.0378 321.946 75.0521C319.63 76.0214 317.268 76.882 314.934 77.8142C313.575 78.3571 312.235 78.953 310.881 79.517C308.884 80.3512 306.876 81.1669 304.884 82.0143C303.568 82.5731 302.259 83.1531 300.964 83.7622C300.41 84.0217 299.936 84.5011 299.364 84.6706C297.878 85.1102 296.498 85.7908 295.065 86.3522C292.54 87.3426 289.849 87.7743 287.232 88.4523C284.744 89.0958 282.18 89.1832 279.661 89.5804C277.696 89.8903 275.746 89.9988 273.767 89.9565C272.999 89.9406 272.228 90.1313 271.458 90.1524C269.606 90.2028 267.752 90.2372 265.898 90.2239C264.817 90.216 263.736 90.1207 262.655 90.0253C261.847 89.9565 261.045 89.8294 260.24 89.7234C259.614 89.6413 259.323 89.1726 259.111 88.6668C258.589 87.4221 258.075 86.1721 257.593 84.9089C256.417 81.8369 255.299 78.7411 254.081 75.6877C252.746 72.3429 251.329 69.0326 249.935 65.7117C249.278 64.1439 248.582 62.592 247.925 61.0243C247.604 60.2563 247.649 60.0577 248.418 59.7875C250.603 59.0169 252.812 58.3151 255.011 57.5763C256.515 57.0704 258.012 56.5461 259.514 56.0403C261.347 55.4232 263.164 54.7506 265.026 54.2342C265.855 54.0038 266.711 54.0832 267.569 54.6129C268.769 55.3544 269.95 56.1912 271.357 56.5567C271.468 56.5858 271.572 56.6441 271.672 56.7023C274.011 58.0476 276.334 59.4221 278.7 60.7171C279.169 60.974 279.818 61.0322 280.366 60.9846C283.87 60.6853 287.367 60.3225 290.869 60.0047C291.669 59.9332 292.495 60.0418 293.279 59.9041C294.193 59.7452 294.241 58.6726 294.861 58.143C295.918 57.2399 296.921 56.2654 297.888 55.2617C298.964 54.1494 299.925 52.9259 301.025 51.8375C302.148 50.7226 303.409 49.7454 304.548 48.6437C305.295 47.9234 305.92 47.0812 306.622 46.3159C307.276 45.6061 307.978 44.9388 308.622 44.2211C308.86 43.9536 309.13 43.6067 309.157 43.2783C309.22 42.4997 309.17 41.7079 309.114 40.924C309.083 40.4765 308.942 40.0369 308.873 39.5893C308.402 36.4935 307.893 33.403 307.501 30.2992C307.379 29.33 306.955 28.8347 306.076 28.5911C304.887 28.2601 303.7 27.9132 302.516 27.5636C302.296 27.4974 302.076 27.41 301.875 27.2988C300.519 26.5519 299.165 25.8025 297.817 25.0424C297.494 24.8597 297.2 24.632 296.892 24.4227C296.914 24.3195 296.935 24.2162 296.953 24.1129C297.393 24.0043 297.833 23.8931 298.275 23.7898C299.441 23.517 300.622 23.3078 301.766 22.9636C303.133 22.5504 304.476 22.1108 305.917 21.9546C307.21 21.8142 308.484 21.4541 309.753 21.1442C310.365 20.9933 310.865 21.0224 311.363 21.4646C313.501 23.3661 315.673 25.2252 317.8 27.1346C318.804 28.035 319.731 29.0175 320.698 29.9603C321.18 30.429 321.694 30.7494 322.438 30.6382C323.238 30.519 324.059 30.5217 324.87 30.4714C325.024 30.4608 325.18 30.429 325.334 30.4396C327.649 30.5799 329.964 30.7335 332.282 30.8633C332.941 30.9004 333.352 31.2552 333.346 31.8591C333.317 34.4967 334.258 36.9516 334.7 39.4993C335.058 41.5543 335.232 43.6491 335.725 45.6697C336.101 47.2163 336.279 48.8344 337.026 50.2988C337.291 50.8179 337.264 51.4773 337.397 52.0679C337.852 54.1017 338.316 56.133 338.779 58.1642C339.036 59.2844 338.901 60.2457 338.008 61.1223L338.022 61.1196Z" fill="black"/>
<path d="M175.141 64.16C177.435 63.5218 178.365 60.5769 176.794 58.7522C175.001 56.6707 173.125 54.6607 171.29 52.6189C171.176 52.4918 171.078 52.3461 170.937 52.1634C171.7 51.8165 172.254 52.2587 172.765 52.4918C175.907 53.9271 179.279 54.6925 182.486 55.9266C183.244 56.2179 183.983 56.202 184.529 55.3731C184.794 54.9679 185.244 54.6739 185.641 54.3667C186.894 53.3948 188.174 52.46 189.416 51.4775C190.359 50.7307 190.449 50.2222 189.978 49.1762C189.856 48.906 189.731 48.5882 189.758 48.3075C189.864 47.2694 189.278 46.7662 188.449 46.3531C187.281 45.7705 186.036 45.4183 184.881 44.7403C182.322 43.2335 179.618 41.9703 176.958 40.6355C175.231 39.7696 173.433 39.0386 171.75 38.0985C169.56 36.875 167.446 35.5165 165.311 34.195C163.173 32.8709 161.049 31.5282 158.927 30.1829C157.401 29.2136 155.839 28.2947 154.382 27.2301C152.912 26.1522 151.343 25.5908 149.518 25.4213C146.692 25.1591 144.051 24.0495 141.333 23.2948C140.97 23.1941 140.565 23.0432 140.311 22.7836C139.797 22.2619 139.127 22.1057 138.517 21.7932C137.182 21.11 135.802 20.5088 134.616 19.5369C133.151 18.3399 131.649 17.1773 130.083 16.118C127.236 14.1901 124.338 12.3363 121.445 10.4799C119.66 9.33316 117.822 8.26327 116.052 7.09274C115.469 6.70609 114.948 6.68755 114.309 6.79348C113.226 6.97357 112.132 7.14835 111.038 7.17748C109.92 7.20661 108.794 7.09009 107.676 6.98416C106.458 6.86764 101.277 6.42273 100.077 6.27443C100.013 6.25589 99.9495 6.24 99.8753 6.2347C93.306 5.76596 86.7394 5.29457 80.1702 4.82583C76.9306 4.59543 73.6883 4.36239 70.4487 4.13199C67.225 3.90159 63.9642 3.77447 60.7723 3.23688C57.8903 2.7496 55.2017 1.39369 52.3117 1.04412C49.2417 0.673368 46.1742 1.54729 43.2101 2.23054C36.8501 3.70032 30.4901 5.1701 24.1328 6.63989C16.9145 8.30034 -158.217 43.8267 -165.435 45.4951C-166.423 45.7228 -166.005 47.2429 -165.017 47.0152C-152.297 44.0756 28.3339 7.27812 41.0539 4.3412C44.0869 3.63941 47.2259 2.63837 50.3542 2.53244C53.5064 2.42651 56.3354 3.9625 59.3737 4.5716C65.384 5.77391 71.7069 5.79509 77.8073 6.23206C85.0203 6.74846 92.2359 7.26487 99.4488 7.77864C99.8462 8.17058 100.394 8.28975 101.059 8.29505C102.524 8.30829 104.002 8.38773 105.451 8.59959C106.747 8.79027 108.021 9.03126 109.332 8.79821C109.509 8.76643 109.737 8.76114 109.885 8.84588C110.966 9.44968 111.981 8.973 113.009 8.68434C113.22 8.62608 113.456 8.48572 113.642 8.53339C114.277 8.69493 114.945 8.82999 115.506 9.14778C116.987 9.98198 118.439 10.8718 119.864 11.796C122.423 13.4591 124.963 15.1567 127.498 16.8569C129.426 18.1492 131.336 19.468 133.246 20.7869C133.408 20.8981 133.514 21.0888 133.646 21.2424C133.188 21.3324 132.833 21.2397 132.481 21.1364C131.291 20.7869 130.126 20.3181 128.913 20.1089C126.213 19.6402 123.519 19.1741 120.876 18.4511C119.882 18.1783 118.884 17.8923 117.869 17.7308C115.027 17.2806 112.338 16.3351 109.668 15.3182C109.152 15.1222 108.709 14.7356 108.233 14.439C107.539 15.5274 107.735 16.2928 108.741 16.7483C109.271 16.9893 109.78 17.2779 110.317 17.4871C112.209 18.2207 113.981 19.3568 116.134 19.2482C116.32 19.2376 116.51 19.3303 116.698 19.3753C118.049 19.6984 119.392 20.0507 120.751 20.3393C122.9 20.7975 125.072 21.155 127.207 21.6608C129.909 22.3017 132.584 23.0564 135.273 23.7476C137.521 24.3249 139.776 24.8784 142.022 25.4557C143.969 25.9563 145.892 26.5627 147.857 26.9679C150.551 27.524 152.986 28.6442 155.301 30.0637C155.923 30.4451 156.44 30.9959 157.062 31.3772C159.499 32.8735 161.963 34.3247 164.405 35.8078C166.98 37.3729 169.539 38.9671 172.116 40.5296C172.776 40.9295 173.589 41.144 174.134 41.6525C174.776 42.251 175.48 42.5211 176.288 42.6667C176.81 42.7621 177.313 42.8971 177.671 43.4136C177.507 43.5248 177.393 43.6387 177.257 43.6863L180.823 44.7377C181.665 45.1243 182.463 45.6063 183.284 46.038C185.051 46.9622 186.762 47.9712 188.269 49.3562C188.197 49.4781 188.15 49.6423 188.041 49.7323C186.619 50.9161 185.209 52.1157 183.742 53.2439C183.456 53.4637 182.913 53.5352 182.55 53.4399C180.166 52.8069 177.695 52.4229 175.496 51.2047C175.236 51.0617 174.964 50.8922 174.778 50.6698C174.203 49.9759 173.528 49.6899 172.625 49.9044C172.296 49.9839 171.931 49.9124 171.584 49.8938C170.543 49.8356 169.499 49.682 168.466 49.7323C167.451 49.78 166.535 49.5231 165.666 49.1073C163.994 48.3102 162.365 47.4204 160.705 46.5994C158.866 45.6911 157.158 44.5894 155.613 43.2388C155.15 42.8336 154.602 42.4628 154.292 41.9517C153.651 40.8951 152.649 40.7653 151.598 40.6859C151.293 40.662 150.978 40.7627 150.671 40.7494C149.669 40.707 148.655 40.715 147.669 40.5587C145.762 40.2621 143.876 39.8199 141.969 39.5233C139.103 39.081 136.258 38.5567 133.461 37.7913C132.377 37.4947 131.302 37.1531 130.163 37.3861C129.522 37.5159 128.902 37.8019 128.261 37.8602C123.946 38.2601 119.628 38.6096 115.289 38.3289C114.367 38.268 113.451 38.08 112.529 38.0111C112.129 37.982 111.628 37.982 111.332 38.1912C110.717 38.6255 110.177 39.1843 109.66 39.7431C109.244 40.1933 108.961 40.7706 108.524 41.197C107.332 42.3569 106.124 43.5089 104.853 44.5814C104.156 45.1693 103.343 45.6301 102.537 46.0671C102.063 46.324 101.61 46.6338 101.621 47.1449C101.639 47.9897 101.783 48.9166 102.553 49.4145C104.116 50.4182 105.197 51.8906 106.455 53.1909C106.998 53.7523 107.496 54.3191 107.772 55.0712C107.989 55.6617 108.503 55.9557 109.08 56.1305C109.923 56.3874 110.799 56.5542 111.605 56.8932C112.995 57.4731 114.365 58.1167 115.702 58.8105C116.412 59.1786 117.027 59.6765 117.358 60.508C117.697 61.3608 118.206 61.5197 119.215 61.4217C119.427 61.4005 119.671 61.4482 119.864 61.5382C120.317 61.7554 120.743 62.0255 121.188 62.2585C122.823 63.1192 124.102 64.5493 125.88 65.1849C125.978 65.2193 126.091 65.3173 126.123 65.41C126.428 66.3289 127.217 66.7632 127.943 67.2558C129.956 68.6223 132.049 69.8802 133.665 71.7605C134.112 72.2822 134.751 72.6318 135.259 73.1058C135.829 73.6328 136.147 74.2101 135.763 75.0576C134.933 76.8796 134.176 78.7333 133.413 80.5818C133.032 81.5061 132.269 81.9165 131.381 82.1152C130.369 82.3429 129.302 82.38 128.319 82.6872C126.799 83.1612 125.461 82.6448 124.19 82.0198C122.465 81.1697 120.836 80.121 119.149 79.1915C118.134 78.6327 117.061 78.1772 116.055 77.6052C114.341 76.628 112.677 75.5581 110.953 74.6021C109.533 73.8155 108.052 73.1429 106.596 72.4199C105.594 71.922 104.54 71.5221 104.053 70.3542C103.902 69.9914 103.486 69.7319 103.173 69.4433C102.008 68.3734 100.85 67.2982 99.6607 66.2548C99.0833 65.7489 98.5058 65.1902 97.8277 64.8618C96.7205 64.3242 95.5285 63.9614 94.3762 63.5085C92.5061 62.7723 90.6386 62.0228 88.7711 61.2787C88.7738 61.284 88.7791 61.2893 88.7817 61.2972C88.0268 61.0139 87.2798 60.712 86.5196 60.4577C85.6481 60.1638 84.7369 59.9731 83.8866 59.6315C82.4085 59.0356 80.9887 58.2809 79.4947 57.7353C77.1398 56.8773 74.7373 56.1517 72.3665 55.3413C71.3096 54.9811 70.303 54.4303 69.2249 54.1734C66.2847 53.469 63.5192 52.2773 60.7061 51.2233C58.2214 50.2911 55.8904 48.9749 53.3501 48.1566C52.8574 47.9977 52.4309 47.6004 52.0098 47.2668C51.3449 46.7424 50.7144 46.173 50.0602 45.6328C48.5423 44.3802 47.0007 43.1567 45.5067 41.8749C44.5743 41.0751 43.7187 40.188 42.7651 39.2823C42.7492 39.0784 42.7651 38.7606 42.6883 38.4693C42.3466 37.1981 41.4777 36.9651 40.4818 37.7993C39.9864 38.215 39.4249 38.5725 38.8447 38.8612C36.6647 39.9496 34.4582 40.9878 32.2755 42.0762C31.9497 42.2377 31.6927 42.5502 31.4278 42.815C31.3378 42.9051 31.2557 42.9978 31.1735 43.0931C30.9113 43.2414 30.6491 43.3871 30.3815 43.5301C30.3418 43.4215 30.2994 43.305 30.2517 43.1726C29.2637 43.6572 28.2836 44.0253 27.5922 44.8727C27.5658 44.9045 27.5313 44.931 27.4969 44.9548C27.3406 45.0263 27.1843 45.0952 27.028 45.1641C27.0174 45.1667 27.0068 45.172 26.9962 45.1746C26.6757 45.2991 26.3287 45.3627 26.0267 45.5189C25.738 45.6672 25.4519 45.8182 25.1658 45.9665C23.4547 46.6789 21.7249 47.3515 20.0085 48.048C15.4338 49.9071 11.3042 52.2402 7.21958 55.0129C7.10832 55.0871 7.02886 55.1771 6.97323 55.2724C6.58914 55.4419 6.22889 55.675 5.90043 55.9557C5.55078 56.2523 5.55608 56.8084 5.8554 57.2374C6.09116 57.5764 6.43285 57.7671 6.85403 57.6373C7.7679 57.354 8.52019 56.8296 8.9599 55.9663C8.99169 55.9054 8.99169 55.8259 8.9758 55.7385C9.20625 55.5849 9.4367 55.4313 9.6698 55.2804C10.0883 55.238 10.2923 55.1241 10.3347 54.862C10.5916 54.6978 10.8512 54.5336 11.1082 54.3747C11.1505 54.3985 11.1929 54.425 11.2327 54.4515C11.6406 54.2105 12.0167 53.9854 12.4379 53.7365C12.4035 53.7047 12.3664 53.6755 12.3319 53.6438C12.5571 53.5114 12.7823 53.3763 13.0101 53.2465C13.161 53.2571 13.2961 53.2624 13.4127 53.2253C14.1358 52.9923 14.8563 52.8149 15.5265 52.3673C16.2152 51.9092 17.1053 51.7688 17.8549 51.3875C20.2336 50.1825 22.6044 48.9669 24.9751 47.7461C28.0505 46.4908 31.0782 45.1349 33.8648 43.3023C34.1297 43.1275 34.233 42.8707 34.2251 42.6217C34.4741 42.2933 34.9085 42.3754 35.2952 42.3251C35.5575 42.2907 35.8118 42.2033 36.1084 42.1292C36.0846 41.8325 36.066 41.5836 36.0581 41.5042C36.5084 41.4591 36.9084 41.4909 37.2528 41.3665C38.0898 41.0672 38.8924 40.6753 39.7242 40.3575C40.4182 40.0926 40.9956 40.1588 41.589 40.7706C43.5227 42.77 45.5385 44.6821 47.8801 46.2339C48.5582 46.6842 49.3503 47.2191 49.4748 48.2493C49.5092 48.5273 49.9622 48.8213 50.2853 48.9802C50.8045 49.2318 51.3846 49.3509 51.9197 49.5707C53.6733 50.2937 55.403 51.0723 57.1698 51.7582C58.089 52.1131 58.926 52.7725 60.0041 52.6348C60.1048 52.6215 60.2717 52.6666 60.3167 52.7407C60.8703 53.6279 61.8795 53.7073 62.7166 54.0145C64.6344 54.719 66.6502 55.1718 68.5442 55.9292C70.1706 56.578 71.8924 56.9144 73.4896 57.6585C74.5677 58.159 75.7704 58.3868 76.8882 58.8105C78.7318 59.507 80.5463 60.2776 82.3793 60.9953C86.2361 62.5048 90.077 64.062 93.9683 65.4709C95.8384 66.1488 97.4171 67.1737 98.8555 68.4978C99.9071 69.4644 101.014 70.3675 102.071 71.3288C102.312 71.546 102.598 71.8744 102.606 72.1577C102.622 72.8595 103.051 73.0846 103.584 73.2832C104.235 73.5295 104.914 73.7255 105.523 74.0539C108.765 75.7938 111.989 77.5708 115.223 79.3239C117.165 80.3753 119.133 81.3763 121.059 82.4515C122.473 83.2407 123.829 84.1358 125.238 84.9408C125.58 85.1368 126.038 85.2904 126.415 85.2427C127.286 85.1289 128.134 84.8323 129.003 84.6998C130.298 84.5012 131.604 84.3609 132.907 84.2285C133.675 84.1517 134.451 84.1411 135.016 83.3784C134.698 82.4144 134.968 81.5723 135.492 80.6295C136.425 78.9478 137.204 77.1603 137.847 75.3462C138.414 73.7493 138.287 72.2001 136.507 71.2864C136.406 71.2361 136.34 71.1249 136.25 71.0534C135.167 70.1795 134.104 69.2791 132.994 68.4396C130.134 66.2733 127.268 64.1123 124.37 61.999C123.04 61.0297 121.864 59.8221 120.216 59.2978C119.758 59.1521 119.265 58.686 119.069 58.2438C118.675 57.3407 118.497 56.345 118.182 55.4049C117.742 54.0913 117.483 52.7222 116.754 51.5013C115.4 49.2291 114.654 46.6842 113.689 44.2398C113.353 43.3818 113.186 42.4522 112.995 41.5439C112.805 40.6302 112.977 40.4184 113.896 40.4237C115.289 40.4316 116.685 40.5137 118.079 40.5005C118.881 40.4925 119.49 40.7547 120.018 41.3506C121.064 42.537 122.076 43.7684 123.22 44.8569C125.236 46.7742 127.352 48.5882 129.408 50.4632C130.579 51.5331 131.739 52.6162 132.865 53.7338C134.202 55.0632 135.688 56.2311 136.682 57.918C137.725 59.6924 139.309 61.0324 140.941 62.2877C142.411 63.4211 143.881 64.5546 145.291 65.7595C146.289 66.6149 147.185 67.5895 148.125 68.5111C148.469 68.85 148.851 69.1758 149.349 68.8818C150.04 68.474 150.811 68.519 151.5 68.6302C152.347 68.7679 153.108 68.5799 153.905 68.4555C155.248 68.2462 156.583 68.2674 157.889 68.707C158.625 68.956 159.242 68.5005 159.168 67.7245C159.136 67.4014 158.97 67.0572 158.771 66.7897C158.244 66.0773 157.693 65.3782 157.105 64.7135C154.39 61.6388 151.637 58.596 148.946 55.5028C147.5 53.8424 146.056 52.166 144.777 50.3811C143.503 48.6015 142.417 46.6868 141.291 44.8065C140.949 44.2372 140.56 43.6598 140.382 42.6853C140.989 43.0375 141.386 43.2388 141.749 43.4877C142.483 43.9909 143.187 44.5364 143.921 45.0343C145.042 45.7943 146.252 46.4432 147.291 47.3012C148.302 48.138 149.489 48.7101 150.456 49.6237C151.351 50.4685 152.427 51.1173 153.391 51.8906C153.841 52.2508 154.376 52.6295 154.596 53.1247C155.25 54.5971 156.525 55.524 157.539 56.6681C158.813 58.1061 160.434 59.2263 161.467 60.8973C161.581 61.0801 161.799 61.2257 162 61.3264C162.824 61.7448 163.61 62.2612 164.614 62.1606C164.99 62.1235 165.388 62.2188 165.764 62.3009C168.704 62.9259 171.642 63.5641 174.582 64.1865C174.76 64.2235 174.966 64.2209 175.141 64.1732V64.16ZM125.548 14.1503C125.501 14.1 125.424 14.055 125.416 13.9967C125.405 13.9199 125.445 13.8325 125.525 13.4909C125.654 13.7584 125.736 13.8537 125.729 13.9385C125.723 14.0126 125.612 14.0788 125.548 14.1477V14.1503ZM47.9834 45.6831C47.8828 45.5586 47.7821 45.4368 47.6788 45.3124C47.7238 45.2779 47.7662 45.2408 47.8113 45.2064L48.1079 45.5825C48.0655 45.6169 48.0258 45.6487 47.9834 45.6831ZM88.84 62.1526C88.7817 62.1897 88.644 62.1049 88.5433 62.0785C88.6281 61.8242 88.7102 61.5726 88.7923 61.3158C88.8056 61.3343 88.8162 61.3555 88.8241 61.3767C88.9195 61.6362 89.232 61.8984 88.8373 62.1526H88.84ZM115.615 53.6199C116.031 54.5574 116.428 55.5187 116.5 56.7846C115.459 56.3979 114.534 56.0828 113.634 55.7068C112.921 55.4075 112.277 54.9123 111.546 54.7057C109.666 54.1787 108.516 52.8307 107.39 51.3795C106.733 50.5321 105.941 49.7879 105.197 49.012C104.831 48.6306 104.437 48.281 104.079 47.9421C106.309 45.8897 108.373 43.9909 110.442 42.0974C110.484 42.0603 110.59 42.0921 110.738 42.0921C111.25 43.4506 111.774 44.8436 112.301 46.2339C112.466 46.6683 112.622 47.1052 112.813 47.5263C113.742 49.5575 114.709 51.5755 115.612 53.6199H115.615ZM140.642 47.5157C142.101 50.0739 143.797 52.4785 145.68 54.7295C147.762 57.2216 149.982 59.597 152.159 62.007C153.192 63.1484 154.273 64.2474 155.325 65.3729C155.595 65.6615 155.542 65.982 155.197 66.1329C154.853 66.2839 154.461 66.3872 154.088 66.3978C152.851 66.4375 151.614 66.4295 150.377 66.4375C149.614 66.4428 149.015 66.1859 148.416 65.6404C146.819 64.1865 145.166 62.7908 143.455 61.4747C141.67 60.1002 139.982 58.6649 138.668 56.8058C138.117 56.0272 137.41 55.3519 136.716 54.6872C134.234 52.3064 131.736 49.9389 129.225 47.5846C127.62 46.0803 125.964 44.6265 124.364 43.1169C123.747 42.5343 123.209 41.867 122.656 41.2208C122.465 40.9983 122.341 40.715 122.094 40.3098C124.608 40.0873 126.905 39.7934 129.209 39.706C131.887 39.6054 134.523 40.0211 137.09 40.8103C137.196 40.8421 137.283 40.9242 137.45 41.0248C137.196 42.0126 137.76 42.7409 138.271 43.5327C139.111 44.8277 139.874 46.173 140.639 47.5131L140.642 47.5157ZM165.637 60.124C163.828 59.9175 162.62 58.8555 161.481 57.6135C159.891 55.8789 158.331 54.1125 156.702 52.415C155.929 51.6099 155.07 50.8737 154.175 50.2063C150.676 47.6004 147.322 44.7906 143.603 42.4814C143.442 42.3807 143.27 42.296 143.1 42.2007C143.161 42.0815 143.222 41.9597 143.283 41.8405C144.144 41.9994 145.002 42.1874 145.868 42.3066C147.436 42.5237 149.004 42.7515 150.58 42.8733C151.661 42.9554 152.512 43.4983 153.277 44.1153C156.31 46.5544 159.584 48.5406 163.221 49.9521C164.281 50.3626 165.213 51.0961 166.204 51.6814C166.402 51.7979 166.63 52.0416 166.8 52.0045C168.098 51.7264 168.63 52.7328 169.321 53.4584C170.784 54.997 172.24 56.541 173.681 58.0981C174.201 58.6622 174.704 59.2475 175.149 59.8725C175.533 60.4127 175.822 61.0218 175.186 61.8216C173.292 61.5356 171.316 61.2734 169.356 60.9318C168.106 60.7146 166.887 60.267 165.631 60.124H165.637Z" fill="black"/>
<path d="M228.333 27.5794C229.213 29.3749 230.429 31.0035 230.961 32.9765C231.17 33.7498 231.623 34.0517 232.32 33.9881C233.854 33.8478 234.9 34.8011 235.801 35.7413C236.338 36.3027 236.871 36.8032 237.501 37.2428C238.516 37.9473 239.517 38.6729 240.481 39.4409C240.929 39.7984 241.271 40.291 241.676 40.7068C242.153 41.1993 242.733 41.2894 243.387 41.1278C243.869 41.0087 244.362 40.9001 244.855 40.8524C246.126 40.7359 247.411 40.7226 248.674 40.5479C251.238 40.1903 253.795 39.7534 256.353 39.3456C257.193 39.2105 257.469 38.8609 257.561 37.9791C257.585 37.7539 257.734 37.4706 257.914 37.3594C258.035 37.2826 258.335 37.4229 258.518 37.5288C258.873 37.7301 258.902 38.0506 258.806 38.4319C258.661 39.0145 258.899 39.4621 259.376 39.8169C261.114 41.1093 262.817 42.4467 264.581 43.7019C265.807 44.5732 267.103 45.3465 268.379 46.1463C268.732 46.3661 269.031 46.6044 268.981 47.052C268.909 47.6611 268.885 48.2993 268.681 48.8687C268.157 50.3279 268.242 50.6748 269.622 51.3263C273.023 52.9337 276.077 55.0974 279.171 57.2054C279.918 57.7138 280.686 58.3839 281.695 57.7138C281.754 57.6768 281.852 57.6715 281.923 57.6874C282.895 57.9151 283.624 57.3696 284.411 56.9564C285.094 56.5963 285.793 56.2414 286.527 56.011C287.483 55.7091 288.262 55.153 288.961 54.4909C290.506 53.0238 291.986 51.4904 293.528 50.026C295.099 48.5323 296.712 47.0838 298.312 45.6219C299.34 44.6818 300.381 43.7575 301.411 42.8174C302.195 42.0997 302.227 41.8587 301.745 40.9266C301.266 39.9997 300.741 39.094 300.325 38.1379C299.647 36.5808 299.054 34.9865 298.405 33.4135C297.83 32.0178 297.168 30.6566 296.659 29.2372C296.211 27.9951 295.682 27.4522 294.339 27.3807C293.086 27.3145 291.902 27.0524 290.728 26.5916C289.875 26.2552 288.951 26.0804 288.042 25.9057C287.017 25.7097 285.976 25.6091 284.943 25.4422C281.356 24.8702 277.772 24.269 274.181 23.7129C271.081 23.2336 267.977 22.8046 264.875 22.3464C264.61 22.3067 264.356 22.206 264.096 22.1319C263.026 21.8326 262.149 22.4047 262.014 23.4878C261.98 23.7553 261.969 24.0307 261.906 24.2902C261.731 25.0185 261.521 25.1668 260.859 24.8305C259.919 24.3511 259.092 24.5021 258.221 24.9947C257.779 25.2462 257.257 25.3522 256.573 25.5958C256.573 24.7139 256.573 24.0625 256.573 23.411C256.576 22.3623 256.009 21.8141 255.005 21.8803C254.356 21.9253 253.705 21.9253 253.058 21.9836C251.143 22.1557 249.276 21.8724 247.432 21.3904C246.648 21.1865 245.888 20.8846 245.098 20.7098C242.971 20.2331 240.91 19.6187 239.085 18.3555C238.484 17.9397 237.79 17.6563 237.157 17.2829C236.701 17.0128 236.262 16.7109 235.846 16.3878C235.173 15.8661 234.391 15.9429 233.976 16.703C232.958 18.5541 231.443 20 230.092 21.5811C229.356 22.4444 228.519 23.2018 227.126 23.26C227.126 23.9592 226.988 24.5656 227.157 25.0688C227.449 25.9401 227.926 26.7478 228.333 27.5794ZM261.084 37.4997C261.675 34.5098 262.223 31.5094 262.811 28.5168C263.034 27.386 263.317 26.2658 263.59 25.143C263.773 24.3856 263.905 24.2717 264.695 24.2849C265.312 24.2955 265.935 24.3405 266.546 24.4279C270.718 25.0158 274.893 25.5985 279.06 26.2287C281.621 26.6154 284.156 27.1848 286.726 27.4867C288.447 27.6879 290.018 28.1726 291.539 28.9564C292.047 29.2186 292.625 29.4225 293.189 29.4834C294.161 29.5867 294.641 30.1905 295.136 30.9294C296.426 32.8494 297.067 35.0501 297.933 37.1501C298.434 38.363 298.86 39.6104 299.414 40.7994C299.692 41.4006 299.636 41.7819 299.162 42.2189C297.737 43.5298 296.357 44.8883 294.929 46.1966C292.733 48.2066 290.498 50.1743 288.307 52.1896C287.388 53.037 286.487 53.8739 285.216 54.1519C285.07 54.1837 284.924 54.2658 284.8 54.3559C283.645 55.2112 282.321 55.5158 280.917 55.4999C280.588 55.4973 280.223 55.394 279.937 55.2298C278.76 54.5624 277.579 53.8977 276.456 53.1483C274.535 51.8665 272.655 50.5238 270.705 49.1706C270.989 47.9577 271.256 46.8189 271.51 45.7278C268.724 44.1336 266.091 42.5844 263.731 40.6247C262.928 39.9599 262.181 39.2264 261.405 38.5299C261.09 38.2465 261 37.942 261.087 37.4997H261.084ZM248.526 39.8726C248.492 39.8673 248.476 39.764 248.449 39.7057C248.542 39.6845 248.635 39.6448 248.725 39.6501C248.754 39.6501 248.78 39.7613 248.823 39.8514C248.714 39.862 248.616 39.8884 248.526 39.8752V39.8726ZM230.206 25.3336C230.254 25.2939 230.283 25.1721 230.259 25.1165C229.857 24.2214 230.577 23.7923 231.033 23.2627C232.084 22.0339 233.146 20.8157 234.209 19.5949C234.982 18.7077 235.101 18.6309 236.179 19.1102C237.52 19.7061 238.807 20.4158 240.129 21.0541C240.614 21.2871 241.122 21.4804 241.636 21.6473C243.289 22.1822 244.937 22.7436 246.613 23.1965C247.798 23.5143 249.021 23.6864 250.235 23.893C251.448 24.0995 252.671 24.2611 253.887 24.4597C254.505 24.5603 254.661 25.0609 254.724 25.5746C254.973 27.5688 255.199 29.5655 255.437 31.5597C255.546 32.4707 255.728 33.379 255.768 34.2927C255.8 35.0183 255.691 35.7545 255.588 36.4775C255.506 37.0522 255.161 37.4891 254.587 37.6401C253.991 37.799 253.381 37.9128 252.77 37.9949C250.587 38.2889 248.401 38.5643 246.216 38.8371C245.832 38.8848 245.445 38.89 245.059 38.9165C243.512 39.184 242.304 38.6623 241.22 37.5262C240.651 36.9277 239.795 36.6099 239.101 36.12C238.349 35.585 237.605 35.0315 236.913 34.4224C235.991 33.6068 235.133 32.717 234.225 31.8881C233.944 31.6312 233.602 31.3505 233.25 31.279C231.981 31.0168 231.621 29.9495 231.131 29.0068C230.792 28.3553 230.551 27.6535 230.241 26.9888C229.986 26.438 229.533 25.9083 230.204 25.3389L230.206 25.3336Z" fill="black"/>
<path d="M417.618 44.4329C417.316 44.229 417.046 43.9801 416.747 43.7708C416.53 43.6199 416.283 43.3842 416.055 43.3895C415.417 43.408 415.062 43.0029 414.705 42.6109C413.666 41.4642 412.715 40.2328 411.619 39.147C409.004 36.5623 406.345 34.02 403.667 31.5015C402.231 30.1509 400.724 28.8744 399.24 27.5715C397.99 26.4751 396.639 25.4767 395.497 24.277C393.942 22.6404 392.258 21.1759 390.454 19.8306C388.989 18.7395 387.495 18.239 385.792 19.3036C384.618 20.0372 383.291 20.302 381.954 20.543C379.217 21.0382 376.481 21.5467 373.753 22.0763C371.173 22.5769 368.608 23.1436 366.026 23.6203C364.092 23.9778 362.142 24.2453 360.198 24.5339C359.435 24.6478 358.659 24.6902 357.896 24.7961C356.098 25.0424 354.307 25.4899 352.506 25.5244C349.184 25.5879 345.857 25.4158 342.533 25.3363C342.223 25.3284 341.918 25.2622 341.608 25.241C340.684 25.1801 339.762 25.1086 338.835 25.0927C338.607 25.0901 338.204 25.2543 338.175 25.3999C338.035 26.1017 337.823 26.8564 337.955 27.5317C338.342 29.4941 338.936 31.4167 339.351 33.3764C339.788 35.4474 340.125 37.5395 340.485 39.6263C340.827 41.6046 341.139 43.5908 341.478 45.569C341.608 46.3291 341.78 47.0838 341.929 47.8412C342.241 49.4328 342.631 51.0165 342.843 52.6213C343.155 54.9809 344.13 57.2452 343.889 59.6869C343.841 60.1635 344.101 60.5237 344.533 60.6932C344.959 60.8627 345.409 60.9872 345.862 61.0745C346.506 61.199 347.195 61.1778 347.804 61.3897C348.89 61.7684 349.592 61.1143 350.315 60.5714C350.863 60.1609 350.546 59.4909 350.556 58.9321C350.564 58.5852 350.501 58.2383 350.469 57.8913C350.45 57.8913 350.432 57.8887 350.413 57.886C350.527 55.9157 350.636 53.9428 350.76 51.9725C350.805 51.2787 350.861 50.5822 350.961 49.8936C351.205 48.2173 351.465 47.9895 353.078 48.0398C357.608 48.1828 362.135 48.3364 366.662 48.49C370.921 48.6357 375.18 48.7813 379.437 48.9455C385.124 49.168 390.811 49.3852 396.496 49.6526C398.816 49.7639 401.147 49.8751 403.441 50.2167C406.951 50.7384 410.546 50.606 413.984 51.6838C415.03 52.0122 415.979 51.4852 416.249 50.6113C416.355 50.267 416.257 49.8592 416.259 49.4805C416.273 48.0134 416.177 46.5197 417.695 45.5876C418.111 45.3333 418.021 44.6977 417.618 44.4276V44.4329ZM379.763 21.6314C379.789 21.6261 379.832 21.7294 379.89 21.8168C379.781 21.8459 379.686 21.891 379.591 21.8883C379.551 21.8883 379.514 21.7877 379.477 21.7321C379.572 21.695 379.665 21.6447 379.763 21.6314ZM414.765 47.0944C414.689 47.4254 414.752 47.7856 414.731 48.1325C414.678 48.9906 414.405 49.3322 413.558 49.4196C412.869 49.4911 412.164 49.5149 411.478 49.4487C407.743 49.0859 404.014 48.6516 400.276 48.3126C396.848 48.0001 393.413 47.7485 389.977 47.5287C388.276 47.4201 386.568 47.4678 384.865 47.4175C379.522 47.256 374.179 47.1103 368.839 46.8984C366.211 46.7925 363.589 46.5197 360.961 46.382C358.1 46.2311 355.234 46.1569 352.373 46.0298C351.603 45.9954 350.834 45.8762 350.064 45.8312C349.346 45.7888 349.158 45.9292 349.049 46.6257C348.977 47.0812 348.972 47.5499 348.985 48.0134C349.02 49.0885 349.152 50.1637 349.123 51.2336C349.073 53.045 348.925 54.8538 348.824 56.6626C348.787 57.3167 348.797 57.9787 348.718 58.6276C348.691 58.8474 348.453 59.2075 348.299 59.2128C347.656 59.2393 346.999 59.2075 346.366 59.0937C345.884 59.0063 345.786 58.5349 345.703 58.1006C344.755 53.0901 343.786 48.0849 342.856 43.0717C342.355 40.3705 341.963 37.6507 341.436 34.9575C341.004 32.7647 340.44 30.6011 339.939 28.4216C339.871 28.1276 339.826 27.8284 339.733 27.3358C340.437 27.304 340.973 27.2563 341.505 27.259C345.068 27.2802 348.628 27.2908 352.191 27.3464C354.304 27.3782 356.326 26.8114 358.392 26.5281C360.153 26.2871 361.925 26.1149 363.681 25.8395C365.435 25.5641 367.181 25.2225 368.924 24.8703C371.374 24.375 373.814 23.8374 376.261 23.3263C378.603 22.8364 380.944 22.3518 383.289 21.8777C384.841 21.5626 386.385 21.16 387.953 21.0197C388.6 20.9614 389.304 21.4725 389.969 21.7559C390.136 21.8274 390.231 22.0525 390.398 22.1399C391.964 22.9635 393.05 24.3327 394.313 25.5085C395.953 27.0365 397.693 28.4533 399.381 29.9311C400.427 30.8474 401.465 31.7716 402.49 32.7091C403.685 33.8055 404.874 34.9098 406.045 36.0326C406.713 36.6762 407.325 37.378 407.987 38.0268C408.954 38.9749 409.992 39.8567 410.914 40.8445C411.807 41.8032 412.593 42.8625 413.428 43.8741C413.576 44.0542 413.709 44.2528 413.886 44.3985C414.76 45.1109 415.033 46.0007 414.776 47.0944H414.765Z" fill="black"/>
<path d="M594.001 134.892C591.799 134.172 404.792 77.6314 402.594 76.8979C399.548 75.8809 396.544 74.7289 393.466 73.8285C390.054 72.8328 386.587 72.0277 383.13 71.1935C379.451 70.3063 375.745 69.5251 372.068 68.6194C368.354 67.7031 364.63 66.8583 360.855 66.2307C359.602 66.0215 358.373 65.6401 357.149 65.2879C355.928 64.9357 355.936 64.9092 355.987 63.6063C356.002 63.2964 355.957 62.9707 356.042 62.682C356.598 60.8124 356.392 58.9215 356.259 57.028C356.217 56.4136 356.241 55.7913 356.233 55.1742C356.228 54.7187 356.418 54.438 356.906 54.4089C357.33 54.385 357.764 54.2818 358.177 54.3347C361.549 54.7717 364.913 55.2484 368.285 55.6933C371.348 56.0985 374.386 56.6758 377.49 56.7976C380.229 56.9035 382.971 57.1657 385.697 57.4756C388.269 57.7695 390.814 58.27 393.384 58.5825C395.031 58.7811 396.708 58.7467 398.361 58.9109C401.283 59.1969 404.197 59.5677 407.116 59.8749C409.267 60.1026 411.425 60.2774 413.576 60.4972C413.862 60.5263 414.151 60.6614 414.408 60.8044C414.707 60.9713 414.951 61.2387 415.256 61.3897C416.209 61.8664 416.225 61.8531 416.162 62.9442C416.14 63.2911 412.993 77.3666 412.914 77.7056L414.887 78.6934C414.932 78.4656 418.034 62.449 418.061 62.2212C417.95 61.6148 417.799 61.0189 417.743 60.4125C417.658 59.4697 417.528 59.3002 416.569 59.2049C415.762 59.1254 414.951 59.0777 414.148 58.9692C411.899 58.6593 409.656 58.2992 407.402 58.0052C405.524 57.7589 403.638 57.5629 401.752 57.3776C399.598 57.1657 397.439 56.9962 395.283 56.8029C393.898 56.6784 392.507 56.5804 391.127 56.403C389.516 56.1938 387.924 55.8336 386.311 55.68C383.808 55.4417 381.289 55.3755 378.786 55.1345C376.055 54.8723 373.332 54.5175 370.611 54.1573C368.466 53.8739 366.336 53.4343 364.182 53.2278C361.48 52.9709 358.81 52.5789 356.169 51.9778C355.396 51.803 354.999 51.9698 354.686 52.6849C354.609 52.8596 354.577 53.0556 354.535 53.2436C354.228 54.626 354.495 56.0137 354.585 57.3855C354.72 59.4512 354.614 61.432 353.979 63.4368C353.433 65.1528 353.626 66.4399 355.804 66.9298C359.266 67.7058 362.723 68.5082 366.185 69.2788C368.068 69.6999 369.965 70.0548 371.846 70.4838C374.296 71.0426 376.735 71.6384 379.178 72.2316C381.617 72.8248 384.054 73.4286 386.489 74.0457C387.236 74.2364 387.964 74.5065 388.711 74.6972C390.057 75.0414 391.431 75.2904 392.759 75.6955C394.939 76.3576 397.092 77.1018 399.251 77.8274C400.824 78.357 402.393 78.9052 403.953 79.4667C405.113 79.8851 591.042 136.227 592.21 136.619" fill="#FF6525"/>
<path d="M592.411 132.773C590.21 132.053 403.203 75.5128 401.005 74.7792C397.958 73.7623 394.954 72.6103 391.876 71.7099C388.465 70.7141 384.997 69.9091 381.54 69.0749C377.861 68.1877 374.155 67.4065 370.479 66.5008C366.765 65.5845 363.041 64.7397 359.266 64.112C358.013 63.9028 356.784 63.5215 355.56 63.1693C354.339 62.817 354.347 62.7906 354.397 61.4876C354.413 61.1778 354.368 60.852 354.453 60.5634C355.009 58.6937 354.803 56.8028 354.67 54.9093C354.628 54.295 354.652 53.6726 354.644 53.0556C354.638 52.6001 354.829 52.3194 355.316 52.2902C355.74 52.2664 356.175 52.1631 356.588 52.2161C359.96 52.653 363.324 53.1297 366.696 53.5746C369.758 53.9798 372.796 54.5571 375.901 54.6789C378.64 54.7849 381.382 55.0471 384.107 55.3569C386.679 55.6509 389.225 56.1514 391.794 56.4639C393.442 56.6625 395.119 56.6281 396.772 56.7923C399.693 57.0783 402.607 57.449 405.526 57.7562C407.677 57.984 409.836 58.1588 411.987 58.3786C412.273 58.4077 412.562 58.5428 412.819 58.6858C413.118 58.8526 413.362 59.1201 413.666 59.271C414.62 59.7477 414.636 59.7345 414.572 60.8256C414.551 61.1725 411.404 75.2479 411.325 75.5869L413.298 76.5747C413.343 76.347 416.445 60.3303 416.471 60.1026C416.36 59.4961 416.209 58.9003 416.154 58.2938C416.069 57.351 415.939 57.1815 414.98 57.0862C414.172 57.0068 413.362 56.9591 412.559 56.8505C410.31 56.5407 408.066 56.1805 405.812 55.8866C403.934 55.6403 402.048 55.4443 400.162 55.2589C398.009 55.0471 395.85 54.8776 393.694 54.6842C392.308 54.5598 390.918 54.4618 389.537 54.2844C387.927 54.0751 386.335 53.715 384.722 53.5614C382.219 53.323 379.699 53.2568 377.196 53.0158C374.465 52.7537 371.742 52.3988 369.022 52.0386C366.876 51.7553 364.746 51.3157 362.593 51.1091C359.891 50.8522 357.221 50.4603 354.58 49.8591C353.807 49.6843 353.409 49.8512 353.097 50.5662C353.02 50.741 352.988 50.937 352.946 51.125C352.638 52.5074 352.906 53.8951 352.996 55.2669C353.131 57.3325 353.025 59.3134 352.389 61.3181C351.844 63.0342 352.037 64.3212 354.214 64.8112C357.677 65.5871 361.133 66.3895 364.595 67.1602C366.479 67.5812 368.375 67.9361 370.256 68.3651C372.706 68.9239 375.146 69.5198 377.588 70.113C380.028 70.7062 382.465 71.31 384.899 71.927C385.646 72.1177 386.375 72.3878 387.122 72.5785C388.467 72.9228 389.842 73.1717 391.169 73.5769C393.349 74.239 395.503 74.9831 397.662 75.7087C399.235 76.2384 400.803 76.7866 402.363 77.348C403.524 77.7664 589.452 134.108 590.621 134.5" fill="black"/>
<path d="M122.709 75.0017C123.149 74.427 123.737 73.9609 124.282 73.4736C125.088 72.7586 125.935 72.0859 126.73 71.3603C127.228 70.9048 127.17 69.9567 126.674 69.4854C126.34 69.1676 125.898 69.2179 125.363 69.7343C123.893 71.1485 122.447 72.5891 120.992 74.0192C120.383 74.615 120.179 75.2744 120.709 76.1484C121.551 75.963 122.2 75.6717 122.711 75.0017H122.709Z" fill="black"/>
<path d="M317.053 63.6194C316.462 62.5336 315.901 61.432 315.307 60.3488C314.926 59.6523 314.367 59.2101 313.514 59.3504C312.526 59.5146 311.546 59.7344 310.555 59.8721C308.568 60.1476 306.577 60.9844 304.603 59.6735C304.002 59.2763 303.369 59.5199 303.117 60.0946C302.495 61.5193 301.313 62.3853 300.111 63.2275C299.647 63.5532 299.417 63.9266 299.414 64.4695C299.414 64.8562 299.414 65.2428 299.414 65.6294C299.425 65.6294 299.432 65.6294 299.443 65.6294C299.374 66.3604 299.342 67.0966 299.231 67.8222C299.009 69.2708 298.712 70.7088 298.5 72.16C298.323 73.3809 298.929 74.0933 300.179 74.2495C300.794 74.3263 301.409 74.3952 302.02 74.4773C303.973 74.7421 305.925 75.0149 307.877 75.285C309.021 75.4439 310.168 75.5922 311.31 75.767C312.097 75.8861 312.603 75.6663 313.016 74.893C313.909 73.2273 314.743 71.5298 315.665 69.8799C316.338 68.6723 317.087 67.5071 317.845 66.3524C318.2 65.8095 318.232 65.5023 317.824 64.8826C317.554 64.4695 317.289 64.0511 317.053 63.6194ZM315.548 66.4054C314.505 68.2962 313.45 70.1818 312.401 72.0673C312.327 72.2024 312.237 72.3295 312.166 72.4672C311.731 73.3306 311.045 73.696 310.084 73.5265C309.893 73.4948 309.7 73.4921 309.506 73.4736C309.498 73.5239 309.49 73.5742 309.482 73.6245C307.543 73.2988 305.604 72.9704 303.665 72.6447C302.945 72.5255 302.216 72.4328 301.499 72.2978C300.662 72.1389 300.41 71.9005 300.603 71.1352C301.093 69.1781 301.284 67.1813 301.536 65.1898C301.57 64.9091 301.771 64.6231 301.962 64.3927C302.283 64.0061 302.659 63.6697 303.006 63.3043C303.814 62.4515 304.688 62.0464 305.975 62.1364C307.496 62.2397 309.048 61.9192 310.584 61.763C311.119 61.7074 311.668 61.6571 312.179 61.5008C313.44 61.1168 314.192 61.808 314.746 62.7402C315.154 63.4261 315.36 64.2312 315.689 64.9674C315.922 65.4864 315.797 65.9525 315.548 66.4054Z" fill="black"/>
</svg>
