<svg width="1440" height="329" viewBox="0 0 1440 329" fill="none" xmlns="http://www.w3.org/2000/svg">
<path d="M1029.22 143.789C1026.74 133.495 1024.17 123.226 1021.83 112.899C1020.42 106.689 1019.32 100.415 1018.14 94.1532C1017.45 90.4798 1016.85 86.7808 1016.25 83.0881C1015.88 80.7762 1015.66 78.4321 1015.24 76.1266C1014.76 73.5 1012.95 72.1 1010.31 72.0422C1004.99 71.9202 999.643 72.4532 994.324 71.7019C993.875 71.6376 993.399 71.8303 992.93 71.856C991.055 71.9652 989.179 71.9908 987.31 72.1707C984.381 72.4532 982.331 70.9184 980.347 69.0945C976.216 65.2927 971.957 61.6257 967.923 57.7211C965.039 54.934 961.628 52.6863 959.348 49.2569C958.404 47.8312 957.389 47.7927 955.635 48.3835C953.419 49.1349 951.19 49.8991 948.916 50.4385C944.079 51.5752 939.204 52.5321 934.36 53.6239C929.337 54.7606 924.346 56.045 919.31 57.1174C917.312 57.5413 915.212 57.5028 913.182 57.811C912.43 57.9266 911.512 58.2349 911.049 58.7743C909.79 60.2578 910.497 62.1395 912.584 62.9615C916.413 64.4771 920.248 65.9285 923.986 67.7074C929.722 70.4303 935.073 74.0587 941.33 75.6578C941.42 75.6835 941.497 75.7606 941.587 75.7798C943.752 76.2165 944.259 77.7835 944.465 79.7165C944.94 84.2826 945.287 88.8872 946.135 93.389C946.899 97.4606 947.477 101.506 947.22 105.629C947.162 106.561 946.668 107.582 946.09 108.352C944.689 110.221 943.161 112 941.619 113.76C940.135 115.442 938.645 117.125 937.013 118.666C935.105 120.464 932.934 121.999 931.071 123.842C925.605 129.262 920.267 134.805 914.8 140.231C913.837 141.188 912.597 142.171 911.332 142.466C908.512 143.121 905.602 143.436 902.711 143.731C897.206 144.29 891.688 144.772 886.171 145.228C883.196 145.472 880.158 145.908 877.666 143.564C877.338 143.256 876.85 143.102 876.433 142.89C870.773 139.961 865.114 137.039 859.461 134.105C859.134 133.938 858.903 133.597 858.588 133.411C855.935 131.857 853.301 130.264 850.584 128.832C849.935 128.492 848.933 128.479 848.207 128.691C846.422 129.211 844.7 129.956 842.953 130.598C839.696 131.793 836.465 133.09 833.163 134.143C825.025 136.725 816.854 139.204 808.689 141.695C806.184 142.46 803.647 143.121 801.142 143.892C800.544 144.072 799.844 144.361 799.51 144.829C798.816 145.786 797.859 146.904 797.872 147.944C797.885 149.62 798.431 151.354 799.061 152.94C799.6 154.295 800.731 155.406 801.341 156.749C802.928 160.255 804.373 163.819 805.87 167.371C806.236 168.238 806.55 169.124 806.923 169.984C807.347 170.961 807.051 171.661 806.101 172.014C803.403 173.016 800.679 173.966 797.769 175.013C796.883 172.971 797.204 170.421 794.75 169.715C792.727 169.13 790.806 169.522 788.898 171.153C788.706 168.597 787.016 168.006 785.308 167.512C784.505 167.281 783.638 167.274 782.796 167.178C778.126 166.639 773.585 165.56 769.12 164.224C768.838 162.965 768.311 161.848 768.427 160.801C768.561 159.549 767.887 158.887 767.296 158.065C765.478 155.561 763.731 153.005 761.836 150.564C760.147 148.394 758.849 145.69 755.579 145.375C755.342 145.35 755.021 145.131 754.911 144.913C753.839 142.794 752.342 140.803 752.58 138.106C753.241 138.106 753.691 138.08 754.141 138.106C757.796 138.375 759.183 136.436 757.757 133.128C756.948 131.24 756.183 129.314 755.567 127.355C753.44 120.541 752.515 113.49 751.622 106.439C751.545 105.809 751.353 105.141 751.019 104.615C749.843 102.746 748.289 101.275 746.117 100.601C743.342 99.7404 740.574 98.8477 737.767 98.0835C735.172 97.3707 732.538 96.8055 729.904 96.1762C728.78 98.2505 727.868 99.9844 727.99 102.046C728.305 107.562 728.825 113.06 730.245 118.428C730.438 119.148 730.566 119.886 730.669 120.625C731.33 125.332 732.564 129.937 732.949 134.702C733.18 137.566 735.294 138.85 738.062 138.285C738.679 138.157 739.315 138.118 740.375 137.984C740.285 143.815 741.749 149.113 744.794 154.475C743.587 154.379 742.642 154.52 741.891 154.199C740.702 153.692 739.54 153.011 738.551 152.183C733.514 147.97 728.543 143.686 723.545 139.435C722.01 138.125 720.378 137.483 718.38 138.504C717.86 138.767 717.173 138.716 716.473 138.825C715.708 135.485 714.982 132.345 714.321 129.442C716.235 128.466 717.873 127.631 719.774 126.655C719.376 125.223 719.087 123.977 718.676 122.776C718.252 121.55 717.565 120.4 717.231 119.148C716.017 114.646 714.706 110.15 713.807 105.578C713.01 101.558 712.047 97.4927 713.036 93.3119C713.171 92.7532 712.753 91.6679 712.278 91.4174C709.227 89.7927 706.221 87.6863 702.938 86.9863C698.763 86.0936 694.543 85.4707 690.476 84.0707C688.787 83.4863 687.303 84.2633 685.967 85.1239C684.663 85.9587 685.261 87.2881 685.473 88.4762C685.537 88.8358 685.473 89.2211 685.447 89.5936C684.965 97.0239 685.729 104.371 686.873 111.692C687.412 115.172 688.151 118.634 688.569 122.128C688.967 125.467 689.031 128.845 689.32 132.197C689.577 135.267 691.607 136.314 694.356 135.004C695.564 134.426 696.913 134.156 698.673 133.591C698.198 138.594 699.482 142.736 701.544 146.583C700.035 148.413 696.939 148.496 697.138 151.007C698.84 153.184 700.279 155.015 701.705 156.851C702.508 157.885 703.163 159.061 704.088 159.966C711.456 167.197 718.162 175.09 726.082 181.762C728.716 183.978 731.819 183.567 733.527 180.645C733.816 180.15 734.407 179.836 734.857 179.438C735.236 179.9 735.872 180.317 735.943 180.825C736.174 182.398 736.912 183.066 738.531 183.162C739.623 183.227 740.709 183.702 741.756 184.106C743.651 184.839 743.811 185.429 742.764 187.272C741.492 189.507 741.692 190.612 743.696 192.275C745.52 193.791 747.499 194.876 749.901 195.39C752.772 196.006 755.579 196.597 758.521 196.071C758.753 196.032 759.016 196.193 759.748 196.392C757.423 198.286 755.444 200.084 753.273 201.626C750.685 203.462 750.229 204.426 751.211 207.438C751.899 209.538 752.625 211.631 753.376 213.847C751.815 214.341 750.479 215.125 749.156 215.093C747.479 215.048 746.374 215.664 745.192 216.66C744.557 217.199 743.593 217.34 742.816 217.649C742.173 216.705 741.762 215.966 741.223 215.35C739.951 213.898 738.762 213.5 737.247 214.547C735.486 215.767 733.469 216.191 731.562 216.698C725.954 218.195 720.243 219.293 714.584 220.609C712.863 221.007 711.167 221.553 709.49 222.118C706.413 223.165 703.548 224.816 700.067 224.456C697.979 224.238 697.067 225.362 696.926 227.487C696.887 228.084 696.791 228.682 696.701 229.504C695.069 228.784 693.74 228.117 692.352 227.603C690.971 227.083 689.532 226.71 687.766 226.164C688.485 223.949 689.115 221.996 689.796 219.916C692.519 221.984 693.303 222.041 695.012 220.539C696.669 219.087 696.791 219.074 698.082 220.917C698.879 222.061 699.874 222.773 701.178 222.992C703.259 221.444 703.195 221.444 703.118 219.049C702.983 214.829 702.797 210.61 702.906 206.397C702.983 203.45 703.426 203.193 706.426 202.705C708.276 202.403 710.139 202.12 712.002 201.902C717.5 201.24 723.012 200.9 728.555 201.195C731.26 201.337 731.594 201.504 731.928 204.239C732.14 205.986 731.96 207.784 731.979 209.557C731.998 211.593 732.994 212.717 734.761 212.717C736.585 212.717 737.6 211.631 737.484 209.589C737.33 206.969 737.144 204.342 736.816 201.735C736.328 197.817 734.838 196.475 730.964 196.36C722.312 196.103 713.698 196.527 705.135 197.83C704.499 197.927 703.812 197.939 703.182 197.817C699.514 197.098 698.455 197.638 697.208 201.144C695.044 199.526 693.039 198.055 691.055 196.552C690.252 195.942 690.187 195.088 690.637 194.279C691.222 193.226 691.838 192.172 692.603 191.248C694.498 188.942 694.067 186.868 691.491 185.558C688.665 184.113 685.826 182.649 683.173 180.921C675.824 176.124 667.531 173.208 659.849 169.085C658.667 168.45 657.626 168.7 656.451 169.445C654.01 170.999 651.421 172.328 648.884 173.741C644.708 176.066 640.52 178.365 636.358 180.709C635.709 181.075 635.118 181.576 634.598 182.109C633.654 183.066 633.705 183.843 634.681 184.742C635.844 185.808 637.18 186.264 638.51 185.744C642.672 190.22 647.214 193.926 652.141 196.963C657.17 200.065 662.033 203.34 666.716 206.924C670.165 209.563 673.672 212.28 678.394 212.183C678.567 212.183 678.753 212.286 678.92 212.37C680.449 213.115 681.419 212.453 682.126 211.105C682.37 210.636 682.665 210.193 682.935 209.743C683.134 209.756 683.333 209.762 683.533 209.775C683.693 210.796 683.982 211.817 683.989 212.845C684.001 213.937 683.751 215.022 683.616 216.069C684.278 216.685 684.882 217.238 685.46 217.771C684.959 218.65 684.451 219.074 683.584 218.464C682.974 218.034 682.383 217.462 681.702 217.276C678.92 216.506 676.1 215.857 673.293 215.163C667.024 213.616 660.755 212.061 654.485 210.514C652.937 210.135 651.228 210.051 649.879 209.319C648.203 208.407 647.002 208.78 645.492 209.576C638.87 213.076 632.266 216.628 624.95 218.548C623.003 219.055 621.789 220.828 622.194 222.465C623.093 226.113 623.626 229.793 623.626 233.556C623.626 236.163 624.622 237.294 627.217 237.127C631.714 236.844 635.632 238.893 639.756 239.978C644.901 241.333 649.398 244.416 654.46 246.233C661.082 248.603 667.551 251.274 674.591 252.161C675.606 252.289 676.788 252.938 677.591 252.604C679.633 251.769 681.586 250.619 683.417 249.367C684.059 248.93 684.252 247.832 684.804 246.74C686.031 247.633 687.168 248.282 688.087 249.162C690.727 251.685 693.573 253.715 697.382 253.946C697.921 253.978 698.442 254.235 699.142 254.44C699.187 255.301 699.225 256.129 699.27 256.958C699.386 259.116 700.394 260.252 702.533 260.413C703.548 260.49 704.589 260.284 705.617 260.233C706.831 260.169 708.058 260.002 709.259 260.111C712.901 260.445 716.518 260.721 720.134 259.816C722.312 259.27 724.521 258.839 726.725 258.39C729.66 257.793 732.622 257.285 735.544 256.63C741.39 255.314 747.216 253.901 753.055 252.572C755.123 252.103 755.143 251.91 755.714 249.887C756.299 247.787 755.027 246.098 754.77 244.082C759.414 243.157 761.341 238.186 765.986 236.684C765.883 237.441 765.883 237.807 765.78 238.135C764.996 240.659 766.326 242.399 768.921 242.123C769.846 242.02 770.745 241.686 771.645 241.417C772.904 241.044 774.131 240.447 775.415 240.28C780.002 239.695 784.408 238.533 788.783 237.037C793.742 235.335 798.836 234.018 803.865 232.541C806.827 231.668 809.814 230.891 812.73 229.902C815.126 229.093 817.49 228.149 819.757 227.038C821.768 226.055 821.909 224.681 820.387 222.973C819.963 222.497 819.314 222.24 818.819 221.823C818.222 221.309 817.682 220.731 816.886 219.954C817.849 219.363 818.428 218.76 819.089 218.657C821.158 218.349 823.252 218.227 825.609 218.008C825.815 218.792 826.104 219.749 826.316 220.718C826.695 222.459 827.556 224.064 829.091 224.784C831.088 225.715 833.298 226.447 835.476 226.691C838.437 227.018 841.463 226.877 844.456 226.806C852.8 226.607 861.157 226.537 869.482 226.049C875.655 225.689 881.803 224.764 887.956 224.084C890.847 223.762 893.783 223.64 896.622 223.056C900.938 222.17 905.21 221.027 909.462 219.877C916.162 218.06 922.798 216.05 929.215 213.378C930.602 212.8 932.016 212.286 933.377 211.65C939.403 208.812 945.409 205.928 951.434 203.09C954.999 201.414 958.539 199.654 962.181 198.177C971.232 194.51 980.353 191.029 989.41 187.388C992.012 186.341 994.44 184.877 997.041 183.824C999.726 182.739 1002.49 181.814 1005.28 181.017C1007 180.529 1007.94 179.38 1008.76 177.98C1009.64 176.451 1010.38 174.82 1011.39 173.388C1013.56 170.331 1015.8 167.326 1018.12 164.378C1021.5 160.101 1024.8 155.753 1028.45 151.733C1030.31 149.691 1031.49 147.995 1029.78 145.401C1029.48 144.945 1029.36 144.354 1029.23 143.808L1029.22 143.789ZM696.168 128.704C695.66 128.851 695.095 128.806 694.151 128.884C693.907 126.854 693.528 124.94 693.47 123.014C693.348 118.865 692.494 114.871 691.665 110.818C690.464 104.961 689.584 99.0019 690.322 92.9523C690.444 91.9633 690.342 90.9422 690.342 89.6899C691.524 89.6899 692.545 89.523 693.496 89.722C697.157 90.4798 700.806 91.3083 704.441 92.1945C706.927 92.8046 707.313 93.4789 707.743 96.0798C708.507 100.684 709.246 105.315 710.332 109.849C710.724 111.493 711.334 113.066 711.572 114.794C711.809 116.521 712.676 118.146 713.1 119.861C713.89 123.065 713.653 123.553 710.454 124.542C705.72 126.013 700.94 127.349 696.174 128.71L696.168 128.704ZM729.018 177.254C725.69 174.981 722.607 172.817 719.986 169.991C716.486 166.221 712.83 162.593 709.265 158.881C707.21 156.742 704.917 154.751 704.223 151.316C705.989 150.397 707.563 149.595 709.131 148.76C711.938 147.257 714.77 145.806 717.526 144.2C718.978 143.359 720.031 143.551 721.31 144.585C724.502 147.18 727.881 149.543 731.073 152.144C733.958 154.495 736.688 157.038 739.707 159.696C736.161 165.521 732.641 171.307 729.031 177.248L729.018 177.254ZM683.218 226.858C681.843 233.261 679.299 239.387 678.612 245.957C678.58 246.278 678.22 246.561 677.861 247.074C674.681 246.65 671.424 246.381 668.238 245.739C666.06 245.295 663.96 244.39 661.872 243.574C657.254 241.776 652.597 240.062 648.075 238.026C642.576 235.553 636.923 233.659 631.058 232.336C628.425 231.739 628.187 231.398 628.071 228.791C628.033 227.86 627.898 226.928 627.795 225.997C627.513 223.409 627.904 222.722 630.358 221.707C631.482 221.245 632.677 220.937 633.782 220.436C636.936 218.991 640.096 217.565 643.173 215.979C645.749 214.643 648.402 214.566 651.113 215.15C653.669 215.696 656.187 216.441 658.731 217.064C663.279 218.182 667.821 219.306 672.375 220.372C675.657 221.142 678.94 221.855 681.477 224.36C681.901 224.777 682.62 224.886 683.301 225.182C683.276 225.773 683.327 226.338 683.211 226.871L683.218 226.858ZM677.739 207.2C671.932 205.331 667.474 201.664 662.868 198.139C659.097 195.249 654.819 193.033 650.927 190.284C648.415 188.512 646.09 186.438 643.88 184.293C642.332 182.796 642.537 181.949 644.522 180.895C647.239 179.45 650.046 178.192 652.828 176.869C653.586 176.503 654.453 176.304 655.128 175.822C657.106 174.39 659.155 174.377 661.249 175.366C669.465 179.245 677.918 182.674 685.395 187.972C685.916 188.339 686.378 188.788 687.11 189.405C683.957 195.403 680.835 201.343 677.751 207.206L677.739 207.2ZM747.319 248.429C741.608 249.9 735.872 251.281 730.123 252.61C726.84 253.368 723.545 254.106 720.218 254.575C717.648 254.941 715.015 254.922 712.407 254.993C711.096 255.025 709.786 254.826 708.469 254.819C705.167 254.8 703.972 254.004 703.465 250.85C702.803 246.695 702.367 242.508 701.827 238.334C701.917 238.321 702.007 238.302 702.097 238.289C702.097 236.414 702.251 234.519 702.052 232.663C701.865 230.942 702.534 229.985 704.017 229.401C704.538 229.195 705.058 228.99 705.591 228.81C713.132 226.19 720.898 224.469 728.703 222.87C731.08 222.382 733.36 221.438 735.692 220.744C738.114 220.025 738.255 220.044 739.514 222.24C740.253 223.531 741.146 224.906 741.313 226.325C741.826 230.557 744.004 234.102 745.694 237.839C746.452 239.509 747.588 241.006 748.513 242.605C748.886 243.253 749.239 243.934 749.438 244.653C750.017 246.766 749.477 247.871 747.319 248.429ZM753.704 153.685C756.35 151.168 756.434 151.123 758.528 154C759.902 155.888 761.091 157.924 762.234 159.966C762.665 160.743 762.729 161.719 763.153 163.325C758.239 161.649 755.605 158.213 752.419 155.175C752.894 154.617 753.26 154.109 753.704 153.679V153.685ZM746.265 132.872C744.133 133.013 741.981 132.807 739.835 132.859C738.551 132.891 737.735 132.672 737.458 131.17C736.302 124.812 734.921 118.493 733.868 112.122C733.341 108.917 733.367 105.617 733.604 101.712C736.315 102.412 738.461 102.964 740.6 103.536C740.959 103.632 741.287 103.921 741.647 103.947C745.109 104.159 746.741 106.047 747.235 109.431C747.711 112.655 748.558 115.834 749.304 119.019C750.158 122.667 751.076 126.302 751.963 129.95C752.156 130.739 752.316 131.536 752.509 132.416C750.338 133.527 748.257 132.75 746.272 132.884L746.265 132.872ZM747.042 157.564C749.483 159.285 751.597 160.743 753.665 162.265C754.179 162.638 754.706 163.145 754.937 163.71C755.329 164.648 755.541 165.752 754.558 166.497C753.652 167.178 752.984 166.433 752.4 165.855C750.755 164.23 749.104 162.606 747.556 160.891C746.702 159.947 746.792 159.87 747.049 157.564H747.042ZM758.573 192.121C758.072 191.588 757.121 191.383 756.331 191.235C754.224 190.843 752.072 190.644 749.972 190.201C748.327 189.854 747.955 189.186 748.34 187.555C748.552 186.656 748.912 185.757 749.394 184.973C751.712 181.236 754.128 177.562 756.434 173.818C757.205 172.56 757.795 171.185 758.406 169.837C758.804 168.957 759.421 168.623 760.378 168.565C763.39 168.379 766.339 168.475 769.294 169.284C771.992 170.023 774.805 170.363 777.554 170.928C780.561 171.545 783.548 172.219 787.216 173.009C778.55 181.377 768.703 187.382 760.853 195.647C759.928 194.17 759.395 193.001 758.566 192.121H758.573ZM810.796 224.88C807.553 226.1 804.354 227.461 801.039 228.438C794.217 230.454 787.338 232.272 780.477 234.153C778.312 234.75 776.128 235.29 773.951 235.855C772.846 236.144 771.889 235.945 771.221 234.95C768.78 231.295 766.031 227.802 763.994 223.942C761.335 218.901 759.286 213.545 756.89 208.362C755.952 206.333 756.8 204.914 758.2 203.661C759.87 202.159 761.656 200.784 763.345 199.307C767.219 195.917 771.015 192.429 774.946 189.109C779.244 185.481 783.631 181.961 788.025 178.449C789.31 177.421 790.729 176.561 792.284 175.495C792.611 176.265 792.887 176.734 793.01 177.235C794.281 182.405 795.836 187.433 798.283 192.237C800.827 197.239 802.87 202.506 804.996 207.707C806.313 210.925 807.623 214.104 809.73 216.929C810.726 218.265 811.426 219.839 812.145 221.361C813.25 223.692 813.115 224.006 810.79 224.88H810.796ZM1022.54 151.052C1020.82 152.735 1019.59 154.912 1018.1 156.845C1013.49 162.862 1008.89 168.906 1004.18 174.852C1003.41 175.822 1002.19 176.541 1001.03 177.068C995.236 179.727 989.436 182.379 983.552 184.839C977.938 187.189 972.208 189.276 966.549 191.537C963.253 192.853 960.003 194.298 956.721 195.666C951.877 197.689 947.008 199.667 942.178 201.722C938.985 203.077 935.812 204.483 932.671 205.961C931.328 206.59 930.178 207.752 928.791 208.163C925.187 209.229 921.841 210.88 918.366 212.241C912.244 214.643 905.718 215.69 899.371 217.334C893.339 218.895 887.121 219.106 881.012 220.07C876.246 220.821 871.518 221.084 866.72 220.982C864.857 220.943 862.988 221.406 861.119 221.457C856.629 221.579 852.132 221.662 847.636 221.63C845.015 221.611 842.394 221.38 839.773 221.149C837.814 220.982 835.868 220.673 833.915 220.417C832.399 220.217 831.692 219.081 831.178 217.854C829.913 214.836 828.667 211.805 827.498 208.741C824.646 201.292 821.935 193.784 818.98 186.38C815.743 178.269 812.306 170.241 808.927 162.188C807.334 158.386 805.645 154.623 804.052 150.821C803.274 148.959 803.384 148.477 805.246 147.822C810.546 145.953 815.903 144.251 821.235 142.46C824.883 141.233 828.513 139.961 832.155 138.735C836.6 137.239 841.006 135.607 845.522 134.355C847.533 133.796 849.608 133.989 851.689 135.273C854.599 137.072 857.464 139.101 860.875 139.987C861.144 140.058 861.395 140.199 861.639 140.34C867.311 143.603 872.945 146.936 878.681 150.076C879.818 150.699 881.391 150.84 882.721 150.725C891.22 149.999 899.699 149.119 908.191 148.349C910.131 148.175 912.135 148.439 914.036 148.105C916.252 147.719 916.368 145.118 917.871 143.834C920.434 141.644 922.868 139.281 925.213 136.847C927.821 134.15 930.153 131.183 932.819 128.543C935.542 125.839 938.6 123.47 941.362 120.798C943.173 119.051 944.689 117.009 946.392 115.153C947.978 113.432 949.68 111.814 951.241 110.073C951.82 109.425 952.475 108.583 952.539 107.787C952.693 105.899 952.571 103.979 952.436 102.078C952.359 100.993 952.019 99.9266 951.852 98.8413C950.708 91.334 949.475 83.8395 948.524 76.3129C948.229 73.9624 947.201 72.7615 945.068 72.1707C942.184 71.3679 939.306 70.5266 936.435 69.6789C935.902 69.5184 935.369 69.3064 934.881 69.0367C931.592 67.2257 928.309 65.4083 925.04 63.5652C924.256 63.122 923.543 62.5697 922.798 62.0624C922.849 61.8119 922.901 61.5615 922.946 61.311C924.012 61.0477 925.078 60.778 926.151 60.5275C928.977 59.8661 931.842 59.3587 934.617 58.5239C937.932 57.522 941.189 56.456 944.683 56.0771C947.818 55.7367 950.907 54.8633 953.984 54.1119C955.468 53.7459 956.682 53.8165 957.89 54.889C963.074 59.5 968.341 64.0083 973.499 68.6385C975.934 70.822 978.182 73.2046 980.526 75.4908C981.696 76.6275 982.942 77.4046 984.747 77.1349C986.687 76.8459 988.678 76.8523 990.644 76.7303C991.016 76.7046 991.395 76.6275 991.768 76.6532C997.382 76.9936 1003 77.3661 1008.62 77.6807C1010.22 77.7707 1011.21 78.6312 1011.2 80.0954C1011.13 86.4918 1013.41 92.445 1014.48 98.623C1015.35 103.606 1015.77 108.686 1016.97 113.586C1017.88 117.337 1018.31 121.261 1020.12 124.812C1020.76 126.071 1020.7 127.67 1021.02 129.102C1022.13 134.034 1023.25 138.96 1024.37 143.885C1025 146.602 1024.67 148.933 1022.5 151.059L1022.54 151.052Z" fill="#FF6525"/>
<path d="M627.551 158.425C633.114 156.877 635.368 149.736 631.559 145.311C627.211 140.263 622.663 135.389 618.211 130.438C617.935 130.129 617.697 129.776 617.357 129.333C619.207 128.492 620.549 129.564 621.789 130.129C629.407 133.61 637.585 135.466 645.364 138.459C647.201 139.165 648.993 139.126 650.316 137.116C650.959 136.134 652.051 135.421 653.014 134.676C656.052 132.319 659.155 130.052 662.168 127.67C664.454 125.859 664.673 124.626 663.529 122.089C663.234 121.434 662.932 120.663 662.996 119.982C663.253 117.465 661.834 116.245 659.823 115.243C656.99 113.83 653.971 112.976 651.171 111.332C644.965 107.678 638.407 104.615 631.958 101.378C627.769 99.2779 623.408 97.5054 619.329 95.2256C614.017 92.2586 608.891 88.9641 603.713 85.7595C598.529 82.5485 593.378 79.2926 588.232 76.0302C584.532 73.6797 580.742 71.4513 577.209 68.8696C573.644 66.2559 569.842 64.8944 565.416 64.4834C558.562 63.8476 552.158 61.1568 545.567 59.3265C544.687 59.0825 543.704 58.7164 543.087 58.087C541.841 56.8219 540.216 56.443 538.739 55.6852C535.501 54.0283 532.155 52.5705 529.277 50.2137C525.725 47.3109 522.082 44.4916 518.286 41.9228C511.381 37.2476 504.353 32.7522 497.339 28.2504C493.009 25.4696 488.551 22.8751 484.26 20.0366C482.847 19.099 481.582 19.054 480.034 19.3109C477.406 19.7476 474.754 20.1715 472.101 20.2421C469.39 20.3127 466.66 20.0302 463.949 19.7733C460.994 19.4907 448.43 18.4118 445.52 18.0522C445.366 18.0072 445.211 17.9687 445.032 17.9559C429.101 16.8192 413.177 15.676 397.247 14.5393C389.391 13.9806 381.528 13.4155 373.672 12.8568C365.855 12.2981 357.947 11.9898 350.207 10.6861C343.218 9.50448 336.698 6.21641 329.69 5.3687C322.245 4.46962 314.807 6.58888 307.619 8.24577C292.196 11.81 276.773 15.3742 261.356 18.9384C243.852 22.965 -180.843 109.116 -198.347 113.162C-200.743 113.715 -199.728 117.401 -197.332 116.849C-166.486 109.72 271.544 20.4861 302.39 13.3641C309.745 11.6623 317.357 9.23476 324.943 8.97787C332.587 8.72099 339.447 12.4458 346.815 13.9228C361.39 16.8384 376.723 16.8898 391.517 17.9494C409.008 19.2017 426.506 20.454 443.997 21.6999C444.961 22.6504 446.291 22.9393 447.903 22.9522C451.455 22.9843 455.04 23.177 458.553 23.6907C461.694 24.1531 464.784 24.7375 467.964 24.1724C468.394 24.0953 468.947 24.0825 469.306 24.288C471.927 25.7522 474.387 24.5962 476.88 23.8962C477.394 23.7549 477.965 23.4146 478.415 23.5302C479.957 23.9219 481.575 24.2494 482.937 25.0201C486.528 27.043 490.048 29.2008 493.504 31.4421C499.709 35.4751 505.869 39.5916 512.017 43.7146C516.693 46.8485 521.324 50.0467 525.956 53.2449C526.348 53.5146 526.605 53.977 526.926 54.3494C525.814 54.5678 524.954 54.343 524.099 54.0926C521.215 53.2449 518.389 52.1082 515.447 51.6008C508.901 50.4641 502.368 49.3338 495.958 47.5806C493.549 46.9192 491.127 46.2256 488.667 45.8338C481.774 44.7421 475.255 42.4494 468.78 39.9834C467.527 39.5081 466.454 38.5705 465.298 37.8513C463.615 40.4907 464.09 42.3467 466.531 43.4513C467.816 44.0357 469.049 44.7357 470.353 45.243C474.94 47.0219 479.237 49.777 484.46 49.5137C484.909 49.488 485.372 49.7127 485.828 49.8219C489.104 50.6054 492.361 51.4595 495.656 52.1595C500.865 53.2705 506.133 54.1375 511.31 55.3641C517.862 56.9182 524.35 58.7485 530.87 60.4247C536.323 61.8247 541.79 63.1669 547.237 64.5669C551.958 65.7806 556.622 67.2513 561.388 68.2338C567.921 69.5825 573.824 72.299 579.438 75.7412C580.948 76.666 582.201 78.0017 583.71 78.9265C589.62 82.5549 595.594 86.0742 601.516 89.6705C607.76 93.466 613.965 97.332 620.215 101.121C621.815 102.091 623.787 102.611 625.11 103.844C626.665 105.295 628.373 105.95 630.332 106.304C631.598 106.535 632.818 106.862 633.686 108.115C633.287 108.384 633.011 108.66 632.683 108.776L641.33 111.326C643.372 112.263 645.306 113.432 647.297 114.479C651.582 116.72 655.731 119.167 659.386 122.526C659.213 122.821 659.097 123.219 658.834 123.438C655.384 126.308 651.967 129.217 648.408 131.953C647.715 132.486 646.398 132.66 645.518 132.428C639.737 130.893 633.743 129.962 628.412 127.008C627.782 126.661 627.121 126.25 626.671 125.711C625.277 124.028 623.639 123.335 621.449 123.855C620.652 124.048 619.766 123.874 618.924 123.829C616.4 123.688 613.869 123.315 611.364 123.438C608.903 123.553 606.681 122.93 604.574 121.922C600.521 119.989 596.57 117.831 592.543 115.84C588.085 113.638 583.941 110.966 580.196 107.691C579.072 106.708 577.743 105.809 576.991 104.57C575.437 102.007 573.008 101.693 570.458 101.5C569.72 101.442 568.955 101.686 568.21 101.654C565.782 101.551 563.322 101.571 560.932 101.192C556.307 100.472 551.734 99.3999 547.109 98.6806C540.158 97.6082 533.259 96.3366 526.476 94.4806C523.849 93.7614 521.241 92.9329 518.479 93.4981C516.924 93.8127 515.421 94.5063 513.867 94.6476C503.403 95.6173 492.932 96.465 482.41 95.7843C480.175 95.6366 477.952 95.1806 475.717 95.0137C474.747 94.943 473.533 94.943 472.814 95.4504C471.323 96.5036 470.013 97.8586 468.76 99.2137C467.752 100.305 467.064 101.705 466.005 102.739C463.114 105.552 460.185 108.346 457.102 110.947C455.412 112.372 453.44 113.49 451.487 114.549C450.337 115.172 449.239 115.924 449.265 117.163C449.31 119.212 449.657 121.46 451.526 122.667C455.316 125.101 457.937 128.671 460.988 131.825C462.305 133.186 463.512 134.56 464.18 136.384C464.707 137.816 465.953 138.529 467.354 138.953C469.396 139.576 471.522 139.981 473.475 140.803C476.848 142.209 480.169 143.77 483.412 145.452C485.134 146.345 486.624 147.552 487.427 149.569C488.249 151.637 489.483 152.022 491.93 151.784C492.444 151.733 493.035 151.849 493.504 152.067C494.602 152.593 495.637 153.249 496.716 153.814C500.679 155.901 503.782 159.369 508.092 160.91C508.33 160.993 508.606 161.231 508.683 161.456C509.422 163.684 511.336 164.738 513.096 165.932C517.978 169.246 523.052 172.296 526.971 176.856C528.056 178.121 529.604 178.969 530.838 180.118C532.219 181.396 532.99 182.796 532.058 184.851C530.048 189.27 528.21 193.765 526.36 198.248C525.435 200.489 523.586 201.484 521.434 201.966C518.98 202.518 516.391 202.608 514.008 203.353C510.321 204.503 507.077 203.25 503.994 201.735C499.812 199.673 495.861 197.13 491.77 194.876C489.309 193.521 486.708 192.416 484.267 191.029C480.111 188.66 476.077 186.065 471.895 183.747C468.452 181.839 464.861 180.208 461.328 178.455C458.9 177.248 456.344 176.278 455.162 173.446C454.795 172.566 453.787 171.937 453.029 171.237C450.203 168.642 447.395 166.035 444.511 163.504C443.111 162.278 441.711 160.923 440.066 160.126C437.381 158.823 434.491 157.943 431.696 156.845C427.161 155.06 422.633 153.242 418.104 151.438C418.11 151.45 418.123 151.463 418.13 151.482C416.299 150.795 414.488 150.063 412.644 149.447C410.531 148.734 408.321 148.271 406.259 147.443C402.675 145.998 399.232 144.168 395.609 142.845C389.898 140.764 384.072 139.004 378.323 137.039C375.76 136.166 373.319 134.83 370.704 134.207C363.574 132.499 356.868 129.609 350.046 127.053C344.021 124.793 338.368 121.601 332.208 119.616C331.013 119.231 329.979 118.268 328.958 117.459C327.345 116.187 325.817 114.806 324.23 113.496C320.549 110.459 316.811 107.492 313.188 104.383C310.927 102.444 308.852 100.293 306.539 98.0962C306.501 97.6017 306.539 96.8311 306.353 96.1247C305.524 93.0421 303.418 92.477 301.002 94.4999C299.801 95.5081 298.439 96.3751 297.033 97.0751C291.746 99.7146 286.395 102.232 281.102 104.871C280.312 105.263 279.689 106.021 279.046 106.663C278.828 106.882 278.629 107.106 278.43 107.338C277.794 107.697 277.158 108.05 276.509 108.397C276.413 108.134 276.31 107.851 276.194 107.53C273.798 108.705 271.422 109.598 269.745 111.653C269.681 111.73 269.597 111.794 269.514 111.852C269.135 112.026 268.756 112.193 268.377 112.36C268.351 112.366 268.326 112.379 268.3 112.385C267.523 112.687 266.681 112.841 265.949 113.22C265.249 113.58 264.555 113.946 263.861 114.305C259.712 116.033 255.517 117.664 251.354 119.353C240.261 123.861 230.247 129.519 220.341 136.243C220.072 136.423 219.879 136.641 219.744 136.872C218.813 137.283 217.939 137.849 217.143 138.529C216.295 139.249 216.307 140.597 217.033 141.638C217.605 142.46 218.434 142.922 219.455 142.607C221.671 141.92 223.495 140.649 224.562 138.555C224.639 138.407 224.639 138.215 224.6 138.003C225.159 137.63 225.718 137.258 226.283 136.892C227.298 136.789 227.793 136.513 227.896 135.877C228.519 135.479 229.148 135.081 229.771 134.695C229.874 134.753 229.977 134.817 230.073 134.882C231.062 134.297 231.975 133.751 232.996 133.148C232.912 133.071 232.822 133 232.739 132.923C233.285 132.602 233.831 132.274 234.383 131.96C234.75 131.985 235.077 131.998 235.36 131.908C237.113 131.343 238.861 130.913 240.486 129.827C242.156 128.716 244.314 128.376 246.132 127.451C251.9 124.529 257.65 121.582 263.399 118.621C270.856 115.577 278.199 112.289 284.956 107.845C285.599 107.421 285.849 106.798 285.83 106.194C286.434 105.398 287.487 105.597 288.425 105.475C289.061 105.392 289.678 105.18 290.397 105C290.339 104.281 290.294 103.677 290.275 103.484C291.367 103.375 292.337 103.452 293.172 103.15C295.202 102.425 297.148 101.474 299.165 100.704C300.848 100.061 302.248 100.222 303.687 101.705C308.377 106.554 313.265 111.191 318.943 114.954C320.588 116.046 322.508 117.343 322.81 119.841C322.894 120.515 323.992 121.228 324.776 121.614C326.035 122.224 327.442 122.513 328.739 123.046C332.992 124.799 337.186 126.687 341.471 128.35C343.7 129.211 345.73 130.81 348.344 130.476C348.588 130.444 348.993 130.553 349.102 130.733C350.445 132.884 352.892 133.077 354.922 133.822C359.572 135.53 364.461 136.628 369.054 138.465C372.998 140.038 377.173 140.854 381.046 142.659C383.661 143.872 386.577 144.425 389.288 145.452C393.759 147.141 398.159 149.01 402.604 150.75C411.957 154.411 421.271 158.187 430.707 161.604C435.242 163.248 439.071 165.733 442.559 168.944C445.109 171.288 447.794 173.478 450.357 175.809C450.941 176.336 451.635 177.132 451.654 177.819C451.693 179.521 452.733 180.067 454.025 180.549C455.605 181.146 457.249 181.621 458.727 182.417C466.589 186.637 474.407 190.946 482.25 195.197C486.958 197.747 491.731 200.174 496.401 202.782C499.831 204.695 503.12 206.866 506.537 208.818C507.366 209.293 508.477 209.666 509.389 209.55C511.503 209.274 513.558 208.555 515.665 208.234C518.806 207.752 521.973 207.412 525.134 207.091C526.996 206.904 528.879 206.879 530.247 205.029C529.476 202.692 530.131 200.649 531.403 198.363C533.664 194.285 535.553 189.95 537.114 185.551C538.488 181.679 538.18 177.922 533.863 175.706C533.619 175.584 533.459 175.315 533.24 175.141C530.613 173.022 528.037 170.838 525.346 168.803C518.408 163.549 511.458 158.309 504.43 153.184C501.206 150.834 498.354 147.905 494.358 146.634C493.247 146.281 492.052 145.15 491.577 144.078C490.62 141.888 490.189 139.473 489.425 137.193C488.359 134.008 487.729 130.688 485.963 127.727C482.68 122.217 480.869 116.046 478.531 110.118C477.715 108.038 477.31 105.783 476.848 103.581C476.385 101.365 476.803 100.851 479.032 100.864C482.41 100.883 485.796 101.082 489.174 101.05C491.121 101.031 492.598 101.667 493.876 103.112C496.414 105.989 498.868 108.975 501.643 111.615C506.531 116.264 511.663 120.663 516.648 125.21C519.487 127.804 522.301 130.431 525.031 133.141C528.275 136.365 531.878 139.197 534.287 143.288C536.818 147.591 540.659 150.84 544.616 153.884C548.181 156.633 551.746 159.382 555.164 162.304C557.586 164.378 559.757 166.741 562.037 168.976C562.872 169.798 563.797 170.588 565.005 169.875C566.681 168.886 568.551 168.995 570.221 169.265C572.276 169.599 574.12 169.143 576.053 168.841C579.31 168.334 582.547 168.385 585.714 169.451C587.5 170.055 588.997 168.95 588.817 167.069C588.74 166.285 588.335 165.45 587.853 164.802C586.575 163.074 585.239 161.379 583.813 159.767C577.229 152.311 570.555 144.932 564.028 137.431C560.521 133.404 557.02 129.339 553.918 125.011C550.828 120.695 548.194 116.052 545.464 111.493C544.636 110.112 543.691 108.712 543.261 106.349C544.732 107.203 545.695 107.691 546.576 108.294C548.355 109.515 550.063 110.838 551.843 112.045C554.56 113.888 557.496 115.461 560.014 117.542C562.467 119.571 565.345 120.959 567.69 123.174C569.861 125.223 572.469 126.796 574.807 128.671C575.899 129.545 577.197 130.463 577.73 131.664C579.316 135.235 582.406 137.482 584.866 140.257C587.956 143.744 591.887 146.46 594.393 150.513C594.669 150.956 595.195 151.309 595.684 151.553C597.681 152.568 599.589 153.82 602.024 153.576C602.936 153.486 603.899 153.717 604.812 153.916C611.942 155.432 619.065 156.98 626.196 158.489C626.626 158.579 627.127 158.572 627.551 158.457V158.425ZM507.289 37.1513C507.173 37.0292 506.987 36.9201 506.968 36.7788C506.942 36.5926 507.038 36.3806 507.231 35.5522C507.546 36.2008 507.745 36.432 507.726 36.6375C507.713 36.8173 507.443 36.9779 507.289 37.1448V37.1513ZM319.194 113.618C318.95 113.316 318.706 113.021 318.455 112.719C318.564 112.636 318.667 112.546 318.776 112.462L319.496 113.374C319.393 113.458 319.297 113.535 319.194 113.618ZM418.271 153.557C418.13 153.647 417.796 153.441 417.552 153.377C417.757 152.76 417.956 152.15 418.155 151.527C418.187 151.572 418.213 151.624 418.232 151.675C418.464 152.304 419.222 152.94 418.265 153.557H418.271ZM483.201 132.865C484.209 135.138 485.173 137.47 485.346 140.539C482.822 139.602 480.58 138.838 478.396 137.926C476.668 137.2 475.107 135.999 473.334 135.498C468.773 134.22 465.985 130.951 463.255 127.432C461.662 125.377 459.742 123.572 457.937 121.691C457.05 120.766 456.093 119.918 455.226 119.096C460.634 114.119 465.638 109.515 470.655 104.923C470.758 104.833 471.015 104.91 471.375 104.91C472.614 108.204 473.886 111.582 475.165 114.954C475.563 116.007 475.942 117.067 476.404 118.088C478.659 123.014 481.004 127.907 483.194 132.865H483.201ZM543.89 118.062C547.43 124.266 551.541 130.097 556.108 135.556C561.157 141.599 566.54 147.36 571.82 153.204C574.325 155.971 576.946 158.637 579.496 161.366C580.152 162.066 580.023 162.843 579.188 163.209C578.353 163.575 577.402 163.826 576.496 163.851C573.497 163.948 570.497 163.928 567.497 163.948C565.647 163.96 564.195 163.338 562.744 162.015C558.87 158.489 554.862 155.104 550.712 151.913C546.383 148.58 542.291 145.099 539.105 140.591C537.769 138.703 536.054 137.065 534.371 135.453C528.352 129.68 522.294 123.938 516.205 118.229C512.312 114.582 508.297 111.056 504.418 107.395C502.921 105.982 501.617 104.364 500.274 102.797C499.812 102.258 499.51 101.571 498.913 100.588C505.009 100.049 510.578 99.3357 516.166 99.1238C522.66 98.8797 529.052 99.888 535.276 101.802C535.533 101.879 535.745 102.078 536.15 102.322C535.533 104.717 536.902 106.483 538.141 108.404C540.178 111.544 542.028 114.806 543.884 118.056L543.89 118.062ZM604.503 148.638C600.116 148.137 597.187 145.561 594.425 142.549C590.571 138.343 586.787 134.06 582.837 129.943C580.961 127.991 578.88 126.205 576.708 124.587C568.223 118.268 560.091 111.454 551.072 105.854C550.68 105.61 550.263 105.404 549.852 105.173C549.999 104.884 550.147 104.589 550.295 104.3C552.382 104.685 554.464 105.141 556.564 105.43C560.367 105.957 564.17 106.509 567.992 106.804C570.612 107.004 572.674 108.32 574.531 109.816C581.886 115.731 589.825 120.548 598.645 123.971C601.214 124.966 603.475 126.745 605.878 128.164C606.36 128.447 606.912 129.038 607.323 128.948C610.471 128.273 611.762 130.714 613.438 132.473C616.984 136.204 620.517 139.949 624.012 143.725C625.271 145.093 626.491 146.512 627.57 148.027C628.502 149.338 629.202 150.815 627.66 152.754C623.067 152.06 618.275 151.425 613.522 150.596C610.49 150.07 607.535 148.984 604.49 148.638H604.503Z" fill="#FF6525"/>
<path d="M756.543 69.7174C758.675 74.0715 761.624 78.021 762.915 82.8054C763.422 84.6807 764.521 85.4128 766.21 85.2586C769.929 84.9183 772.467 87.2302 774.651 89.51C775.955 90.8715 777.246 92.0853 778.775 93.1513C781.235 94.8596 783.663 96.6192 786.001 98.4816C787.087 99.3486 787.915 100.543 788.898 101.551C790.054 102.746 791.461 102.964 793.048 102.572C794.217 102.283 795.412 102.02 796.606 101.905C799.69 101.622 802.805 101.59 805.869 101.166C812.087 100.299 818.286 99.2394 824.491 98.2504C826.527 97.9229 827.195 97.0752 827.42 94.9366C827.478 94.3908 827.838 93.7036 828.275 93.4339C828.57 93.2476 829.296 93.588 829.739 93.8449C830.6 94.333 830.671 95.11 830.439 96.0348C830.086 97.4476 830.664 98.533 831.82 99.3935C836.034 102.527 840.165 105.771 844.443 108.815C847.417 110.927 850.558 112.803 853.654 114.742C854.508 115.275 855.234 115.853 855.112 116.938C854.939 118.416 854.881 119.963 854.386 121.344C853.114 124.883 853.32 125.724 856.667 127.304C864.915 131.202 872.321 136.449 879.824 141.56C881.635 142.794 883.498 144.418 885.945 142.794C886.087 142.704 886.324 142.691 886.498 142.729C888.855 143.282 890.622 141.959 892.53 140.957C894.187 140.083 895.883 139.223 897.662 138.664C899.981 137.932 901.869 136.583 903.565 134.978C907.31 131.42 910.901 127.702 914.64 124.15C918.449 120.528 922.361 117.016 926.24 113.471C928.733 111.191 931.257 108.949 933.756 106.67C935.657 104.929 935.735 104.345 934.565 102.084C933.403 99.8366 932.131 97.6403 931.122 95.322C929.478 91.5458 928.039 87.6798 926.465 83.8651C925.071 80.4807 923.465 77.1798 922.232 73.7376C921.147 70.7256 919.862 69.4091 916.605 69.2357C913.567 69.0752 910.695 68.4394 907.85 67.322C905.781 66.5064 903.54 66.0825 901.336 65.6586C898.85 65.1834 896.326 64.9394 893.821 64.5348C885.123 63.1476 876.432 61.6898 867.722 60.3412C860.206 59.1788 852.678 58.1385 845.156 57.0275C844.513 56.9311 843.897 56.6871 843.267 56.5073C840.672 55.7816 838.546 57.1687 838.218 59.7953C838.135 60.444 838.109 61.1119 837.955 61.7412C837.531 63.5073 837.023 63.8669 835.418 63.0513C833.137 61.8889 831.133 62.255 829.02 63.4495C827.947 64.0596 826.682 64.3164 825.024 64.9073C825.024 62.7687 825.024 61.1889 825.024 59.6091C825.031 57.066 823.656 55.7366 821.221 55.8972C819.648 56.0064 818.068 56.0064 816.5 56.1476C811.856 56.5651 807.327 55.8779 802.856 54.7091C800.955 54.2146 799.112 53.4825 797.197 53.0587C792.039 51.9027 787.042 50.4128 782.616 47.3495C781.158 46.3412 779.475 45.6541 777.939 44.7486C776.835 44.0935 775.768 43.3614 774.76 42.5779C773.128 41.3128 771.233 41.499 770.225 43.3421C767.758 47.8311 764.084 51.3376 760.808 55.1715C759.022 57.2651 756.992 59.1018 753.613 59.2431C753.613 60.9385 753.279 62.4091 753.69 63.6293C754.397 65.7421 755.553 67.7009 756.543 69.7174ZM835.964 93.7743C837.396 86.5238 838.726 79.2476 840.152 71.9908C840.691 69.2486 841.379 66.532 842.04 63.8091C842.484 61.9724 842.805 61.6963 844.719 61.7284C846.216 61.7541 847.725 61.8632 849.209 62.0752C859.326 63.5009 869.45 64.9137 879.554 66.4421C885.766 67.3798 891.913 68.7605 898.144 69.4926C902.319 69.9807 906.128 71.1559 909.815 73.0568C911.049 73.6926 912.449 74.1871 913.817 74.3348C916.175 74.5853 917.337 76.0495 918.539 77.8412C921.667 82.4972 923.221 87.8339 925.322 92.9265C926.536 95.8678 927.57 98.8926 928.913 101.776C929.587 103.234 929.452 104.159 928.302 105.218C924.847 108.397 921.5 111.692 918.038 114.864C912.712 119.738 907.291 124.51 901.979 129.397C899.75 131.452 897.566 133.482 894.482 134.156C894.129 134.233 893.776 134.432 893.474 134.65C890.673 136.725 887.461 137.463 884.057 137.425C883.26 137.418 882.374 137.168 881.68 136.77C878.828 135.151 875.963 133.539 873.24 131.722C868.582 128.614 864.022 125.358 859.294 122.076C859.981 119.135 860.63 116.373 861.247 113.727C854.489 109.861 848.104 106.105 842.381 101.352C840.434 99.7403 838.623 97.9614 836.741 96.2724C835.976 95.5853 835.758 94.8467 835.97 93.7743H835.964ZM805.509 99.5284C805.426 99.5155 805.387 99.2651 805.323 99.1238C805.548 99.0724 805.773 98.9761 805.991 98.9889C806.062 98.9889 806.126 99.2587 806.229 99.477C805.965 99.5027 805.728 99.5669 805.509 99.5348V99.5284ZM761.084 64.2715C761.2 64.1752 761.27 63.8798 761.212 63.7449C760.236 61.5742 761.983 60.5339 763.088 59.2495C765.638 56.2697 768.214 53.3155 770.79 50.355C772.666 48.2036 772.955 48.0174 775.569 49.1798C778.819 50.6247 781.941 52.3458 785.147 53.8935C786.322 54.4586 787.556 54.9275 788.802 55.332C792.81 56.6293 796.806 57.9908 800.872 59.0889C803.743 59.8596 806.711 60.277 809.653 60.7779C812.595 61.2788 815.562 61.6706 818.511 62.1522C820.007 62.3963 820.386 63.61 820.541 64.8559C821.144 69.6917 821.69 74.5339 822.269 79.3697C822.532 81.5788 822.975 83.7816 823.071 85.9972C823.149 87.7568 822.885 89.5421 822.635 91.2954C822.436 92.6889 821.6 93.7486 820.207 94.1146C818.761 94.4999 817.284 94.7761 815.8 94.9752C810.507 95.688 805.208 96.3559 799.908 97.0174C798.977 97.133 798.039 97.1458 797.101 97.21C793.35 97.8587 790.42 96.5935 787.793 93.8385C786.412 92.3871 784.337 91.6165 782.654 90.4284C780.83 89.1311 779.025 87.7889 777.349 86.3119C775.113 84.3339 773.032 82.1761 770.829 80.166C770.148 79.5431 769.319 78.8623 768.465 78.6889C765.388 78.0531 764.514 75.4651 763.326 73.1788C762.504 71.599 761.919 69.8972 761.167 68.2853C760.551 66.9495 759.452 65.6651 761.078 64.2843L761.084 64.2715Z" fill="#FF6525"/>
<path d="M1215.56 110.587C1214.83 110.092 1214.17 109.489 1213.45 108.981C1212.92 108.615 1212.32 108.044 1211.77 108.057C1210.22 108.102 1209.36 107.119 1208.49 106.169C1205.97 103.388 1203.67 100.402 1201.01 97.7686C1194.67 91.5008 1188.22 85.3356 1181.73 79.2283C1178.24 75.953 1174.59 72.8576 1170.99 69.698C1167.96 67.0393 1164.68 64.6182 1161.92 61.709C1158.14 57.7402 1154.06 54.1888 1149.68 50.9264C1146.13 48.2806 1142.51 47.0668 1138.38 49.6485C1135.53 51.4274 1132.32 52.0696 1129.07 52.654C1122.44 53.8549 1115.8 55.0879 1109.18 56.3723C1102.93 57.5861 1096.71 58.9604 1090.45 60.1163C1085.76 60.9833 1081.03 61.6319 1076.31 62.3319C1074.46 62.6081 1072.58 62.7108 1070.73 62.9677C1066.37 63.565 1062.03 64.6503 1057.66 64.7338C1049.61 64.8879 1041.54 64.4705 1033.48 64.2778C1032.72 64.2585 1031.99 64.098 1031.23 64.0466C1028.99 63.8989 1026.76 63.7255 1024.51 63.687C1023.96 63.6806 1022.98 64.0787 1022.91 64.4319C1022.57 66.1338 1022.05 67.964 1022.38 69.6017C1023.31 74.3604 1024.75 79.0228 1025.76 83.7751C1026.82 88.7971 1027.64 93.8705 1028.51 98.931C1029.34 103.728 1030.1 108.545 1030.92 113.342C1031.23 115.185 1031.65 117.015 1032.01 118.852C1032.77 122.712 1033.71 126.552 1034.23 130.444C1034.99 136.166 1037.35 141.657 1036.76 147.578C1036.65 148.734 1037.28 149.607 1038.33 150.018C1039.36 150.429 1040.45 150.731 1041.55 150.943C1043.11 151.245 1044.78 151.193 1046.26 151.707C1048.89 152.626 1050.59 151.039 1052.35 149.723C1053.68 148.727 1052.91 147.103 1052.93 145.748C1052.95 144.906 1052.8 144.065 1052.72 143.224C1052.68 143.224 1052.63 143.217 1052.59 143.211C1052.86 138.433 1053.13 133.648 1053.43 128.87C1053.54 127.188 1053.67 125.499 1053.92 123.829C1054.51 119.764 1055.14 119.212 1059.05 119.334C1070.03 119.681 1081.01 120.053 1091.99 120.426C1102.32 120.779 1112.65 121.132 1122.97 121.53C1136.76 122.07 1150.55 122.596 1164.34 123.245C1169.96 123.515 1175.62 123.784 1181.18 124.613C1189.69 125.878 1198.41 125.557 1206.75 128.17C1209.28 128.967 1211.58 127.689 1212.24 125.57C1212.49 124.735 1212.26 123.746 1212.26 122.827C1212.3 119.27 1212.06 115.648 1215.74 113.387C1216.75 112.77 1216.53 111.229 1215.56 110.574V110.587ZM1123.76 55.2934C1123.82 55.2806 1123.93 55.531 1124.07 55.743C1123.8 55.8136 1123.57 55.9228 1123.34 55.9163C1123.25 55.9163 1123.16 55.6723 1123.07 55.5374C1123.3 55.4475 1123.52 55.3255 1123.76 55.2934ZM1208.64 117.041C1208.45 117.844 1208.61 118.717 1208.56 119.559C1208.43 121.639 1207.77 122.468 1205.71 122.68C1204.04 122.853 1202.33 122.911 1200.67 122.75C1191.61 121.87 1182.57 120.817 1173.5 119.995C1165.19 119.237 1156.86 118.627 1148.53 118.094C1144.4 117.831 1140.26 117.947 1136.13 117.825C1123.17 117.433 1110.22 117.08 1097.27 116.566C1090.9 116.309 1084.54 115.648 1078.16 115.314C1071.23 114.948 1064.28 114.768 1057.34 114.459C1055.47 114.376 1053.61 114.087 1051.74 113.978C1050 113.875 1049.54 114.215 1049.28 115.904C1049.1 117.009 1049.09 118.146 1049.12 119.27C1049.21 121.877 1049.53 124.484 1049.46 127.079C1049.34 131.471 1048.98 135.858 1048.73 140.244C1048.64 141.83 1048.67 143.436 1048.47 145.009C1048.41 145.542 1047.83 146.415 1047.46 146.428C1045.9 146.492 1044.31 146.415 1042.77 146.139C1041.6 145.927 1041.36 144.784 1041.16 143.731C1038.87 131.581 1036.51 119.443 1034.26 107.286C1033.05 100.736 1032.09 94.1402 1030.82 87.609C1029.77 82.2916 1028.4 77.0448 1027.19 71.7595C1027.02 71.0466 1026.91 70.3209 1026.69 69.1264C1028.39 69.0494 1029.69 68.9338 1030.98 68.9402C1039.62 68.9916 1048.26 69.0173 1056.9 69.1521C1062.02 69.2292 1066.92 67.8549 1071.93 67.1677C1076.21 66.5833 1080.5 66.1659 1084.76 65.498C1089.01 64.8301 1093.25 64.0017 1097.47 63.1475C1103.42 61.9466 1109.33 60.6429 1115.27 59.4035C1120.95 58.2154 1126.62 57.0402 1132.31 55.8907C1136.07 55.1264 1139.82 54.1503 1143.62 53.8099C1145.19 53.6686 1146.9 54.9081 1148.51 55.5952C1148.91 55.7686 1149.15 56.3145 1149.55 56.5264C1153.35 58.5237 1155.98 61.8439 1159.04 64.6952C1163.02 68.4007 1167.24 71.8365 1171.33 75.42C1173.87 77.642 1176.39 79.8833 1178.87 82.1567C1181.77 84.8154 1184.65 87.4934 1187.49 90.2163C1189.11 91.7769 1190.6 93.4787 1192.2 95.0521C1194.55 97.3512 1197.06 99.4897 1199.3 101.885C1201.47 104.21 1203.37 106.779 1205.4 109.232C1205.76 109.669 1206.08 110.15 1206.51 110.504C1208.63 112.231 1209.29 114.389 1208.67 117.041H1208.64Z" fill="#FF6525"/>
<path d="M500.403 184.716C501.469 183.323 502.895 182.192 504.218 181.011C506.171 179.277 508.227 177.646 510.154 175.886C511.361 174.781 511.22 172.482 510.019 171.339C509.21 170.569 508.137 170.691 506.839 171.943C503.274 175.372 499.767 178.866 496.24 182.334C494.763 183.779 494.268 185.378 495.553 187.497C497.596 187.048 499.17 186.341 500.409 184.716H500.403Z" fill="#FF6525"/>
<path d="M971.687 157.114C970.255 154.481 968.893 151.81 967.454 149.183C966.529 147.494 965.174 146.422 963.105 146.762C960.709 147.16 958.333 147.693 955.93 148.027C951.113 148.695 946.282 150.725 941.496 147.546C940.038 146.582 938.503 147.173 937.893 148.567C936.383 152.022 933.518 154.122 930.602 156.164C929.478 156.954 928.919 157.859 928.913 159.176C928.913 160.114 928.913 161.051 928.913 161.989C928.938 161.989 928.958 161.989 928.983 161.989C928.816 163.761 928.739 165.547 928.469 167.306C927.93 170.819 927.21 174.306 926.697 177.825C926.266 180.786 927.737 182.514 930.769 182.892C932.259 183.079 933.75 183.246 935.233 183.445C939.968 184.087 944.702 184.748 949.436 185.403C952.211 185.789 954.992 186.148 957.761 186.572C959.669 186.861 960.896 186.328 961.898 184.453C964.062 180.414 966.086 176.297 968.321 172.296C969.953 169.368 971.771 166.542 973.608 163.742C974.469 162.425 974.546 161.681 973.557 160.178C972.901 159.176 972.259 158.161 971.687 157.114ZM968.039 163.87C965.508 168.456 962.951 173.028 960.408 177.601C960.228 177.928 960.009 178.236 959.836 178.57C958.782 180.664 957.119 181.55 954.787 181.139C954.324 181.062 953.855 181.056 953.387 181.011C953.367 181.133 953.348 181.255 953.329 181.377C948.627 180.587 943.925 179.791 939.223 179.001C937.475 178.712 935.709 178.487 933.968 178.159C931.938 177.774 931.328 177.196 931.797 175.34C932.985 170.594 933.448 165.752 934.058 160.923C934.142 160.242 934.63 159.548 935.092 158.99C935.869 158.052 936.782 157.237 937.623 156.35C939.582 154.282 941.702 153.3 944.824 153.518C948.511 153.769 952.275 152.992 956.001 152.613C957.299 152.478 958.628 152.356 959.868 151.977C962.925 151.046 964.75 152.722 966.092 154.982C967.082 156.646 967.583 158.598 968.379 160.383C968.944 161.642 968.643 162.772 968.039 163.87Z" fill="#FF6525"/>
<path d="M1027.93 138.651C1025.45 128.357 1022.89 118.088 1020.54 107.761C1019.13 101.551 1018.04 95.277 1016.86 89.0155C1016.16 85.3421 1015.56 81.6431 1014.96 77.9504C1014.59 75.6385 1014.38 73.2944 1013.95 70.9889C1013.47 68.3623 1011.67 66.9623 1009.03 66.9045C1003.7 66.7825 998.358 67.3155 993.039 66.5642C992.589 66.4999 992.114 66.6926 991.645 66.7183C989.77 66.8275 987.894 66.8531 986.025 67.033C983.095 67.3155 981.046 65.7807 979.061 63.9568C974.931 60.155 970.672 56.488 966.638 52.5834C963.754 49.7963 960.343 47.5486 958.063 44.1192C957.119 42.6935 956.104 42.655 954.35 43.2458C952.134 43.9972 949.905 44.7614 947.631 45.3009C942.794 46.4375 937.918 47.3944 933.075 48.4862C928.052 49.6229 923.061 50.9073 918.025 51.9798C916.027 52.4036 913.926 52.3651 911.897 52.6733C911.145 52.7889 910.226 53.0972 909.764 53.6366C908.505 55.1201 909.211 57.0018 911.299 57.8238C915.128 59.3394 918.962 60.7908 922.701 62.5697C928.437 65.2926 933.788 68.921 940.045 70.5201C940.135 70.5458 940.212 70.6229 940.302 70.6421C942.466 71.0788 942.974 72.6458 943.179 74.5788C943.655 79.1449 944.002 83.7495 944.849 88.2513C945.614 92.3229 946.192 96.3687 945.935 100.492C945.877 101.423 945.383 102.444 944.805 103.215C943.404 105.083 941.875 106.862 940.334 108.622C938.85 110.305 937.36 111.987 935.728 113.528C933.82 115.327 931.649 116.861 929.786 118.705C924.32 124.125 918.982 129.667 913.515 135.094C912.552 136.05 911.312 137.033 910.047 137.328C907.227 137.983 904.317 138.298 901.426 138.594C895.921 139.152 890.403 139.634 884.885 140.09C881.911 140.334 878.873 140.771 876.381 138.427C876.053 138.118 875.565 137.964 875.147 137.752C869.488 134.824 863.829 131.902 858.176 128.967C857.849 128.8 857.617 128.46 857.303 128.273C854.65 126.719 852.016 125.127 849.299 123.694C848.65 123.354 847.648 123.341 846.922 123.553C845.136 124.073 843.415 124.818 841.668 125.46C838.411 126.655 835.18 127.952 831.878 129.005C823.739 131.587 815.569 134.066 807.404 136.558C804.899 137.322 802.362 137.983 799.857 138.754C799.259 138.934 798.559 139.223 798.225 139.692C797.531 140.649 796.574 141.766 796.587 142.806C796.6 144.482 797.146 146.216 797.775 147.803C798.315 149.158 799.446 150.269 800.056 151.611C801.642 155.117 803.088 158.682 804.584 162.233C804.95 163.1 805.265 163.986 805.638 164.847C806.062 165.823 805.766 166.523 804.816 166.876C802.118 167.878 799.394 168.828 796.484 169.875C795.598 167.833 795.919 165.283 793.465 164.577C791.442 163.993 789.521 164.384 787.613 166.016C787.421 163.46 785.731 162.869 784.022 162.374C783.22 162.143 782.352 162.137 781.511 162.04C776.841 161.501 772.3 160.422 767.835 159.086C767.552 157.827 767.026 156.71 767.141 155.663C767.276 154.411 766.602 153.749 766.011 152.927C764.193 150.423 762.446 147.867 760.551 145.427C758.861 143.256 757.564 140.552 754.294 140.238C754.057 140.212 753.735 139.994 753.626 139.775C752.553 137.656 751.057 135.665 751.294 132.968C751.956 132.968 752.406 132.942 752.855 132.968C756.51 133.238 757.898 131.298 756.472 127.991C755.662 126.103 754.898 124.176 754.281 122.217C752.155 115.404 751.23 108.352 750.337 101.301C750.26 100.671 750.067 100.004 749.733 99.477C748.558 97.6082 747.003 96.1375 744.832 95.4632C742.057 94.6027 739.289 93.71 736.482 92.9458C733.887 92.233 731.253 91.6678 728.619 91.0385C727.495 93.1128 726.583 94.8467 726.705 96.9082C727.02 102.425 727.54 107.922 728.96 113.291C729.152 114.01 729.281 114.749 729.384 115.487C730.045 120.194 731.279 124.799 731.664 129.564C731.895 132.428 734.009 133.713 736.777 133.148C737.394 133.019 738.03 132.981 739.09 132.846C739 138.677 740.464 143.975 743.509 149.338C742.301 149.241 741.357 149.383 740.606 149.061C739.417 148.554 738.255 147.873 737.265 147.045C732.229 142.832 727.257 138.549 722.26 134.297C720.725 132.987 719.093 132.345 717.095 133.366C716.575 133.629 715.888 133.578 715.188 133.687C714.423 130.348 713.697 127.207 713.036 124.305C714.95 123.328 716.588 122.494 718.489 121.517C718.091 120.085 717.802 118.839 717.391 117.638C716.967 116.412 716.28 115.262 715.945 114.01C714.731 109.508 713.421 105.013 712.522 100.44C711.725 96.4201 710.762 92.355 711.751 88.1742C711.886 87.6155 711.468 86.5302 710.993 86.2798C707.942 84.655 704.935 82.5486 701.653 81.8486C697.478 80.9559 693.257 80.333 689.191 78.933C687.502 78.3486 686.018 79.1256 684.682 79.9862C683.378 80.821 683.975 82.1504 684.187 83.3385C684.252 83.6981 684.187 84.0834 684.162 84.4559C683.68 91.8862 684.444 99.233 685.588 106.554C686.127 110.035 686.866 113.496 687.284 116.99C687.682 120.329 687.746 123.707 688.035 127.06C688.292 130.129 690.322 131.176 693.071 129.866C694.279 129.288 695.628 129.018 697.388 128.453C696.912 133.456 698.197 137.598 700.259 141.445C698.75 143.275 695.653 143.359 695.853 145.87C697.555 148.047 698.994 149.877 700.42 151.714C701.223 152.748 701.878 153.923 702.803 154.828C710.171 162.06 716.877 169.952 724.797 176.625C727.431 178.84 730.533 178.429 732.242 175.507C732.531 175.013 733.122 174.698 733.572 174.3C733.951 174.762 734.587 175.18 734.657 175.687C734.889 177.26 735.627 177.928 737.246 178.025C738.338 178.089 739.424 178.564 740.471 178.969C742.366 179.701 742.526 180.292 741.479 182.135C740.207 184.37 740.406 185.474 742.411 187.138C744.235 188.653 746.213 189.738 748.616 190.252C751.487 190.869 754.294 191.46 757.236 190.933C757.467 190.894 757.731 191.055 758.463 191.254C756.138 193.149 754.159 194.947 751.988 196.488C749.399 198.325 748.943 199.288 749.926 202.3C750.614 204.4 751.339 206.494 752.091 208.709C750.53 209.204 749.194 209.987 747.871 209.955C746.194 209.91 745.089 210.527 743.907 211.522C743.271 212.061 742.308 212.203 741.531 212.511C740.888 211.567 740.477 210.828 739.938 210.212C738.666 208.76 737.477 208.362 735.961 209.409C734.201 210.629 732.184 211.053 730.277 211.56C724.669 213.057 718.958 214.155 713.299 215.471C711.577 215.87 709.882 216.416 708.205 216.981C705.128 218.027 702.263 219.678 698.782 219.318C696.694 219.1 695.782 220.224 695.641 222.349C695.602 222.947 695.506 223.544 695.416 224.366C693.784 223.647 692.454 222.979 691.067 222.465C689.686 221.945 688.247 221.572 686.481 221.027C687.2 218.811 687.83 216.859 688.51 214.778C691.234 216.846 692.018 216.904 693.726 215.401C695.384 213.949 695.506 213.937 696.797 215.78C697.593 216.923 698.589 217.636 699.893 217.854C701.974 216.306 701.91 216.306 701.833 213.911C701.698 209.692 701.512 205.472 701.621 201.26C701.698 198.312 702.141 198.055 705.141 197.567C706.991 197.265 708.854 196.983 710.717 196.764C716.215 196.103 721.727 195.762 727.27 196.058C729.975 196.199 730.309 196.366 730.643 199.102C730.855 200.849 730.675 202.647 730.694 204.419C730.713 206.455 731.709 207.579 733.475 207.579C735.3 207.579 736.315 206.494 736.199 204.451C736.045 201.831 735.859 199.205 735.531 196.597C735.043 192.68 733.552 191.338 729.679 191.222C721.027 190.965 712.413 191.389 703.85 192.693C703.214 192.789 702.527 192.802 701.897 192.68C698.229 191.96 697.169 192.5 695.923 196.006C693.759 194.388 691.754 192.917 689.769 191.415C688.966 190.805 688.902 189.95 689.352 189.141C689.936 188.088 690.553 187.035 691.318 186.11C693.212 183.805 692.782 181.73 690.206 180.42C687.38 178.975 684.541 177.511 681.888 175.783C674.539 170.986 666.246 168.071 658.564 163.948C657.382 163.312 656.341 163.562 655.166 164.307C652.725 165.861 650.136 167.191 647.599 168.604C643.423 170.928 639.235 173.227 635.073 175.572C634.424 175.938 633.833 176.438 633.313 176.971C632.368 177.928 632.42 178.705 633.396 179.605C634.559 180.671 635.895 181.127 637.225 180.606C641.387 185.083 645.929 188.788 650.855 191.826C655.885 194.927 660.748 198.203 665.43 201.786C668.88 204.426 672.387 207.142 677.109 207.046C677.282 207.046 677.468 207.149 677.635 207.232C679.164 207.977 680.134 207.316 680.841 205.967C681.085 205.498 681.38 205.055 681.65 204.605C681.849 204.618 682.048 204.625 682.247 204.638C682.408 205.659 682.697 206.68 682.703 207.707C682.716 208.799 682.466 209.884 682.331 210.931C682.993 211.548 683.596 212.1 684.175 212.633C683.673 213.513 683.166 213.937 682.299 213.327C681.689 212.896 681.098 212.325 680.417 212.138C677.635 211.368 674.815 210.719 672.008 210.026C665.739 208.478 659.469 206.924 653.2 205.376C651.652 204.997 649.943 204.914 648.594 204.182C646.918 203.27 645.717 203.642 644.207 204.438C637.584 207.938 630.981 211.49 623.664 213.41C621.718 213.917 620.504 215.69 620.909 217.327C621.808 220.975 622.341 224.655 622.341 228.418C622.341 231.026 623.337 232.156 625.932 231.989C630.428 231.706 634.347 233.755 638.471 234.84C643.616 236.195 648.113 239.278 653.174 241.095C659.797 243.465 666.266 246.137 673.306 247.023C674.321 247.151 675.503 247.8 676.306 247.466C678.348 246.631 680.301 245.482 682.132 244.229C682.774 243.793 682.967 242.694 683.519 241.603C684.746 242.495 685.883 243.144 686.802 244.024C689.442 246.548 692.287 248.577 696.097 248.808C696.636 248.84 697.157 249.097 697.857 249.303C697.902 250.163 697.94 250.992 697.985 251.82C698.101 253.978 699.109 255.115 701.248 255.275C702.263 255.352 703.304 255.147 704.332 255.095C705.546 255.031 706.773 254.864 707.974 254.973C711.616 255.307 715.232 255.583 718.849 254.678C721.027 254.132 723.236 253.702 725.44 253.252C728.375 252.655 731.336 252.148 734.259 251.493C740.105 250.176 745.931 248.763 751.77 247.434C753.838 246.965 753.857 246.772 754.429 244.749C755.014 242.649 753.742 240.96 753.485 238.944C758.129 238.019 760.056 233.049 764.7 231.546C764.598 232.304 764.598 232.67 764.495 232.997C763.711 235.521 765.041 237.261 767.636 236.985C768.561 236.883 769.46 236.549 770.36 236.279C771.619 235.906 772.846 235.309 774.13 235.142C778.717 234.558 783.123 233.395 787.498 231.899C792.457 230.197 797.551 228.881 802.58 227.404C805.541 226.53 808.528 225.753 811.445 224.764C813.841 223.955 816.205 223.011 818.472 221.9C820.483 220.917 820.624 219.543 819.102 217.835C818.678 217.36 818.029 217.103 817.534 216.685C816.937 216.172 816.397 215.594 815.601 214.816C816.564 214.226 817.142 213.622 817.804 213.519C819.873 213.211 821.967 213.089 824.324 212.871C824.53 213.654 824.819 214.611 825.031 215.581C825.41 217.321 826.27 218.927 827.806 219.646C829.803 220.577 832.013 221.309 834.191 221.553C837.152 221.881 840.177 221.739 843.171 221.669C851.515 221.47 859.872 221.399 868.197 220.911C874.37 220.551 880.517 219.627 886.671 218.946C889.562 218.625 892.497 218.503 895.337 217.918C899.653 217.032 903.925 215.889 908.177 214.739C914.877 212.922 921.513 210.912 927.93 208.24C929.317 207.662 930.73 207.149 932.092 206.513C938.118 203.674 944.124 200.791 950.149 197.952C953.714 196.276 957.253 194.516 960.896 193.039C969.946 189.372 979.068 185.892 988.125 182.25C990.727 181.204 993.155 179.739 995.756 178.686C998.441 177.601 1001.2 176.676 1003.99 175.88C1005.71 175.392 1006.66 174.242 1007.47 172.842C1008.36 171.314 1009.09 169.682 1010.11 168.25C1012.27 165.194 1014.51 162.188 1016.84 159.24C1020.21 154.963 1023.51 150.616 1027.17 146.595C1029.02 144.553 1030.21 142.858 1028.5 140.263C1028.2 139.807 1028.08 139.216 1027.94 138.671L1027.93 138.651ZM694.883 123.566C694.375 123.714 693.81 123.669 692.866 123.746C692.622 121.716 692.243 119.803 692.185 117.876C692.063 113.727 691.208 109.733 690.38 105.681C689.178 99.8238 688.298 93.8642 689.037 87.8146C689.159 86.8256 689.056 85.8045 689.056 84.5522C690.238 84.5522 691.26 84.3853 692.21 84.5843C695.872 85.3421 699.52 86.1706 703.156 87.0568C705.642 87.6669 706.027 88.3412 706.458 90.9421C707.222 95.5467 707.961 100.177 709.047 104.711C709.438 106.355 710.049 107.928 710.286 109.656C710.524 111.383 711.391 113.008 711.815 114.723C712.605 117.927 712.368 118.416 709.169 119.405C704.434 120.875 699.655 122.211 694.889 123.572L694.883 123.566ZM727.733 172.116C724.405 169.843 721.322 167.679 718.701 164.853C715.2 161.083 711.545 157.455 707.98 153.743C705.925 151.605 703.631 149.614 702.938 146.178C704.704 145.26 706.278 144.457 707.845 143.622C710.652 142.119 713.485 140.668 716.241 139.062C717.693 138.221 718.746 138.414 720.024 139.448C723.217 142.042 726.596 144.405 729.788 147.006C732.672 149.357 735.402 151.9 738.422 154.559C734.876 160.383 731.356 166.17 727.746 172.11L727.733 172.116ZM681.933 221.72C680.558 228.123 678.014 234.249 677.327 240.819C677.295 241.14 676.935 241.423 676.575 241.937C673.396 241.513 670.139 241.243 666.953 240.601C664.775 240.158 662.675 239.252 660.587 238.437C655.969 236.638 651.312 234.924 646.789 232.888C641.291 230.416 635.638 228.521 629.773 227.198C627.14 226.601 626.902 226.261 626.786 223.653C626.748 222.722 626.613 221.791 626.51 220.86C626.227 218.272 626.619 217.584 629.073 216.57C630.197 216.107 631.392 215.799 632.497 215.298C635.651 213.853 638.811 212.427 641.888 210.841C644.464 209.505 647.117 209.428 649.828 210.013C652.384 210.559 654.902 211.304 657.446 211.927C661.994 213.044 666.535 214.168 671.09 215.234C674.372 216.005 677.655 216.717 680.192 219.222C680.616 219.639 681.335 219.749 682.016 220.044C681.991 220.635 682.042 221.2 681.926 221.733L681.933 221.72ZM676.453 202.062C670.646 200.194 666.188 196.527 661.583 193.001C657.812 190.111 653.534 187.895 649.641 185.147C647.13 183.374 644.804 181.3 642.595 179.155C641.047 177.659 641.252 176.811 643.237 175.758C645.954 174.313 648.761 173.054 651.543 171.731C652.301 171.365 653.168 171.166 653.842 170.684C655.821 169.252 657.87 169.239 659.964 170.228C668.18 174.107 676.633 177.537 684.11 182.835C684.631 183.201 685.093 183.65 685.825 184.267C682.671 190.265 679.55 196.205 676.466 202.069L676.453 202.062ZM746.034 243.292C740.323 244.762 734.587 246.143 728.838 247.472C725.555 248.23 722.26 248.969 718.932 249.438C716.363 249.804 713.729 249.784 711.121 249.855C709.811 249.887 708.501 249.688 707.184 249.682C703.882 249.662 702.687 248.866 702.18 245.713C701.518 241.558 701.081 237.371 700.542 233.196C700.632 233.183 700.722 233.164 700.812 233.151C700.812 231.276 700.966 229.382 700.767 227.526C700.58 225.805 701.248 224.848 702.732 224.263C703.253 224.058 703.773 223.852 704.306 223.672C711.847 221.052 719.613 219.331 727.418 217.732C729.795 217.244 732.075 216.3 734.407 215.606C736.829 214.887 736.97 214.906 738.229 217.103C738.968 218.394 739.86 219.768 740.027 221.187C740.541 225.419 742.719 228.964 744.408 232.702C745.166 234.372 746.303 235.868 747.228 237.467C747.601 238.116 747.954 238.796 748.153 239.516C748.731 241.628 748.192 242.733 746.034 243.292ZM752.419 148.548C755.065 146.03 755.149 145.985 757.243 148.862C758.617 150.75 759.806 152.786 760.949 154.828C761.379 155.605 761.444 156.582 761.868 158.187C756.954 156.511 754.32 153.075 751.134 150.038C751.609 149.479 751.975 148.971 752.419 148.541V148.548ZM744.98 127.734C742.847 127.875 740.696 127.67 738.55 127.721C737.265 127.753 736.45 127.535 736.173 126.032C735.017 119.674 733.636 113.355 732.583 106.984C732.056 103.78 732.081 100.479 732.319 96.5742C735.03 97.2742 737.175 97.8265 739.314 98.3981C739.674 98.4944 740.002 98.7834 740.361 98.8091C743.824 99.021 745.455 100.909 745.95 104.294C746.425 107.517 747.273 110.696 748.018 113.882C748.873 117.529 749.791 121.164 750.678 124.812C750.87 125.602 751.031 126.398 751.224 127.278C749.053 128.389 746.971 127.612 744.987 127.747L744.98 127.734ZM745.757 152.427C748.198 154.148 750.312 155.605 752.38 157.127C752.894 157.5 753.421 158.007 753.652 158.572C754.044 159.51 754.256 160.615 753.273 161.36C752.367 162.04 751.699 161.295 751.115 160.717C749.47 159.093 747.819 157.468 746.271 155.753C745.417 154.809 745.507 154.732 745.764 152.427H745.757ZM757.288 186.983C756.787 186.45 755.836 186.245 755.046 186.097C752.939 185.705 750.787 185.506 748.686 185.063C747.042 184.716 746.669 184.049 747.055 182.417C747.267 181.518 747.627 180.619 748.108 179.836C750.427 176.098 752.843 172.425 755.149 168.681C755.919 167.422 756.51 166.048 757.121 164.699C757.519 163.819 758.136 163.485 759.093 163.427C762.105 163.241 765.054 163.338 768.009 164.147C770.706 164.885 773.52 165.226 776.269 165.791C779.276 166.407 782.262 167.082 785.93 167.871C777.265 176.239 767.418 182.244 759.568 190.509C758.643 189.032 758.11 187.863 757.281 186.983H757.288ZM809.511 219.742C806.267 220.962 803.068 222.324 799.754 223.3C792.932 225.316 786.052 227.134 779.192 229.016C777.027 229.613 774.843 230.152 772.666 230.717C771.561 231.006 770.604 230.807 769.936 229.812C767.495 226.158 764.745 222.664 762.709 218.805C760.05 213.763 758.001 208.407 755.605 203.225C754.667 201.195 755.515 199.776 756.915 198.524C758.585 197.021 760.371 195.647 762.06 194.17C765.934 190.779 769.73 187.292 773.661 183.971C777.959 180.343 782.346 176.824 786.74 173.311C788.024 172.283 789.444 171.423 790.999 170.357C791.326 171.127 791.602 171.596 791.724 172.097C792.996 177.267 794.551 182.295 796.998 187.099C799.542 192.102 801.585 197.368 803.711 202.57C805.028 205.787 806.338 208.966 808.445 211.792C809.441 213.127 810.141 214.701 810.86 216.223C811.965 218.554 811.83 218.869 809.505 219.742H809.511ZM1021.25 145.915C1019.54 147.597 1018.3 149.774 1016.82 151.707C1012.2 157.725 1007.61 163.768 1002.9 169.715C1002.13 170.684 1000.9 171.404 999.745 171.93C993.951 174.589 988.151 177.241 982.267 179.701C976.653 182.051 970.923 184.138 965.264 186.399C961.968 187.716 958.718 189.16 955.436 190.528C950.592 192.551 945.723 194.529 940.893 196.584C937.7 197.939 934.527 199.346 931.386 200.823C930.043 201.452 928.893 202.615 927.506 203.026C923.902 204.092 920.556 205.742 917.08 207.104C910.959 209.505 904.432 210.552 898.086 212.196C892.054 213.757 885.836 213.969 879.727 214.932C874.961 215.683 870.233 215.947 865.435 215.844C863.572 215.805 861.703 216.268 859.834 216.319C855.343 216.441 850.847 216.525 846.35 216.493C843.73 216.473 841.109 216.242 838.488 216.011C836.529 215.844 834.582 215.536 832.63 215.279C831.114 215.08 830.407 213.943 829.893 212.716C828.628 209.698 827.382 206.667 826.213 203.604C823.36 196.154 820.65 188.647 817.695 181.242C814.457 173.131 811.021 165.104 807.642 157.05C806.049 153.249 804.36 149.485 802.767 145.683C801.989 143.821 802.098 143.339 803.961 142.684C809.261 140.816 814.618 139.114 819.95 137.322C823.598 136.095 827.227 134.824 830.87 133.597C835.315 132.101 839.721 130.47 844.237 129.217C846.248 128.659 848.323 128.851 850.404 130.136C853.314 131.934 856.178 133.963 859.589 134.849C859.859 134.92 860.11 135.061 860.354 135.203C866.026 138.465 871.659 141.798 877.396 144.938C878.533 145.561 880.106 145.703 881.436 145.587C889.934 144.861 898.413 143.982 906.905 143.211C908.845 143.038 910.85 143.301 912.751 142.967C914.967 142.582 915.083 139.981 916.586 138.696C919.149 136.506 921.583 134.143 923.928 131.709C926.536 129.012 928.868 126.045 931.533 123.405C934.257 120.702 937.315 118.332 940.077 115.66C941.888 113.914 943.404 111.871 945.106 110.016C946.693 108.294 948.395 106.676 949.956 104.936C950.534 104.287 951.19 103.446 951.254 102.649C951.408 100.761 951.286 98.8412 951.151 96.9403C951.074 95.855 950.733 94.7889 950.566 93.7036C949.423 86.1963 948.19 78.7018 947.239 71.1752C946.944 68.8247 945.916 67.6238 943.783 67.033C940.899 66.2302 938.021 65.3889 935.15 64.5412C934.617 64.3807 934.084 64.1687 933.595 63.899C930.307 62.088 927.024 60.2706 923.754 58.4275C922.971 57.9843 922.258 57.432 921.513 56.9247C921.564 56.6742 921.615 56.4238 921.66 56.1733C922.727 55.91 923.793 55.6403 924.866 55.3898C927.692 54.7284 930.557 54.221 933.332 53.3862C936.647 52.3843 939.903 51.3183 943.398 50.9394C946.533 50.599 949.622 49.7256 952.699 48.9742C954.183 48.6082 955.397 48.6788 956.605 49.7513C961.788 54.3623 967.056 58.8706 972.214 63.5009C974.648 65.6843 976.897 68.0669 979.241 70.3531C980.41 71.4898 981.657 72.2669 983.462 71.9972C985.402 71.7082 987.393 71.7146 989.358 71.5926C989.731 71.5669 990.11 71.4898 990.483 71.5155C996.097 71.8559 1001.71 72.2284 1007.33 72.5431C1008.93 72.633 1009.93 73.4935 1009.91 74.9577C1009.84 81.3541 1012.12 87.3073 1013.2 93.4853C1014.06 98.4687 1014.49 103.549 1015.68 108.449C1016.59 112.199 1017.02 116.123 1018.84 119.674C1019.48 120.933 1019.41 122.532 1019.74 123.964C1020.84 128.896 1021.96 133.822 1023.09 138.748C1023.71 141.464 1023.38 143.795 1021.22 145.921L1021.25 145.915Z" fill="black"/>
<path d="M626.266 153.287C631.829 151.74 634.083 144.598 630.274 140.173C625.925 135.126 621.377 130.251 616.926 125.3C616.65 124.992 616.412 124.639 616.072 124.195C617.922 123.354 619.264 124.427 620.504 124.992C628.122 128.473 636.299 130.329 644.078 133.321C645.916 134.028 647.708 133.989 649.031 131.979C649.673 130.996 650.765 130.284 651.729 129.539C654.767 127.182 657.87 124.915 660.882 122.532C663.169 120.721 663.388 119.488 662.244 116.951C661.949 116.296 661.647 115.526 661.711 114.845C661.968 112.328 660.548 111.107 658.538 110.106C655.705 108.693 652.686 107.839 649.885 106.195C643.68 102.54 637.122 99.4771 630.672 96.2404C626.484 94.1404 622.123 92.3679 618.044 90.0881C612.731 87.1212 607.605 83.8267 602.428 80.6221C597.244 77.4111 592.092 74.1551 586.947 70.8927C583.247 68.5423 579.457 66.3138 575.924 63.7322C572.359 61.1184 568.556 59.7569 564.131 59.3459C557.277 58.7102 550.872 56.0193 544.282 54.189C543.402 53.945 542.419 53.579 541.802 52.9496C540.556 51.6845 538.931 51.3056 537.454 50.5478C534.216 48.8909 530.869 47.4331 527.992 45.0762C524.439 42.1735 520.797 39.3542 517.001 36.7854C510.096 32.1101 503.068 27.6147 496.054 23.1129C491.724 20.3322 487.266 17.7377 482.975 14.8991C481.562 13.9615 480.297 13.9166 478.749 14.1735C476.121 14.6101 473.468 15.034 470.815 15.1046C468.105 15.1753 465.375 14.8927 462.664 14.6358C459.709 14.3533 447.145 13.2744 444.235 12.9147C444.08 12.8698 443.926 12.8312 443.746 12.8184C427.816 11.6817 411.892 10.5386 395.962 9.40189C388.105 8.84318 380.243 8.27804 372.387 7.71932C364.569 7.16061 356.662 6.85235 348.922 5.54868C341.933 4.36703 335.413 1.07896 328.405 0.231249C320.96 -0.667833 313.521 1.45143 306.333 3.10831C290.91 6.67253 275.487 10.2368 260.071 13.801C242.567 17.8276 -182.128 103.979 -199.632 108.025C-202.028 108.577 -201.013 112.263 -198.617 111.711C-167.771 104.583 270.259 15.3487 301.105 8.22666C308.46 6.52483 316.072 4.0973 323.658 3.84042C331.302 3.58354 338.162 7.30831 345.53 8.78538C360.105 11.701 375.438 11.7524 390.232 12.812C407.723 14.0643 425.221 15.3166 442.712 16.5624C443.676 17.5129 445.005 17.8019 446.618 17.8147C450.17 17.8468 453.754 18.0395 457.268 18.5533C460.409 19.0157 463.499 19.6001 466.679 19.0349C467.109 18.9579 467.661 18.945 468.021 19.1505C470.642 20.6147 473.102 19.4588 475.595 18.7588C476.108 18.6175 476.68 18.2771 477.13 18.3927C478.671 18.7845 480.29 19.112 481.652 19.8826C485.243 21.9056 488.763 24.0634 492.219 26.3046C498.424 30.3377 504.584 34.4542 510.731 38.5771C515.408 41.7111 520.039 44.9092 524.671 48.1074C525.062 48.3771 525.319 48.8395 525.641 49.212C524.529 49.4303 523.669 49.2056 522.814 48.9551C519.93 48.1074 517.104 46.9707 514.162 46.4634C507.616 45.3267 501.083 44.1964 494.673 42.4432C492.264 41.7817 489.842 41.0881 487.382 40.6964C480.489 39.6046 473.969 37.312 467.494 34.8459C466.242 34.3707 465.169 33.4331 464.013 32.7138C462.33 35.3533 462.805 37.2092 465.246 38.3138C466.531 38.8982 467.764 39.5982 469.068 40.1056C473.655 41.8845 477.952 44.6395 483.174 44.3762C483.624 44.3505 484.087 44.5753 484.543 44.6845C487.819 45.468 491.075 46.3221 494.371 47.0221C499.58 48.1331 504.848 49.0001 510.025 50.2267C516.577 51.7808 523.065 53.6111 529.585 55.2872C535.038 56.6872 540.505 58.0294 545.952 59.4294C550.673 60.6432 555.337 62.1138 560.103 63.0964C566.636 64.445 572.539 67.1615 578.153 70.6037C579.663 71.5285 580.915 72.8643 582.425 73.7891C588.335 77.4175 594.309 80.9368 600.231 84.5331C606.475 88.3285 612.68 92.1946 618.93 95.9836C620.53 96.9533 622.502 97.4735 623.825 98.7065C625.379 100.158 627.088 100.813 629.047 101.166C630.313 101.397 631.533 101.725 632.4 102.977C632.002 103.247 631.726 103.523 631.398 103.639L640.044 106.188C642.087 107.126 644.021 108.295 646.012 109.341C650.296 111.583 654.446 114.029 658.101 117.388C657.928 117.684 657.812 118.082 657.549 118.3C654.099 121.171 650.682 124.08 647.123 126.816C646.429 127.349 645.113 127.522 644.233 127.291C638.451 125.756 632.458 124.825 627.127 121.871C626.497 121.524 625.835 121.113 625.386 120.573C623.992 118.891 622.354 118.197 620.163 118.717C619.367 118.91 618.481 118.737 617.639 118.692C615.115 118.551 612.584 118.178 610.078 118.3C607.618 118.416 605.396 117.793 603.289 116.784C599.235 114.851 595.285 112.694 591.257 110.703C586.799 108.5 582.656 105.829 578.911 102.553C577.787 101.571 576.458 100.672 575.706 99.4322C574.151 96.8698 571.723 96.5551 569.173 96.3624C568.434 96.3046 567.67 96.5487 566.925 96.5166C564.497 96.4138 562.037 96.4331 559.647 96.0542C555.022 95.3349 550.448 94.2624 545.823 93.5432C538.873 92.4707 531.974 91.1991 525.191 89.3432C522.564 88.6239 519.956 87.7955 517.194 88.3606C515.639 88.6753 514.136 89.3689 512.581 89.5102C502.117 90.4799 491.647 91.3276 481.125 90.6468C478.89 90.4991 476.667 90.0432 474.432 89.8762C473.462 89.8056 472.248 89.8056 471.528 90.3129C470.038 91.3661 468.728 92.7212 467.475 94.0762C466.467 95.168 465.779 96.5679 464.719 97.6019C461.829 100.415 458.9 103.208 455.816 105.809C454.127 107.235 452.155 108.352 450.202 109.412C449.052 110.035 447.954 110.786 447.98 112.026C448.025 114.074 448.371 116.322 450.241 117.529C454.031 119.963 456.651 123.534 459.703 126.687C461.02 128.049 462.227 129.423 462.895 131.247C463.422 132.679 464.668 133.392 466.068 133.816C468.111 134.439 470.237 134.843 472.19 135.665C475.562 137.072 478.883 138.632 482.127 140.315C483.849 141.207 485.339 142.415 486.142 144.431C486.964 146.499 488.198 146.884 490.645 146.647C491.159 146.595 491.75 146.711 492.219 146.929C493.317 147.456 494.351 148.111 495.431 148.676C499.394 150.763 502.496 154.231 506.807 155.773C507.044 155.856 507.321 156.094 507.398 156.318C508.136 158.547 510.051 159.6 511.811 160.795C516.693 164.108 521.767 167.159 525.686 171.718C526.771 172.984 528.319 173.831 529.553 174.981C530.934 176.259 531.704 177.659 530.773 179.714C528.762 184.132 526.925 188.628 525.075 193.11C524.15 195.351 522.3 196.347 520.148 196.828C517.695 197.381 515.106 197.471 512.723 198.216C509.036 199.365 505.792 198.113 502.708 196.597C498.527 194.536 494.576 191.993 490.484 189.739C488.024 188.384 485.423 187.279 482.982 185.892C478.826 183.522 474.792 180.928 470.61 178.609C467.167 176.702 463.576 175.071 460.043 173.317C457.615 172.11 455.058 171.14 453.876 168.308C453.51 167.428 452.502 166.799 451.744 166.099C448.917 163.505 446.11 160.897 443.226 158.367C441.826 157.14 440.425 155.785 438.781 154.989C436.096 153.685 433.205 152.806 430.411 151.707C425.876 149.922 421.347 148.105 416.819 146.3C416.825 146.313 416.838 146.326 416.845 146.345C415.014 145.658 413.202 144.926 411.359 144.309C409.245 143.596 407.036 143.134 404.974 142.306C401.389 140.861 397.946 139.03 394.323 137.707C388.613 135.627 382.787 133.867 377.038 131.902C374.475 131.028 372.034 129.693 369.419 129.07C362.289 127.362 355.583 124.472 348.761 121.916C342.736 119.655 337.083 116.463 330.923 114.479C329.728 114.094 328.694 113.13 327.673 112.321C326.06 111.05 324.531 109.669 322.945 108.359C319.264 105.321 315.526 102.354 311.903 99.2459C309.642 97.3065 307.567 95.1551 305.254 92.9588C305.216 92.4643 305.254 91.6936 305.068 90.9872C304.239 87.9046 302.132 87.3395 299.717 89.3624C298.516 90.3707 297.154 91.2377 295.747 91.9377C290.461 94.5771 285.11 97.0946 279.817 99.734C279.027 100.126 278.404 100.884 277.761 101.526C277.543 101.744 277.344 101.969 277.145 102.2C276.509 102.56 275.873 102.913 275.224 103.26C275.128 102.996 275.025 102.714 274.909 102.393C272.513 103.568 270.137 104.461 268.46 106.516C268.396 106.593 268.312 106.657 268.229 106.715C267.85 106.888 267.471 107.055 267.092 107.222C267.066 107.229 267.04 107.241 267.015 107.248C266.237 107.55 265.396 107.704 264.664 108.083C263.963 108.442 263.27 108.808 262.576 109.168C258.426 110.895 254.232 112.527 250.069 114.216C238.976 118.724 228.961 124.382 219.056 131.106C218.787 131.285 218.594 131.504 218.459 131.735C217.528 132.146 216.654 132.711 215.857 133.392C215.009 134.111 215.022 135.46 215.748 136.5C216.32 137.322 217.149 137.784 218.17 137.47C220.386 136.783 222.21 135.511 223.277 133.417C223.354 133.27 223.354 133.077 223.315 132.865C223.874 132.493 224.433 132.12 224.998 131.754C226.013 131.651 226.508 131.375 226.61 130.74C227.234 130.341 227.863 129.943 228.486 129.558C228.589 129.616 228.692 129.68 228.788 129.744C229.777 129.16 230.689 128.614 231.711 128.01C231.627 127.933 231.537 127.862 231.454 127.785C232 127.464 232.546 127.137 233.098 126.822C233.464 126.848 233.792 126.861 234.075 126.771C235.828 126.206 237.575 125.775 239.201 124.69C240.871 123.579 243.029 123.239 244.847 122.314C250.615 119.392 256.364 116.444 262.114 113.484C269.571 110.44 276.913 107.151 283.671 102.707C284.313 102.284 284.564 101.661 284.545 101.057C285.148 100.261 286.202 100.46 287.14 100.338C287.776 100.254 288.392 100.042 289.112 99.8624C289.054 99.1432 289.009 98.5395 288.99 98.3468C290.082 98.2377 291.052 98.3147 291.887 98.0129C293.917 97.2872 295.863 96.3368 297.88 95.5661C299.563 94.9239 300.963 95.0845 302.402 96.5679C307.091 101.417 311.98 106.053 317.658 109.817C319.303 110.908 321.223 112.206 321.525 114.704C321.609 115.378 322.707 116.091 323.491 116.476C324.75 117.086 326.157 117.375 327.454 117.908C331.706 119.662 335.901 121.55 340.186 123.213C342.415 124.073 344.444 125.673 347.059 125.339C347.303 125.306 347.708 125.416 347.817 125.595C349.159 127.747 351.607 127.94 353.637 128.684C358.287 130.393 363.176 131.491 367.768 133.328C371.713 134.901 375.888 135.717 379.761 137.521C382.376 138.735 385.292 139.287 388.003 140.315C392.473 142.004 396.874 143.873 401.319 145.613C410.671 149.273 419.986 153.05 429.422 156.466C433.957 158.11 437.785 160.595 441.273 163.806C443.824 166.151 446.509 168.34 449.072 170.672C449.656 171.198 450.35 171.995 450.369 172.682C450.408 174.384 451.448 174.929 452.739 175.411C454.32 176.008 455.964 176.484 457.442 177.28C465.304 181.499 473.122 185.808 480.965 190.06C485.673 192.609 490.446 195.037 495.116 197.644C498.546 199.558 501.835 201.729 505.252 203.681C506.081 204.156 507.192 204.528 508.104 204.413C510.218 204.137 512.273 203.417 514.38 203.096C517.521 202.615 520.688 202.274 523.848 201.953C525.711 201.767 527.593 201.741 528.962 199.892C528.191 197.554 528.846 195.512 530.118 193.226C532.379 189.148 534.267 184.813 535.828 180.414C537.203 176.541 536.895 172.784 532.578 170.569C532.334 170.447 532.173 170.177 531.955 170.004C529.328 167.884 526.752 165.701 524.06 163.665C517.123 158.412 510.173 153.172 503.145 148.047C499.921 145.696 497.069 142.768 493.073 141.496C491.962 141.143 490.767 140.013 490.292 138.94C489.335 136.751 488.904 134.336 488.14 132.056C487.073 128.871 486.444 125.551 484.677 122.59C481.395 117.08 479.584 110.908 477.245 104.981C476.43 102.9 476.025 100.646 475.562 98.4432C475.1 96.2276 475.517 95.7138 477.746 95.7267C481.125 95.7459 484.51 95.945 487.889 95.9129C489.836 95.8936 491.313 96.5294 492.591 97.9744C495.129 100.851 497.582 103.838 500.357 106.477C505.246 111.127 510.378 115.526 515.363 120.073C518.202 122.667 521.016 125.294 523.746 128.004C526.99 131.228 530.593 134.06 533.002 138.151C535.533 142.453 539.374 145.703 543.331 148.747C546.896 151.495 550.461 154.244 553.879 157.166C556.3 159.24 558.471 161.604 560.752 163.839C561.587 164.661 562.512 165.451 563.72 164.738C565.396 163.749 567.265 163.858 568.935 164.128C570.991 164.462 572.835 164.006 574.768 163.704C578.025 163.196 581.262 163.248 584.429 164.314C586.215 164.917 587.712 163.813 587.532 161.931C587.455 161.148 587.05 160.313 586.568 159.664C585.29 157.937 583.954 156.241 582.528 154.629C575.944 147.173 569.269 139.795 562.743 132.294C559.236 128.267 555.735 124.202 552.632 119.873C549.543 115.558 546.909 110.915 544.179 106.355C543.35 104.974 542.406 103.574 541.976 101.211C543.447 102.065 544.41 102.553 545.29 103.157C547.07 104.377 548.778 105.7 550.558 106.907C553.275 108.751 556.21 110.324 558.728 112.405C561.182 114.434 564.06 115.821 566.405 118.037C568.576 120.085 571.184 121.659 573.522 123.534C574.614 124.407 575.912 125.326 576.445 126.527C578.031 130.097 581.121 132.345 583.581 135.119C586.671 138.606 590.602 141.323 593.107 145.375C593.384 145.818 593.91 146.172 594.399 146.416C596.396 147.43 598.304 148.683 600.739 148.439C601.651 148.349 602.614 148.58 603.526 148.779C610.657 150.295 617.78 151.842 624.91 153.351C625.341 153.441 625.842 153.435 626.266 153.319V153.287ZM506.004 32.0138C505.888 31.8918 505.702 31.7826 505.683 31.6413C505.657 31.4551 505.753 31.2432 505.946 30.4147C506.261 31.0634 506.46 31.2946 506.441 31.5001C506.428 31.6799 506.158 31.8404 506.004 32.0074V32.0138ZM317.909 108.481C317.665 108.179 317.42 107.884 317.17 107.582C317.279 107.498 317.382 107.408 317.491 107.325L318.211 108.237C318.108 108.32 318.011 108.397 317.909 108.481ZM416.986 148.419C416.845 148.509 416.511 148.304 416.266 148.24C416.472 147.623 416.671 147.013 416.87 146.39C416.902 146.435 416.928 146.486 416.947 146.538C417.179 147.167 417.937 147.803 416.979 148.419H416.986ZM481.915 127.728C482.924 130.001 483.887 132.332 484.061 135.402C481.536 134.464 479.295 133.7 477.111 132.788C475.383 132.062 473.822 130.862 472.049 130.361C467.488 129.083 464.7 125.814 461.97 122.295C460.377 120.24 458.456 118.435 456.651 116.553C455.765 115.629 454.808 114.781 453.941 113.959C459.349 108.982 464.353 104.377 469.37 99.7854C469.473 99.6955 469.73 99.7725 470.09 99.7725C471.329 103.067 472.601 106.445 473.879 109.817C474.278 110.87 474.657 111.929 475.119 112.951C477.374 117.876 479.718 122.77 481.909 127.728H481.915ZM542.605 112.925C546.145 119.128 550.256 124.96 554.823 130.418C559.872 136.462 565.255 142.222 570.535 148.066C573.04 150.834 575.661 153.499 578.211 156.229C578.866 156.929 578.738 157.706 577.903 158.072C577.068 158.438 576.117 158.688 575.211 158.714C572.212 158.81 569.212 158.791 566.212 158.81C564.362 158.823 562.91 158.2 561.458 156.877C557.585 153.351 553.577 149.967 549.427 146.775C545.098 143.442 541.006 139.962 537.82 135.453C536.484 133.565 534.769 131.928 533.086 130.316C527.067 124.542 521.009 118.801 514.92 113.092C511.027 109.444 507.012 105.918 503.132 102.258C501.636 100.845 500.332 99.2267 498.989 97.6597C498.527 97.1202 498.225 96.4331 497.627 95.4505C503.723 94.9111 509.293 94.1982 514.881 93.9863C521.375 93.7423 527.767 94.7505 533.991 96.6643C534.248 96.7413 534.46 96.9404 534.865 97.1845C534.248 99.5799 535.616 101.346 536.856 103.266C538.892 106.406 540.742 109.669 542.599 112.918L542.605 112.925ZM603.218 143.5C598.831 142.999 595.902 140.424 593.14 137.412C589.285 133.206 585.502 128.922 581.551 124.806C579.676 122.853 577.594 121.068 575.423 119.45C566.938 113.13 558.806 106.317 549.787 100.717C549.395 100.473 548.977 100.267 548.566 100.036C548.714 99.7469 548.862 99.4514 549.01 99.1624C551.097 99.5478 553.178 100.004 555.279 100.293C559.082 100.819 562.884 101.372 566.707 101.667C569.327 101.866 571.389 103.183 573.246 104.679C580.601 110.594 588.54 115.41 597.36 118.833C599.929 119.828 602.19 121.607 604.593 123.027C605.075 123.309 605.627 123.9 606.038 123.81C609.186 123.136 610.477 125.576 612.153 127.336C615.699 131.067 619.232 134.811 622.726 138.587C623.985 139.955 625.206 141.374 626.285 142.89C627.217 144.2 627.917 145.677 626.375 147.617C621.782 146.923 616.99 146.287 612.237 145.459C609.205 144.932 606.25 143.847 603.205 143.5H603.218Z" fill="black"/>
<path d="M755.257 64.5797C757.39 68.9338 760.338 72.8833 761.63 77.6677C762.137 79.543 763.235 80.2751 764.925 80.121C768.644 79.7806 771.181 82.0925 773.365 84.3723C774.669 85.7338 775.961 86.9476 777.489 88.0136C779.95 89.7219 782.378 91.4815 784.716 93.3439C785.801 94.2109 786.63 95.4054 787.613 96.4136C788.769 97.6081 790.176 97.8265 791.763 97.4347C792.932 97.1457 794.126 96.8824 795.321 96.7668C798.405 96.4843 801.52 96.4522 804.584 96.0283C810.802 95.1613 817.001 94.1017 823.206 93.1127C825.242 92.7852 825.91 91.9375 826.135 89.7989C826.193 89.2531 826.553 88.5659 826.989 88.2962C827.285 88.11 828.011 88.4503 828.454 88.7072C829.315 89.1953 829.385 89.9723 829.154 90.8971C828.801 92.3099 829.379 93.3953 830.535 94.2558C834.749 97.3898 838.879 100.633 843.158 103.677C846.132 105.79 849.273 107.665 852.369 109.604C853.223 110.137 853.949 110.715 853.827 111.801C853.654 113.278 853.596 114.826 853.101 116.206C851.829 119.745 852.035 120.586 855.382 122.166C863.629 126.064 871.036 131.311 878.539 136.423C880.35 137.656 882.213 139.281 884.66 137.656C884.802 137.566 885.039 137.553 885.213 137.592C887.57 138.144 889.337 136.821 891.244 135.819C892.902 134.946 894.597 134.085 896.377 133.526C898.696 132.794 900.584 131.446 902.28 129.84C906.025 126.282 909.616 122.564 913.354 119.013C917.164 115.391 921.075 111.878 924.955 108.333C927.448 106.053 929.972 103.812 932.471 101.532C934.372 99.7916 934.449 99.2072 933.28 96.9467C932.118 94.6989 930.846 92.5026 929.837 90.1843C928.193 86.4081 926.754 82.5421 925.18 78.7274C923.786 75.343 922.18 72.0421 920.947 68.5999C919.861 65.5879 918.577 64.2714 915.32 64.098C912.282 63.9375 909.41 63.3017 906.565 62.1843C904.496 61.3687 902.254 60.9448 900.051 60.521C897.565 60.0457 895.041 59.8017 892.536 59.3971C883.838 58.0099 875.147 56.5521 866.437 55.2035C858.921 54.0411 851.393 53.0008 843.871 51.8898C843.228 51.7934 842.612 51.5494 841.982 51.3696C839.387 50.6439 837.261 52.031 836.933 54.6577C836.85 55.3063 836.824 55.9742 836.67 56.6035C836.246 58.3696 835.738 58.7292 834.132 57.9136C831.852 56.7512 829.848 57.1173 827.735 58.3118C826.662 58.9219 825.396 59.1788 823.739 59.7696C823.739 57.631 823.739 56.0512 823.739 54.4714C823.746 51.9283 822.371 50.5989 819.936 50.7595C818.363 50.8687 816.782 50.8687 815.215 51.0099C810.571 51.4274 806.042 50.7402 801.571 49.5714C799.67 49.0769 797.826 48.3448 795.912 47.921C790.754 46.765 785.756 45.2751 781.331 42.2118C779.872 41.2035 778.19 40.5164 776.654 39.6109C775.549 38.9558 774.483 38.2237 773.475 37.4402C771.843 36.1751 769.948 36.3613 768.94 38.2044C766.473 42.6934 762.799 46.1999 759.523 50.0338C757.737 52.1274 755.707 53.9641 752.328 54.1054C752.328 55.8008 751.994 57.2714 752.405 58.4916C753.112 60.6044 754.268 62.5632 755.257 64.5797ZM834.678 88.6366C836.111 81.3861 837.441 74.1099 838.867 66.8531C839.406 64.1109 840.093 61.3944 840.755 58.6714C841.198 56.8347 841.519 56.5586 843.434 56.5907C844.93 56.6164 846.44 56.7255 847.924 56.9375C858.041 58.3632 868.165 59.776 878.269 61.3044C884.48 62.2421 890.628 63.6228 896.859 64.3549C901.034 64.843 904.843 66.0182 908.53 67.9191C909.764 68.5549 911.164 69.0494 912.532 69.1971C914.89 69.4476 916.052 70.9118 917.253 72.7035C920.382 77.3595 921.936 82.6962 924.037 87.7888C925.251 90.7301 926.285 93.7549 927.628 96.6384C928.302 98.0962 928.167 99.021 927.017 100.081C923.561 103.259 920.215 106.554 916.752 109.726C911.427 114.601 906.006 119.372 900.693 124.259C898.464 126.315 896.28 128.344 893.197 129.018C892.844 129.095 892.491 129.294 892.189 129.513C889.388 131.587 886.176 132.326 882.772 132.287C881.975 132.281 881.089 132.03 880.395 131.632C877.543 130.014 874.678 128.402 871.954 126.584C867.297 123.476 862.737 120.22 858.009 116.938C858.696 113.997 859.345 111.236 859.962 108.59C853.204 104.724 846.819 100.967 841.096 96.2145C839.149 94.6026 837.338 92.8237 835.456 91.1347C834.691 90.4476 834.473 89.709 834.685 88.6366H834.678ZM804.224 94.3907C804.141 94.3778 804.102 94.1274 804.038 93.9861C804.263 93.9347 804.488 93.8384 804.706 93.8512C804.777 93.8512 804.841 94.121 804.944 94.3393C804.68 94.365 804.443 94.4292 804.224 94.3971V94.3907ZM759.799 59.1338C759.914 59.0375 759.985 58.7421 759.927 58.6072C758.951 56.4366 760.698 55.3962 761.803 54.1118C764.353 51.132 766.929 48.1778 769.505 45.2173C771.381 43.0659 771.67 42.8797 774.284 44.0421C777.534 45.487 780.656 47.2081 783.861 48.7558C785.037 49.321 786.27 49.7898 787.517 50.1944C791.525 51.4916 795.52 52.8531 799.586 53.9512C802.458 54.7219 805.425 55.1393 808.367 55.6402C811.309 56.1411 814.277 56.5329 817.226 57.0145C818.722 57.2586 819.101 58.4723 819.255 59.7182C819.859 64.554 820.405 69.3962 820.983 74.232C821.247 76.4411 821.69 78.6439 821.786 80.8595C821.863 82.6191 821.6 84.4044 821.35 86.1577C821.15 87.5512 820.315 88.6109 818.921 88.9769C817.476 89.3622 815.999 89.6384 814.515 89.8375C809.222 90.5503 803.922 91.2182 798.623 91.8797C797.692 91.9953 796.754 92.0081 795.816 92.0723C792.064 92.721 789.135 91.4558 786.508 88.7008C785.127 87.2494 783.052 86.4788 781.369 85.2907C779.545 83.9934 777.74 82.6512 776.063 81.1742C773.828 79.1962 771.747 77.0384 769.543 75.0283C768.863 74.4054 768.034 73.7246 767.179 73.5512C764.103 72.9155 763.229 70.3274 762.041 68.0411C761.218 66.4613 760.634 64.7595 759.882 63.1476C759.266 61.8118 758.167 60.5274 759.792 59.1466L759.799 59.1338Z" fill="black"/>
<path d="M1214.27 105.45C1213.54 104.955 1212.89 104.351 1212.16 103.844C1211.63 103.478 1211.04 102.906 1210.48 102.919C1208.94 102.964 1208.07 101.982 1207.21 101.031C1204.69 98.2505 1202.38 95.2642 1199.72 92.6312C1193.38 86.3633 1186.93 80.1982 1180.44 74.0908C1176.96 70.8156 1173.3 67.7202 1169.71 64.5605C1166.67 61.9018 1163.4 59.4807 1160.63 56.5716C1156.86 52.6027 1152.77 49.0514 1148.4 45.789C1144.85 43.1431 1141.22 41.9293 1137.09 44.511C1134.25 46.2899 1131.03 46.9321 1127.79 47.5165C1121.15 48.7174 1114.52 49.9505 1107.9 51.2349C1101.64 52.4486 1095.42 53.8229 1089.16 54.9789C1084.47 55.8459 1079.74 56.4945 1075.03 57.1945C1073.18 57.4706 1071.3 57.5734 1069.45 57.8303C1065.09 58.4275 1060.74 59.5128 1056.38 59.5963C1048.32 59.7505 1040.25 59.333 1032.19 59.1404C1031.44 59.1211 1030.7 58.9605 1029.95 58.9092C1027.71 58.7615 1025.47 58.5881 1023.22 58.5495C1022.67 58.5431 1021.69 58.9413 1021.62 59.2945C1021.28 60.9963 1020.77 62.8266 1021.09 64.4642C1022.03 69.2229 1023.47 73.8853 1024.48 78.6376C1025.54 83.6596 1026.35 88.733 1027.23 93.7936C1028.05 98.5908 1028.81 103.407 1029.63 108.205C1029.95 110.048 1030.37 111.878 1030.73 113.715C1031.48 117.574 1032.43 121.415 1032.94 125.306C1033.7 131.028 1036.06 136.519 1035.48 142.44C1035.36 143.596 1035.99 144.47 1037.04 144.881C1038.07 145.292 1039.17 145.594 1040.27 145.805C1041.83 146.107 1043.5 146.056 1044.97 146.57C1047.61 147.488 1049.31 145.902 1051.06 144.585C1052.39 143.59 1051.62 141.965 1051.65 140.61C1051.67 139.769 1051.51 138.928 1051.44 138.086C1051.39 138.086 1051.35 138.08 1051.3 138.073C1051.58 133.295 1051.84 128.511 1052.14 123.733C1052.25 122.05 1052.39 120.361 1052.63 118.692C1053.22 114.627 1053.85 114.074 1057.76 114.196C1068.75 114.543 1079.73 114.916 1090.7 115.288C1101.03 115.641 1111.36 115.994 1121.68 116.393C1135.48 116.932 1149.27 117.459 1163.05 118.107C1168.68 118.377 1174.33 118.647 1179.89 119.475C1188.41 120.74 1197.12 120.419 1205.46 123.033C1208 123.829 1210.3 122.551 1210.95 120.432C1211.21 119.597 1210.97 118.608 1210.98 117.69C1211.01 114.132 1210.78 110.51 1214.46 108.25C1215.47 107.633 1215.25 106.092 1214.27 105.437V105.45ZM1122.47 50.156C1122.54 50.1431 1122.64 50.3936 1122.78 50.6055C1122.52 50.6761 1122.29 50.7853 1122.06 50.7789C1121.96 50.7789 1121.87 50.5349 1121.78 50.4C1122.01 50.3101 1122.24 50.1881 1122.47 50.156ZM1207.36 111.904C1207.17 112.706 1207.32 113.58 1207.27 114.421C1207.14 116.502 1206.48 117.33 1204.43 117.542C1202.76 117.716 1201.05 117.773 1199.38 117.613C1190.33 116.733 1181.28 115.68 1172.22 114.858C1163.91 114.1 1155.57 113.49 1147.24 112.957C1143.12 112.694 1138.98 112.809 1134.85 112.687C1121.89 112.295 1108.93 111.942 1095.98 111.428C1089.61 111.172 1083.25 110.51 1076.88 110.176C1069.94 109.81 1062.99 109.63 1056.05 109.322C1054.18 109.239 1052.32 108.95 1050.45 108.84C1048.71 108.738 1048.26 109.078 1047.99 110.767C1047.82 111.872 1047.81 113.008 1047.84 114.132C1047.92 116.739 1048.24 119.347 1048.17 121.941C1048.05 126.334 1047.69 130.72 1047.45 135.106C1047.36 136.693 1047.38 138.298 1047.19 139.872C1047.13 140.405 1046.55 141.278 1046.17 141.291C1044.61 141.355 1043.02 141.278 1041.49 141.002C1040.32 140.79 1040.08 139.647 1039.88 138.594C1037.58 126.443 1035.23 114.305 1032.97 102.149C1031.76 95.5982 1030.81 89.0027 1029.53 82.4716C1028.48 77.1541 1027.12 71.9073 1025.9 66.622C1025.73 65.9092 1025.63 65.1835 1025.4 63.989C1027.11 63.9119 1028.41 63.7963 1029.7 63.8027C1038.34 63.8541 1046.97 63.8798 1055.61 64.0147C1060.74 64.0917 1065.64 62.7174 1070.65 62.0303C1074.92 61.4459 1079.22 61.0284 1083.48 60.3605C1087.73 59.6927 1091.96 58.8642 1096.19 58.0101C1102.13 56.8092 1108.05 55.5055 1113.98 54.266C1119.66 53.078 1125.34 51.9027 1131.02 50.7532C1134.79 49.989 1138.53 49.0128 1142.34 48.6725C1143.9 48.5312 1145.61 49.7706 1147.22 50.4578C1147.63 50.6312 1147.86 51.1771 1148.26 51.389C1152.06 53.3862 1154.69 56.7064 1157.76 59.5578C1161.73 63.2633 1165.96 66.6991 1170.05 70.2826C1172.58 72.5046 1175.1 74.7459 1177.59 77.0193C1180.49 79.678 1183.37 82.356 1186.21 85.0789C1187.83 86.6394 1189.31 88.3413 1190.92 89.9147C1193.26 92.2138 1195.78 94.3523 1198.02 96.7477C1200.18 99.0725 1202.09 101.641 1204.11 104.094C1204.47 104.531 1204.79 105.013 1205.22 105.366C1207.34 107.094 1208 109.251 1207.38 111.904H1207.36Z" fill="black"/>
<path d="M1642 324.813C1636.66 323.066 1183.17 185.956 1177.84 184.177C1170.45 181.711 1163.17 178.917 1155.7 176.734C1147.43 174.319 1139.02 172.367 1130.64 170.344C1121.72 168.192 1112.73 166.298 1103.81 164.102C1094.81 161.88 1085.78 159.831 1076.62 158.309C1073.58 157.802 1070.6 156.877 1067.64 156.023C1064.67 155.169 1064.69 155.104 1064.82 151.945C1064.85 151.193 1064.75 150.403 1064.95 149.703C1066.3 145.17 1065.8 140.584 1065.48 135.992C1065.37 134.503 1065.43 132.993 1065.41 131.497C1065.4 130.392 1065.86 129.712 1067.05 129.641C1068.07 129.583 1069.13 129.333 1070.13 129.461C1078.31 130.521 1086.46 131.677 1094.64 132.756C1102.07 133.738 1109.43 135.138 1116.96 135.434C1123.6 135.691 1130.25 136.326 1136.86 137.078C1143.1 137.791 1149.27 139.004 1155.5 139.762C1159.5 140.244 1163.57 140.16 1167.57 140.559C1174.66 141.252 1181.73 142.151 1188.8 142.896C1194.02 143.448 1199.25 143.872 1204.47 144.405C1205.16 144.476 1205.86 144.803 1206.49 145.15C1207.21 145.555 1207.8 146.203 1208.54 146.57C1210.86 147.725 1210.89 147.693 1210.74 150.339C1210.69 151.181 1203.06 185.314 1202.87 186.136L1207.65 188.531C1207.76 187.979 1215.28 149.138 1215.35 148.586C1215.08 147.115 1214.71 145.67 1214.58 144.2C1214.37 141.914 1214.05 141.503 1211.73 141.271C1209.77 141.079 1207.8 140.963 1205.86 140.7C1200.4 139.948 1194.96 139.075 1189.5 138.362C1184.94 137.765 1180.37 137.29 1175.8 136.84C1170.57 136.326 1165.34 135.915 1160.11 135.447C1156.75 135.145 1153.38 134.907 1150.03 134.477C1146.13 133.97 1142.27 133.096 1138.35 132.724C1132.28 132.146 1126.17 131.985 1120.1 131.401C1113.48 130.765 1106.88 129.904 1100.28 129.031C1095.08 128.344 1089.91 127.278 1084.69 126.777C1078.14 126.154 1071.66 125.203 1065.26 123.746C1063.38 123.322 1062.42 123.726 1061.66 125.46C1061.48 125.884 1061.4 126.359 1061.3 126.815C1060.55 130.168 1061.2 133.533 1061.42 136.859C1061.75 141.869 1061.49 146.672 1059.95 151.534C1058.62 155.695 1059.09 158.816 1064.37 160.004C1072.77 161.886 1081.15 163.832 1089.55 165.701C1094.11 166.722 1098.71 167.582 1103.27 168.623C1109.22 169.978 1115.13 171.423 1121.05 172.861C1126.97 174.3 1132.88 175.764 1138.78 177.26C1140.59 177.723 1142.36 178.378 1144.17 178.84C1147.44 179.675 1150.77 180.279 1153.99 181.261C1159.27 182.867 1164.5 184.671 1169.73 186.431C1173.55 187.715 1177.35 189.045 1181.13 190.406C1183.95 191.421 1634.82 328.049 1637.66 329" fill="#FF6525"/>
<path d="M1638.15 319.675C1632.81 317.928 1179.32 180.818 1173.98 179.039C1166.6 176.573 1159.31 173.78 1151.85 171.596C1143.58 169.182 1135.17 167.229 1126.78 165.206C1117.86 163.055 1108.88 161.161 1099.96 158.964C1090.95 156.742 1081.92 154.694 1072.77 153.172C1069.73 152.664 1066.75 151.739 1063.78 150.885C1060.82 150.031 1060.84 149.967 1060.96 146.807C1061 146.056 1060.89 145.266 1061.1 144.566C1062.45 140.032 1061.94 135.447 1061.62 130.855C1061.52 129.365 1061.58 127.856 1061.56 126.36C1061.55 125.255 1062.01 124.574 1063.19 124.504C1064.22 124.446 1065.27 124.195 1066.27 124.324C1074.45 125.383 1082.61 126.539 1090.79 127.618C1098.21 128.601 1105.58 130.001 1113.11 130.296C1119.75 130.553 1126.4 131.189 1133.01 131.94C1139.25 132.653 1145.42 133.867 1151.65 134.625C1155.65 135.106 1159.71 135.023 1163.72 135.421C1170.8 136.115 1177.87 137.014 1184.95 137.759C1190.17 138.311 1195.4 138.735 1200.62 139.268C1201.31 139.339 1202.01 139.666 1202.63 140.013C1203.36 140.417 1203.95 141.066 1204.69 141.432C1207 142.588 1207.04 142.556 1206.89 145.202C1206.83 146.043 1199.2 180.176 1199.01 180.998L1203.8 183.394C1203.91 182.841 1211.43 144.001 1211.49 143.449C1211.22 141.978 1210.86 140.533 1210.72 139.062C1210.52 136.776 1210.2 136.365 1207.88 136.134C1205.92 135.941 1203.95 135.826 1202 135.562C1196.55 134.811 1191.11 133.938 1185.64 133.225C1181.09 132.627 1176.52 132.152 1171.94 131.703C1166.72 131.189 1161.48 130.778 1156.26 130.309C1152.9 130.007 1149.52 129.77 1146.18 129.339C1142.27 128.832 1138.41 127.959 1134.5 127.586C1128.43 127.008 1122.32 126.848 1116.25 126.263C1109.63 125.627 1103.02 124.767 1096.43 123.894C1091.22 123.206 1086.06 122.14 1080.84 121.639C1074.28 121.016 1067.81 120.066 1061.4 118.608C1059.53 118.184 1058.57 118.589 1057.81 120.323C1057.62 120.747 1057.54 121.222 1057.44 121.678C1056.7 125.03 1057.35 128.395 1057.56 131.722C1057.89 136.731 1057.63 141.535 1056.09 146.396C1054.77 150.558 1055.24 153.679 1060.52 154.867C1068.91 156.749 1077.3 158.694 1085.69 160.563C1090.26 161.584 1094.86 162.445 1099.42 163.485C1105.36 164.84 1111.28 166.285 1117.2 167.724C1123.12 169.162 1129.03 170.627 1134.93 172.123C1136.74 172.585 1138.51 173.24 1140.32 173.703C1143.58 174.538 1146.92 175.141 1150.13 176.124C1155.42 177.729 1160.64 179.534 1165.88 181.294C1169.69 182.578 1173.5 183.907 1177.28 185.269C1180.09 186.283 1630.97 322.912 1633.8 323.862" fill="black"/>
<path d="M499.118 179.579C500.184 178.185 501.61 177.055 502.933 175.873C504.886 174.139 506.942 172.508 508.869 170.749C510.076 169.644 509.935 167.345 508.734 166.202C507.924 165.431 506.852 165.553 505.554 166.805C501.989 170.235 498.482 173.728 494.955 177.196C493.478 178.641 492.983 180.24 494.268 182.36C496.311 181.91 497.884 181.204 499.124 179.579H499.118Z" fill="black"/>
<path d="M970.402 151.977C968.97 149.344 967.608 146.672 966.169 144.046C965.244 142.357 963.889 141.284 961.82 141.625C959.424 142.023 957.047 142.556 954.645 142.89C949.827 143.558 944.997 145.587 940.211 142.408C938.753 141.445 937.218 142.036 936.608 143.429C935.098 146.884 932.233 148.984 929.317 151.027C928.193 151.816 927.634 152.722 927.628 154.038C927.628 154.976 927.628 155.914 927.628 156.851C927.653 156.851 927.673 156.851 927.698 156.851C927.531 158.624 927.454 160.409 927.184 162.169C926.645 165.682 925.925 169.169 925.411 172.688C924.981 175.649 926.452 177.376 929.484 177.755C930.974 177.941 932.464 178.108 933.948 178.307C938.683 178.95 943.417 179.611 948.151 180.266C950.926 180.651 953.707 181.011 956.476 181.435C958.384 181.724 959.611 181.191 960.613 179.316C962.777 175.276 964.801 171.16 967.036 167.159C968.668 164.23 970.486 161.405 972.323 158.605C973.184 157.288 973.261 156.543 972.271 155.04C971.616 154.038 970.974 153.024 970.402 151.977ZM966.754 158.733C964.223 163.318 961.666 167.891 959.122 172.463C958.942 172.791 958.724 173.099 958.551 173.433C957.497 175.527 955.833 176.413 953.502 176.002C953.039 175.925 952.57 175.918 952.101 175.873C952.082 175.995 952.063 176.117 952.044 176.239C947.342 175.45 942.639 174.653 937.937 173.863C936.19 173.574 934.424 173.35 932.683 173.022C930.653 172.637 930.043 172.059 930.512 170.203C931.7 165.457 932.163 160.615 932.773 155.785C932.856 155.105 933.345 154.411 933.807 153.852C934.584 152.915 935.496 152.099 936.338 151.213C938.297 149.145 940.417 148.162 943.539 148.381C947.226 148.631 950.99 147.854 954.716 147.475C956.013 147.34 957.343 147.218 958.583 146.839C961.64 145.908 963.465 147.584 964.807 149.845C965.796 151.508 966.297 153.461 967.094 155.246C967.659 156.505 967.357 157.635 966.754 158.733Z" fill="black"/>
</svg>
