<svg width="1439" height="586" viewBox="0 0 1439 586" fill="none" xmlns="http://www.w3.org/2000/svg">
<path d="M1442.43 570.136C1428.57 570.136 1115.71 570.136 1101.86 570.122C1086.88 570.101 1071.89 570.005 1056.91 570.039C1038.02 570.081 1019.13 570.266 1000.24 570.314C986.267 570.349 972.291 570.184 958.322 570.239C944.683 570.294 931.051 570.596 917.412 570.651C910.826 570.679 904.24 570.301 897.647 570.273C878.426 570.184 859.198 570.184 839.977 570.136C821.533 570.087 803.088 569.977 784.637 569.984C771.232 569.984 757.833 570.094 744.428 570.239C732.026 570.369 719.625 570.672 707.216 570.768C698.836 570.83 690.456 570.589 682.076 570.624C665.536 570.692 648.996 570.85 632.456 570.974C621.058 571.063 609.667 571.167 598.269 571.263C587.318 571.359 576.36 571.565 565.409 571.503C561.401 571.483 557.516 571.723 553.68 572.954C552.856 573.215 551.646 573.023 550.883 572.576C548.552 571.201 546.923 568.974 546.888 566.348C546.785 558.553 544.847 551.102 543.259 543.569C541.238 533.966 539.333 524.336 537.354 514.727C535.442 505.447 533.408 496.188 531.6 486.881C530.218 479.774 529.173 472.598 527.839 465.477C526.052 455.943 524.058 446.443 522.278 436.909C520.848 429.259 519.624 421.574 518.284 413.91C516.771 405.249 515.273 396.588 513.685 387.941C511.877 378.105 509.938 368.289 508.109 358.46C506.783 351.346 505.531 344.217 504.273 337.089C503.771 334.257 503.263 331.425 502.94 328.573C502.837 327.7 503.05 326.511 503.607 325.906C505.16 324.201 506.968 322.73 508.68 321.163C509.319 320.579 509.993 320.015 510.605 319.41C512.908 317.135 513.643 314.578 512.729 311.306C512.021 308.77 512.75 305.649 511.574 303.477C510.474 301.456 507.642 300.411 505.676 298.81C504.129 297.552 502.747 296.088 501.812 295.215C501.283 288.678 500.932 282.698 500.266 276.759C499.743 272.085 500.279 267.665 502.183 263.39C502.96 261.657 503.689 259.905 504.39 258.138C505.421 255.56 505.263 252.935 504.679 250.275C503.916 246.81 503.201 243.332 502.548 239.84C502.287 238.438 501.922 237.345 500.334 236.885C497.701 236.122 496.457 234.176 496.065 231.509C495.364 226.677 494.752 221.817 493.735 217.047C492.25 210.091 490.414 203.217 486.709 197.01C486.317 196.35 486.166 195.546 485.746 194.907C484.846 193.546 485.341 192.563 486.503 191.786C488.895 190.178 491.322 188.624 494.01 186.871C493.831 185.868 493.742 184.775 493.446 183.751C492.36 180.012 491.274 176.265 490.057 172.567C488.771 168.649 487.245 164.814 486.001 160.889C484.495 156.125 483.21 151.3 481.787 146.509C480.329 141.601 478.824 136.714 477.325 131.82C475.435 125.654 473.551 119.489 471.619 113.337C470.753 110.587 469.763 107.879 468.973 105.569C463.446 102.854 457.967 103.72 452.68 103.28C447.435 102.84 442.327 101.995 437.322 100.38C436.078 99.981 434.71 99.8985 433.39 99.8091C431.018 99.651 429.155 98.8262 427.959 96.6129C426.846 94.5508 425.601 92.5505 424.295 90.6121C423.154 88.9212 423.14 87.3952 424.185 85.6424C426.158 82.343 427.203 78.6931 427.643 74.8919C427.78 73.7028 427.67 72.4793 427.595 71.2764C427.409 68.3619 427.932 67.5783 430.757 66.7191C435.686 65.2138 435.562 65.2 436.257 59.9141C436.965 54.4977 437.859 49.0949 438.842 43.7197C439.247 41.5201 439.213 39.9117 436.917 38.6813C435.934 38.152 435.136 36.6673 434.889 35.4781C433.816 30.3503 433.108 25.1469 432.008 20.026C431.238 16.4517 430.097 12.953 429.004 9.45427C428.324 7.27531 426.701 6.30612 424.398 6.43672C417.964 6.79415 411.522 5.97618 405.074 6.54669C402.544 6.77353 399.932 6.54669 397.402 6.2305C394.013 5.79746 391.126 6.20301 388.651 8.93187C385.901 11.97 382.732 14.6233 379.948 17.634C378.614 19.0775 377.7 20.9334 376.703 22.6655C376.469 23.0642 376.627 23.731 376.703 24.2602C377.253 27.9995 377.837 31.7388 378.408 35.4712C378.49 36.0211 378.511 36.5848 378.635 37.1209C378.923 38.3788 379.851 39.9048 379.425 40.8052C378.71 42.3175 377.356 43.8159 375.885 44.6201C373.946 45.6787 373.513 47.0534 373.595 48.9849C373.733 52.0987 373.678 55.2194 373.905 58.3263C374.029 60.0791 374.799 61.5088 376.93 61.7219C377.658 61.7907 378.325 62.3956 379.033 62.7255C380.58 63.4404 381.089 64.5195 380.717 66.2517C379.693 71.0427 378.799 75.8611 377.858 80.6727C377.775 81.1058 377.569 81.5388 377.59 81.965C377.665 83.5391 378.009 85.4087 376.414 86.2267C374.482 87.2165 372.303 88.0895 370.165 88.2682C363.957 88.7906 357.688 88.6256 351.515 89.3748C347.967 89.801 344.138 89.8835 340.976 92.1243C340.618 92.3787 340.089 92.4268 339.793 92.7155C335.057 97.3415 329.028 100.139 323.824 104.091C320.813 106.38 317.953 108.903 315.224 111.529C314.151 112.56 313.478 114.086 312.873 115.495C310.886 120.073 308.996 124.692 307.105 129.311C306.431 130.954 305.902 132.645 305.263 134.301C303.345 139.285 301.44 144.268 299.474 149.231C297.109 155.204 294.683 161.157 292.311 167.13C291.266 169.763 291.514 170.333 294.016 171.571C295.116 172.114 296.23 172.643 297.357 173.131C299.914 174.231 300.581 175.399 299.564 177.977C298.264 181.263 297.879 184.844 296.01 187.964C295.315 189.126 295.501 190.789 295.137 192.185C293.844 197.127 292.476 202.042 291.17 206.977C290.716 208.689 290.256 210.421 289.994 212.167C289.493 215.555 289.224 218.985 288.647 222.36C288.475 223.371 287.774 224.457 287.004 225.179C283.656 228.347 282.666 232.19 282.934 236.678C283.092 239.311 282.57 241.985 282.35 244.638C281.876 250.46 281.456 256.282 280.927 262.097C280.391 267.94 280.638 273.789 280.453 279.639C280.377 281.928 280.205 284.217 280.054 286.966C279.332 287.963 278.397 289.207 276.245 289.441C273.819 289.702 272.444 291.634 272.354 294.17C272.148 299.635 271.976 305.099 271.859 310.564C271.846 311.272 272.079 312.165 272.54 312.674C275.29 315.733 278.17 318.572 282.212 320.063C283.745 320.627 284.9 322.222 286.268 323.383C285.608 324.758 285.017 325.83 284.564 326.958C284.034 328.27 283.574 329.625 283.161 330.979C282.879 331.914 282.742 332.896 282.508 333.845C282.054 335.68 281.539 337.495 281.106 339.33C279.731 345.159 278.294 350.981 277.043 356.838C276.211 360.742 275.826 364.735 274.939 368.626C273.289 375.885 271.234 383.061 269.687 390.34C267.714 399.585 266.188 408.927 264.242 418.179C262.984 424.166 261.335 430.063 259.843 435.995C258.055 443.123 256.509 450.286 255.244 457.531C254.061 464.315 252.04 470.948 250.535 477.684C248.96 484.723 247.572 491.796 246.08 498.855C244.815 504.835 243.523 510.809 242.258 516.782C241.914 518.39 241.701 520.033 241.288 521.621C239.652 527.972 237.775 534.262 236.359 540.654C235.246 545.658 234.703 550.786 233.85 555.845C233.555 557.605 232.984 559.316 232.75 561.076C232.482 563.042 232.214 565.063 232.372 567.022C232.709 571.228 230.042 574.088 225.807 573.614C216.43 572.569 207.067 573.545 197.704 573.682C187.99 573.827 178.276 573.999 168.563 574.157C160.183 574.294 151.803 574.452 143.423 574.562C135.716 574.665 128.01 574.645 120.31 574.803C112.721 574.961 105.145 575.325 97.5558 575.483C94.0979 575.559 90.6263 575.305 87.1615 575.311C80.0189 575.332 72.8763 575.366 65.7336 575.504C59.5947 575.621 53.4557 575.923 47.3168 576.088C44.9726 576.15 42.6284 576.068 40.2773 576.054C31.1273 576.006 21.9979 575.538 12.8342 576.425C7.08705 576.975 1.25746 576.528 -4.53777 576.672C-11.0067 576.837 -17.4687 577.25 -23.9377 577.408C-28.1792 577.511 -32.4277 577.339 -36.6762 577.312C-40.684 577.284 -44.6919 577.284 -48.6997 577.284C-51.9376 577.284 -55.1893 577.456 -58.4203 577.284C-65.8104 576.906 -73.1524 577.209 -80.4806 578.24C-87.1352 579.175 -93.7897 579.546 -100.492 578.501C-102.115 578.247 -103.827 578.57 -105.497 578.576C-110.722 578.597 -115.953 578.508 -121.178 578.618C-128.204 578.762 -135.229 579.085 -142.255 579.278C-145.83 579.374 -149.405 579.278 -152.973 579.388C-157.51 579.532 -162.04 579.807 -166.577 580.027C-167.244 580.061 -167.911 580.206 -168.571 580.151C-170.42 579.992 -171.651 578.948 -171.926 577.415C-172.207 575.827 -171.506 574.652 -169.533 573.895C-168.138 573.359 -166.756 572.583 -165.14 573.792C-164.474 574.294 -163.216 574.06 -162.226 574.095C-157.771 574.239 -153.316 574.356 -148.862 574.487C-148.752 574.487 -148.635 574.514 -148.525 574.5C-142.881 573.93 -137.223 574.645 -131.531 573.895C-126.038 573.167 -120.38 573.627 -114.798 573.572C-111.23 573.538 -107.656 573.511 -104.088 573.497C-102.41 573.497 -100.699 573.304 -99.0625 573.572C-93.5835 574.473 -88.1457 573.868 -82.6874 573.449C-76.569 572.974 -70.4507 572.418 -64.3186 572.266C-56.2823 572.06 -48.2254 571.888 -40.2097 572.308C-32.2627 572.72 -24.3708 572.218 -16.4513 572.074C-7.30821 571.909 1.84179 571.881 10.9849 571.71C13.5491 571.662 16.0996 571.18 18.6638 571.132C25.6826 570.988 32.7359 570.5 39.7136 571.015C49.6747 571.751 59.5397 570.321 69.4734 570.61C79.2902 570.898 89.1208 570.651 98.9445 570.555C103.186 570.514 107.421 570.17 111.662 570.122C121.479 570.012 131.303 570.046 141.12 569.936C152.614 569.806 164.115 569.599 175.609 569.4C183.412 569.269 191.214 569.146 199.017 568.926C205.802 568.733 212.58 568.41 219.366 568.149C219.586 568.142 219.812 568.135 220.032 568.094C225.821 567.015 225.876 567.599 226.783 561.454C226.831 561.124 226.907 560.794 226.969 560.464C228.474 552.821 229.89 545.163 231.527 537.547C232.551 532.777 233.967 528.096 235.094 523.346C236.304 518.246 237.446 513.132 238.518 507.997C240.271 499.604 241.873 491.177 243.653 482.791C245.392 474.625 247.262 466.487 249.091 458.335C251.236 448.78 253.147 439.157 255.642 429.692C257.636 422.145 258.901 414.474 260.475 406.851C262.146 398.781 264.091 390.766 265.961 382.738C267.295 377.005 269.178 371.355 269.948 365.553C270.753 359.436 272.499 353.607 273.922 347.675C274.183 346.596 274.204 345.462 274.424 344.369C274.919 341.867 275.537 339.385 275.984 336.869C276.465 334.154 277.153 331.412 277.112 328.69C277.063 325.679 274.987 323.383 273.007 321.28C271.488 319.665 269.797 318.132 267.962 316.894C265.769 315.417 265.335 313.444 265.59 311.1C266.181 305.67 266.855 300.239 267.363 294.802C267.556 292.727 267.494 290.609 267.391 288.513C267.171 284.176 267.728 283.53 272.162 283.378C272.712 283.358 273.255 283.33 273.832 283.303C275.613 280.594 274.967 277.591 275.125 274.766C275.585 266.538 275.847 258.303 276.183 250.068C276.321 246.728 276.403 243.38 276.63 240.046C276.919 235.853 277.283 231.654 277.737 227.474C277.813 226.801 278.431 226.1 278.968 225.591C282.137 222.573 283.285 218.855 283.794 214.552C284.385 209.596 285.739 204.716 286.956 199.856C288.358 194.247 289.946 188.679 291.507 183.118C291.926 181.627 292.559 180.197 293.164 178.541C290.036 176.554 285.801 177.228 282.921 173.99C284.089 171.818 285.292 169.612 286.468 167.391C286.99 166.408 287.499 165.405 287.925 164.374C290.861 157.266 293.823 150.173 296.676 143.031C299.076 137.03 301.44 131.009 303.627 124.933C305.428 119.922 306.858 114.78 308.652 109.776C309.057 108.649 310.178 107.686 311.168 106.882C312.625 105.7 314.275 104.758 315.808 103.665C320.772 100.118 325.701 96.5304 330.671 93.0042C334.019 90.6259 337.58 88.5637 340.495 85.5806C341.574 84.4739 342.969 83.8965 344.716 83.924C348.717 83.9859 352.724 83.8759 356.719 83.6147C360.046 83.3947 363.352 82.8036 366.68 82.4943C371.066 82.0887 371.808 81.4563 372.537 77.1878C372.819 75.5381 373.252 73.9159 373.534 72.2662C373.946 69.826 373.63 68.8912 371.471 67.922C369.203 66.9047 368.508 65.2619 368.419 62.9454C368.233 58.0376 367.89 53.1435 367.601 48.2426C367.58 47.9058 367.573 47.569 367.518 47.239C366.673 42.0631 366.659 42.0356 371.478 39.4511C372.626 38.8325 373.162 38.0008 372.949 36.7566C372.461 33.9178 372.117 31.0377 371.341 28.2745C370.426 25.037 369.677 21.717 371.987 19.0156C374.537 16.0255 375.912 12.2381 379.267 9.73609C381.474 8.09328 382.814 5.28193 384.547 2.99986C385.963 1.13709 387.888 -0.32701 390.177 0.112907C397.512 1.52889 404.868 0.291623 412.203 0.683424C414.877 0.827772 417.586 1.14396 420.225 0.848393C422.886 0.54595 425.491 0.264128 428.172 0.449718C430.819 0.628435 432.27 1.90007 433.493 4.26463C437.116 11.2827 437.824 18.9812 439.165 26.5423C439.419 27.972 439.783 29.3811 440.01 30.8109C440.354 32.9692 441.481 34.3989 443.468 35.3819C446.06 36.6604 446.239 37.6502 445.311 40.4684C444.719 42.2556 444.382 44.1321 444.032 45.988C442.774 52.6761 441.454 59.3574 441.543 66.2173C441.55 66.9872 441.323 67.7639 441.172 68.7675C439.928 69.2967 438.615 69.8741 437.288 70.424C434.923 71.4001 433.438 73.0085 433.273 75.6893C433.136 77.9095 433.019 80.1435 432.689 82.343C432.496 83.6215 432.022 84.9069 431.451 86.0823C429.492 90.1309 430.943 93.4166 435.37 94.4064C440.691 95.5887 445.854 97.4858 451.374 97.7333C455.052 97.8982 458.723 98.1732 462.394 98.4138C465.178 98.5925 467.962 98.7643 470.739 98.998C472.85 99.1699 474.142 100.496 474.534 102.565C475.057 105.294 475.483 108.064 476.287 110.718C478.851 119.131 481.601 127.49 484.227 135.889C485.32 139.388 486.262 142.935 487.307 146.454C488.737 151.245 490.126 156.043 491.665 160.793C493.178 165.453 494.78 170.086 496.505 174.678C497.832 178.211 499.31 181.702 500.912 185.126C501.929 187.305 501.764 188.494 499.716 189.889C497.963 191.078 496.223 192.288 494.477 193.491C493.315 194.288 492.869 195.354 493.412 196.68C494.931 200.392 496.237 204.228 498.162 207.719C499.124 209.465 499.874 211.039 499.709 212.964C499.427 216.332 499.743 219.59 500.788 222.828C501.359 224.608 501.551 226.519 501.86 228.375C502.135 230.025 502.623 231.193 504.638 231.537C506.734 231.894 507.497 233.62 507.814 235.723C508.694 241.559 509.587 247.408 510.859 253.168C511.423 255.718 510.983 257.746 509.67 259.795C509.319 260.344 508.838 260.867 508.652 261.472C507.669 264.709 506.817 268.016 506.054 271.281C505.339 274.339 505.882 277.728 506.123 280.952C506.322 283.722 506.858 286.471 507.277 289.228C507.676 291.874 508.687 294.108 511.285 295.366C512.784 296.095 514.2 297.009 515.637 297.868C517.067 298.727 517.775 299.916 517.974 301.662C518.504 306.178 519.157 310.694 519.995 315.162C520.373 317.163 520.043 318.51 518.4 319.802C516.214 321.527 514.166 323.452 512.234 325.459C511.272 326.456 510.756 327.865 509.952 329.033C509.058 330.326 509.271 331.515 510.034 332.752C510.77 333.934 510.612 335.151 510.515 336.533C510.33 339.255 510.605 342.045 511.017 344.754C512.021 351.249 513.169 357.731 514.344 364.199C516.696 377.136 519.109 390.065 521.487 402.995C523.46 413.731 525.364 424.482 527.406 435.205C528.513 441.006 529.888 446.753 531.05 452.547C531.751 456.039 532.218 459.579 532.871 463.084C533.744 467.779 534.734 472.446 535.601 477.148C537.333 486.586 538.942 496.044 540.736 505.461C541.65 510.279 542.894 515.036 543.932 519.834C545.603 527.574 547.198 535.327 548.875 543.067C550.388 550.037 551.969 556.993 553.557 563.949C553.749 564.788 554.148 565.578 554.595 566.774C561.676 566.774 568.688 566.795 575.706 566.774C582.849 566.747 589.992 566.699 597.141 566.596C610.65 566.403 624.158 566.135 637.667 565.963C644.569 565.874 651.478 565.977 658.38 565.929C670.774 565.839 683.169 565.716 695.557 565.571C710.062 565.4 724.568 565.125 739.073 565.015C755.95 564.884 772.834 564.884 789.711 564.836C800.105 564.808 810.499 564.76 820.893 564.795C842.122 564.87 863.35 565.008 884.579 565.083C892.072 565.111 899.565 565.022 907.052 565.028C920.01 565.042 932.969 565.111 945.92 565.118C954.52 565.118 963.12 565.035 971.72 565.021C986.019 564.994 1000.33 565.021 1014.62 564.98C1022.78 564.953 1030.94 564.802 1039.1 564.774C1060.45 564.712 1081.8 564.671 1103.15 564.664C1116.56 564.664 1428.98 564.733 1442.39 564.774V570.142L1442.43 570.136Z" fill="#FF6525"/>
<path d="M335.393 394.657C338.576 395.008 341.332 395.434 344.103 395.564C345.629 395.64 347.176 395.227 348.709 395.014C350.998 394.698 352.875 395.997 352.84 398.197C352.772 402.802 353.583 407.25 354.841 411.642C355.666 414.522 356.649 417.361 357.336 420.268C358.127 423.609 357.384 426.867 356.422 430.098C355.15 434.366 353.975 438.669 352.792 442.965C352.153 445.275 353.17 447.406 353.892 449.434C356.168 455.84 358.367 462.239 359.722 468.92C360.224 471.409 361.275 473.801 362.231 476.172C364.376 481.486 365.641 486.971 366.335 492.655C366.782 496.292 367.882 499.852 368.659 503.454C369.319 506.499 369.91 509.551 370.59 512.589C370.92 514.067 370.528 515.222 369.374 516.163C369.202 516.308 369.037 516.459 368.872 516.603C363.606 521.181 362.877 526.845 365.345 532.99C366.541 535.967 366.589 538.469 364.74 541.163C363.2 543.397 362.547 546.147 362.664 548.772C362.767 550.999 361.853 552.415 360.512 553.756C357.989 556.272 355.728 558.938 353.617 561.846C351.933 564.162 348.894 565.489 346.454 567.256C345.643 567.84 344.735 568.328 344.048 569.036C342.824 570.294 342.749 573.793 344.048 574.885C344.694 575.422 345.897 575.559 346.811 575.47C350.469 575.112 354.098 574.48 357.756 574.184C361.193 573.903 364.658 573.909 368.116 573.793C370.79 573.696 373.464 573.703 376.131 573.476C379.005 573.236 379.273 572.885 379.885 570.163C380.18 568.857 380.393 567.524 380.84 566.273C381.651 564.011 383.074 563.468 385.481 563.833C387.55 564.142 389.695 564.314 391.771 564.142C395.201 563.867 396.714 561.571 396.005 558.127C395.291 554.636 394.548 551.199 391.812 548.511C389.647 546.38 389.805 543.775 390.176 540.778C390.76 536.063 390.526 531.21 390.258 526.433C390.1 523.649 388.347 521.731 385.412 521.202C384.752 521.085 384.092 520.906 383.48 520.659C381.184 519.731 380.373 518.136 381.321 515.84C383.961 509.448 384.415 502.67 385.178 495.92C385.529 492.834 386.099 489.768 386.587 486.689C387.289 482.29 388.203 477.918 388.663 473.498C389.09 469.415 389.131 465.284 389.152 461.174C389.158 459.064 388.897 456.926 388.478 454.857C388.127 453.145 387.674 451.31 386.725 449.887C384.704 446.828 382.463 443.88 380.043 441.116C379.005 439.927 378.675 438.903 379.074 437.521C380.737 431.741 382.408 425.96 384.085 420.186C384.855 417.54 385.838 414.934 386.415 412.247C387.137 408.892 386.333 405.6 385.302 402.397C384.924 401.228 384.429 400.101 384.051 398.939C382.985 395.654 383.893 393.763 387.185 392.932C388.608 392.574 389.303 391.914 389.537 390.54C389.798 389.007 390.059 387.467 390.478 385.975C391.936 380.765 391.427 375.617 390.258 370.448C389.791 368.386 389.454 366.33 390.623 364.282C391.516 362.715 392.678 362.076 394.445 362.179C396.102 362.282 396.844 363.361 397.174 364.701C397.813 367.286 398.247 369.919 398.845 372.51C399.216 374.125 399.78 375.692 400.192 377.294C401.368 381.899 402.509 386.518 403.774 391.564C404.777 391.433 406.049 391.316 407.307 391.096C409.596 390.691 411.026 391.598 412.099 393.619C415.426 399.902 417.316 406.906 421.613 412.694C422.569 413.979 422.328 415.202 421.833 416.481C419.434 422.75 418.32 429.294 417.172 435.885C416.45 440.017 418.19 442.354 420.52 444.931C422.919 447.578 425.298 450.238 427.553 453.001C428.336 453.963 429.12 454.575 430.344 454.451C432.104 454.273 433.857 454.053 435.61 453.819C437.369 453.585 439.122 453.31 440.875 453.056C442.903 452.767 444.65 452.183 445.667 450.1C446.987 447.399 448.926 444.945 449.874 442.141C450.665 439.803 450.575 437.116 450.575 434.586C450.575 431.136 450.424 427.671 450.08 424.235C449.606 419.478 449.036 414.721 448.204 410.02C447.881 408.178 447.997 406.844 449.317 405.483C452.026 402.699 454.741 399.902 457.182 396.891C457.986 395.901 458.227 394.238 458.241 392.877C458.316 387.075 458.186 381.281 457.202 375.521C456.261 370.049 455.738 364.502 454.831 359.024C453.435 350.596 451.799 342.211 450.404 333.783C449.187 326.449 448.162 319.087 447.063 311.733C447.014 311.403 447.124 311.025 447.001 310.736C444.368 304.598 447.688 299.539 449.888 294.239C451.118 291.27 452.198 288.225 453.147 285.159C453.401 284.334 453.112 283.193 452.734 282.347C450.933 278.285 449.036 274.264 447.131 270.25C446.801 269.562 446.403 268.731 445.798 268.38C444.333 267.528 444.505 266.091 444.416 264.861C444.34 263.809 444.464 262.386 445.11 261.706C446.973 259.76 447.296 257.348 447.599 254.963C448.74 245.834 450.692 236.871 452.906 227.956C454.191 222.801 455.601 217.68 456.9 212.524C457.388 210.593 457.642 208.6 458.117 206.668C458.907 203.458 464.331 201.485 466.834 203.582C467.48 204.125 467.782 205.328 467.844 206.256C468.25 212.029 469.054 217.707 470.773 223.275C472.347 228.375 473.633 233.558 474.973 238.727C475.392 240.349 475.145 242.013 473.44 242.734C470.725 243.882 470.237 245.772 470.945 248.371C472.024 252.33 472.876 256.365 474.134 260.262C474.691 261.988 475.695 263.637 478.28 263.273C480.273 262.991 481.483 264.167 481.999 266.297C483.649 273.095 485.209 279.914 486.839 286.719C487.615 289.957 488.509 293.167 489.265 296.404C489.588 297.786 489.698 299.222 489.884 300.46C485.594 303.525 485.663 303.512 486.839 308.44C487.382 310.702 487.553 313.052 487.98 315.341C488.633 318.812 489.368 322.27 490.083 325.824C491.231 325.604 492.091 325.288 492.929 325.322C493.644 325.356 494.682 325.59 494.985 326.092C496.064 327.865 497.212 329.7 497.735 331.673C498.477 334.45 497.934 335.041 494.538 336.581C494.421 336.354 494.215 335.956 494.009 335.557C492.606 332.862 490.867 330.876 487.382 330.869C485.601 330.869 484.185 329.659 483.931 327.46C483.511 323.823 483.003 320.18 482.274 316.592C481.394 312.255 480.321 307.952 479.201 303.67C478.713 301.8 478.747 300.253 480.425 299.25C482.542 297.985 482.597 295.999 482.24 294.301C480.487 286.011 478.459 277.77 476.602 269.837C476.004 269.487 475.819 269.281 475.64 269.281C469.941 269.232 469.57 268.834 468.332 263.328C466.992 257.389 465.534 251.471 463.946 245.601C463.438 243.71 463.775 242.239 465.115 241.078C467.129 239.325 467.212 237.366 467.012 234.802C466.545 228.705 463.747 223.234 462.874 217.281C462.84 217.034 462.503 216.827 462.015 216.271C461.121 219.171 460.179 221.721 459.554 224.354C457.979 230.953 456.419 237.565 455.113 244.226C454.04 249.67 453.703 255.272 452.39 260.647C451.002 266.359 453.71 270.786 455.958 275.412C457.196 277.969 459.038 280.23 460.269 282.794C460.688 283.667 460.268 285.131 459.856 286.169C457.56 291.95 455.009 297.635 452.872 303.47C452.26 305.134 452.521 307.23 452.782 309.072C453.896 316.991 455.113 324.896 456.384 332.794C457.354 338.815 458.577 344.802 459.471 350.837C460.337 356.673 460.908 362.543 461.657 368.399C461.967 370.819 462.468 373.211 462.771 375.631C463.541 381.81 464.221 388.003 464.991 394.183C465.479 398.101 464.318 400.135 460.901 402.019C457.457 403.923 455.078 406.727 454.796 410.906C454.728 411.896 454.171 412.982 454.432 413.841C456.384 420.248 454.673 426.977 456.254 433.418C456.982 436.394 455.773 439.618 457.429 442.587C457.746 443.158 456.941 444.828 456.199 445.447C452.782 448.272 451.174 452.204 449.537 456.067C448.774 457.868 447.681 458.802 445.901 459.036C443.914 459.29 441.9 459.339 439.913 459.586C437.486 459.888 435.087 460.397 432.66 460.665C430.344 460.919 427.883 461.483 425.71 460.961C424.115 460.576 422.3 458.919 421.627 457.38C420.19 454.087 417.928 451.578 415.515 449.097C414.814 448.375 414.058 447.701 413.391 446.952C410.064 443.206 408.71 439.364 410.634 434.133C412.573 428.854 413.274 423.114 414.436 417.56C414.608 416.735 414.553 415.725 414.23 414.962C411.803 409.339 409.28 403.758 406.833 398.279C404.351 398.279 402.055 398.355 399.773 398.259C397.525 398.156 396.28 396.994 396.445 394.595C396.473 394.224 396.26 393.846 395.854 393.406C395.73 396.252 394.479 398.231 391.888 399.276C392.417 403.84 393.166 408.233 393.331 412.639C393.407 414.611 392.699 416.873 391.654 418.584C388.657 423.492 387.88 429.046 386.47 434.428C385.584 437.838 387.433 440.56 389.571 442.477C393.737 446.21 394.548 450.987 395.126 456.012C395.277 457.331 395.483 458.644 395.675 459.957C396.026 462.384 396.342 464.714 395.476 467.209C394.761 469.264 394.947 471.615 394.576 473.808C393.661 479.293 392.561 484.751 391.736 490.25C391.207 493.762 391.118 497.343 390.691 500.876C390.293 504.196 389.825 507.516 389.186 510.795C388.443 514.589 388.767 515.847 392.059 517.676C395.682 519.69 397.181 522.7 397.016 526.721C396.83 531.182 396.769 535.65 396.48 540.111C396.329 542.49 397.195 544.401 398.302 546.401C400.776 550.883 402.846 555.426 402.66 560.849C402.578 563.276 402.88 565.455 400.859 567.201C399.14 568.685 397.373 569.95 394.967 570.088C392.768 570.211 390.588 570.583 388.388 570.768C387.055 570.878 386.037 571.167 385.735 572.741C385.46 574.157 384.814 575.497 384.539 576.906C384.112 579.065 382.896 580.309 380.737 580.481C378.414 580.666 376.049 580.969 373.746 580.749C364.706 579.896 355.741 580.192 346.825 581.931C345.079 582.275 343.292 582.453 341.511 582.605C339.304 582.79 338.321 582.33 337.943 580.123C337.311 576.411 336.733 572.624 336.823 568.885C336.885 566.28 338.885 564.114 341.181 562.932C347.162 559.853 351.342 555.062 354.573 549.377C355.46 547.81 355.563 545.81 356.099 544.023C356.573 542.442 356.979 540.813 357.714 539.355C358.842 537.121 359.027 534.887 358.395 532.537C357.398 528.818 357.233 525.051 357.721 521.25C358.031 518.837 358.856 516.596 360.993 515.284C363.255 513.895 363.358 511.97 362.946 509.764C361.66 502.87 360.512 495.941 359.027 489.088C358.209 485.294 356.814 481.623 355.7 477.898C355.164 476.09 354.696 474.261 354.146 472.46C351.569 464.075 350.187 455.283 345.67 447.564C344.694 445.894 345.086 444.436 345.89 442.835C346.818 440.965 347.568 438.992 348.262 437.013C348.853 435.336 349.266 433.59 349.747 431.871C350.565 428.943 350.276 425.974 350.166 422.984C349.905 416.048 347.726 409.511 346.351 402.417C343.642 402.019 340.906 401.661 338.191 401.214C335.565 400.781 332.932 400.341 330.34 399.757C328.498 399.338 327.48 398.218 327.845 396.114C328.181 394.162 328.353 392.176 328.559 390.203C329.226 383.872 328.786 377.569 328.353 371.245C328.065 367.045 328.477 362.797 328.271 358.584C328.099 355.037 327.46 351.511 327.068 347.964C326.456 342.444 325.988 336.904 325.232 331.405C324.675 327.336 323.816 323.301 322.97 319.273C322.524 317.17 322.462 315.169 322.854 313.018C323.424 309.863 324.057 306.577 323.706 303.45C323.376 300.453 322.317 297.277 320.695 294.755C318.935 292.019 318.358 288.994 317.292 286.107C316.997 285.31 317.567 283.908 318.179 283.124C320.489 280.155 321.767 276.8 322.771 273.212C324.998 265.266 324.971 257.148 325.102 249.01C325.205 242.789 325.796 236.582 325.844 230.362C325.899 223.57 325.583 216.779 325.411 209.981C325.411 209.823 325.15 209.672 325.012 209.514C324.813 209.548 324.49 209.507 324.421 209.617C321.328 214.738 318.695 220.085 316.783 225.756C316.405 226.877 316.247 228.224 316.481 229.358C317.017 231.956 317.753 234.527 318.619 237.029C319.251 238.871 319.19 240.37 317.87 241.903C313.594 246.879 310.961 252.66 309.689 259.094C309.476 260.18 308.953 261.204 308.685 262.283C306.513 271.081 304.382 279.894 302.182 288.685C301.879 289.888 301.955 290.816 302.849 291.723C304.946 293.861 306.987 296.061 309.235 298.432C308.747 299.649 308.438 300.975 307.743 302.061C304.533 307.052 302.746 312.599 301.034 318.214C300.099 321.266 298.648 324.16 297.356 327.095C297.095 327.68 296.565 328.195 296.057 328.614C294.922 329.542 293.699 329.838 292.434 328.8C291.272 327.851 290.88 326.855 291.568 325.308C293.871 320.16 296.057 314.963 298.208 309.753C299.391 306.88 300.47 303.958 301.474 301.016C301.687 300.384 301.646 299.353 301.261 298.879C300.168 297.518 298.917 296.246 297.576 295.119C296.497 294.211 295.197 293.558 294.001 292.802C294.469 291.139 294.661 289.668 295.28 288.41C298.353 282.128 299.391 275.288 301.034 268.6C302.512 262.572 304.664 256.709 306.348 250.722C307.441 246.845 308.431 243.009 311.353 239.985C312.927 238.356 311.586 236.335 311.717 234.506C311.765 233.888 311.057 233.187 311.174 232.616C311.765 229.695 307.29 227.75 309.881 224.313C311.586 222.058 312.501 219.219 313.82 216.669C315.814 212.827 317.849 208.998 319.877 205.176C321.541 202.035 323.149 198.853 324.93 195.78C325.514 194.763 326.408 193.656 327.432 193.216C330.203 192.02 332.746 194.013 332.361 197.072C331.22 206.056 331.467 215.054 331.612 224.079C331.722 230.877 331.137 237.682 330.945 244.487C330.787 250.261 330.787 256.042 330.656 261.816C330.512 268.304 329.467 274.642 327.02 280.684C326.401 282.21 325.487 283.619 324.641 285.035C324.009 286.094 323.926 287.111 324.517 288.183C326.174 291.201 327.893 294.191 329.453 297.263C330.031 298.398 330.601 299.745 330.539 300.961C330.333 305.024 329.742 309.072 329.488 313.135C329.199 317.809 330.395 322.346 330.952 326.944C331.859 334.533 332.753 342.121 333.365 349.737C334.148 359.505 334.74 369.286 335.228 379.074C335.427 383.068 335.111 387.089 335.077 391.096C335.07 392.182 335.214 393.268 335.303 394.65L335.393 394.657Z" fill="#FF6525"/>
<path d="M1446.34 572.493C1432.48 572.493 1108.62 572.493 1094.76 572.48C1079.78 572.459 1064.79 572.363 1049.81 572.397C1030.92 572.438 1012.03 572.624 993.14 572.672C979.171 572.707 965.195 572.542 951.226 572.597C937.587 572.652 923.955 572.954 910.316 573.009C903.73 573.037 897.144 572.658 890.552 572.631C871.33 572.542 852.102 572.542 832.881 572.493C814.437 572.445 795.993 572.335 777.541 572.342C764.136 572.342 750.738 572.452 737.332 572.597C724.931 572.727 712.529 573.03 700.12 573.126C691.74 573.188 683.36 572.947 674.98 572.982C658.44 573.05 641.9 573.208 625.36 573.332C613.962 573.421 602.571 573.524 591.173 573.621C580.222 573.717 569.264 573.923 558.313 573.861C554.305 573.841 550.421 574.081 546.585 575.312C545.76 575.573 544.55 575.38 543.787 574.934C541.456 573.559 539.827 571.332 539.793 568.706C539.69 560.911 537.751 553.46 536.163 545.927C534.142 536.324 532.238 526.694 530.258 517.085C528.347 507.805 526.312 498.546 524.504 489.239C523.122 482.132 522.077 474.956 520.744 467.834C518.956 458.301 516.963 448.801 515.182 439.267C513.752 431.617 512.528 423.932 511.188 416.268C509.676 407.607 508.177 398.946 506.589 390.299C504.781 380.463 502.842 370.647 501.014 360.818C499.687 353.703 498.436 346.575 497.178 339.447C496.676 336.615 496.167 333.783 495.844 330.931C495.741 330.058 495.954 328.869 496.511 328.264C498.064 326.559 499.872 325.088 501.584 323.521C502.224 322.937 502.897 322.373 503.509 321.768C505.812 319.493 506.548 316.936 505.633 313.664C504.925 311.128 505.654 308.007 504.478 305.835C503.378 303.814 500.546 302.769 498.58 301.168C497.033 299.91 495.651 298.446 494.717 297.573C494.187 291.036 493.837 285.056 493.17 279.117C492.647 274.443 493.184 270.023 495.088 265.747C495.865 264.015 496.593 262.263 497.294 260.496C498.326 257.918 498.168 255.293 497.583 252.632C496.82 249.168 496.105 245.69 495.452 242.198C495.191 240.796 494.827 239.703 493.239 239.242C490.606 238.479 489.361 236.534 488.969 233.867C488.268 229.035 487.656 224.175 486.639 219.405C485.154 212.449 483.319 205.575 479.613 199.368C479.221 198.708 479.07 197.904 478.651 197.265C477.75 195.904 478.245 194.921 479.407 194.144C481.799 192.536 484.226 190.982 486.914 189.229C486.735 188.226 486.646 187.133 486.35 186.109C485.264 182.369 484.178 178.623 482.961 174.925C481.676 171.007 480.149 167.172 478.905 163.247C477.4 158.483 476.114 153.658 474.691 148.867C473.234 143.959 471.728 139.072 470.229 134.178C468.339 128.012 466.455 121.846 464.524 115.694C463.657 112.945 462.668 110.237 461.877 107.927C456.35 105.212 450.871 106.078 445.584 105.638C440.339 105.198 435.231 104.353 430.227 102.738C428.982 102.339 427.614 102.256 426.294 102.167C423.923 102.009 422.06 101.184 420.864 98.9708C419.75 96.9086 418.506 94.9084 417.199 92.97C416.058 91.2791 416.044 89.7531 417.089 88.0003C419.062 84.701 420.107 81.051 420.547 77.2499C420.685 76.0607 420.575 74.8372 420.499 73.6343C420.314 70.7198 420.836 69.9362 423.661 69.077C428.59 67.5717 428.467 67.5579 429.161 62.272C429.869 56.8556 430.763 51.4528 431.746 46.0776C432.152 43.878 432.117 42.2696 429.821 41.0392C428.838 40.5099 428.041 39.0252 427.793 37.836C426.721 32.7082 426.013 27.5049 424.913 22.3839C424.143 18.8096 423.001 15.3109 421.908 11.8122C421.228 9.63322 419.606 8.66403 417.303 8.79463C410.868 9.15206 404.427 8.33409 397.978 8.9046C395.448 9.13144 392.836 8.90461 390.306 8.58841C386.917 8.15537 384.03 8.56092 381.555 11.2898C378.805 14.328 375.636 16.9812 372.852 19.9919C371.518 21.4354 370.604 23.2913 369.607 25.0234C369.373 25.4221 369.531 26.0889 369.607 26.6181C370.157 30.3574 370.741 34.0967 371.312 37.8292C371.394 38.3791 371.415 38.9427 371.539 39.4788C371.828 40.7367 372.756 42.2627 372.329 43.1632C371.614 44.6754 370.26 46.1738 368.789 46.9781C366.85 48.0366 366.417 49.4113 366.5 51.3429C366.637 54.4566 366.582 57.5773 366.809 60.6842C366.933 62.437 367.703 63.8667 369.834 64.0798C370.563 64.1486 371.229 64.7535 371.938 65.0834C373.484 65.7983 373.993 66.8774 373.622 68.6096C372.598 73.4006 371.704 78.219 370.762 83.0306C370.679 83.4637 370.473 83.8967 370.494 84.3229C370.57 85.897 370.913 87.7666 369.318 88.5846C367.387 89.5744 365.207 90.4474 363.069 90.6261C356.862 91.1485 350.592 90.9835 344.419 91.7328C340.872 92.1589 337.042 92.2414 333.88 94.4822C333.523 94.7366 332.993 94.7847 332.698 95.0734C327.961 99.6994 321.932 102.497 316.728 106.449C313.717 108.738 310.857 111.261 308.128 113.887C307.056 114.918 306.382 116.444 305.777 117.853C303.79 122.431 301.9 127.05 300.009 131.669C299.336 133.312 298.806 135.003 298.167 136.659C296.249 141.643 294.345 146.626 292.379 151.589C290.014 157.562 287.587 163.515 285.215 169.488C284.17 172.121 284.418 172.691 286.92 173.929C288.02 174.472 289.134 175.001 290.261 175.489C292.819 176.589 293.485 177.757 292.468 180.335C291.169 183.62 290.784 187.202 288.914 190.322C288.22 191.484 288.405 193.147 288.041 194.543C286.748 199.485 285.38 204.4 284.074 209.335C283.621 211.047 283.16 212.779 282.899 214.525C282.397 217.913 282.129 221.343 281.551 224.718C281.379 225.729 280.678 226.815 279.908 227.537C276.56 230.705 275.57 234.548 275.839 239.036C275.997 241.669 275.474 244.343 275.254 246.996C274.78 252.818 274.361 258.64 273.831 264.455C273.295 270.298 273.542 276.147 273.357 281.997C273.281 284.286 273.109 286.575 272.958 289.324C272.236 290.321 271.301 291.565 269.15 291.799C266.723 292.06 265.348 293.992 265.259 296.528C265.052 301.993 264.881 307.457 264.764 312.922C264.75 313.63 264.984 314.523 265.444 315.032C268.194 318.091 271.075 320.93 275.117 322.421C276.65 322.985 277.805 324.58 279.173 325.741C278.513 327.116 277.922 328.188 277.468 329.315C276.938 330.628 276.478 331.983 276.065 333.337C275.784 334.271 275.646 335.254 275.412 336.203C274.959 338.038 274.443 339.853 274.01 341.688C272.635 347.517 271.198 353.339 269.947 359.195C269.115 363.1 268.73 367.093 267.843 370.984C266.194 378.243 264.138 385.419 262.591 392.698C260.618 401.943 259.092 411.284 257.147 420.536C255.889 426.523 254.239 432.421 252.747 438.353C250.96 445.481 249.413 452.644 248.148 459.888C246.966 466.673 244.944 473.306 243.439 480.042C241.865 487.081 240.476 494.154 238.984 501.213C237.719 507.193 236.427 513.167 235.162 519.14C234.818 520.748 234.605 522.391 234.193 523.979C232.557 530.33 230.68 536.62 229.264 543.012C228.15 548.016 227.607 553.144 226.754 558.203C226.459 559.963 225.888 561.674 225.655 563.434C225.386 565.4 225.118 567.421 225.276 569.38C225.613 573.586 222.946 576.446 218.711 575.972C209.334 574.927 199.971 575.903 190.608 576.04C180.894 576.185 171.181 576.356 161.467 576.515C153.087 576.652 144.707 576.81 136.327 576.92C128.621 577.023 120.914 577.003 113.215 577.161C105.625 577.319 98.0496 577.683 90.4601 577.841C87.0022 577.917 83.5306 577.662 80.0658 577.669C72.9232 577.69 65.7806 577.724 58.6379 577.862C52.499 577.979 46.36 578.281 40.2211 578.446C37.8769 578.508 35.5327 578.425 33.1816 578.412C24.0316 578.364 14.9022 577.896 5.73848 578.783C-0.00862312 579.333 -5.83824 578.886 -11.6335 579.03C-18.1024 579.195 -24.5644 579.608 -31.0334 579.766C-35.275 579.869 -39.5234 579.697 -43.7719 579.67C-47.7797 579.642 -51.7876 579.642 -55.7954 579.642C-59.0333 579.642 -62.285 579.814 -65.516 579.642C-72.9061 579.264 -80.2481 579.567 -87.5763 580.598C-94.2309 581.532 -100.885 581.904 -107.588 580.859C-109.21 580.604 -110.922 580.928 -112.593 580.934C-117.817 580.955 -123.049 580.866 -128.274 580.976C-135.299 581.12 -142.325 581.443 -149.351 581.635C-152.926 581.732 -156.5 581.636 -160.068 581.745C-164.605 581.89 -169.136 582.165 -173.673 582.385C-174.34 582.419 -175.007 582.563 -175.667 582.508C-177.516 582.35 -178.746 581.306 -179.021 579.773C-179.303 578.185 -178.602 577.009 -176.629 576.253C-175.233 575.717 -173.852 574.94 -172.236 576.15C-171.569 576.652 -170.311 576.418 -169.321 576.453C-164.867 576.597 -160.412 576.714 -155.957 576.844C-155.847 576.844 -155.73 576.872 -155.62 576.858C-149.976 576.288 -144.319 577.003 -138.627 576.253C-133.134 575.525 -127.476 575.985 -121.894 575.93C-118.326 575.896 -114.751 575.868 -111.183 575.855C-109.506 575.855 -107.794 575.662 -106.158 575.93C-100.679 576.831 -95.2414 576.226 -89.7831 575.807C-83.6647 575.332 -77.5464 574.776 -71.4143 574.624C-63.378 574.418 -55.3211 574.246 -47.3054 574.666C-39.3584 575.078 -31.4665 574.576 -23.547 574.432C-14.4039 574.267 -5.2539 574.239 3.88922 574.068C6.45342 574.019 9.00386 573.538 11.5681 573.49C18.5869 573.346 25.6402 572.858 32.6179 573.373C42.579 574.109 52.444 572.679 62.3777 572.968C72.1945 573.256 82.0251 573.009 91.8488 572.913C96.0903 572.872 100.325 572.528 104.567 572.48C114.383 572.37 124.207 572.404 134.024 572.294C145.518 572.164 157.019 571.957 168.513 571.758C176.316 571.627 184.119 571.504 191.921 571.284C198.706 571.091 205.485 570.768 212.27 570.507C212.49 570.5 212.717 570.493 212.937 570.452C218.725 569.373 218.78 569.957 219.687 563.812C219.736 563.482 219.811 563.152 219.873 562.822C221.379 555.179 222.795 547.521 224.431 539.905C225.455 535.135 226.871 530.454 227.999 525.704C229.209 520.604 230.35 515.49 231.422 510.355C233.175 501.962 234.777 493.535 236.558 485.149C238.297 476.983 240.167 468.845 241.995 460.693C244.14 451.138 246.051 441.515 248.547 432.05C250.54 424.503 251.805 416.831 253.379 409.209C255.05 401.139 256.995 393.124 258.865 385.096C260.199 379.363 262.083 373.713 262.853 367.911C263.657 361.794 265.403 355.965 266.826 350.033C267.087 348.954 267.108 347.82 267.328 346.727C267.823 344.225 268.442 341.743 268.888 339.227C269.37 336.512 270.057 333.77 270.016 331.048C269.968 328.037 267.892 325.741 265.912 323.638C264.392 322.022 262.701 320.49 260.866 319.252C258.673 317.775 258.24 315.802 258.494 313.458C259.085 308.028 259.759 302.597 260.268 297.16C260.46 295.084 260.398 292.967 260.295 290.871C260.075 286.534 260.632 285.887 265.066 285.736C265.616 285.716 266.159 285.688 266.737 285.661C268.517 282.952 267.871 279.949 268.029 277.123C268.49 268.896 268.751 260.661 269.088 252.426C269.225 249.086 269.308 245.738 269.535 242.404C269.823 238.211 270.188 234.012 270.641 229.832C270.717 229.159 271.336 228.458 271.872 227.949C275.041 224.931 276.189 221.213 276.698 216.91C277.289 211.954 278.643 207.074 279.86 202.214C281.263 196.605 282.851 191.037 284.411 185.476C284.83 183.985 285.463 182.555 286.068 180.898C282.94 178.912 278.705 179.586 275.825 176.348C276.993 174.176 278.196 171.97 279.372 169.749C279.895 168.766 280.403 167.763 280.829 166.732C283.765 159.624 286.728 152.531 289.581 145.389C291.98 139.388 294.345 133.367 296.531 127.29C298.332 122.279 299.762 117.138 301.556 112.134C301.962 111.007 303.082 110.044 304.072 109.24C305.53 108.058 307.18 107.116 308.713 106.023C313.676 102.476 318.605 98.8883 323.575 95.3621C326.923 92.9838 330.484 90.9217 333.399 87.9385C334.478 86.8318 335.874 86.2544 337.62 86.2819C341.621 86.3438 345.629 86.2338 349.623 85.9726C352.95 85.7526 356.257 85.1615 359.584 84.8522C363.97 84.4466 364.712 83.8142 365.441 79.5457C365.723 77.896 366.156 76.2738 366.438 74.6241C366.85 72.1839 366.534 71.2491 364.376 70.2799C362.107 69.2626 361.413 67.6198 361.323 65.3034C361.138 60.3955 360.794 55.5014 360.505 50.6005C360.485 50.2637 360.478 49.9269 360.423 49.5969C359.577 44.421 359.563 44.3935 364.382 41.809C365.53 41.1904 366.067 40.3587 365.854 39.1145C365.365 36.2757 365.022 33.3956 364.245 30.6324C363.331 27.3949 362.581 24.0749 364.891 21.3735C367.442 18.3834 368.816 14.596 372.171 12.094C374.378 10.4512 375.718 7.63984 377.451 5.35777C378.867 3.495 380.792 2.0309 383.081 2.47082C390.416 3.8868 397.772 2.64953 405.107 3.04133C407.781 3.18568 410.49 3.50187 413.13 3.2063C415.79 2.90386 418.396 2.62204 421.077 2.80763C423.723 2.98634 425.174 4.25798 426.398 6.62254C430.02 13.6406 430.728 21.3391 432.069 28.9002C432.323 30.3299 432.688 31.7391 432.915 33.1688C433.258 35.3271 434.386 36.7569 436.372 37.7398C438.964 39.0183 439.143 40.0081 438.215 42.8263C437.624 44.6135 437.287 46.49 436.936 48.3459C435.678 55.034 434.358 61.7153 434.448 68.5752C434.454 69.3451 434.228 70.1218 434.076 71.1254C432.832 71.6547 431.519 72.232 430.192 72.7819C427.827 73.758 426.343 75.3665 426.178 78.0472C426.04 80.2674 425.923 82.5014 425.593 84.701C425.401 85.9795 424.926 87.2649 424.356 88.4403C422.397 92.4889 423.847 95.7745 428.274 96.7643C433.595 97.9466 438.758 99.8437 444.278 100.091C447.956 100.256 451.627 100.531 455.298 100.772C458.082 100.95 460.866 101.122 463.644 101.356C465.754 101.528 467.047 102.854 467.438 104.923C467.961 107.652 468.387 110.422 469.191 113.076C471.756 121.489 474.505 129.847 477.131 138.247C478.225 141.746 479.166 145.293 480.211 148.812C481.641 153.603 483.03 158.401 484.57 163.151C486.082 167.811 487.684 172.444 489.409 177.035C490.736 180.569 492.214 184.06 493.816 187.483C494.833 189.662 494.668 190.852 492.62 192.247C490.867 193.436 489.128 194.646 487.381 195.849C486.22 196.646 485.773 197.712 486.316 199.038C487.835 202.75 489.141 206.585 491.066 210.077C492.029 211.823 492.778 213.397 492.613 215.322C492.331 218.69 492.647 221.948 493.692 225.186C494.263 226.966 494.455 228.877 494.765 230.733C495.04 232.382 495.528 233.551 497.542 233.895C499.639 234.252 500.402 235.977 500.718 238.081C501.598 243.917 502.492 249.766 503.763 255.526C504.327 258.076 503.887 260.104 502.574 262.153C502.223 262.702 501.742 263.225 501.557 263.83C500.574 267.067 499.721 270.373 498.958 273.638C498.243 276.697 498.786 280.086 499.027 283.31C499.226 286.08 499.762 288.829 500.182 291.586C500.581 294.232 501.591 296.466 504.19 297.724C505.688 298.453 507.104 299.367 508.541 300.226C509.971 301.085 510.679 302.274 510.879 304.02C511.408 308.536 512.061 313.052 512.9 317.52C513.278 319.52 512.948 320.868 511.305 322.16C509.119 323.885 507.07 325.81 505.138 327.817C504.176 328.814 503.66 330.223 502.856 331.391C501.962 332.684 502.175 333.873 502.938 335.11C503.674 336.292 503.516 337.509 503.42 338.891C503.234 341.613 503.509 344.403 503.922 347.112C504.925 353.607 506.073 360.089 507.249 366.557C509.6 379.494 512.013 392.423 514.391 405.352C516.364 416.089 518.269 426.84 520.31 437.563C521.417 443.364 522.792 449.11 523.954 454.905C524.655 458.397 525.122 461.937 525.776 465.442C526.649 470.137 527.639 474.804 528.505 479.506C530.237 488.944 531.846 498.402 533.64 507.819C534.554 512.637 535.799 517.394 536.837 522.192C538.507 529.931 540.102 537.685 541.78 545.425C543.292 552.395 544.873 559.351 546.461 566.307C546.653 567.146 547.052 567.936 547.499 569.132C554.58 569.132 561.592 569.153 568.611 569.132C575.753 569.105 582.896 569.057 590.046 568.953C603.554 568.761 617.062 568.493 630.571 568.321C637.473 568.232 644.382 568.335 651.284 568.287C663.679 568.197 676.073 568.074 688.461 567.929C702.966 567.757 717.472 567.483 731.977 567.373C748.854 567.242 765.738 567.242 782.615 567.194C793.009 567.166 803.403 567.118 813.798 567.153C835.026 567.228 856.255 567.366 877.483 567.441C884.976 567.469 892.47 567.379 899.956 567.386C912.915 567.4 925.873 567.469 938.825 567.476C947.425 567.476 956.025 567.393 964.625 567.379C978.924 567.352 993.23 567.379 1007.53 567.338C1015.69 567.311 1023.84 567.159 1032 567.132C1053.35 567.07 1074.7 567.029 1096.05 567.022C1109.46 567.022 1432.88 567.091 1446.3 567.132V572.5L1446.34 572.493Z" fill="black"/>
<path d="M328.304 397.021C331.487 397.372 334.244 397.798 337.014 397.929C338.54 398.004 340.087 397.592 341.62 397.379C343.909 397.062 345.786 398.362 345.751 400.561C345.683 405.167 346.494 409.614 347.752 414.006C348.577 416.886 349.56 419.725 350.247 422.633C351.038 425.973 350.296 429.231 349.333 432.462C348.061 436.731 346.886 441.034 345.703 445.33C345.064 447.639 346.081 449.77 346.803 451.798C349.079 458.204 351.279 464.603 352.633 471.285C353.135 473.773 354.186 476.165 355.142 478.537C357.287 483.85 358.552 489.335 359.246 495.02C359.693 498.656 360.793 502.216 361.57 505.818C362.23 508.863 362.821 511.915 363.501 514.953C363.831 516.431 363.44 517.586 362.285 518.528C362.113 518.672 361.948 518.823 361.783 518.968C356.517 523.545 355.788 529.209 358.256 535.355C359.452 538.331 359.5 540.833 357.651 543.527C356.111 545.761 355.458 548.511 355.575 551.137C355.678 553.364 354.764 554.78 353.423 556.12C350.9 558.636 348.639 561.303 346.528 564.21C344.844 566.527 341.805 567.853 339.365 569.62C338.554 570.204 337.646 570.692 336.959 571.4C335.735 572.658 335.66 576.157 336.959 577.25C337.605 577.786 338.808 577.923 339.722 577.834C343.38 577.477 347.009 576.844 350.667 576.549C354.104 576.267 357.569 576.274 361.027 576.157C363.701 576.061 366.375 576.067 369.042 575.841C371.916 575.6 372.184 575.25 372.796 572.528C373.091 571.222 373.305 569.888 373.751 568.637C374.563 566.376 375.986 565.833 378.392 566.197C380.461 566.506 382.606 566.678 384.682 566.506C388.112 566.231 389.625 563.935 388.917 560.492C388.202 557 387.459 553.563 384.723 550.875C382.558 548.745 382.716 546.139 383.087 543.142C383.671 538.427 383.438 533.574 383.169 528.797C383.011 526.013 381.258 524.095 378.323 523.566C377.663 523.449 377.003 523.271 376.391 523.023C374.095 522.095 373.284 520.5 374.233 518.205C376.872 511.812 377.326 505.035 378.089 498.285C378.44 495.198 379.01 492.133 379.498 489.053C380.2 484.654 381.114 480.282 381.575 475.863C382.001 471.78 382.042 467.649 382.063 463.538C382.07 461.428 381.808 459.29 381.389 457.221C381.038 455.51 380.585 453.674 379.636 452.251C377.615 449.193 375.374 446.244 372.954 443.481C371.916 442.291 371.586 441.267 371.985 439.886C373.648 434.105 375.319 428.324 376.996 422.55C377.766 419.904 378.749 417.299 379.327 414.611C380.048 411.257 379.244 407.964 378.213 404.761C377.835 403.592 377.34 402.465 376.962 401.304C375.896 398.018 376.804 396.128 380.097 395.296C381.52 394.938 382.214 394.279 382.448 392.904C382.709 391.371 382.97 389.831 383.389 388.34C384.847 383.129 384.338 377.981 383.169 372.812C382.702 370.75 382.365 368.695 383.534 366.646C384.428 365.079 385.589 364.44 387.356 364.543C389.013 364.646 389.755 365.725 390.085 367.066C390.725 369.65 391.158 372.283 391.756 374.874C392.127 376.489 392.691 378.057 393.103 379.658C394.279 384.264 395.42 388.883 396.685 393.928C397.688 393.797 398.96 393.681 400.218 393.461C402.507 393.055 403.937 393.962 405.01 395.983C408.337 402.266 410.228 409.27 414.524 415.058C415.48 416.343 415.239 417.567 414.744 418.845C412.345 425.114 411.231 431.658 410.083 438.25C409.361 442.381 411.101 444.718 413.431 447.296C415.83 449.942 418.209 452.602 420.464 455.365C421.247 456.328 422.031 456.939 423.255 456.816C425.015 456.637 426.768 456.417 428.521 456.183C430.281 455.949 432.034 455.675 433.787 455.42C435.815 455.132 437.561 454.547 438.578 452.465C439.898 449.763 441.837 447.309 442.785 444.505C443.576 442.168 443.487 439.48 443.487 436.951C443.487 433.5 443.335 430.036 442.992 426.599C442.517 421.842 441.947 417.086 441.115 412.384C440.792 410.542 440.909 409.208 442.229 407.847C444.937 405.063 447.653 402.266 450.093 399.255C450.897 398.265 451.138 396.602 451.152 395.241C451.227 389.439 451.097 383.645 450.114 377.885C449.172 372.413 448.649 366.866 447.742 361.388C446.346 352.961 444.71 344.575 443.315 336.148C442.098 328.813 441.074 321.452 439.974 314.097C439.926 313.767 440.036 313.389 439.912 313.1C437.279 306.962 440.599 301.903 442.799 296.603C444.03 293.634 445.109 290.589 446.058 287.523C446.312 286.698 446.023 285.557 445.645 284.712C443.844 280.649 441.947 276.628 440.042 272.614C439.712 271.927 439.314 271.095 438.709 270.744C437.244 269.892 437.416 268.455 437.327 267.225C437.251 266.173 437.375 264.75 438.021 264.07C439.884 262.125 440.207 259.712 440.51 257.327C441.651 248.199 443.603 239.235 445.817 230.32C447.103 225.165 448.512 220.044 449.811 214.889C450.299 212.957 450.554 210.964 451.028 209.032C451.818 205.822 457.242 203.849 459.745 205.946C460.391 206.489 460.694 207.692 460.755 208.62C461.161 214.394 461.965 220.071 463.684 225.639C465.258 230.739 466.544 235.922 467.884 241.091C468.304 242.713 468.056 244.377 466.351 245.099C463.636 246.246 463.148 248.137 463.856 250.735C464.935 254.694 465.788 258.729 467.046 262.627C467.602 264.352 468.606 266.002 471.191 265.637C473.185 265.355 474.394 266.531 474.91 268.662C476.56 275.46 478.12 282.278 479.75 289.083C480.526 292.321 481.42 295.531 482.176 298.768C482.499 300.15 482.609 301.587 482.795 302.824C478.505 305.89 478.574 305.876 479.75 310.804C480.293 313.066 480.465 315.417 480.891 317.706C481.544 321.177 482.28 324.634 482.994 328.188C484.142 327.968 485.002 327.652 485.841 327.686C486.555 327.721 487.594 327.954 487.896 328.456C488.975 330.229 490.123 332.065 490.646 334.037C491.388 336.814 490.845 337.406 487.449 338.945C487.332 338.718 487.126 338.32 486.92 337.921C485.517 335.227 483.778 333.24 480.293 333.233C478.512 333.233 477.096 332.023 476.842 329.824C476.422 326.188 475.914 322.545 475.185 318.957C474.305 314.619 473.233 310.316 472.112 306.034C471.624 304.164 471.658 302.618 473.336 301.614C475.453 300.349 475.508 298.363 475.151 296.665C473.398 288.375 471.37 280.134 469.514 272.202C468.915 271.851 468.73 271.645 468.551 271.645C462.852 271.597 462.481 271.198 461.243 265.692C459.903 259.753 458.446 253.835 456.857 247.965C456.349 246.075 456.686 244.604 458.026 243.442C460.04 241.689 460.123 239.73 459.924 237.166C459.456 231.069 456.658 225.598 455.785 219.645C455.751 219.398 455.414 219.192 454.926 218.635C454.032 221.536 453.09 224.086 452.465 226.718C450.89 233.317 449.33 239.93 448.024 246.59C446.951 252.034 446.614 257.636 445.301 263.011C443.913 268.724 446.621 273.15 448.869 277.776C450.107 280.333 451.949 282.595 453.18 285.159C453.599 286.031 453.18 287.496 452.767 288.534C450.471 294.314 447.921 299.999 445.783 305.835C445.171 307.498 445.432 309.595 445.693 311.437C446.807 319.355 448.024 327.26 449.296 335.158C450.265 341.179 451.488 347.166 452.382 353.201C453.248 359.037 453.819 364.907 454.568 370.764C454.878 373.183 455.379 375.575 455.682 377.995C456.452 384.174 457.132 390.367 457.902 396.547C458.391 400.465 457.229 402.5 453.812 404.383C450.368 406.287 447.989 409.091 447.707 413.271C447.639 414.26 447.082 415.346 447.343 416.206C449.296 422.612 447.584 429.341 449.165 435.782C449.894 438.758 448.684 441.982 450.34 444.952C450.657 445.522 449.852 447.192 449.11 447.811C445.693 450.636 444.085 454.568 442.449 458.431C441.685 460.232 440.592 461.167 438.812 461.4C436.825 461.655 434.811 461.703 432.824 461.95C430.397 462.253 427.998 462.761 425.572 463.029C423.255 463.284 420.794 463.847 418.621 463.325C417.026 462.94 415.212 461.283 414.538 459.744C413.101 456.451 410.839 453.942 408.426 451.461C407.725 450.739 406.969 450.066 406.302 449.316C402.975 445.57 401.621 441.728 403.546 436.497C405.484 431.218 406.185 425.478 407.347 419.924C407.519 419.1 407.464 418.089 407.141 417.326C404.714 411.703 402.191 406.122 399.744 400.644C397.262 400.644 394.966 400.719 392.684 400.623C390.436 400.52 389.192 399.358 389.357 396.959C389.384 396.588 389.171 396.21 388.765 395.77C388.642 398.616 387.39 400.596 384.799 401.64C385.328 406.204 386.077 410.597 386.242 415.003C386.318 416.976 385.61 419.237 384.565 420.949C381.568 425.856 380.791 431.41 379.382 436.792C378.495 440.202 380.344 442.924 382.482 444.842C386.648 448.574 387.459 453.351 388.037 458.376C388.188 459.696 388.394 461.009 388.587 462.321C388.937 464.748 389.253 467.078 388.387 469.573C387.672 471.628 387.858 473.979 387.487 476.172C386.572 481.657 385.472 487.115 384.648 492.614C384.118 496.126 384.029 499.708 383.603 503.241C383.204 506.561 382.736 509.881 382.097 513.159C381.355 516.954 381.678 518.211 384.971 520.04C388.593 522.054 390.092 525.065 389.927 529.086C389.742 533.547 389.68 538.015 389.391 542.476C389.24 544.854 390.106 546.765 391.213 548.765C393.687 553.247 395.757 557.79 395.571 563.214C395.489 565.64 395.791 567.819 393.77 569.565C392.051 571.05 390.285 572.314 387.879 572.452C385.679 572.576 383.499 572.947 381.3 573.132C379.966 573.242 378.949 573.531 378.646 575.105C378.371 576.521 377.725 577.862 377.45 579.271C377.024 581.429 375.807 582.673 373.648 582.845C371.325 583.031 368.96 583.333 366.657 583.113C357.617 582.261 348.652 582.556 339.736 584.295C337.99 584.639 336.203 584.818 334.422 584.969C332.216 585.155 331.232 584.694 330.854 582.488C330.222 578.776 329.644 574.988 329.734 571.249C329.796 568.644 331.796 566.479 334.092 565.296C340.073 562.217 344.253 557.426 347.484 551.741C348.371 550.174 348.474 548.174 349.01 546.387C349.484 544.806 349.89 543.177 350.625 541.72C351.753 539.486 351.939 537.252 351.306 534.901C350.309 531.182 350.144 527.415 350.632 523.614C350.942 521.202 351.767 518.961 353.905 517.648C356.166 516.259 356.269 514.335 355.857 512.128C354.571 505.234 353.423 498.305 351.939 491.452C351.12 487.658 349.725 483.987 348.611 480.262C348.075 478.454 347.608 476.626 347.058 474.825C344.48 466.439 343.098 457.647 338.581 449.928C337.605 448.258 337.997 446.801 338.801 445.199C339.729 443.329 340.479 441.357 341.173 439.377C341.764 437.7 342.177 435.954 342.658 434.235C343.476 431.307 343.187 428.338 343.077 425.348C342.816 418.412 340.637 411.875 339.262 404.782C336.553 404.383 333.817 404.026 331.102 403.579C328.476 403.146 325.843 402.706 323.251 402.121C321.409 401.702 320.391 400.582 320.756 398.478C321.093 396.526 321.264 394.54 321.471 392.567C322.137 386.236 321.697 379.933 321.264 373.609C320.976 369.41 321.388 365.162 321.182 360.948C321.01 357.401 320.371 353.875 319.979 350.328C319.367 344.809 318.9 339.268 318.143 333.769C317.587 329.7 316.727 325.665 315.882 321.637C315.435 319.534 315.373 317.534 315.765 315.382C316.335 312.227 316.968 308.942 316.617 305.814C316.287 302.817 315.229 299.641 313.606 297.119C311.846 294.383 311.269 291.359 310.203 288.472C309.908 287.674 310.478 286.272 311.09 285.488C313.4 282.519 314.679 279.165 315.682 275.577C317.91 267.631 317.882 259.513 318.013 251.374C318.116 245.154 318.707 238.947 318.755 232.726C318.81 225.935 318.494 219.143 318.322 212.345C318.322 212.187 318.061 212.036 317.923 211.878C317.724 211.912 317.401 211.871 317.332 211.981C314.239 217.102 311.606 222.45 309.695 228.121C309.316 229.241 309.158 230.588 309.392 231.722C309.928 234.321 310.664 236.891 311.53 239.393C312.163 241.236 312.101 242.734 310.781 244.267C306.505 249.243 303.872 255.024 302.6 261.458C302.387 262.544 301.864 263.568 301.596 264.647C299.424 273.446 297.293 282.258 295.093 291.049C294.791 292.252 294.866 293.18 295.76 294.087C297.857 296.225 299.898 298.425 302.146 300.796C301.658 302.013 301.349 303.339 300.655 304.426C297.444 309.416 295.657 314.963 293.945 320.579C293.01 323.631 291.56 326.524 290.267 329.46C290.006 330.044 289.477 330.559 288.968 330.979C287.834 331.907 286.61 332.202 285.345 331.164C284.183 330.216 283.791 329.219 284.479 327.672C286.782 322.524 288.968 317.327 291.12 312.117C292.302 309.244 293.381 306.323 294.385 303.381C294.598 302.748 294.557 301.717 294.172 301.243C293.079 299.882 291.828 298.61 290.487 297.483C289.408 296.576 288.109 295.923 286.912 295.167C287.38 293.503 287.572 292.032 288.191 290.774C291.264 284.492 292.302 277.652 293.945 270.964C295.423 264.936 297.575 259.073 299.259 253.086C300.352 249.209 301.342 245.374 304.264 242.349C305.838 240.72 304.497 238.699 304.628 236.871C304.676 236.252 303.968 235.551 304.085 234.98C304.676 232.059 300.201 230.114 302.793 226.677C304.497 224.422 305.412 221.584 306.732 219.033C308.725 215.191 310.76 211.362 312.788 207.541C314.452 204.399 316.06 201.217 317.841 198.144C318.425 197.127 319.319 196.02 320.343 195.58C323.114 194.384 325.657 196.378 325.272 199.437C324.131 208.42 324.379 217.418 324.523 226.443C324.633 233.241 324.049 240.046 323.856 246.851C323.698 252.625 323.698 258.406 323.567 264.18C323.423 270.669 322.378 277.006 319.931 283.048C319.312 284.574 318.398 285.983 317.552 287.399C316.92 288.458 316.837 289.475 317.428 290.548C319.085 293.565 320.804 296.555 322.364 299.628C322.942 300.762 323.512 302.109 323.45 303.326C323.244 307.388 322.653 311.437 322.399 315.499C322.11 320.173 323.306 324.71 323.863 329.308C324.77 336.897 325.664 344.485 326.276 352.102C327.06 361.869 327.651 371.65 328.139 381.439C328.338 385.432 328.022 389.453 327.988 393.461C327.981 394.547 328.125 395.633 328.215 397.014L328.304 397.021Z" fill="black"/>
</svg>
