<svg width="28" height="28" viewBox="0 0 28 28" fill="none" xmlns="http://www.w3.org/2000/svg">
<path d="M14.1643 7.62356C12.8827 7.62356 11.6298 8.00361 10.5642 8.71564C9.49857 9.42768 8.66801 10.4397 8.17755 11.6238C7.68709 12.8079 7.55877 14.1108 7.8088 15.3678C8.05884 16.6248 8.676 17.7794 9.58225 18.6857C10.4885 19.5919 11.6431 20.2091 12.9001 20.4591C14.1571 20.7092 15.4601 20.5808 16.6441 20.0904C17.8282 19.5999 18.8402 18.7694 19.5523 17.7037C20.2643 16.6381 20.6444 15.3852 20.6444 14.1036C20.6444 12.385 19.9617 10.7368 18.7464 9.52152C17.5312 8.30628 15.8829 7.62356 14.1643 7.62356ZM14.1643 18.4236C13.3099 18.4236 12.4747 18.1703 11.7643 17.6956C11.0538 17.2209 10.5001 16.5462 10.1731 15.7568C9.84617 14.9674 9.76062 14.0988 9.92731 13.2608C10.094 12.4228 10.5054 11.653 11.1096 11.0489C11.7138 10.4447 12.4835 10.0333 13.3215 9.86658C14.1595 9.69989 15.0281 9.78544 15.8175 10.1124C16.6069 10.4394 17.2816 10.9931 17.7563 11.7035C18.231 12.4139 18.4844 13.2492 18.4844 14.1036C18.4808 15.2482 18.0245 16.345 17.2151 17.1544C16.4057 17.9638 15.309 18.4201 14.1643 18.4236ZM20.1044 0.603516H8.22429C6.21924 0.603516 4.29632 1.40002 2.87853 2.8178C1.46075 4.23559 0.664246 6.15851 0.664246 8.16356V20.0436C0.664246 22.0487 1.46075 23.9716 2.87853 25.3894C4.29632 26.8072 6.21924 27.6037 8.22429 27.6037H20.1044C22.1094 27.6037 24.0323 26.8072 25.4501 25.3894C26.8679 23.9716 27.6644 22.0487 27.6644 20.0436V8.16356C27.6644 6.15851 26.8679 4.23559 25.4501 2.8178C24.0323 1.40002 22.1094 0.603516 20.1044 0.603516ZM25.5044 20.0436C25.5044 20.7528 25.3647 21.455 25.0933 22.1101C24.822 22.7653 24.4242 23.3606 23.9228 23.862C23.4213 24.3635 22.826 24.7612 22.1709 25.0326C21.5157 25.304 20.8135 25.4437 20.1044 25.4437H8.22429C7.51515 25.4437 6.81295 25.304 6.15779 25.0326C5.50263 24.7612 4.90733 24.3635 4.40589 23.862C3.90445 23.3606 3.50669 22.7653 3.23531 22.1101C2.96393 21.455 2.82426 20.7528 2.82426 20.0436V8.16356C2.82426 6.73138 3.39319 5.35786 4.40589 4.34516C5.41859 3.33246 6.79211 2.76353 8.22429 2.76353H20.1044C20.8135 2.76353 21.5157 2.9032 22.1709 3.17458C22.826 3.44596 23.4213 3.84372 23.9228 4.34516C24.4242 4.8466 24.822 5.4419 25.0933 6.09706C25.3647 6.75222 25.5044 7.45442 25.5044 8.16356V20.0436ZM22.8044 7.08356C22.8044 7.40396 22.7094 7.71718 22.5314 7.98358C22.3533 8.24999 22.1003 8.45763 21.8043 8.58025C21.5083 8.70286 21.1826 8.73495 20.8683 8.67244C20.5541 8.60993 20.2654 8.45564 20.0389 8.22908C19.8123 8.00251 19.658 7.71386 19.5955 7.3996C19.533 7.08535 19.5651 6.75962 19.6877 6.4636C19.8103 6.16759 20.0179 5.91457 20.2843 5.73657C20.5508 5.55856 20.864 5.46355 21.1844 5.46355C21.614 5.46355 22.0261 5.63422 22.3299 5.93804C22.6337 6.24185 22.8044 6.6539 22.8044 7.08356Z" fill="black"/>
</svg>
