<svg width="126" height="78" viewBox="0 0 126 78" fill="none" xmlns="http://www.w3.org/2000/svg">
<path d="M121.48 61.54V61.8H121.98V63.05H122.26V61.8H122.76V61.54H121.48Z" fill="white"/>
<path d="M124.76 63.05V61.54H124.36L123.91 62.58L123.45 61.54H123.06V63.05H123.34V61.91L123.76 62.89H124.05L124.48 61.91V63.05H124.76Z" fill="white"/>
<path d="M59.54 70.57C59.84 70.83 60.17 71.09 60.48 71.35C54.31 75.46 46.9 77.86 38.93 77.86C17.43 77.86 0 60.43 0 38.93C0 17.43 17.43 0 38.93 0C46.9 0 54.31 2.4 60.48 6.51C60.17 6.77 59.85 7.03 59.54 7.29C50.37 15.27 45.11 26.8 45.11 38.93C45.11 51.06 50.37 62.59 59.54 70.57Z" fill="white"/>
<path d="M87.05 0C79.08 0 71.67 2.39 65.5 6.51C65.81 6.77 66.14 7.03 66.44 7.29C75.61 15.27 80.87 26.8 80.87 38.93C80.87 51.06 75.61 62.6 66.44 70.57C66.14 70.83 65.82 71.09 65.5 71.35C71.67 75.46 79.08 77.86 87.05 77.86C108.55 77.86 125.98 60.43 125.98 38.93C125.98 17.43 108.55 0 87.05 0Z" fill="white"/>
<path d="M62.9901 8.34009C62.4901 8.74009 62.0001 9.14009 61.5201 9.56009C53.3201 16.7001 48.1201 27.2001 48.1201 38.9301C48.1201 50.6601 53.3101 61.1601 61.5201 68.3001C62.0001 68.7201 62.4901 69.1301 62.9901 69.5201C63.4901 69.1301 63.9801 68.7201 64.4601 68.3001C72.6601 61.1601 77.8601 50.6601 77.8601 38.9301C77.8601 27.2001 72.6701 16.6901 64.4601 9.56009C63.9801 9.14009 63.4901 8.73009 62.9901 8.34009Z" fill="white"/>
</svg>
