<svg width="43" height="36" viewBox="0 0 43 36" fill="none" xmlns="http://www.w3.org/2000/svg">
<path d="M42.3387 22.0199C41.2258 15.4917 35.0462 11.0906 28.5299 12.1909L30.4482 1.24697L23.4779 0.014679C22.8775 1.33499 20.2563 7.33509 18.9823 14.098C21.5742 15.8731 23.4778 18.6604 24.0489 22.0052C24.6493 25.5848 23.6096 29.0616 21.4717 31.6435C21.9989 32.289 22.5992 32.8758 23.2728 33.404C25.9965 35.5458 29.306 36.382 32.5275 35.8392C39.0585 34.7389 43.4516 28.5481 42.3387 22.0199Z" fill="white"/>
<path d="M18.8505 14.8462L18.9823 14.098C16.5076 12.411 13.4178 11.6481 10.2402 12.1762L12.1585 1.23229L5.18816 0C4.57314 1.36432 1.77623 7.76051 0.560819 14.8315C-0.405651 20.5089 -0.361721 26.6117 2.62555 30.91C3.26986 31.8342 4.04597 32.6704 4.98315 33.4039C7.70684 35.5458 11.0163 36.382 14.2378 35.8392C17.1958 35.3404 19.6999 33.7854 21.4717 31.6435C21.2814 31.4088 21.091 31.1594 20.9153 30.91C17.928 26.6263 17.8841 20.5235 18.8505 14.8462Z" fill="white"/>
<path d="M24.0491 22.0199C23.478 18.6751 21.5743 15.8878 18.9824 14.1127L18.8506 14.8609C17.8841 20.5382 17.9281 26.641 20.9153 30.9394C21.0911 31.1888 21.2814 31.4382 21.4718 31.6729C23.6097 29.0616 24.6641 25.5848 24.0491 22.0199Z" fill="white" stroke="white" />
</svg>
