<svg width="30" height="30" viewBox="0 0 30 30" fill="none" xmlns="http://www.w3.org/2000/svg">
<g filter="url(#filter0_d_182_8)">
<path d="M4.98463 4.89972H7.10026V2.89099C7.10026 2.64414 7.30006 2.44434 7.54691 2.44434H25.239C25.4859 2.44434 25.6857 2.64414 25.6857 2.89099V7.80116C25.6857 8.04801 25.4859 8.24781 25.239 8.24781H7.54691C7.30006 8.24781 7.10026 8.04801 7.10026 7.80116V5.79302H5.43128V10.5752L16.1929 13.1717C16.3933 13.2202 16.5347 13.3995 16.5347 13.6058V15.837H17.6743C17.9211 15.837 18.1209 16.0368 18.1209 16.2836V26.8859C18.1209 27.1328 17.9211 27.3326 17.6743 27.3326H14.5018C14.255 27.3326 14.0552 27.1328 14.0552 26.8859V16.2836C14.0552 16.0368 14.255 15.837 14.5018 15.837H15.6414V13.9575L4.87981 11.361C4.67942 11.3124 4.53798 11.1332 4.53798 10.9268V5.34637C4.53798 5.09982 4.73778 4.89972 4.98463 4.89972Z" fill="#8B5E2A"/>
</g>
<defs>
<filter id="filter0_d_182_8" x="-1.46204" y="-3.55566" width="37.1477" height="40.8882" filterUnits="userSpaceOnUse" color-interpolation-filters="sRGB">
<feFlood flood-opacity="0" result="BackgroundImageFix"/>
<feColorMatrix in="SourceAlpha" type="matrix" values="0 0 0 0 0 0 0 0 0 0 0 0 0 0 0 0 0 0 127 0" result="hardAlpha"/>
<feOffset dx="2" dy="2"/>
<feGaussianBlur stdDeviation="4"/>
<feComposite in2="hardAlpha" operator="out"/>
<feColorMatrix type="matrix" values="0 0 0 0 1 0 0 0 0 1 0 0 0 0 1 0 0 0 0.25 0"/>
<feBlend mode="normal" in2="BackgroundImageFix" result="effect1_dropShadow_182_8"/>
<feBlend mode="normal" in="SourceGraphic" in2="effect1_dropShadow_182_8" result="shape"/>
</filter>
</defs>
</svg>
