<svg width="65" height="46" viewBox="0 0 65 46" fill="none" xmlns="http://www.w3.org/2000/svg">
<path d="M32.373 44.7648H23.9173V44.2639L23.5415 44.6363L0.778091 16.6546L0.772664 16.648L0.772664 8.17613H23.6706H23.9289V7.91787V0.919393L32.3961 0.919393V7.91216V8.17042H32.6543L64.3345 8.17042V30.6621H46.8901H46.6319V30.9203V36.1233V36.3815H46.8901H64.3345V44.7648H38.1646V22.2788H55.5859H55.8442V22.0206V16.8176V16.5594H55.5859L32.6313 16.5594H32.373V16.8176V44.7648ZM23.4596 31.3411L23.9173 31.8979V31.1771V16.8176V16.5594H23.6591H11.8535H11.3068L11.654 16.9816L23.4596 31.3411Z" fill="white" stroke="#DBFF00" stroke-width="0.51652"/>
</svg>
