<svg width="91" height="63" viewBox="0 0 91 63" fill="none" xmlns="http://www.w3.org/2000/svg">
<path d="M45.2436 62.6332H33.2354V61.9219L32.7016 62.4507L0.374472 22.713L0.366764 22.7035L0.366764 10.6723L32.885 10.6723H33.2517V10.3056V0.366764L45.2764 0.366764V10.2974V10.6642H45.6431L90.6332 10.6642V42.6055H65.8599H65.4931V42.9722V50.3611V50.7279H65.8599H90.6332V62.6332L53.4685 62.6332V30.7001H78.2091H78.5759V30.3333V22.9444V22.5777H78.2091H45.6104H45.2436V22.9444V62.6332ZM32.5853 43.5697L33.2354 44.3604V43.3368V22.9444V22.5777H32.8686L16.1031 22.5777H15.3267L15.8198 23.1774L32.5853 43.5697Z" fill="white" stroke="#DBFF00" stroke-width="0.733529"/>
</svg>
