<svg width="28" height="20" viewBox="0 0 28 20" fill="none" xmlns="http://www.w3.org/2000/svg">
<path d="M11.6597 14.2365L18.6663 10.1039L11.6597 5.97118V14.2365ZM27.2658 3.45024C27.4413 4.09769 27.5628 4.96556 27.6438 6.0676C27.7383 7.16965 27.7788 8.12017 27.7788 8.9467L27.8598 10.1039C27.8598 13.1207 27.6438 15.3386 27.2658 16.7575C26.9283 17.9973 26.1453 18.7963 24.9303 19.1406C24.2958 19.3197 23.1348 19.4437 21.3528 19.5264C19.5978 19.6228 17.9913 19.6641 16.5063 19.6641L14.3598 19.7468C8.70323 19.7468 5.17971 19.5264 3.7892 19.1406C2.57419 18.7963 1.79119 17.9973 1.45368 16.7575C1.27818 16.11 1.15668 15.2422 1.07568 14.1401C0.981181 13.0381 0.940681 12.0875 0.940681 11.261L0.85968 10.1039C0.85968 7.087 1.07568 4.86913 1.45368 3.45024C1.79119 2.21044 2.57419 1.41145 3.7892 1.06706C4.4237 0.887981 5.58471 0.764 7.36672 0.681347C9.12173 0.584918 10.7282 0.543591 12.2133 0.543591L14.3598 0.460938C20.0163 0.460938 23.5398 0.681347 24.9303 1.06706C26.1453 1.41145 26.9283 2.21044 27.2658 3.45024Z" fill="black"/>
</svg>
