<svg width="1440" height="598" viewBox="0 0 1440 598" fill="none" xmlns="http://www.w3.org/2000/svg">
<path d="M-2 588L217.445 586.073C217.819 586.069 218.157 585.859 218.338 585.531C221.136 580.462 229.22 571.474 241.627 572.237C254.485 573.027 254.128 567.297 255.557 564.333C256.986 561.369 261.45 555.771 269.487 557.418C277.202 558.998 281.273 554.125 282.345 551.49L282.982 547.38C283.242 545.7 282.34 544.113 281.093 542.958C278.967 540.99 277.829 537.98 279.666 533.214C282.345 526.265 278.059 537.476 281.273 527.596L303.24 475.915L316.633 423.061C316.633 413.017 318.562 389.867 326.277 377.617L353.439 292.668C353.54 292.352 353.477 292.005 353.272 291.744L349.626 287.123C349.43 286.875 349.364 286.548 349.446 286.242L359.494 249.187C360.137 238.374 364.393 218.484 367.191 212.216C367.657 211.172 367.962 210.012 367.781 208.883L363.78 183.985C363.78 178.654 361.546 171.293 352.82 182.203C351.955 183.285 350.62 183.929 349.246 183.75C342.393 182.859 330.878 179.974 326.277 173.612C319.848 164.72 331.635 151.384 339.135 143.974C344.542 138.634 346.585 130.219 347.067 125.594C347.161 124.688 347.385 123.797 347.875 123.028C350.99 118.143 358.769 109.994 370.209 108.903C381.868 107.791 390.982 103.115 394.72 100.501C395.165 100.19 395.495 99.7448 395.695 99.2394L399.676 89.1447C401.399 87.08 402.988 82.0126 396.175 77.7551C395.684 77.4487 395.332 76.9639 395.169 76.4092C394.173 73.0256 391.118 68.1388 384.98 69.6402C384.495 69.7589 383.977 69.5456 383.759 69.0963L375.476 52.0276C375.232 51.5238 375.45 50.9199 375.941 50.649C380.453 48.1548 386.012 41.9796 377.989 33.6135C377.815 33.432 377.703 33.1913 377.703 32.9399C377.699 27.6243 381.174 15.7369 395.39 7.64157C409.963 -0.65694 428.25 7.14761 435.572 12.0872C439.322 17.0268 446.823 28.1903 446.823 33.3274C446.823 38.4646 446.823 39.4597 446.823 39.3152C446.823 40.553 456.681 40.638 455.395 48.1461C454.109 55.6543 469.86 67.7398 477.897 72.8441C482.54 78.6069 488.719 92.3061 476.29 101C463.86 109.693 472.182 114.501 477.897 115.819C482.183 116.806 491.184 122.833 492.898 139.035L505.941 176.073C506.132 176.614 505.828 177.204 505.282 177.379C501.751 178.508 496.406 180.709 497.184 182.503C498.041 184.479 503.613 202.426 506.292 211.153C508.792 212.634 513.043 218.858 510.042 231.899C507.042 244.939 502.363 267.299 500.399 276.849C498.791 279.484 496.863 286.629 502.006 294.138C501.113 301.712 498.041 318.539 492.898 325.257L481.179 400.888C480.784 403.442 479.636 405.815 478.599 408.182C476.898 412.061 475.795 417.962 478.096 424.681C479.316 428.244 480.15 432.023 479.382 435.71L470.396 478.878L460.972 550.805C460.845 551.771 460.038 552.495 459.075 552.648C451.215 553.9 440.81 561.558 456.445 570.173C457.101 570.534 457.538 571.226 457.538 571.975V587.549L1440 590M470.932 189.235C463.431 189.235 462.788 231.109 470.932 233.875L481.111 261.536L482.719 226.959C484.683 224.654 487.862 218.858 484.862 214.116C481.861 209.374 472.539 192.198 467.717 187.259M311.276 586.067L316.272 565.8C316.499 564.877 316.269 563.907 315.698 563.147C311.478 557.529 308.219 549.316 320.412 550.47C323.823 550.793 327.244 549.169 328.561 546.006L349.315 496.167C350.496 494.352 352.197 490.908 353.2 486.793C354.897 479.828 354.936 472.352 357.451 465.639L363.78 448.747C364.316 442.49 369.222 434.548 373.96 429.976C378.246 425.841 386.818 413.182 388.961 404.784C390.211 397.375 394.396 385.147 396.997 383.05C399.448 381.075 408.772 359.98 413.898 345.811C414.252 344.833 415.704 344.958 415.878 345.984L426.635 409.623C427.524 414.885 424.935 420.158 423.56 425.314C422.836 428.026 422.862 431.254 424.423 434.786C426.141 438.673 427.785 442.759 427.284 446.98L420.035 508.022C418.606 520.206 413.606 540.439 410.927 544.575C408.553 548.24 430.001 567.636 408.949 570.488C407.374 570.701 406.105 571.997 406.105 573.587V586.067H311.276ZM446.823 61.977C445.573 68.7278 442.43 82.9209 439.858 85.687C437.286 88.4532 438.786 97.0481 439.858 101L455.395 107.421L457.538 85.687C453.966 80.9121 446.823 69.4852 446.823 61.977Z" stroke="#FF6525" stroke-width="7"/>
<path d="M0 592.489L211.625 590.019C214.125 585.079 222.34 575.398 235.198 576.188C248.056 576.979 247.699 571.249 249.128 568.285C250.556 565.321 255.021 559.723 263.057 561.369C270.772 562.95 274.844 558.076 275.916 555.442L276.553 551.331C276.813 549.651 275.911 548.065 274.664 546.91C272.537 544.941 271.399 541.932 273.237 537.165C275.916 530.216 271.63 541.427 274.844 531.548L296.81 479.866L310.204 427.013C310.204 416.969 312.133 393.819 319.848 381.568L347.01 296.62C347.111 296.303 347.048 295.957 346.842 295.696L343.197 291.075C343.001 290.826 342.934 290.5 343.017 290.194L353.065 253.139C353.708 242.326 357.964 222.435 360.762 216.168C361.228 215.123 361.533 213.964 361.352 212.835L357.351 187.936C357.351 182.606 355.116 175.244 346.391 186.154C345.526 187.236 344.191 187.88 342.817 187.702C335.964 186.81 324.448 183.926 319.848 177.563C313.419 168.672 325.205 155.335 332.706 147.926C338.112 142.585 340.155 134.171 340.638 129.546C340.732 128.64 340.955 127.748 341.445 126.98C344.561 122.095 352.34 113.946 363.78 112.855C375.439 111.743 384.552 107.067 388.291 104.453C388.736 104.142 389.066 103.696 389.265 103.191L393.247 93.0964C394.969 91.0317 396.559 85.9643 389.745 81.7067C389.255 81.4004 388.903 80.9155 388.739 80.3609C387.744 76.9773 384.689 72.0905 378.551 73.5919C378.066 73.7105 377.547 73.4973 377.329 73.0479L369.047 55.9793C368.803 55.4754 369.021 54.8716 369.511 54.6006C374.023 52.1064 379.583 45.9312 371.559 37.5651C371.385 37.3837 371.274 37.143 371.274 36.8915C371.27 31.5759 374.745 19.6886 388.961 11.5932C403.533 3.29472 421.821 11.0993 429.143 16.0389C432.893 20.9785 440.394 32.142 440.394 37.2791C440.394 42.4162 440.394 43.4114 440.394 43.2668C440.394 44.5046 450.251 44.5896 448.966 52.0978C447.68 59.606 463.431 71.6915 471.468 76.7957C476.111 82.5586 482.29 96.2577 469.86 104.951C457.431 113.645 465.753 118.453 471.468 119.77C475.754 120.758 484.754 126.784 486.469 142.986L499.512 180.024C499.702 180.566 499.399 181.155 498.853 181.33C495.322 182.46 489.977 184.661 490.755 186.455C491.612 188.43 497.184 206.378 499.863 215.104C502.363 216.586 506.613 222.81 503.613 235.851C500.613 248.891 495.934 271.251 493.969 280.801C492.362 283.435 490.433 290.581 495.577 298.089C494.684 305.663 491.612 322.491 486.469 329.209L474.75 404.839C474.354 407.394 473.207 409.766 472.169 412.134C470.469 416.013 469.366 421.913 471.667 428.633C472.887 432.196 473.72 435.975 472.953 439.662L463.967 482.83L454.543 554.756C454.416 555.723 453.609 556.446 452.646 556.6C444.786 557.852 434.381 565.51 450.015 574.124C450.671 574.486 451.109 575.177 451.109 575.926V591.501L1440 594.5M464.503 193.186C457.002 193.186 456.359 235.06 464.503 237.826L474.682 265.488L476.289 230.911C478.254 228.606 481.433 222.81 478.432 218.068C475.432 213.326 466.11 196.15 461.288 191.21M304.847 590.019L309.843 569.752C310.07 568.829 309.84 567.859 309.269 567.099C305.048 561.481 301.79 553.267 313.983 554.422C317.394 554.745 320.814 553.121 322.131 549.958L342.885 500.119C344.066 498.304 345.768 494.86 346.771 490.744C348.468 483.779 348.506 476.304 351.022 469.591L357.351 452.698C357.887 446.442 362.793 438.499 367.53 433.928C371.816 429.793 380.389 417.133 382.532 408.736C383.782 401.327 387.967 389.099 390.568 387.002C393.018 385.026 402.343 363.932 407.469 349.763C407.823 348.784 409.275 348.91 409.448 349.936L420.206 413.575C421.095 418.837 418.506 424.109 417.131 429.266C416.407 431.977 416.432 435.205 417.994 438.738C419.712 442.625 421.356 446.711 420.855 450.932L413.606 511.974C412.177 524.158 407.176 544.391 404.498 548.526C402.124 552.191 423.572 571.588 402.52 574.439C400.945 574.653 399.676 575.949 399.676 577.538V590.019H304.847ZM440.394 65.9286C439.143 72.6794 436 86.8725 433.429 89.6387C430.857 92.4048 432.357 101 433.429 104.951L448.966 111.373L451.109 89.6387C447.537 84.8637 440.394 73.4368 440.394 65.9286Z" stroke="black" stroke-width="7"/>
</svg>
