<svg width="277" height="40" viewBox="0 0 277 40" fill="none" xmlns="http://www.w3.org/2000/svg">
<path d="M235.63 11.7701C235.283 10.2721 233.788 9.13835 231.828 9.13835C229.46 9.13835 227.531 10.7922 227.531 13.8267C227.531 16.8708 229.46 18.515 231.828 18.515C233.785 18.515 235.28 17.3861 235.63 15.8832H236.778C236.368 17.8942 234.49 19.457 231.828 19.457C228.672 19.457 226.427 17.2591 226.427 13.8291C226.427 10.3991 228.672 8.20117 231.828 8.20117C234.487 8.20117 236.368 9.75915 236.776 11.7749H235.628L235.63 11.7701Z" fill="white"/>
<path d="M238.068 15.241C238.068 12.7531 239.745 10.9722 242.174 10.9722C244.206 10.9722 246.14 12.2617 246.14 15.0061V15.4759H239.16C239.208 17.3767 240.423 18.6015 242.34 18.6015C243.67 18.6015 244.518 17.9927 244.877 17.252L245.908 17.5469C245.481 18.5799 244.216 19.474 242.337 19.474C239.714 19.474 238.065 17.7362 238.065 15.241H238.068ZM245.031 14.637C245.031 13.0527 243.854 11.8374 242.174 11.8398C240.459 11.8398 239.282 13.1078 239.165 14.6394H245.028L245.031 14.637Z" fill="white"/>
<path d="M248.924 19.3044H247.838V11.0854H248.895V12.3749H248.993C249.432 11.536 250.378 10.9775 251.751 10.9775C253.644 10.9775 254.931 12.0322 254.931 13.9785V19.302H253.845V14.036C253.845 12.6937 252.918 11.8476 251.478 11.8476C250.038 11.8476 248.926 12.7297 248.926 14.1654V19.302L248.924 19.3044Z" fill="white"/>
<path d="M260.801 11.9139H258.817V17.1583C258.817 18.1914 259.495 18.4958 260.233 18.4958C260.521 18.4958 260.715 18.4574 260.868 18.4215L261.101 19.282C260.892 19.3515 260.588 19.4258 260.138 19.4258C258.935 19.4258 257.727 18.7259 257.727 17.3812V11.9139H256.33V11.0846H257.727V9.1167H258.82V11.0846H260.804V11.9139H260.801Z" fill="white"/>
<path d="M261.999 15.241C261.999 12.7531 263.677 10.9722 266.106 10.9722C268.138 10.9722 270.072 12.2617 270.072 15.0061V15.4759H263.092C263.14 17.3767 264.355 18.6015 266.272 18.6015C267.601 18.6015 268.45 17.9927 268.809 17.252L269.839 17.5469C269.413 18.5799 268.148 19.474 266.269 19.474C263.645 19.474 261.997 17.7362 261.997 15.241H261.999ZM268.962 14.637C268.962 13.0527 267.786 11.8374 266.106 11.8374C264.391 11.8374 263.214 13.1054 263.097 14.637H268.96H268.962Z" fill="white"/>
<path d="M271.771 11.0842H272.827V12.3473H272.906C273.285 11.518 274.291 10.9619 275.47 10.9619C275.648 10.9619 275.897 10.9715 276.043 10.9787V11.947C275.945 11.9374 275.676 11.8943 275.391 11.8943C273.927 11.8943 272.859 12.7764 272.859 13.9964V19.3055H271.773V11.0866L271.771 11.0842Z" fill="white"/>
<path d="M7.50452 13.1223C7.25293 13.2182 7.06364 13.3644 6.93904 13.5562C6.81205 13.7503 6.74975 13.9708 6.74975 14.2177C6.74975 14.5772 6.83601 14.8864 7.00853 15.1477C7.18105 15.4114 7.48056 15.6439 7.90466 15.85C8.32877 16.0561 8.9182 16.2718 9.67297 16.4924L12.5507 17.36C14.2183 17.885 15.6248 18.5249 16.7725 19.2848C17.9203 20.0446 18.7781 20.9338 19.3435 21.9525C19.909 22.9736 20.1918 24.1049 20.1918 25.3465C20.1918 26.5881 19.8539 27.6212 19.1782 28.532C18.5025 29.4428 17.5728 30.1523 16.394 30.6628C15.2151 31.1734 13.8541 31.4275 12.3134 31.4275C10.4876 31.4275 8.90862 31.1302 7.57161 30.5382C6.2346 29.9462 5.11802 29.0977 4.22189 27.9927C3.32576 26.8901 2.6261 25.5527 2.12293 23.9803L8.06759 23.1533C8.25688 24.1193 8.62588 24.9127 9.17698 25.5335C9.72568 26.1543 10.4757 26.4635 11.4173 26.4635C11.7 26.4635 11.966 26.4299 12.22 26.3604C12.4716 26.2909 12.692 26.195 12.8813 26.0704C13.0706 25.9458 13.212 25.7876 13.3054 25.5934C13.3989 25.4017 13.4468 25.1787 13.4468 24.9319C13.4468 24.6299 13.3749 24.347 13.2335 24.0833C13.0922 23.8221 12.8238 23.58 12.4309 23.3595C12.0379 23.139 11.4796 22.9185 10.756 22.6979L7.92623 21.8303C6.16511 21.279 4.69392 20.6366 3.51505 19.9056C2.33618 19.1745 1.45442 18.3068 0.872172 17.2977C0.289925 16.291 0 15.1117 0 13.7599C0 12.7124 0.275548 11.7537 0.826646 10.8836C1.37774 10.0135 2.19481 9.31844 3.28023 8.79352C4.36565 8.26859 5.69308 8.00732 7.26731 8.00732C8.74569 8.00732 10.1761 8.27099 11.5611 8.79352C12.9436 9.31844 14.1632 10.1046 15.2175 11.1521C16.2718 12.2019 17.0026 13.4962 17.4123 15.0422L11.609 15.8692C11.4197 15.2628 11.1849 14.745 10.9022 14.3184C10.6194 13.8917 10.2648 13.5609 9.84069 13.3261C9.41659 13.0912 8.9206 12.9737 8.35512 12.9737C8.04124 12.9737 7.75611 13.0216 7.50691 13.1175L7.50452 13.1223Z" fill="white"/>
<path d="M41.0518 31.1019H35.155L33.3148 27.461C33.2214 28.1225 33.0561 28.7026 32.8188 29.1987C32.584 29.6949 32.2606 30.1096 31.8508 30.4403C31.4411 30.7711 30.9619 31.0204 30.4108 31.1858C29.8597 31.3512 29.2223 31.4351 28.4987 31.4351C27.5235 31.4351 26.6346 31.296 25.8343 31.0204C25.0316 30.7447 24.3176 30.3253 23.6874 29.7596C23.0572 29.1939 22.5085 28.4965 22.0365 27.6695C21.5645 26.8426 21.1547 25.8766 20.8097 24.7741L15.8091 8.3481H22.8871L27.3222 22.9117C27.4468 23.3527 27.5882 23.7338 27.7463 24.0502C27.9045 24.3666 28.0842 24.6303 28.2879 24.8364C28.4915 25.0425 28.7192 25.1959 28.9707 25.2918C29.2223 25.3877 29.5051 25.4356 29.819 25.4356C30.1328 25.4356 30.4012 25.3949 30.6216 25.311C30.8421 25.2271 31.0146 25.0905 31.1416 24.8963C31.2662 24.7046 31.3453 24.4553 31.3764 24.1509C31.4076 23.8465 31.4004 23.4821 31.3524 23.0555C31.3045 22.6288 31.2039 22.1399 31.0457 21.5862L27.0347 8.3457H34.1127L41.0494 31.1019H41.0518Z" fill="white"/>
<path d="M44.8262 14.1363L52.5632 39.3757H45.4851L36.0015 8.34302H41.8982L44.8238 14.1363H44.8262ZM51.6431 30.687C50.6511 30.1908 49.7478 29.4454 48.9307 28.453C48.1112 27.4607 47.3661 26.2335 46.6904 24.7714C46.0147 23.3093 45.3917 21.6266 44.8262 19.7235C44.2272 17.8204 43.8582 16.1377 43.7168 14.6756C43.5755 13.2135 43.645 11.9863 43.9301 10.994C44.2128 10.0017 44.7088 9.25624 45.4157 8.76008C46.1225 8.26392 47.0426 8.01465 48.1759 8.01465C49.5585 8.01465 50.85 8.38138 52.0456 9.11003C53.2412 9.84109 54.3171 10.8214 55.2779 12.0486C56.2363 13.2759 57.0462 14.6421 57.7075 16.1449C58.3689 17.6478 58.8792 19.1866 59.241 20.759C59.6028 22.3313 59.7825 23.8198 59.7825 25.2268C59.7825 25.9435 59.7107 26.6194 59.5693 27.2546C59.4279 27.8898 59.2314 28.4626 58.9799 28.9708C58.7283 29.4813 58.4048 29.9223 58.0118 30.2939C57.6189 30.6654 57.1636 30.9482 56.6437 31.1424C56.1237 31.3341 55.5511 31.4324 54.9209 31.4324C53.7253 31.4324 52.6326 31.1831 51.6407 30.687H51.6431ZM51.3843 25.9698C51.5424 25.9147 51.6838 25.826 51.8084 25.7014C51.933 25.5767 52.036 25.4257 52.1151 25.246C52.1942 25.0662 52.2493 24.8601 52.2804 24.6252C52.3116 24.3903 52.3283 24.1362 52.3283 23.8606C52.3283 23.1703 52.2253 22.3793 52.0216 21.4804C51.8156 20.584 51.5424 19.6804 51.195 18.7695C50.8476 17.8587 50.4474 17.0102 49.9922 16.224C49.5369 15.4379 49.0553 14.8027 48.5521 14.3209C48.0489 13.8391 47.529 13.597 46.9947 13.597C46.4292 13.597 46.0338 13.8032 45.8158 14.2178C45.5954 14.6325 45.5474 15.2869 45.6744 16.1833C45.799 17.0797 46.0818 18.259 46.5226 19.7211C46.8677 20.8525 47.2079 21.8184 47.5362 22.6166C47.8668 23.4171 48.2047 24.0715 48.5497 24.582C48.8948 25.0926 49.2566 25.4641 49.6351 25.699C50.0137 25.9339 50.4211 26.0513 50.8619 26.0513C51.0512 26.0513 51.2237 26.025 51.3819 25.9675L51.3843 25.9698Z" fill="white"/>
<path d="M66.9538 30.3561C65.4443 29.6394 64.1456 28.695 63.0602 27.5205C61.9748 26.3484 61.093 25.0325 60.4173 23.568C59.7416 22.1059 59.2456 20.6294 58.9317 19.1409C58.6179 17.6525 58.4597 16.2455 58.4597 14.92C58.4597 14.0379 58.5699 13.2374 58.7904 12.5207C59.0108 11.804 59.3319 11.1617 59.7584 10.596C60.1825 10.0303 60.7024 9.55573 61.3158 9.16743C61.9292 8.78153 62.6433 8.4915 63.4627 8.29735C64.2798 8.1056 65.1927 8.00732 66.1991 8.00732C68.1806 8.00732 69.9489 8.422 71.5064 9.24893C73.0638 10.0759 74.3841 11.1521 75.4695 12.4776C76.5549 13.8006 77.3887 15.222 77.971 16.7393C78.5532 18.2565 78.8432 19.7042 78.8432 21.0848V21.4564H64.3109L62.9907 17.1947H72.6158L71.0128 19.3039C71.0751 19.0834 71.1134 18.8965 71.1302 18.7455C71.1446 18.5945 71.1541 18.4363 71.1541 18.2685C71.1541 17.6069 71.0607 16.9526 70.8714 16.303C70.6821 15.6558 70.4162 15.0614 70.0687 14.5245C69.7213 13.9876 69.314 13.5586 68.8419 13.2422C68.3699 12.9258 67.85 12.7676 67.2845 12.7676C67.064 12.7676 66.8676 12.7963 66.695 12.8491C66.5225 12.9042 66.3644 12.9809 66.223 13.0768C66.0816 13.1727 65.9547 13.3045 65.8444 13.4699C65.7342 13.6353 65.6551 13.8294 65.6096 14.0499C65.5617 14.2704 65.5401 14.5341 65.5401 14.8361C65.5401 15.6367 65.6264 16.5595 65.7989 17.6093C65.9714 18.6592 66.2302 19.7066 66.5776 20.7541C66.9227 21.8039 67.3396 22.7746 67.8284 23.6711C68.3148 24.5675 68.8731 25.2914 69.5032 25.8427C70.131 26.394 70.8403 26.6696 71.6262 26.6696C72.1605 26.6696 72.5774 26.545 72.8769 26.2981C73.1764 26.0488 73.3801 25.6701 73.4903 25.1596C73.6005 24.649 73.6077 23.9803 73.5143 23.1533L79.7417 23.8988C79.9621 25.416 79.8136 26.7319 79.2936 27.8513C78.7737 28.9682 77.9183 29.8455 76.7226 30.4783C75.527 31.1135 74.0175 31.4299 72.194 31.4299C70.2125 31.4299 68.4657 31.0727 66.9562 30.3537L66.9538 30.3561Z" fill="white"/>
<path d="M76.3415 8.34294H82.2383L85.1639 14.1362L90.3538 31.1015H83.2758L76.3391 8.34534L76.3415 8.34294ZM91.2044 15.584C90.9217 15.5289 90.6293 15.4809 90.3322 15.4402C90.0327 15.3994 89.7572 15.3778 89.5056 15.3778C89.0024 15.3778 88.5615 15.4474 88.1853 15.584C87.8067 15.723 87.5001 15.9363 87.2652 16.2264C87.0304 16.5164 86.8723 16.8759 86.7932 17.3026C86.7141 17.7316 86.7069 18.2278 86.7692 18.791C86.8315 19.3567 86.9585 19.9847 87.1478 20.6726L84.6463 19.1002C84.2677 17.4176 84.0713 15.8932 84.0569 14.5269C84.0401 13.1607 84.1911 11.9958 84.5049 11.0299C84.8188 10.0639 85.2981 9.32088 85.945 8.79596C86.5895 8.27103 87.385 8.00977 88.3267 8.00977C88.4848 8.00977 88.6334 8.01696 88.7748 8.03134C88.9161 8.04573 89.0192 8.0673 89.0815 8.09367L91.2044 15.584Z" fill="white"/>
<path d="M87.0522 0.0687909H94.1303L97.6693 11.6123C97.8586 10.8117 98.1796 10.143 98.6373 9.60607C99.0925 9.06917 99.658 8.66888 100.336 8.40522C101.012 8.14396 101.791 8.01213 102.672 8.01213C103.868 8.01213 104.961 8.2686 105.953 8.77674C106.944 9.28728 107.8 10.0327 108.524 11.0107C109.247 11.991 109.829 13.211 110.27 14.6731L115.271 31.0991H108.193L103.616 16.1209C103.458 15.6247 103.269 15.2172 103.051 14.9008C102.83 14.5844 102.562 14.3567 102.248 14.2177C101.934 14.0811 101.587 14.0116 101.211 14.0116C100.801 14.0116 100.449 14.0883 100.149 14.2393C99.8497 14.3903 99.6221 14.6324 99.4663 14.9631C99.3082 15.2939 99.2531 15.7493 99.301 16.3294C99.3489 16.9094 99.4975 17.6117 99.7491 18.4387L103.619 31.0991H96.5407L87.057 0.0664062L87.0522 0.0687909Z" fill="white"/>
<path d="M135.176 31.1019H129.28L127.439 27.461C127.346 28.1225 127.181 28.7026 126.943 29.1987C126.709 29.6949 126.385 30.1096 125.975 30.4403C125.566 30.7711 125.086 31.0204 124.535 31.1858C123.984 31.3512 123.347 31.4351 122.626 31.4351C121.65 31.4351 120.761 31.296 119.959 31.0204C119.156 30.7447 118.442 30.3253 117.812 29.7596C117.182 29.1939 116.633 28.4965 116.161 27.6695C115.689 26.8426 115.279 25.8766 114.934 24.7741L109.934 8.3481H117.012L121.447 22.9117C121.571 23.3527 121.713 23.7338 121.871 24.0502C122.029 24.3666 122.209 24.6303 122.412 24.8364C122.616 25.0425 122.844 25.1959 123.095 25.2918C123.347 25.3877 123.63 25.4356 123.943 25.4356C124.257 25.4356 124.526 25.3949 124.746 25.311C124.967 25.2271 125.139 25.0905 125.266 24.8963C125.391 24.7046 125.47 24.4553 125.501 24.1509C125.532 23.8465 125.525 23.4821 125.477 23.0555C125.429 22.6288 125.328 22.1399 125.17 21.5862L121.159 8.3457H128.237L135.174 31.1019H135.176Z" fill="white"/>
<path d="M130.129 8.3429H136.026L137.96 12.1899C138.149 11.2527 138.47 10.4809 138.928 9.87212C139.383 9.2657 139.958 8.8031 140.65 8.4867C141.343 8.17031 142.129 8.00972 143.01 8.00972C143.892 8.00972 144.757 8.16073 145.512 8.46514C146.267 8.76955 146.959 9.21058 147.587 9.78824C148.215 10.3683 148.783 11.0993 149.286 11.9814C149.444 11.3198 149.664 10.7398 149.947 10.2436C150.23 9.74748 150.592 9.33282 151.033 9.00204C151.473 8.67127 151.96 8.422 152.494 8.25661C153.029 8.09123 153.628 8.00732 154.286 8.00732C155.135 8.00732 155.937 8.15115 156.692 8.44118C157.447 8.7312 158.139 9.15785 158.767 9.72351C159.395 10.2892 159.953 10.9867 160.442 11.8136C160.928 12.6405 161.345 13.5921 161.693 14.6683L166.693 31.0943H159.615L155.18 16.5307C154.991 15.9243 154.77 15.4353 154.519 15.0614C154.267 14.6899 153.992 14.4191 153.692 14.2537C153.393 14.0883 153.038 14.0044 152.631 14.0044C152.223 14.0044 151.883 14.0811 151.617 14.2321C151.349 14.3831 151.169 14.6252 151.076 14.956C150.982 15.2867 150.958 15.7014 151.004 16.1975C151.052 16.6937 151.184 17.3001 151.404 18.0192L155.415 31.0943H148.337L143.902 16.5307C143.713 15.9243 143.492 15.4353 143.241 15.0614C142.989 14.6899 142.706 14.4191 142.392 14.2537C142.078 14.0883 141.731 14.0044 141.355 14.0044C140.945 14.0044 140.607 14.0811 140.341 14.2321C140.073 14.3831 139.893 14.6252 139.8 14.956C139.706 15.2867 139.682 15.7014 139.728 16.1975C139.776 16.6937 139.908 17.3001 140.128 18.0192L144.139 31.0943H137.061L130.124 8.3381L130.129 8.3429Z" fill="white"/>
<path d="M163.25 12.4393C163.408 11.4469 163.777 10.6176 164.359 9.95605C164.942 9.2945 165.735 8.80553 166.741 8.48675C167.747 8.17036 168.974 8.00977 170.421 8.00977C171.869 8.00977 173.23 8.16078 174.408 8.46518C175.587 8.76959 176.634 9.22979 177.545 9.85058C178.458 10.4714 179.237 11.2504 179.881 12.1876C180.526 13.1248 181.036 14.2153 181.415 15.4569L184.529 25.6773C184.592 25.8715 184.671 26.0225 184.764 26.1328C184.858 26.243 184.978 26.3341 185.119 26.4012C185.26 26.4707 185.409 26.5043 185.567 26.5043H185.826C185.936 26.5043 186.053 26.4899 186.18 26.4635L187.455 30.9313C186.89 31.0967 186.339 31.2214 185.804 31.3029C185.27 31.3844 184.688 31.4275 184.057 31.4275C182.955 31.4275 182.004 31.2621 181.204 30.9313C180.403 30.6006 179.725 30.0685 179.174 29.3374C178.623 28.6064 178.175 27.6476 177.83 26.4611L175.942 20.2963L175.563 19.014L174.571 15.7877C174.413 15.2364 174.234 14.7738 174.03 14.4023C173.826 14.0308 173.596 13.7192 173.347 13.4723C173.095 13.223 172.813 13.0457 172.499 12.9354C172.185 12.8252 171.837 12.77 171.461 12.77C170.896 12.77 170.472 12.9018 170.187 13.1631C169.904 13.4268 169.753 13.839 169.738 14.4047C169.722 14.9704 169.825 15.6942 170.045 16.5763L163.346 15.9555C163.125 14.6036 163.094 13.4316 163.252 12.4393H163.25ZM177.073 21.0873L174.337 21.7081C173.865 21.8183 173.488 21.9645 173.203 22.1419C172.92 22.3217 172.707 22.5422 172.566 22.8035C172.424 23.0671 172.353 23.3619 172.353 23.6927C172.353 24.244 172.453 24.7282 172.659 25.1404C172.863 25.5551 173.155 25.8787 173.531 26.1136C173.91 26.3485 174.38 26.4659 174.948 26.4659C175.293 26.4659 175.599 26.418 175.868 26.3221C176.134 26.2262 176.347 26.068 176.505 25.8451C176.663 25.6246 176.781 25.349 176.86 25.0182C176.939 24.6874 176.953 24.2943 176.908 23.8389C176.86 23.3835 176.742 22.8658 176.553 22.2881L178.487 22.3289C178.738 23.5153 178.841 24.5843 178.793 25.5359C178.745 26.4875 178.58 27.3288 178.297 28.0599C178.015 28.7909 177.622 29.4117 177.118 29.9223C176.615 30.4328 176.026 30.8115 175.35 31.0608C174.674 31.3101 173.91 31.4323 173.062 31.4323C171.332 31.4323 169.892 31.068 168.744 30.3369C167.596 29.6059 166.739 28.6615 166.173 27.5014C165.608 26.3437 165.325 25.1165 165.325 23.8197C165.325 22.7172 165.591 21.7656 166.128 20.965C166.662 20.1645 167.433 19.4885 168.44 18.9372C169.446 18.386 170.673 17.9305 172.12 17.571L175.753 16.7033L177.073 21.0897V21.0873Z" fill="white"/>
<path d="M181.036 8.34294H186.933L188.962 12.3146C189.12 11.3487 189.417 10.5505 189.858 9.91531C190.299 9.28013 190.879 8.80553 191.605 8.48675C192.329 8.17036 193.162 8.00977 194.106 8.00977C195.302 8.00977 196.395 8.26623 197.387 8.77438C198.379 9.28492 199.234 10.0304 199.958 11.0083C200.681 11.9886 201.264 13.2087 201.704 14.6708L206.705 31.0967H199.627L195.051 16.1185C194.892 15.6223 194.703 15.2149 194.485 14.8985C194.265 14.5821 194.006 14.3544 193.706 14.2153C193.407 14.0787 193.038 14.0092 192.597 14.0092C192.218 14.0092 191.881 14.0859 191.583 14.2369C191.284 14.3879 191.063 14.63 190.922 14.9608C190.781 15.2916 190.726 15.747 190.757 16.327C190.788 16.9071 190.929 17.6094 191.181 18.4363L195.051 31.0967H187.973L181.036 8.34054V8.34294Z" fill="white"/>
<path d="M210.241 13.1223C209.989 13.2182 209.8 13.3644 209.675 13.5562C209.548 13.7503 209.486 13.9708 209.486 14.2177C209.486 14.5772 209.572 14.8864 209.745 15.1477C209.917 15.4114 210.217 15.6439 210.641 15.85C211.065 16.0561 211.654 16.2718 212.409 16.4924L215.287 17.36C216.955 17.885 218.361 18.5249 219.509 19.2848C220.656 20.0446 221.514 20.9338 222.08 21.9525C222.645 22.9736 222.928 24.1049 222.928 25.3465C222.928 26.5881 222.59 27.6212 221.914 28.532C221.239 29.4428 220.309 30.1523 219.13 30.6628C217.951 31.1734 216.59 31.4275 215.05 31.4275C213.224 31.4275 211.645 31.1302 210.308 30.5382C208.971 29.9462 207.854 29.0977 206.958 27.9927C206.062 26.8901 205.362 25.5527 204.859 23.9803L210.804 23.1533C210.993 24.1193 211.362 24.9127 211.913 25.5335C212.462 26.1543 213.212 26.4635 214.154 26.4635C214.436 26.4635 214.702 26.4299 214.956 26.3604C215.208 26.2909 215.428 26.195 215.618 26.0704C215.807 25.9458 215.948 25.7876 216.042 25.5934C216.135 25.4017 216.183 25.1787 216.183 24.9319C216.183 24.6299 216.111 24.347 215.97 24.0833C215.828 23.8221 215.56 23.58 215.167 23.3595C214.774 23.139 214.216 22.9185 213.492 22.6979L210.662 21.8303C208.901 21.279 207.43 20.6366 206.251 19.9056C205.072 19.1745 204.191 18.3068 203.608 17.2977C203.026 16.291 202.736 15.1117 202.736 13.7599C202.736 12.7124 203.012 11.7537 203.563 10.8836C204.114 10.0135 204.931 9.31844 206.016 8.79352C207.102 8.26859 208.429 8.00732 210.004 8.00732C211.482 8.00732 212.912 8.27099 214.297 8.79352C215.68 9.31844 216.899 10.1046 217.954 11.1521C219.008 12.2019 219.739 13.4962 220.149 15.0422L214.345 15.8692C214.156 15.2628 213.921 14.745 213.638 14.3184C213.356 13.8917 213.001 13.5609 212.577 13.3261C212.153 13.0912 211.657 12.9737 211.091 12.9737C210.777 12.9737 210.492 13.0216 210.243 13.1175L210.241 13.1223Z" fill="white"/>
</svg>
