<svg width="210" height="38" viewBox="0 0 210 38" fill="none" xmlns="http://www.w3.org/2000/svg">
<path d="M7.0693 12.9173C6.8323 13.0076 6.65399 13.1454 6.53662 13.326C6.41699 13.5089 6.3583 13.7166 6.3583 13.9492C6.3583 14.2879 6.43956 14.5791 6.60207 14.8252C6.76459 15.0736 7.04673 15.2926 7.44624 15.4868C7.84575 15.681 8.401 15.8842 9.11199 16.0919L11.8228 16.9093C13.3937 17.4038 14.7187 18.0066 15.7998 18.7224C16.881 19.4381 17.689 20.2758 18.2217 21.2354C18.7544 22.1973 19.0207 23.263 19.0207 24.4326C19.0207 25.6022 18.7025 26.5753 18.066 27.4333C17.4295 28.2913 16.5537 28.9597 15.4432 29.4406C14.3327 29.9215 13.0507 30.1609 11.5993 30.1609C9.87941 30.1609 8.39197 29.8809 7.1325 29.3232C5.87303 28.7655 4.82121 27.9662 3.97704 26.9253C3.13288 25.8867 2.4738 24.6268 1.99981 23.1456L7.59972 22.3666C7.77803 23.2765 8.12563 24.0239 8.64477 24.6087C9.16165 25.1935 9.86812 25.4848 10.7552 25.4848C11.0215 25.4848 11.2721 25.4531 11.5113 25.3877C11.7483 25.3222 11.956 25.2319 12.1343 25.1145C12.3126 24.9971 12.4458 24.848 12.5338 24.6651C12.6218 24.4845 12.667 24.2745 12.667 24.042C12.667 23.7575 12.5992 23.491 12.4661 23.2427C12.3329 22.9966 12.0801 22.7685 11.7099 22.5608C11.3398 22.3531 10.8139 22.1453 10.1322 21.9376L7.46655 21.1203C5.80757 20.6009 4.4217 19.9958 3.31119 19.3072C2.20069 18.6185 1.37007 17.8011 0.821591 16.8506C0.273111 15.9022 0 14.7914 0 13.5179C0 12.5312 0.259568 11.6281 0.778705 10.8084C1.29784 9.98882 2.06752 9.33404 3.09 8.83956C4.11247 8.34508 5.36292 8.09896 6.84584 8.09896C8.23849 8.09896 9.58599 8.34734 10.8906 8.83956C12.193 9.33404 13.3418 10.0746 14.335 11.0613C15.3281 12.0503 16.0165 13.2695 16.4025 14.7259L10.9357 15.5049C10.7574 14.9336 10.5362 14.4459 10.2699 14.044C10.0036 13.6421 9.6695 13.3305 9.26999 13.1092C8.87048 12.888 8.40325 12.7773 7.87057 12.7773C7.57489 12.7773 7.30629 12.8225 7.07155 12.9128L7.0693 12.9173Z" fill="white"/>
<path d="M38.6711 29.8538H33.1163L31.3828 26.424C31.2948 27.0472 31.1391 27.5936 30.9156 28.061C30.6944 28.5284 30.3897 28.919 30.0037 29.2306C29.6178 29.5422 29.1664 29.777 28.6472 29.9328C28.1281 30.0886 27.5277 30.1676 26.846 30.1676C25.9274 30.1676 25.09 30.0367 24.3361 29.777C23.58 29.5174 22.9074 29.1222 22.3137 28.5894C21.7201 28.0565 21.2032 27.3995 20.7586 26.6205C20.3139 25.8415 19.928 24.9316 19.6029 23.8929L14.8923 8.41959H21.5599L25.7378 22.1386C25.8552 22.554 25.9883 22.913 26.1373 23.2111C26.2863 23.5091 26.4556 23.7575 26.6474 23.9516C26.8393 24.1458 27.0537 24.2903 27.2907 24.3806C27.5277 24.471 27.794 24.5161 28.0897 24.5161C28.3854 24.5161 28.6382 24.4777 28.8458 24.3987C29.0535 24.3197 29.216 24.191 29.3356 24.0081C29.453 23.8275 29.5275 23.5926 29.5568 23.3059C29.5862 23.0191 29.5794 22.6759 29.5343 22.274C29.4891 21.8721 29.3943 21.4115 29.2454 20.8899L25.4669 8.41733H32.1345L38.6688 29.8538H38.6711Z" fill="white"/>
<path d="M42.2258 13.8724L49.514 37.648H42.8465L33.9128 8.41507H39.4676L42.2235 13.8724H42.2258ZM48.6473 29.4632C47.7129 28.9958 46.8619 28.2936 46.0923 27.3588C45.3203 26.424 44.6184 25.268 43.9818 23.8907C43.3453 22.5134 42.7585 20.9283 42.2258 19.1355C41.6615 17.3428 41.3139 15.7577 41.1808 14.3804C41.0476 13.0031 41.1131 11.8471 41.3816 10.9123C41.648 9.97753 42.1152 9.27532 42.7811 8.80794C43.4469 8.34055 44.3136 8.10574 45.3813 8.10574C46.6836 8.10574 47.9002 8.4512 49.0265 9.1376C50.1528 9.82625 51.1663 10.7497 52.0714 11.9058C52.9742 13.0618 53.7371 14.3488 54.3601 15.7645C54.983 17.1802 55.4638 18.6298 55.8046 20.111C56.1455 21.5921 56.3147 22.9943 56.3147 24.3197C56.3147 24.9948 56.247 25.6315 56.1139 26.2299C55.9807 26.8282 55.7956 27.3678 55.5586 27.8465C55.3216 28.3274 55.0169 28.7429 54.6467 29.0929C54.2766 29.4428 53.8477 29.7093 53.3579 29.8922C52.8681 30.0728 52.3287 30.1654 51.7351 30.1654C50.6087 30.1654 49.5795 29.9306 48.6451 29.4632H48.6473ZM48.4035 25.0196C48.5525 24.9677 48.6857 24.8841 48.8031 24.7667C48.9204 24.6493 49.0175 24.5071 49.092 24.3377C49.1665 24.1684 49.2184 23.9742 49.2477 23.7529C49.277 23.5317 49.2928 23.2923 49.2928 23.0327C49.2928 22.3824 49.1958 21.6373 49.0039 20.7906C48.8098 19.9461 48.5525 19.0949 48.2252 18.2369C47.8979 17.3789 47.521 16.5796 47.0922 15.839C46.6633 15.0984 46.2096 14.5001 45.7356 14.0463C45.2616 13.5924 44.7718 13.3644 44.2685 13.3644C43.7358 13.3644 43.3634 13.5586 43.158 13.9492C42.9503 14.3398 42.9052 14.9562 43.0248 15.8006C43.1422 16.6451 43.4085 17.756 43.8238 19.1333C44.1489 20.199 44.4694 21.109 44.7786 21.8608C45.0901 22.615 45.4083 23.2314 45.7334 23.7123C46.0584 24.1932 46.3992 24.5432 46.7558 24.7645C47.1125 24.9858 47.4962 25.0964 47.9115 25.0964C48.0898 25.0964 48.2523 25.0716 48.4013 25.0174L48.4035 25.0196Z" fill="white"/>
<path d="M63.0701 29.1516C61.6481 28.4765 60.4248 27.5869 59.4023 26.4805C58.3798 25.3764 57.5492 24.1368 56.9127 22.7572C56.2762 21.3799 55.8089 19.989 55.5133 18.5869C55.2176 17.1847 55.0686 15.8594 55.0686 14.6107C55.0686 13.7798 55.1724 13.0257 55.3801 12.3506C55.5877 11.6755 55.8902 11.0704 56.292 10.5375C56.6915 10.0046 57.1813 9.55757 57.7591 9.19179C58.3369 8.82827 59.0095 8.55506 59.7815 8.37217C60.5511 8.19154 61.4111 8.09896 62.3591 8.09896C64.2257 8.09896 65.8915 8.48959 67.3586 9.26856C68.8257 10.0475 70.0694 11.0613 71.0919 12.3099C72.1144 13.5563 72.8998 14.8952 73.4483 16.3245C73.9968 17.7537 74.2699 19.1175 74.2699 20.418V20.768H60.5805L59.3368 16.7535H68.4037L66.8937 18.7404C66.9523 18.5327 66.9885 18.3566 67.0043 18.2143C67.0178 18.0721 67.0268 17.9231 67.0268 17.765C67.0268 17.1418 66.9388 16.5254 66.7605 15.9135C66.5822 15.3039 66.3316 14.7439 66.0043 14.2382C65.6771 13.7324 65.2934 13.3283 64.8487 13.0302C64.4041 12.7322 63.9143 12.5832 63.3816 12.5832C63.1739 12.5832 62.9888 12.6102 62.8263 12.6599C62.6638 12.7118 62.5148 12.7841 62.3817 12.8744C62.2485 12.9647 62.1289 13.0889 62.025 13.2447C61.9212 13.4005 61.8467 13.5834 61.8038 13.7911C61.7587 13.9988 61.7384 14.2472 61.7384 14.5317C61.7384 15.2859 61.8196 16.1551 61.9822 17.1441C62.1447 18.1331 62.3884 19.1198 62.7157 20.1065C63.0408 21.0954 63.4335 22.0099 63.8939 22.8543C64.3521 23.6988 64.878 24.3807 65.4717 24.9C66.063 25.4193 66.7311 25.6789 67.4715 25.6789C67.9748 25.6789 68.3676 25.5615 68.6497 25.329C68.9318 25.0942 69.1237 24.7374 69.2275 24.2565C69.3313 23.7755 69.3381 23.1456 69.2501 22.3666L75.1163 23.0688C75.324 24.4981 75.1841 25.7376 74.6943 26.7921C74.2045 27.8443 73.3987 28.6706 72.2724 29.2667C71.1461 29.8651 69.7241 30.1631 68.0064 30.1631C66.1398 30.1631 64.4943 29.8267 63.0723 29.1493L63.0701 29.1516Z" fill="white"/>
<path d="M71.9134 8.41508H77.4682L80.2241 13.8724L85.113 29.8538H78.4455L71.9111 8.41734L71.9134 8.41508ZM85.9143 15.2362C85.648 15.1843 85.3726 15.1391 85.0927 15.1007C84.8106 15.0623 84.551 15.042 84.314 15.042C83.84 15.042 83.4247 15.1075 83.0703 15.2362C82.7137 15.3671 82.4248 15.5681 82.2036 15.8413C81.9824 16.1145 81.8334 16.4532 81.7589 16.8551C81.6845 17.2593 81.6777 17.7266 81.7364 18.2572C81.7951 18.7901 81.9147 19.3817 82.093 20.0297L79.7366 18.5485C79.3799 16.9635 79.1949 15.5274 79.1813 14.2404C79.1655 12.9534 79.3077 11.8561 79.6034 10.9462C79.8991 10.0363 80.3505 9.3363 80.9599 8.84182C81.5671 8.34734 82.3165 8.10123 83.2035 8.10123C83.3525 8.10123 83.4924 8.10801 83.6256 8.12155C83.7588 8.1351 83.8558 8.15542 83.9145 8.18026L85.9143 15.2362Z" fill="white"/>
<path d="M82.0029 0.620807H88.6705L92.0042 11.4948C92.1825 10.7407 92.485 10.1107 92.9161 9.60498C93.3449 9.09921 93.8776 8.72214 94.5164 8.47377C95.1529 8.22766 95.8865 8.10348 96.7171 8.10348C97.8434 8.10348 98.8726 8.34507 99.8071 8.82374C100.742 9.30468 101.547 10.0069 102.229 10.9281C102.911 11.8516 103.459 13.0009 103.874 14.3782L108.585 29.8515H101.917L97.6064 15.7419C97.4574 15.2746 97.2791 14.8907 97.0737 14.5927C96.866 14.2946 96.6133 14.0801 96.3176 13.9492C96.0219 13.8205 95.6946 13.755 95.3402 13.755C94.9543 13.755 94.6225 13.8272 94.3403 13.9695C94.0582 14.1117 93.8438 14.3398 93.6971 14.6514C93.5481 14.963 93.4962 15.392 93.5413 15.9384C93.5865 16.4848 93.7264 17.1463 93.9634 17.9253L97.6087 29.8515H90.9411L82.0074 0.618561L82.0029 0.620807Z" fill="white"/>
<path d="M127.337 29.8538H121.783L120.049 26.424C119.961 27.0472 119.805 27.5936 119.582 28.061C119.361 28.5284 119.056 28.919 118.67 29.2306C118.284 29.5422 117.833 29.777 117.313 29.9328C116.794 30.0886 116.194 30.1676 115.515 30.1676C114.596 30.1676 113.759 30.0367 113.002 29.777C112.246 29.5174 111.574 29.1222 110.98 28.5894C110.386 28.0565 109.869 27.3995 109.425 26.6205C108.98 25.8415 108.594 24.9316 108.269 23.8929L103.559 8.41959H110.226L114.404 22.1386C114.521 22.554 114.655 22.913 114.804 23.2111C114.953 23.5091 115.122 23.7575 115.314 23.9516C115.506 24.1458 115.72 24.2903 115.957 24.3806C116.194 24.471 116.46 24.5161 116.756 24.5161C117.052 24.5161 117.304 24.4777 117.512 24.3987C117.72 24.3197 117.882 24.191 118.002 24.0081C118.119 23.8275 118.194 23.5926 118.223 23.3059C118.252 23.0191 118.246 22.6759 118.201 22.274C118.155 21.8721 118.061 21.4115 117.912 20.8899L114.133 8.41733H120.801L127.335 29.8538H127.337Z" fill="white"/>
<path d="M122.582 8.41507H128.136L129.958 12.039C130.136 11.1562 130.439 10.4291 130.87 9.85561C131.299 9.28436 131.84 8.84858 132.493 8.55054C133.145 8.2525 133.885 8.10122 134.716 8.10122C135.547 8.10122 136.361 8.24347 137.072 8.53023C137.783 8.81698 138.436 9.23244 139.027 9.77659C139.618 10.323 140.153 11.0116 140.627 11.8426C140.776 11.2194 140.984 10.673 141.25 10.2056C141.517 9.7382 141.857 9.34758 142.273 9.03599C142.688 8.7244 143.146 8.48959 143.65 8.33379C144.153 8.178 144.717 8.09896 145.338 8.09896C146.137 8.09896 146.893 8.23445 147.604 8.50765C148.315 8.78086 148.967 9.18276 149.559 9.71562C150.15 10.2485 150.676 10.9055 151.136 11.6845C151.595 12.4635 151.987 13.3599 152.315 14.3737L157.025 29.847H150.358L146.18 16.128C146.002 15.5568 145.794 15.0962 145.557 14.744C145.32 14.394 145.06 14.1388 144.778 13.983C144.496 13.8273 144.162 13.7482 143.778 13.7482C143.395 13.7482 143.074 13.8205 142.823 13.9627C142.571 14.105 142.401 14.333 142.313 14.6446C142.225 14.9562 142.203 15.3468 142.246 15.8142C142.291 16.2816 142.415 16.8528 142.623 17.5302L146.401 29.847H139.734L135.556 16.128C135.377 15.5568 135.17 15.0962 134.933 14.744C134.696 14.394 134.429 14.1388 134.134 13.983C133.838 13.8273 133.511 13.7482 133.156 13.7482C132.77 13.7482 132.452 13.8205 132.201 13.9627C131.949 14.105 131.779 14.333 131.691 14.6446C131.603 14.9562 131.581 15.3468 131.624 15.8142C131.669 16.2816 131.793 16.8528 132.001 17.5302L135.779 29.847H129.111L122.577 8.41055L122.582 8.41507Z" fill="white"/>
<path d="M153.782 12.2738C153.93 11.3391 154.278 10.5578 154.827 9.93464C155.375 9.31146 156.122 8.85085 157.07 8.55055C158.018 8.2525 159.174 8.10123 160.537 8.10123C161.9 8.10123 163.182 8.24348 164.293 8.53023C165.403 8.81699 166.39 9.25049 167.247 9.83529C168.107 10.4201 168.841 11.1539 169.448 12.0367C170.055 12.9196 170.536 13.9469 170.893 15.1165L173.827 24.7442C173.886 24.9271 173.96 25.0693 174.048 25.1732C174.136 25.277 174.249 25.3628 174.382 25.4261C174.515 25.4915 174.655 25.5232 174.804 25.5232H175.048C175.152 25.5232 175.263 25.5096 175.382 25.4848L176.583 29.6935C176.05 29.8493 175.531 29.9667 175.028 30.0435C174.524 30.1202 173.976 30.1609 173.382 30.1609C172.344 30.1609 171.448 30.0051 170.694 29.6935C169.94 29.3819 169.301 28.8806 168.782 28.192C168.263 27.5033 167.841 26.6002 167.516 25.4825L165.737 19.6752L165.381 18.4672L164.446 15.4281C164.297 14.9088 164.128 14.473 163.936 14.123C163.744 13.7731 163.528 13.4795 163.293 13.247C163.056 13.0122 162.79 12.8451 162.494 12.7412C162.198 12.6373 161.871 12.5854 161.517 12.5854C160.984 12.5854 160.584 12.7096 160.316 12.9557C160.05 13.2041 159.907 13.5924 159.894 14.1253C159.878 14.6582 159.975 15.34 160.183 16.1709L153.872 15.5862C153.664 14.3127 153.635 13.2086 153.784 12.2738H153.782ZM166.803 20.4203L164.225 21.0051C163.781 21.109 163.426 21.2467 163.158 21.4138C162.891 21.5831 162.69 21.7909 162.557 22.037C162.424 22.2853 162.356 22.563 162.356 22.8746C162.356 23.3939 162.451 23.8501 162.645 24.2384C162.837 24.629 163.112 24.9338 163.467 25.1551C163.823 25.3764 164.266 25.487 164.801 25.487C165.126 25.487 165.415 25.4419 165.668 25.3516C165.918 25.2612 166.119 25.1122 166.268 24.9022C166.417 24.6945 166.527 24.4348 166.602 24.1233C166.676 23.8117 166.69 23.4414 166.647 23.0124C166.602 22.5834 166.491 22.0957 166.313 21.5515L168.135 21.5899C168.372 22.7075 168.469 23.7146 168.423 24.611C168.378 25.5073 168.223 26.2999 167.956 26.9885C167.69 27.6772 167.32 28.262 166.846 28.7429C166.372 29.2238 165.816 29.5806 165.18 29.8154C164.543 30.0502 163.823 30.1654 163.024 30.1654C161.395 30.1654 160.038 29.8222 158.957 29.1335C157.876 28.4449 157.068 27.5553 156.535 26.4624C156.003 25.3719 155.736 24.2158 155.736 22.9943C155.736 21.9557 155.987 21.0593 156.492 20.3052C156.996 19.551 157.722 18.9143 158.67 18.395C159.618 17.8757 160.774 17.4467 162.137 17.108L165.559 16.2906L166.803 20.4226V20.4203Z" fill="white"/>
<path d="M170.537 8.41508H176.092L178.004 12.1564C178.153 11.2465 178.433 10.4946 178.848 9.89626C179.263 9.29791 179.809 8.85085 180.493 8.55055C181.175 8.2525 181.96 8.10123 182.85 8.10123C183.976 8.10123 185.005 8.34282 185.94 8.8215C186.874 9.30243 187.68 10.0046 188.362 10.9259C189.043 11.8493 189.592 12.9986 190.007 14.3759L194.718 29.8493H188.05L183.739 15.7397C183.59 15.2723 183.412 14.8885 183.206 14.5904C182.999 14.2924 182.755 14.0779 182.473 13.9469C182.191 13.8182 181.843 13.7527 181.428 13.7527C181.071 13.7527 180.753 13.825 180.473 13.9672C180.191 14.1095 179.983 14.3375 179.85 14.6491C179.717 14.9607 179.665 15.3897 179.694 15.9361C179.724 16.4825 179.857 17.1441 180.094 17.9231L183.739 29.8493H177.071L170.537 8.41282V8.41508Z" fill="white"/>
<path d="M198.049 12.9173C197.812 13.0076 197.633 13.1454 197.516 13.326C197.396 13.5089 197.338 13.7166 197.338 13.9492C197.338 14.2879 197.419 14.5791 197.582 14.8252C197.744 15.0736 198.026 15.2926 198.426 15.4868C198.825 15.681 199.38 15.8842 200.091 16.0919L202.802 16.9093C204.373 17.4038 205.698 18.0066 206.779 18.7224C207.86 19.4381 208.669 20.2758 209.201 21.2354C209.734 22.1973 210 23.263 210 24.4326C210 25.6022 209.682 26.5753 209.045 27.4333C208.409 28.2913 207.533 28.9597 206.423 29.4406C205.312 29.9215 204.03 30.1609 202.579 30.1609C200.859 30.1609 199.371 29.8809 198.112 29.3232C196.853 28.7655 195.801 27.9662 194.957 26.9253C194.112 25.8867 193.453 24.6268 192.979 23.1456L198.579 22.3666C198.758 23.2765 199.105 24.0239 199.624 24.6087C200.141 25.1935 200.848 25.4848 201.735 25.4848C202.001 25.4848 202.252 25.4531 202.491 25.3877C202.728 25.3222 202.935 25.2319 203.114 25.1145C203.292 24.9971 203.425 24.848 203.513 24.6651C203.601 24.4845 203.646 24.2745 203.646 24.042C203.646 23.7575 203.579 23.491 203.446 23.2427C203.312 22.9966 203.06 22.7685 202.689 22.5608C202.319 22.3531 201.793 22.1453 201.112 21.9376L198.446 21.1203C196.787 20.6009 195.401 19.9958 194.291 19.3072C193.18 18.6185 192.35 17.8011 191.801 16.8506C191.253 15.9022 190.979 14.7914 190.979 13.5179C190.979 12.5312 191.239 11.6281 191.758 10.8084C192.277 9.98882 193.047 9.33404 194.069 8.83956C195.092 8.34508 196.342 8.09896 197.825 8.09896C199.218 8.09896 200.565 8.34734 201.87 8.83956C203.172 9.33404 204.321 10.0746 205.314 11.0613C206.308 12.0503 206.996 13.2695 207.382 14.7259L201.915 15.5049C201.737 14.9336 201.516 14.4459 201.249 14.044C200.983 13.6421 200.649 13.3305 200.249 13.1092C199.85 12.888 199.383 12.7773 198.85 12.7773C198.554 12.7773 198.286 12.8225 198.051 12.9128L198.049 12.9173Z" fill="white"/>
</svg>
